<?xml version="1.0" encoding="utf-8"?>
<!-- Generator: Adobe Illustrator 27.0.1, SVG Export Plug-In . SVG Version: 6.00 Build 0)  -->
<svg version="1.1" id="Ebene_1" xmlns="http://www.w3.org/2000/svg" xmlns:xlink="http://www.w3.org/1999/xlink" x="0px" y="0px"
	 viewBox="0 0 1280 490" style="enable-background:new 0 0 1280 490;" xml:space="preserve">
<style type="text/css">
	.st0{fill:#FAC8AA;}
</style>
<path class="st0" d="M658.5,72.5l-1.3-7.4l-2.2,9.1c-0.3,1.4-1.5,2.2-2.8,1.8c-0.7-0.2-1.2-0.5-1.5-1c-0.3-0.5-0.4-1.2-0.2-1.9
	l3.9-16.1c0.2-0.9,0.6-1.5,1.2-1.9c0.6-0.4,1.3-0.5,2.1-0.3c1.6,0.4,2.1,1.5,2.4,3.1l1.9,10.6l6.4-8.5c1-1.3,1.9-2.1,3.5-1.7
	c0.8,0.2,1.4,0.6,1.7,1.3c0.3,0.6,0.4,1.4,0.2,2.3L670,77.9c-0.3,1.2-1.1,1.9-2.2,1.9c-0.2,0-0.4,0-0.6-0.1c-0.7-0.2-1.2-0.5-1.5-1
	c-0.3-0.5-0.4-1.2-0.2-1.9l2.2-9.1l-4.5,6c-1,1.4-1.7,1.7-2.9,1.4C659.2,74.8,658.8,74.2,658.5,72.5 M632,73l-0.3-16.8
	c0-1.4,0.8-2.3,2.2-2.3l10.2-0.2c0,0,0,0,0.1,0c1.4,0,2.3,0.9,2.3,2.2c0,1.3-1,2.2-2.3,2.2l-7.4,0.1l0.1,4.3l5.9-0.1
	c0.7,0,1.3,0.2,1.7,0.6c0.4,0.4,0.6,0.9,0.7,1.6c0,0.6-0.2,1.2-0.6,1.6c-0.4,0.4-1,0.6-1.7,0.6L637,67l0.1,6c0,1.6-1,2.7-2.5,2.7
	c0,0,0,0,0,0C633.1,75.6,632.1,74.5,632,73 M613.2,74.9L613.2,74.9L613.2,74.9l0.1,0.2L613.2,74.9z M618.4,71.1
	c0,1.5-1.1,2.6-3.2,3.2l-2,0.6l-3.4-12l2-0.6c2.1-0.6,3.5-0.2,4.4,1.1c0.4,0.7,0.9,2,1.4,3.8C618.2,69,618.4,70.3,618.4,71.1
	 M620.5,60.4c-2-3-5.1-3.8-9.7-2.5l-4.8,1.3c-1.3,0.4-1.9,1.5-1.5,2.8l4.6,16.5c0.3,1.1,1.1,1.7,2,1.7c0.2,0,0.5,0,0.7-0.1l4.8-1.3
	c4.6-1.3,6.8-3.6,7-7.2c0.1-1.2-0.1-2.6-0.9-5.7C621.8,62.7,621.1,61.4,620.5,60.4 M694.9,161c0.4-2.6-0.8-4.9-3.5-4.9
	c-1.9,0-4.9,0.7-6.6,6.5l-1.4,5.2c0.6-0.3,1.3-0.4,2-0.3C691.8,168.1,694.5,164.6,694.9,161 M711.3,178.1c-1.6,5.3-6.5,10.6-14,10.6
	c-8.3,0-13.6-4.7-15.8-13.9l-3.1,11.3c-0.5,1.8-2.2,3-4,3c-0.4,0-0.7,0-1.1-0.1c-2.2-0.6-3.5-2.9-2.9-5l0.2-0.7
	c-3.1,3.1-6.9,5-10.5,5c-3.6,0-8-1.6-10.9-5.7c-4.1,3.8-8.4,5.7-13.1,5.7c-3.4,0-6.5-1.5-8.7-3.9c-2.3,2.3-5.5,3.9-9.7,3.9
	c-3.6,0-6.9-1.6-8.9-4.3c-2.4-3.2-3-7.5-1.6-12.2c1.1-3.7,5.7-20.1,5.7-20.1c0.6-2.2,2.8-3.4,5-2.8c2.2,0.6,3.5,2.8,3,5
	c0,0-4.6,16.5-5.7,20.3c-0.6,2.1-0.5,3.9,0.3,4.9c0.7,0.9,1.6,1.1,2.4,1.1c1.8,0,5.1,0,7.9-9.7c2.8-9.5,5.1-18.6,5.2-18.7
	c0.6-2.2,2.8-3.5,5-2.9c2.2,0.6,3.5,2.8,2.9,5c0,0.1-2.4,9.3-5.2,18.9c-0.1,0.5-0.3,1-0.5,1.5c-0.6,2-0.4,3.6,0.4,4.7
	c0.6,0.8,1.5,1.2,2.6,1.2c3.4,0,6.8-2.2,10.1-6.4c0-0.6-0.1-1.3-0.1-2c0-15.9,10.2-23.1,17.5-23.1c3.3,0,5.8,0.7,7.6,2.1
	c1.8,1.4,2.1,4,0.7,5.8c-0.8,1.1-1.7,1.3-3.4,1.3c-1.5,0-2.6-1-5-1c-3.7,0-9.3,4.7-9.3,14.9c0,6.9,4.1,8.3,7.6,8.3
	c4,0,10.9-4.8,13.2-13.7c0,0,0,0,0-0.1l1.5-5.6c0,0,0-0.1,0-0.1c0-0.2,0.1-0.3,0.2-0.5l7.5-27.9c0.6-2.2,2.9-3.5,5-2.9
	c2.2,0.6,3.5,2.9,2.9,5l-3.7,13.7c0.9-0.2,1.8-0.2,2.7-0.2c3.4,0,6.5,1.4,8.7,3.8c2.4,2.7,3.4,6.4,3,10.3c-0.7,6.1-5,12.2-12.9,13.5
	c1.8,4.5,4.5,5,7.1,5c3.2,0,5.4-2.4,6.1-4.8c0.7-2.2,3-3.4,5.1-2.7C710.8,173.6,712,175.9,711.3,178.1 M738.8,135.1l-8.9,32.9
	c-0.5,1.8-2.2,3-4,3c-0.4,0-0.7,0-1.1-0.1c-2.2-0.6-3.5-2.9-2.9-5l8.9-32.9c0.6-2.2,2.9-3.5,5-2.9
	C738.1,130.6,739.4,132.9,738.8,135.1 M726.6,181.7c0,2.6-2.1,4.7-4.7,4.7c-2.6,0-4.7-2.1-4.7-4.7c0-2.6,2.1-4.7,4.7-4.7
	C724.5,177,726.6,179.1,726.6,181.7 M581.1,208.4c-2.9-2.1-4.7-3.5-7.6-3.5c-4.4,0-7.8,1.5-7.8,5.7c0,5.1,3.2,6.8,7.1,6.8
	C576,217.4,578.7,214.7,581.1,208.4 M694.1,207c1.6,1.6,1.6,4.2,0,5.8c-14.2,14.2-33.8,22.4-53.9,22.4c-0.1,0-0.1,0-0.2,0
	c-0.1,0-0.1,0-0.2,0c-26.3,0-41.3-12.3-52.2-21.5c-3.4,7.2-7.9,11.9-14.7,11.9c-7.5,0-15.6-4.7-15.6-15c0-6.7,5-14,16.1-14
	c3.7,0,7,1.4,10.4,3.6c1.4-4.8,2.6-10,3.8-15.1c-3.4,2.2-7.3,3.3-11.6,3.3c-4.6,0-8.6-1.9-11.2-5.3c-2.4-3.2-4.7-9.1-2-19.1
	c0.8-2.8,2-7,3.4-11.3c1.8-6,3.9-12.7,4.5-15.6c0.6-3.1,0.5-7.7-1.9-10.7c-1.6-2-4.2-3-7.8-3c-5.6,0-10,3.7-11.6,9.5
	c-1,3.7-0.7,6.8,0.8,9c1.3,1.9,3.5,3.1,6.2,3.4c2.3,0.3,3.9,2.3,3.6,4.5c-0.3,2.3-2.3,3.9-4.5,3.6c-5-0.6-9.4-3.1-12-6.9
	c-2-2.9-4-8.1-2-15.8c2.5-9.5,10.2-15.7,19.5-15.7c7.7,0,12,3.3,14.2,6c4.2,5.2,4.6,12.4,3.5,17.5c-0.7,3.2-2.7,9.8-4.7,16.3
	c-1.3,4.2-2.5,8.3-3.3,11.1c-1.4,5.3-1.2,9.6,0.6,12c1.3,1.7,3.3,2.1,4.7,2.1c3.5,0,12.8,0,18.5-23.3c0,0,0,0,0,0
	c4-15.9,8-31,8-31.2c0.6-2.2,2.8-3.5,5-2.9c2.2,0.6,3.5,2.8,2.9,5c-0.1,0.3-9.1,34.9-13.8,54.6l-1,4.2c-1.6,6.7-3.1,13.2-4.9,18.9
	c0.6,0.5,1.2,1,1.7,1.5c10.5,8.9,23.6,19.9,47.3,19.9c0.1,0,0.1,0,0.2,0c0.1,0,0.1,0,0.2,0c17.9,0,35.4-7.3,48-20
	C689.9,205.4,692.5,205.4,694.1,207 M697.8,120.3c-1.3,0-2.5-0.6-3.3-1.6c-12.7-17-33-27.2-54.3-27.2c-16,0-31.5,5.7-43.8,16
	c-1.7,1.5-4.3,1.2-5.8-0.5c-1.5-1.7-1.2-4.3,0.5-5.8c13.7-11.6,31.1-18,49.1-18c23.8,0,46.6,11.4,60.9,30.5c1.4,1.8,1,4.4-0.8,5.8
	C699.6,120,698.7,120.3,697.8,120.3 M639.9,35.9c68.1,0,123.4,55.2,123.4,123.4S708,282.6,639.9,282.6s-123.4-55.2-123.4-123.4
	S571.8,35.9,639.9,35.9 M639.9,44.1c-63.5,0-115.1,51.6-115.1,115.1c0,63.5,51.7,115.1,115.1,115.1S755,222.7,755,159.2
	C755,95.7,703.4,44.1,639.9,44.1 M665.6,253.7l-3.6-5.8l-0.5,6.8L665.6,253.7z M672.1,260.9c-1.1,0.3-2.1-0.2-2.7-1.2l-1.4-2.1
	l-7,1.7l-0.2,2.5c-0.1,1.2-0.8,2-1.9,2.3c-0.2,0.1-0.4,0.1-0.6,0.1c-0.4,0-0.8-0.1-1.2-0.3c-0.6-0.3-1-0.8-1.1-1.5
	c-0.1-0.3-0.1-0.7-0.1-1l1.8-16.7c0.2-2,1-3.2,2.6-3.6c1.6-0.4,2.9,0.2,4,1.9l9.2,14c0.2,0.3,0.3,0.6,0.4,0.9
	C674.3,259.4,673.3,260.6,672.1,260.9 M642.5,252.2l-1.1-0.1c-2.7-0.3-3.1-1.3-3.1-2c0-0.6,0.2-1.1,0.6-1.5c0.4-0.4,1.1-0.6,2-0.6
	c1.2,0,2.4,0.3,3.5,0.8c0.5,0.2,1,0.3,1.4,0.3c1.3,0,2.2-1,2.2-2.3c0-0.9-0.4-1.5-1.2-2c-1.4-0.8-3.8-1.4-6-1.3
	c-4.7,0.1-7.7,2.8-7.6,6.8c0.1,3.7,2.4,5.9,7,6.5l1.1,0.1c2.5,0.3,3.1,1,3.1,2.1c0,0.7-0.3,1.2-0.8,1.6c-0.6,0.4-1.4,0.7-2.4,0.7
	c0,0-0.1,0-0.1,0c-1.4,0-2.6-0.3-4.3-1.3c-0.3-0.2-0.8-0.4-1.5-0.4c-0.6,0-1.2,0.3-1.6,0.7c-0.4,0.4-0.6,1-0.6,1.6
	c0,0.9,0.5,1.6,1.2,2.1l0,0c1.1,0.7,3.4,1.7,6.6,1.7c0.1,0,0.2,0,0.2,0c2.7,0,4.9-0.8,6.3-2.1c1.4-1.2,2.1-3,2.1-5
	C649.4,254.9,647.1,252.8,642.5,252.2 M627.4,243.8c0.3,0.6,0.4,1.3,0.2,2l-2.6,10.8c-0.6,2.5-1.9,4.4-3.7,5.5c-1.1,0.7-2.4,1-3.9,1
	c-0.8,0-1.6-0.1-2.4-0.3c-2.5-0.6-4.3-1.8-5.4-3.5c-1.1-1.8-1.4-4-0.8-6.6l2.6-10.8c0.4-1.5,1.6-2.3,3.1-2c1.4,0.3,2.2,1.7,1.8,3.2
	l-2.6,10.9c-0.3,1.1-0.2,2.1,0.3,2.9c0.4,0.7,1.1,1.2,2.1,1.5c1,0.2,1.8,0.1,2.5-0.4c0.7-0.5,1.2-1.3,1.5-2.5l2.6-10.9
	c0.4-1.5,1.6-2.4,3.1-2C626.5,242.9,627,243.3,627.4,243.8 M705,322.8c-3.7,1.3-7.4,2-10.9,2c-7.3,0-13.4-2.8-15.2-7.8
	c-2.7-7.3,4.8-17.1,16.2-21.3c3.7-1.3,7.4-2,10.9-2c7.3,0,13.4,2.8,15.2,7.8C723.9,308.9,716.5,318.7,705,322.8 M729,298.8
	c-3-8.2-11.8-13.2-23-13.2c-4.5,0-9.2,0.9-13.7,2.5c-7,2.5-13.1,6.9-17.1,12.2c-3.8,5-5.5,10.4-4.9,15.6l-31.2,11.4l-36.5-13.3
	c1.3-9.4-4.2-19-13.8-22.4c0,0,0,0,0,0c0,0,0,0,0,0l-32.5-11.8c-2.1-0.8-4.5,0.3-5.3,2.5c-0.8,2.1,0.3,4.5,2.5,5.3l32.5,11.8
	c0,0,0,0,0,0c0,0,0,0,0,0c6.7,2.4,10.2,9.6,7.9,15.9c-2.3,6.4-9.6,9.5-16.3,7.1c0,0,0,0,0,0c0,0,0,0,0,0L545,310.3
	c-2.1-0.8-4.5,0.3-5.3,2.5c-0.8,2.1,0.3,4.5,2.5,5.3l32.5,11.8c0,0,0,0,0,0c0,0,0,0,0,0c9.6,3.5,20-0.2,25-8.3l27.3,9.9l-48.8,17.8
	c-2.1,0.8-3.2,3.1-2.5,5.3c0.8,2.1,3.1,3.2,5.3,2.5l58-21.1l58.6,21.3c2.1,0.8,4.5-0.3,5.3-2.5c0.8-2.1-0.3-4.5-2.5-5.3l-49.3-18
	l22-8c4,6,11.7,9.6,21.1,9.6c4.5,0,9.2-0.9,13.7-2.5c7-2.6,13.1-6.9,17.1-12.2C729.8,312.1,731.2,305,729,298.8 M547.8,302.6
	l32.5,11.8c2.1,0.8,4.5-0.3,5.3-2.5c0.8-2.1-0.3-4.5-2.5-5.3l-32.5-11.8c-2.1-0.8-4.5,0.3-5.3,2.5
	C544.6,299.5,545.7,301.9,547.8,302.6 M741.8,432.7c0-2,1.2-3.2,3-3.2c1.6,0,2.5,0.9,3.4,2.8l5.3,12.1h0.1l5.2-12.1
	c0.8-1.9,1.7-2.8,3.3-2.8c1.8,0,2.9,1.3,2.9,3.2v19.6c0,1.7-1,2.6-2.5,2.6c-1.5,0-2.5-1-2.5-2.6v-12.1H760l-3.9,9
	c-0.8,1.8-1.4,2.3-2.7,2.3c-1.3,0-1.9-0.5-2.7-2.3l-3.9-9h-0.2v12.1c0,1.7-1,2.6-2.4,2.6c-1.5,0-2.5-1-2.5-2.6V432.7z M716.8,445.5
	v-13.2c0-1.7,1.1-2.9,2.7-2.9c1.5,0,2.7,1.1,2.7,2.9v13.3c0,3,1.8,4.7,4.2,4.7c2.5,0,4.2-1.7,4.2-4.7v-13.3c0-1.7,1.1-2.9,2.7-2.9
	c1.6,0,2.7,1.1,2.7,2.9v13.2c0,6.3-3.9,9.7-9.6,9.7C720.5,455.1,716.8,451.7,716.8,445.5 M695,432.1c0-1.4,0.9-2.4,2.4-2.4h12.2
	c1.5,0,2.5,1,2.5,2.4c0,1.3-1,2.3-2.5,2.3h-8.9c-0.1,0-0.2,0.1-0.2,0.2v5c0,0.1,0.1,0.2,0.2,0.2h7.1c1.5,0,2.5,1,2.5,2.3
	c0,1.4-1,2.3-2.5,2.3h-7.1c-0.1,0-0.2,0.1-0.2,0.2v5.2c0,0.1,0.1,0.2,0.2,0.2h8.9c1.5,0,2.5,1,2.5,2.3c0,1.4-1,2.4-2.5,2.4h-12.2
	c-1.5,0-2.4-1-2.4-2.4V432.1z M672.4,453c-0.8-0.6-1.3-1.4-1.3-2.3c0-1.3,1-2.4,2.4-2.4c0.6,0,1.1,0.2,1.6,0.4
	c2.1,1.1,3.5,1.6,5.4,1.6c2.7,0,4.1-1.2,4.1-2.9c0-1.5-0.9-2.4-3.9-2.8l-1.3-0.2c-5.1-0.7-7.9-3.1-7.9-7.5c0-4.6,3.5-7.7,8.9-7.7
	c2.8,0,5.5,0.7,7,1.7c0.9,0.6,1.3,1.3,1.3,2.2c0,1.4-1,2.4-2.4,2.4c-0.5,0-1.1-0.1-1.6-0.4c-1.2-0.6-2.8-1-4.3-1
	c-2.2,0-3.4,1.1-3.4,2.7c0,1.4,1,2.4,3.9,2.8l1.3,0.2c5.2,0.7,7.9,3.1,7.9,7.6s-3.3,7.9-9.8,7.9C676.7,455.1,674,454,672.4,453
	 M647,445.5v-13.2c0-1.7,1.1-2.9,2.7-2.9c1.5,0,2.7,1.1,2.7,2.9v13.3c0,3,1.8,4.7,4.2,4.7c2.5,0,4.2-1.7,4.2-4.7v-13.3
	c0-1.7,1.1-2.9,2.7-2.9c1.6,0,2.7,1.1,2.7,2.9v13.2c0,6.3-3.9,9.7-9.6,9.7C650.7,455.1,647,451.7,647,445.5 M617.1,432.7
	c0-2,1.2-3.2,3-3.2c1.6,0,2.5,0.9,3.4,2.8l5.3,12.1h0.1l5.2-12.1c0.8-1.9,1.7-2.8,3.3-2.8c1.8,0,2.9,1.3,2.9,3.2v19.6
	c0,1.7-1,2.6-2.5,2.6c-1.5,0-2.5-1-2.5-2.6v-12.1h-0.2l-3.9,9c-0.8,1.8-1.4,2.3-2.7,2.3c-1.3,0-1.9-0.5-2.7-2.3l-3.9-9h-0.2v12.1
	c0,1.7-1,2.6-2.4,2.6c-1.5,0-2.5-1-2.5-2.6V432.7z M590.2,449.9h2.5c2.5,0,4.3-0.8,4.9-2.8c0.3-0.8,0.4-2.3,0.4-4.9s-0.2-4-0.4-4.9
	c-0.6-2-2.4-2.8-4.9-2.8h-2.5c-0.1,0-0.2,0.1-0.2,0.2v15C590,449.8,590,449.9,590.2,449.9 M584.6,432.1c0-1.4,0.9-2.4,2.4-2.4h5.9
	c5.3,0,8.7,1.7,10,5.8c0.5,1.4,0.7,3.2,0.7,6.7s-0.3,5.3-0.7,6.7c-1.3,4.1-4.6,5.8-10,5.8h-5.9c-1.5,0-2.4-0.9-2.4-2.4V432.1z
	 M573.4,447.6c0.3-0.9,0.4-2.2,0.4-5.4s-0.1-4.5-0.4-5.4c-0.6-1.7-1.9-2.7-3.9-2.7c-2.1,0-3.4,1-3.9,2.7c-0.3,0.9-0.4,2.2-0.4,5.4
	s0.1,4.5,0.4,5.4c0.6,1.7,1.9,2.7,3.9,2.7C571.5,450.3,572.9,449.3,573.4,447.6 M560.3,449.1c-0.6-1.8-0.7-3.2-0.7-6.9
	c0-3.7,0.1-5.1,0.7-6.9c1.3-4.1,4.8-6.1,9.1-6.1c4.4,0,7.8,2,9.1,6.1c0.6,1.8,0.7,3.2,0.7,6.9c0,3.7-0.1,5.1-0.7,6.9
	c-1.3,4.1-4.8,6.1-9.1,6.1C565.1,455.1,561.7,453.1,560.3,449.1 M549.2,447.6c0.3-0.9,0.4-2.2,0.4-5.4s-0.1-4.5-0.4-5.4
	c-0.6-1.7-1.9-2.7-3.9-2.7c-2.1,0-3.4,1-3.9,2.7c-0.3,0.9-0.4,2.2-0.4,5.4s0.1,4.5,0.4,5.4c0.6,1.7,1.9,2.7,3.9,2.7
	C547.3,450.3,548.6,449.3,549.2,447.6 M536.1,449.1c-0.6-1.8-0.7-3.2-0.7-6.9c0-3.7,0.1-5.1,0.7-6.9c1.3-4.1,4.8-6.1,9.1-6.1
	c4.4,0,7.8,2,9.1,6.1c0.6,1.8,0.7,3.2,0.7,6.9c0,3.7-0.1,5.1-0.7,6.9c-1.3,4.1-4.8,6.1-9.1,6.1C540.9,455.1,537.4,453.1,536.1,449.1
	 M515.9,432.1c0-1.4,0.9-2.4,2.4-2.4h12.2c1.5,0,2.5,1,2.5,2.4c0,1.3-1,2.3-2.5,2.3h-8.9c-0.1,0-0.2,0.1-0.2,0.2v5.3
	c0,0.1,0.1,0.2,0.2,0.2h7.1c1.6,0,2.5,1,2.5,2.3c0,1.4-0.9,2.3-2.5,2.3h-7.1c-0.1,0-0.2,0.1-0.2,0.2v7.1c0,1.7-1.1,2.9-2.7,2.9
	c-1.6,0-2.7-1.1-2.7-2.9V432.1z M725.5,405.4c0-3.7,0.1-5.1,0.7-6.9c1.3-4.1,4.8-6.1,9.2-6.1c4.1,0,6.9,1.7,8.2,3.9
	c0.3,0.5,0.5,1,0.5,1.6c0,1.4-1.1,2.4-2.5,2.4c-0.9,0-1.7-0.3-2.4-1.3c-1-1.3-2.2-1.8-3.8-1.8c-2.1,0-3.5,1.1-4,2.8
	c-0.3,0.9-0.4,2.1-0.4,5.3c0,3.2,0.1,4.5,0.4,5.4c0.6,1.7,1.9,2.8,4.1,2.8c1.9,0,3.5-1,4-2.6c0.2-0.7,0.3-1.5,0.3-2.5
	c0-0.1-0.1-0.2-0.2-0.2h-1.7c-1.4,0-2.3-0.8-2.3-2.1c0-1.3,0.9-2.1,2.3-2.1h5.2c1.4,0,2.1,0.8,2.1,2.1v0.3c0,2.2-0.2,4.3-0.6,5.7
	c-1.3,4-4.7,6.3-9.1,6.3c-4.5,0-7.9-2-9.2-6.1C725.7,410.4,725.5,409,725.5,405.4 M700.9,395.9c0-2,1.2-3.2,3-3.2
	c1.5,0,2.6,0.9,3.6,2.7l7.7,13.7h0.1v-13.7c0-1.7,1-2.6,2.5-2.6c1.5,0,2.5,1,2.5,2.6v19.6c0,2-1.2,3.2-3,3.2c-1.5,0-2.6-0.9-3.6-2.7
	l-7.7-13.6h-0.1v13.7c0,1.7-1,2.6-2.5,2.6c-1.5,0-2.5-1-2.5-2.6V395.9z M688.9,395.5c0-1.7,1.1-2.9,2.7-2.9c1.5,0,2.7,1.1,2.7,2.9
	v19.7c0,1.7-1.1,2.9-2.7,2.9c-1.6,0-2.7-1.1-2.7-2.9V395.5z M673.1,415.2v-17.4c0-0.1-0.1-0.2-0.2-0.2h-4.2c-1.7,0-2.7-1-2.7-2.4
	c0-1.4,1.1-2.4,2.7-2.4H683c1.7,0,2.7,1,2.7,2.4c0,1.4-1.1,2.4-2.7,2.4h-4.2c-0.1,0-0.2,0.1-0.2,0.2v17.4c0,1.7-1.1,2.9-2.7,2.9
	C674.3,418.1,673.1,417,673.1,415.2 M645.3,416.2c-0.8-0.6-1.3-1.4-1.3-2.3c0-1.3,1-2.4,2.4-2.4c0.6,0,1.1,0.2,1.6,0.4
	c2.1,1.1,3.5,1.6,5.4,1.6c2.7,0,4.1-1.2,4.1-2.9c0-1.5-0.9-2.4-3.9-2.8l-1.3-0.2c-5.1-0.7-7.9-3.1-7.9-7.5c0-4.6,3.5-7.7,8.9-7.7
	c2.8,0,5.5,0.7,7,1.7c0.9,0.6,1.3,1.3,1.3,2.2c0,1.4-1,2.4-2.4,2.4c-0.5,0-1.1-0.1-1.6-0.4c-1.2-0.6-2.8-1-4.3-1
	c-2.2,0-3.4,1.1-3.4,2.7c0,1.4,1,2.4,3.9,2.8l1.3,0.2c5.2,0.7,7.9,3.1,7.9,7.6c0,4.5-3.3,7.9-9.8,7.9
	C649.7,418.3,647,417.2,645.3,416.2 M619.9,408.6v-13.2c0-1.7,1.1-2.9,2.7-2.9c1.5,0,2.7,1.1,2.7,2.9v13.3c0,3,1.8,4.7,4.2,4.7
	c2.5,0,4.2-1.7,4.2-4.7v-13.3c0-1.7,1.1-2.9,2.7-2.9c1.6,0,2.7,1.1,2.7,2.9v13.2c0,6.3-3.9,9.7-9.6,9.7
	C623.7,418.3,619.9,414.9,619.9,408.6 M595.1,405.4c0-3.7,0.1-5.1,0.7-6.9c1.3-4.1,4.8-6.1,9.2-6.1c4.1,0,6.9,1.7,8.2,3.9
	c0.3,0.5,0.5,1,0.5,1.6c0,1.4-1.1,2.4-2.5,2.4c-0.9,0-1.7-0.3-2.4-1.3c-1-1.3-2.2-1.8-3.8-1.8c-2.1,0-3.5,1.1-4,2.8
	c-0.3,0.9-0.4,2.1-0.4,5.3c0,3.2,0.1,4.5,0.4,5.4c0.6,1.7,1.9,2.8,4.1,2.8c1.9,0,3.5-1,4-2.6c0.2-0.7,0.3-1.5,0.3-2.5
	c0-0.1-0.1-0.2-0.2-0.2h-1.7c-1.4,0-2.3-0.8-2.3-2.1c0-1.3,0.9-2.1,2.3-2.1h5.2c1.4,0,2.1,0.8,2.1,2.1v0.3c0,2.2-0.2,4.3-0.6,5.7
	c-1.3,4-4.7,6.3-9.1,6.3s-7.9-2-9.2-6.1C595.3,410.4,595.1,409,595.1,405.4 M573.2,416.2c-0.8-0.6-1.3-1.4-1.3-2.3
	c0-1.3,1-2.4,2.4-2.4c0.6,0,1.1,0.2,1.6,0.4c2.1,1.1,3.5,1.6,5.4,1.6c2.7,0,4.1-1.2,4.1-2.9c0-1.5-0.9-2.4-3.9-2.8l-1.3-0.2
	c-5.1-0.7-7.9-3.1-7.9-7.5c0-4.6,3.5-7.7,8.9-7.7c2.8,0,5.5,0.7,7,1.7c0.9,0.6,1.3,1.3,1.3,2.2c0,1.4-1,2.4-2.4,2.4
	c-0.5,0-1.1-0.1-1.6-0.4c-1.2-0.6-2.8-1-4.3-1c-2.2,0-3.4,1.1-3.4,2.7c0,1.4,1,2.4,3.9,2.8l1.3,0.2c5.2,0.7,7.9,3.1,7.9,7.6
	c0,4.5-3.3,7.9-9.8,7.9C577.5,418.3,574.9,417.2,573.2,416.2 M561.4,395.5c0-1.7,1.1-2.9,2.7-2.9c1.5,0,2.7,1.1,2.7,2.9v19.7
	c0,1.7-1.1,2.9-2.7,2.9c-1.6,0-2.7-1.1-2.7-2.9V395.5z M542.1,413.1h2.5c2.5,0,4.3-0.8,4.9-2.8c0.3-0.8,0.4-2.3,0.4-4.9
	c0-2.5-0.2-4-0.4-4.9c-0.6-2-2.4-2.8-4.9-2.8h-2.5c-0.1,0-0.2,0.1-0.2,0.2v15C541.9,413,542,413.1,542.1,413.1 M536.5,395.2
	c0-1.4,0.9-2.4,2.4-2.4h5.9c5.3,0,8.7,1.7,10,5.8c0.5,1.4,0.7,3.2,0.7,6.7s-0.3,5.3-0.7,6.7c-1.3,4.1-4.6,5.8-10,5.8h-5.9
	c-1.5,0-2.4-0.9-2.4-2.4V395.2z"/>
<path class="st0" d="M188.8,184.2l-0.5-2.6l-0.8,3.2c-0.1,0.5-0.5,0.8-1,0.7c-0.2-0.1-0.4-0.2-0.5-0.4c-0.1-0.2-0.1-0.4-0.1-0.7
	l1.4-5.7c0.1-0.3,0.2-0.5,0.4-0.7c0.2-0.1,0.5-0.2,0.8-0.1c0.6,0.1,0.7,0.5,0.8,1.1l0.7,3.7l2.3-3c0.3-0.5,0.7-0.7,1.2-0.6
	c0.3,0.1,0.5,0.2,0.6,0.4c0.1,0.2,0.1,0.5,0.1,0.8l-1.4,5.7c-0.1,0.4-0.4,0.7-0.8,0.7c-0.1,0-0.1,0-0.2,0c-0.2-0.1-0.4-0.2-0.5-0.4
	c-0.1-0.2-0.1-0.4-0.1-0.7l0.8-3.2l-1.6,2.1c-0.4,0.5-0.6,0.6-1,0.5C189.1,185,188.9,184.8,188.8,184.2 M179.5,184.3l-0.1-6
	c0-0.5,0.3-0.8,0.8-0.8l3.6-0.1c0,0,0,0,0,0c0.5,0,0.8,0.3,0.8,0.8c0,0.5-0.3,0.8-0.8,0.8l-2.6,0l0,1.5l2.1,0c0.3,0,0.5,0.1,0.6,0.2
	c0.1,0.1,0.2,0.3,0.2,0.6c0,0.2-0.1,0.4-0.2,0.6c-0.1,0.1-0.4,0.2-0.6,0.2l-2.1,0l0,2.1c0,0.6-0.4,1-0.9,1c0,0,0,0,0,0
	C179.8,185.3,179.5,184.9,179.5,184.3 M172.8,185L172.8,185L172.8,185L172.8,185L172.8,185z M174.6,183.7c0,0.5-0.4,0.9-1.1,1.1
	l-0.7,0.2l-1.2-4.3l0.7-0.2c0.7-0.2,1.3-0.1,1.6,0.4c0.2,0.2,0.3,0.7,0.5,1.3C174.6,182.9,174.6,183.4,174.6,183.7 M175.4,179.9
	c-0.7-1.1-1.8-1.4-3.4-0.9l-1.7,0.5c-0.5,0.1-0.7,0.5-0.5,1l1.6,5.8c0.1,0.4,0.4,0.6,0.7,0.6c0.1,0,0.2,0,0.3,0l1.7-0.5
	c1.6-0.5,2.4-1.3,2.5-2.5c0-0.4,0-0.9-0.3-2C175.8,180.7,175.6,180.2,175.4,179.9 M167,220.7c0.7-2.6,0.1-5-1.9-6.5
	c-0.6-0.5-1.5-0.4-2.1,0.2c-0.5,0.6-0.4,1.5,0.2,2c0.7,0.6,1.5,1.7,0.9,3.5c-0.7,2.5-2.7,3.8-5.8,3.8c-1.8,0-5-1.3-5-4.4
	c0-3.7,2.3-6.2,7.2-6.2c0.9,0,1.5-0.7,1.5-1.5c0-0.8-0.6-1.5-1.5-1.5c-1.6,0-2.8-0.4-3.5-1.2c-0.7-0.8-0.6-1.9-0.5-2.5
	c0.2-1,1-3.3,4.5-3.3c1.9,0,2.9,1.1,2.9,2.1c0,0.5-0.1,0.8-0.2,0.9c-0.3,0.9-0.2,1.6,0.5,2c0.7,0.4,1.6,0.1,2-0.6
	c0.3-0.6,0.5-1.3,0.6-2.2c0.1-0.9-0.4-2.4-1.4-3.5c-0.8-0.8-2.1-1.8-4.4-1.8c-4.7,0-6.9,2.9-7.4,5.6c-0.3,1.9,0.1,3.6,1.1,4.9
	c0.1,0.1,0.2,0.3,0.4,0.4c-2.4,1.2-4.7,4.1-4.7,8c0,3.7,3.3,7.3,7.9,7.3C162.8,226.7,165.9,224.5,167,220.7 M197.1,219.1
	c0.9-3.2,1.7-6.1,1.7-6.1c0.2-0.8-0.3-1.6-1-1.8c-0.8-0.2-1.6,0.3-1.8,1c0,0-0.8,3.3-1.8,6.6c-1,3.5-2.2,3.5-2.8,3.5
	c-1,0-1.2-1-0.9-2.1c0.4-1.3,2-7.2,2-7.2c0.2-0.8-0.3-1.6-1.1-1.8c-0.8-0.2-1.6,0.2-1.8,1c0,0-1.6,5.8-2,7.1
	c-0.5,1.6-0.3,3.2,0.6,4.3c0.7,1,1.9,1.5,3.2,1.5c1.6,0,2.7-0.7,3.5-1.7c0.7,1.1,1.8,1.7,3.1,1.7c4.4,0,5.5-4.6,5.9-6.4
	c0.5-2.2,0.7-4.9,0.4-6.5c-0.1-0.8-0.9-1.3-1.7-1.2c-0.8,0.1-1.3,0.9-1.2,1.7c0.2,1.2,0.1,3.6-0.4,5.4c-0.8,3.6-1.9,4.1-3,4.1
	C197.2,222.3,196.4,221.7,197.1,219.1 M178.7,219.1c0.9-3.2,1.7-6.1,1.7-6.1c0.2-0.8-0.3-1.6-1-1.8c-0.8-0.2-1.6,0.3-1.8,1
	c0,0-0.8,3.3-1.8,6.6c-1,3.5-2.2,3.5-2.8,3.5c-1,0-1.2-1-0.9-2.1c0.4-1.3,2-7.2,2-7.2c0.2-0.8-0.3-1.6-1.1-1.8
	c-0.8-0.2-1.6,0.2-1.8,1c0,0-1.6,5.8-2,7.1c-0.5,1.6-0.3,3.2,0.6,4.3c0.7,1,1.9,1.5,3.2,1.5c1.6,0,2.7-0.7,3.5-1.7
	c0.7,1.1,1.8,1.7,3.1,1.7c4.4,0,5.5-4.6,5.9-6.4c0.5-2.2,0.7-4.9,0.4-6.5c-0.1-0.8-0.9-1.3-1.7-1.2c-0.8,0.1-1.3,0.9-1.2,1.7
	c0.2,1.2,0.1,3.6-0.4,5.4c-0.8,3.6-1.9,4.1-3,4.1C178.8,222.3,178.1,221.7,178.7,219.1 M178.7,219.1c0.9-3.2,1.7-6.1,1.7-6.1
	c0.2-0.8-0.3-1.6-1-1.8c-0.8-0.2-1.6,0.3-1.8,1c0,0-0.8,3.3-1.8,6.6c-1,3.5-2.2,3.5-2.8,3.5c-0.3,0-0.6-0.1-0.8-0.4
	c-0.3-0.4-0.3-1-0.1-1.8c0.4-1.3,2-7.2,2-7.2c0.2-0.8-0.3-1.6-1.1-1.8c-0.8-0.2-1.6,0.2-1.8,1c0,0-1.6,5.8-2,7.1
	c-0.5,1.6-0.3,3.2,0.6,4.3c0.7,1,1.9,1.5,3.2,1.5c1.6,0,2.7-0.6,3.5-1.5c0.7,0.9,1.8,1.5,3.1,1.5c4.4,0,5.5-4.6,5.9-6.4
	c0.5-2.2,0.7-4.9,0.4-6.5c-0.1-0.8-0.9-1.3-1.7-1.2c-0.8,0.1-1.3,0.9-1.2,1.7c0.2,1.2,0.1,3.6-0.4,5.4c-0.8,3.6-1.9,4.1-3,4.1
	c-0.6,0-0.8-0.3-0.8-0.3C178.4,221.5,178.4,220.4,178.7,219.1 M210.4,218l3.2-11.7c0.2-0.8-0.2-1.6-1-1.8c-0.8-0.2-1.6,0.2-1.8,1
	l-3.2,11.7c-0.2,0.8,0.2,1.6,1,1.8c0.1,0,0.3,0.1,0.4,0.1C209.7,219.1,210.3,218.7,210.4,218 M207.6,221.2c-1,0-1.8,0.8-1.8,1.8
	c0,1,0.8,1.8,1.8,1.8c1,0,1.8-0.8,1.8-1.8C209.4,222,208.6,221.2,207.6,221.2 M182.2,171.2c24.2,0,43.7,19.6,43.7,43.7
	s-19.6,43.7-43.7,43.7c-24.2,0-43.7-19.6-43.7-43.7S158,171.2,182.2,171.2 M182.2,174.1c-22.5,0-40.8,18.3-40.8,40.8
	s18.3,40.8,40.8,40.8c22.5,0,40.8-18.3,40.8-40.8S204.7,174.1,182.2,174.1 M202.3,233c0.5-0.6,0.5-1.5-0.1-2.1
	c-0.6-0.5-1.5-0.5-2.1,0.1c-4.6,5-11,7.9-17.8,7.9c-6.7,0-13.1-2.8-17.6-7.7c-0.5-0.6-1.5-0.6-2.1-0.1c-0.6,0.5-0.6,1.5-0.1,2.1
	c5.1,5.5,12.3,8.6,19.7,8.6C189.9,241.9,197.2,238.6,202.3,233 M203.9,201.3c0.7-0.5,0.8-1.4,0.3-2c-5-7.1-13.3-11.3-22-11.3
	c-5.5,0-10.9,1.7-15.4,4.8c-0.7,0.5-0.8,1.4-0.4,2c0.5,0.7,1.4,0.8,2,0.4c4.1-2.8,8.8-4.3,13.7-4.3c7.8,0,15.1,3.8,19.6,10.1
	c0.3,0.4,0.7,0.6,1.2,0.6C203.3,201.6,203.6,201.5,203.9,201.3 M191.4,248.4l-1.3-2.1l-0.2,2.4L191.4,248.4z M193.7,251
	c-0.4,0.1-0.7-0.1-1-0.4l-0.5-0.8l-2.5,0.6l-0.1,0.9c0,0.4-0.3,0.7-0.7,0.8c-0.1,0-0.1,0-0.2,0c-0.1,0-0.3,0-0.4-0.1
	c-0.2-0.1-0.3-0.3-0.4-0.5c0-0.1,0-0.2,0-0.3l0.6-5.9c0.1-0.7,0.4-1.1,0.9-1.3c0.6-0.1,1,0.1,1.4,0.7l3.3,5c0.1,0.1,0.1,0.2,0.1,0.3
	C194.4,250.4,194.1,250.9,193.7,251 M183.2,247.9l-0.4,0c-1-0.1-1.1-0.4-1.1-0.7c0-0.2,0.1-0.4,0.2-0.5c0.2-0.1,0.4-0.2,0.7-0.2
	c0.4,0,0.9,0.1,1.3,0.3c0.2,0.1,0.3,0.1,0.5,0.1c0.5,0,0.8-0.4,0.8-0.8c0-0.3-0.2-0.5-0.4-0.7c-0.5-0.3-1.4-0.5-2.1-0.5
	c-1.7,0-2.7,1-2.7,2.4c0,1.3,0.9,2.1,2.5,2.3l0.4,0c0.9,0.1,1.1,0.4,1.1,0.7c0,0.2-0.1,0.4-0.3,0.6c-0.2,0.2-0.5,0.2-0.9,0.2
	c0,0,0,0,0,0c-0.5,0-0.9-0.1-1.5-0.4c-0.1-0.1-0.3-0.1-0.5-0.1c-0.2,0-0.4,0.1-0.6,0.2c-0.1,0.2-0.2,0.4-0.2,0.6
	c0,0.3,0.2,0.6,0.4,0.7l0,0c0.4,0.2,1.2,0.6,2.3,0.6c0,0,0.1,0,0.1,0c0.9,0,1.7-0.3,2.2-0.7c0.5-0.4,0.8-1,0.7-1.8
	C185.6,248.9,184.8,248.1,183.2,247.9 M177.8,244.9c0.1,0.2,0.2,0.5,0.1,0.7l-0.9,3.8c-0.2,0.9-0.7,1.6-1.3,2
	c-0.4,0.2-0.9,0.4-1.4,0.4c-0.3,0-0.6,0-0.9-0.1c-0.9-0.2-1.5-0.6-1.9-1.2c-0.4-0.6-0.5-1.4-0.3-2.3l0.9-3.8
	c0.1-0.5,0.6-0.8,1.1-0.7c0.5,0.1,0.8,0.6,0.6,1.1l-0.9,3.9c-0.1,0.4-0.1,0.8,0.1,1c0.2,0.3,0.4,0.4,0.7,0.5c0.3,0.1,0.6,0,0.9-0.1
	c0.3-0.2,0.4-0.5,0.5-0.9l0.9-3.9c0.1-0.5,0.6-0.8,1.1-0.7C177.5,244.6,177.7,244.7,177.8,244.9 M205.3,272.9
	c-1.3,0.5-2.6,0.7-3.9,0.7c-2.6,0-4.8-1-5.4-2.8c-0.9-2.6,1.7-6.1,5.8-7.5c1.3-0.5,2.6-0.7,3.8-0.7c2.6,0,4.8,1,5.4,2.8
	C212,268,209.4,271.4,205.3,272.9 M213.8,264.4c-1.1-2.9-4.2-4.7-8.1-4.7c-1.6,0-3.3,0.3-4.8,0.9c-2.5,0.9-4.6,2.4-6.1,4.3
	c-1.3,1.8-1.9,3.7-1.7,5.5l-11.1,4l-12.9-4.7c0.5-3.3-1.5-6.7-4.9-8c0,0,0,0,0,0c0,0,0,0,0,0l-11.5-4.2c-0.8-0.3-1.6,0.1-1.9,0.9
	c-0.3,0.8,0.1,1.6,0.9,1.9l11.5,4.2c0,0,0,0,0,0c0,0,0,0,0,0c2.4,0.9,3.6,3.4,2.8,5.6c-0.8,2.3-3.4,3.4-5.8,2.5h0c0,0,0,0,0,0
	l-11.5-4.2c-0.8-0.3-1.6,0.1-1.9,0.9c-0.3,0.8,0.1,1.6,0.9,1.9l11.5,4.2c0,0,0,0,0,0h0c3.4,1.2,7.1-0.1,8.9-3l9.7,3.5l-17.3,6.3
	c-0.8,0.3-1.1,1.1-0.9,1.9c0.3,0.8,1.1,1.1,1.9,0.9l20.6-7.5l20.8,7.6c0.8,0.3,1.6-0.1,1.9-0.9c0.3-0.8-0.1-1.6-0.9-1.9l-17.5-6.4
	l7.8-2.8c1.4,2.1,4.1,3.4,7.5,3.4c1.6,0,3.3-0.3,4.8-0.9c2.5-0.9,4.6-2.4,6.1-4.3C214.1,269.1,214.6,266.6,213.8,264.4 M149.6,265.8
	l11.5,4.2c0.8,0.3,1.6-0.1,1.9-0.9c0.3-0.8-0.1-1.6-0.9-1.9l-11.5-4.2c-0.8-0.3-1.6,0.1-1.9,0.9
	C148.5,264.6,148.9,265.5,149.6,265.8 M218.4,311.9c0-0.7,0.4-1.1,1.1-1.1c0.6,0,0.9,0.3,1.2,1l1.9,4.3h0.1l1.9-4.3
	c0.3-0.7,0.6-1,1.2-1c0.6,0,1,0.4,1,1.1v7c0,0.6-0.4,0.9-0.9,0.9c-0.5,0-0.9-0.3-0.9-0.9v-4.3h-0.1l-1.4,3.2
	c-0.3,0.6-0.5,0.8-0.9,0.8s-0.7-0.2-0.9-0.8l-1.4-3.2h-0.1v4.3c0,0.6-0.4,0.9-0.9,0.9c-0.5,0-0.9-0.3-0.9-0.9V311.9z M209.5,316.4
	v-4.7c0-0.6,0.4-1,1-1c0.5,0,1,0.4,1,1v4.7c0,1.1,0.6,1.7,1.5,1.7c0.9,0,1.5-0.6,1.5-1.7v-4.7c0-0.6,0.4-1,1-1c0.6,0,1,0.4,1,1v4.7
	c0,2.2-1.4,3.4-3.4,3.4C210.8,319.8,209.5,318.6,209.5,316.4 M201.8,311.6c0-0.5,0.3-0.8,0.8-0.8h4.3c0.5,0,0.9,0.4,0.9,0.8
	c0,0.5-0.4,0.8-0.9,0.8h-3.1c-0.1,0-0.1,0-0.1,0.1v1.8c0,0.1,0,0.1,0.1,0.1h2.5c0.5,0,0.9,0.3,0.9,0.8c0,0.5-0.3,0.8-0.9,0.8h-2.5
	c-0.1,0-0.1,0-0.1,0.1v1.8c0,0.1,0,0.1,0.1,0.1h3.1c0.5,0,0.9,0.4,0.9,0.8c0,0.5-0.4,0.8-0.9,0.8h-4.3c-0.5,0-0.8-0.3-0.8-0.8V311.6
	z M193.8,319.1c-0.3-0.2-0.5-0.5-0.5-0.8c0-0.5,0.4-0.8,0.9-0.8c0.2,0,0.4,0.1,0.6,0.2c0.7,0.4,1.3,0.6,1.9,0.6c0.9,0,1.4-0.4,1.4-1
	c0-0.5-0.3-0.8-1.4-1l-0.5-0.1c-1.8-0.2-2.8-1.1-2.8-2.7c0-1.6,1.2-2.7,3.1-2.7c1,0,2,0.3,2.5,0.6c0.3,0.2,0.5,0.5,0.5,0.8
	c0,0.5-0.4,0.8-0.8,0.8c-0.2,0-0.4-0.1-0.6-0.1c-0.4-0.2-1-0.4-1.5-0.4c-0.8,0-1.2,0.4-1.2,1c0,0.5,0.4,0.8,1.4,1l0.5,0.1
	c1.8,0.3,2.8,1.1,2.8,2.7c0,1.6-1.2,2.8-3.5,2.8C195.3,319.8,194.4,319.4,193.8,319.1 M184.8,316.4v-4.7c0-0.6,0.4-1,1-1
	c0.5,0,1,0.4,1,1v4.7c0,1.1,0.6,1.7,1.5,1.7c0.9,0,1.5-0.6,1.5-1.7v-4.7c0-0.6,0.4-1,1-1c0.6,0,1,0.4,1,1v4.7c0,2.2-1.4,3.4-3.4,3.4
	C186.1,319.8,184.8,318.6,184.8,316.4 M174.2,311.9c0-0.7,0.4-1.1,1.1-1.1c0.6,0,0.9,0.3,1.2,1l1.9,4.3h0.1l1.9-4.3
	c0.3-0.7,0.6-1,1.2-1c0.6,0,1,0.4,1,1.1v7c0,0.6-0.4,0.9-0.9,0.9c-0.5,0-0.9-0.3-0.9-0.9v-4.3h-0.1l-1.4,3.2
	c-0.3,0.6-0.5,0.8-0.9,0.8s-0.7-0.2-0.9-0.8l-1.4-3.2h-0.1v4.3c0,0.6-0.4,0.9-0.9,0.9c-0.5,0-0.9-0.3-0.9-0.9V311.9z M164.6,318h0.9
	c0.9,0,1.5-0.3,1.8-1c0.1-0.3,0.2-0.8,0.2-1.7c0-0.9-0.1-1.4-0.2-1.7c-0.2-0.7-0.9-1-1.8-1h-0.9c-0.1,0-0.1,0-0.1,0.1L164.6,318
	C164.6,317.9,164.6,318,164.6,318 M162.6,311.6c0-0.5,0.3-0.8,0.8-0.8h2.1c1.9,0,3.1,0.6,3.5,2.1c0.2,0.5,0.3,1.1,0.3,2.4
	s-0.1,1.9-0.3,2.4c-0.5,1.4-1.6,2-3.5,2h-2.1c-0.5,0-0.8-0.3-0.8-0.8V311.6z M158.7,317.2c0.1-0.3,0.1-0.8,0.1-1.9
	c0-1.1,0-1.6-0.1-1.9c-0.2-0.6-0.7-1-1.4-1c-0.7,0-1.2,0.4-1.4,1c-0.1,0.3-0.1,0.8-0.1,1.9c0,1.1,0,1.6,0.1,1.9c0.2,0.6,0.7,1,1.4,1
	C158,318.1,158.5,317.8,158.7,317.2 M154,317.7c-0.2-0.6-0.2-1.1-0.2-2.4c0-1.3,0.1-1.8,0.2-2.4c0.5-1.4,1.7-2.2,3.2-2.2
	c1.6,0,2.8,0.7,3.2,2.2c0.2,0.6,0.2,1.1,0.2,2.4c0,1.3-0.1,1.8-0.2,2.4c-0.5,1.4-1.7,2.2-3.2,2.2C155.7,319.8,154.5,319.1,154,317.7
	 M150.1,317.2c0.1-0.3,0.1-0.8,0.1-1.9c0-1.1,0-1.6-0.1-1.9c-0.2-0.6-0.7-1-1.4-1c-0.7,0-1.2,0.4-1.4,1c-0.1,0.3-0.1,0.8-0.1,1.9
	c0,1.1,0,1.6,0.1,1.9c0.2,0.6,0.7,1,1.4,1C149.4,318.1,149.9,317.8,150.1,317.2 M145.5,317.7c-0.2-0.6-0.2-1.1-0.2-2.4
	c0-1.3,0.1-1.8,0.2-2.4c0.5-1.4,1.7-2.2,3.2-2.2c1.6,0,2.8,0.7,3.2,2.2c0.2,0.6,0.2,1.1,0.2,2.4c0,1.3-0.1,1.8-0.2,2.4
	c-0.5,1.4-1.7,2.2-3.2,2.2C147.1,319.8,145.9,319.1,145.5,317.7 M138.3,311.6c0-0.5,0.3-0.8,0.8-0.8h4.3c0.5,0,0.9,0.4,0.9,0.8
	c0,0.5-0.4,0.8-0.9,0.8h-3.1c-0.1,0-0.1,0-0.1,0.1v1.9c0,0.1,0,0.1,0.1,0.1h2.5c0.6,0,0.9,0.3,0.9,0.8c0,0.5-0.3,0.8-0.9,0.8h-2.5
	c-0.1,0-0.1,0-0.1,0.1v2.5c0,0.6-0.4,1-1,1c-0.6,0-1-0.4-1-1V311.6z M212.6,302.2c0-1.3,0.1-1.8,0.2-2.4c0.5-1.4,1.7-2.2,3.3-2.2
	c1.4,0,2.4,0.6,2.9,1.4c0.1,0.2,0.2,0.4,0.2,0.6c0,0.5-0.4,0.9-0.9,0.9c-0.3,0-0.6-0.1-0.8-0.5c-0.3-0.5-0.8-0.7-1.3-0.7
	c-0.8,0-1.2,0.4-1.4,1c-0.1,0.3-0.1,0.7-0.1,1.9c0,1.1,0,1.6,0.1,1.9c0.2,0.6,0.7,1,1.5,1c0.7,0,1.2-0.4,1.4-0.9
	c0.1-0.2,0.1-0.5,0.1-0.9c0-0.1,0-0.1-0.1-0.1H217c-0.5,0-0.8-0.3-0.8-0.8s0.3-0.8,0.8-0.8h1.8c0.5,0,0.8,0.3,0.8,0.8v0.1
	c0,0.8-0.1,1.5-0.2,2c-0.5,1.4-1.7,2.2-3.2,2.2c-1.6,0-2.8-0.7-3.3-2.2C212.7,304,212.6,303.5,212.6,302.2 M203.9,298.8
	c0-0.7,0.4-1.1,1.1-1.1c0.5,0,0.9,0.3,1.3,0.9l2.7,4.8h0.1v-4.9c0-0.6,0.4-0.9,0.9-0.9c0.5,0,0.9,0.3,0.9,0.9v7
	c0,0.7-0.4,1.1-1.1,1.1c-0.5,0-0.9-0.3-1.3-0.9l-2.7-4.8h-0.1v4.8c0,0.6-0.4,0.9-0.9,0.9c-0.5,0-0.9-0.3-0.9-0.9V298.8z
	 M199.6,298.7c0-0.6,0.4-1,1-1c0.5,0,1,0.4,1,1v7c0,0.6-0.4,1-1,1c-0.6,0-1-0.4-1-1V298.7z M194,305.7v-6.2c0-0.1,0-0.1-0.1-0.1
	h-1.5c-0.6,0-1-0.4-1-0.8c0-0.5,0.4-0.9,1-0.9h5.1c0.6,0,1,0.4,1,0.9c0,0.5-0.4,0.8-1,0.8H196c-0.1,0-0.1,0-0.1,0.1v6.2
	c0,0.6-0.4,1-1,1C194.4,306.7,194,306.3,194,305.7 M184.2,306c-0.3-0.2-0.5-0.5-0.5-0.8c0-0.5,0.4-0.8,0.9-0.8
	c0.2,0,0.4,0.1,0.6,0.2c0.7,0.4,1.3,0.6,1.9,0.6c0.9,0,1.4-0.4,1.4-1c0-0.5-0.3-0.8-1.4-1l-0.5-0.1c-1.8-0.2-2.8-1.1-2.8-2.7
	c0-1.6,1.2-2.7,3.1-2.7c1,0,2,0.3,2.5,0.6c0.3,0.2,0.5,0.5,0.5,0.8c0,0.5-0.4,0.8-0.8,0.8c-0.2,0-0.4-0.1-0.6-0.1
	c-0.4-0.2-1-0.4-1.5-0.4c-0.8,0-1.2,0.4-1.2,1c0,0.5,0.4,0.8,1.4,1l0.5,0.1c1.8,0.3,2.8,1.1,2.8,2.7c0,1.6-1.2,2.8-3.5,2.8
	C185.7,306.8,184.8,306.4,184.2,306 M175.2,303.3v-4.7c0-0.6,0.4-1,1-1c0.5,0,1,0.4,1,1v4.7c0,1.1,0.6,1.7,1.5,1.7
	c0.9,0,1.5-0.6,1.5-1.7v-4.7c0-0.6,0.4-1,1-1c0.6,0,1,0.4,1,1v4.7c0,2.2-1.4,3.4-3.4,3.4C176.5,306.8,175.2,305.6,175.2,303.3
	 M166.4,302.2c0-1.3,0.1-1.8,0.2-2.4c0.5-1.4,1.7-2.2,3.3-2.2c1.4,0,2.4,0.6,2.9,1.4c0.1,0.2,0.2,0.4,0.2,0.6c0,0.5-0.4,0.9-0.9,0.9
	c-0.3,0-0.6-0.1-0.8-0.5c-0.3-0.5-0.8-0.7-1.3-0.7c-0.8,0-1.2,0.4-1.4,1c-0.1,0.3-0.1,0.7-0.1,1.9c0,1.1,0,1.6,0.1,1.9
	c0.2,0.6,0.7,1,1.4,1c0.7,0,1.2-0.4,1.4-0.9c0.1-0.2,0.1-0.5,0.1-0.9c0-0.1,0-0.1-0.1-0.1h-0.6c-0.5,0-0.8-0.3-0.8-0.8
	s0.3-0.8,0.8-0.8h1.8c0.5,0,0.8,0.3,0.8,0.8v0.1c0,0.8-0.1,1.5-0.2,2c-0.5,1.4-1.7,2.2-3.2,2.2c-1.6,0-2.8-0.7-3.3-2.2
	C166.4,304,166.4,303.5,166.4,302.2 M158.6,306c-0.3-0.2-0.5-0.5-0.5-0.8c0-0.5,0.4-0.8,0.9-0.8c0.2,0,0.4,0.1,0.6,0.2
	c0.7,0.4,1.3,0.6,1.9,0.6c0.9,0,1.4-0.4,1.4-1c0-0.5-0.3-0.8-1.4-1l-0.5-0.1c-1.8-0.2-2.8-1.1-2.8-2.7c0-1.6,1.2-2.7,3.1-2.7
	c1,0,2,0.3,2.5,0.6c0.3,0.2,0.5,0.5,0.5,0.8c0,0.5-0.4,0.8-0.8,0.8c-0.2,0-0.4-0.1-0.6-0.1c-0.4-0.2-1-0.4-1.5-0.4
	c-0.8,0-1.2,0.4-1.2,1c0,0.5,0.4,0.8,1.4,1l0.5,0.1c1.8,0.3,2.8,1.1,2.8,2.7c0,1.6-1.2,2.8-3.5,2.8
	C160.1,306.8,159.2,306.4,158.6,306 M154.4,298.7c0-0.6,0.4-1,1-1c0.5,0,1,0.4,1,1v7c0,0.6-0.4,1-1,1c-0.6,0-1-0.4-1-1V298.7z
	 M147.6,304.9h0.9c0.9,0,1.5-0.3,1.8-1c0.1-0.3,0.2-0.8,0.2-1.7c0-0.9-0.1-1.4-0.2-1.7c-0.2-0.7-0.9-1-1.8-1h-0.9
	c-0.1,0-0.1,0-0.1,0.1L147.6,304.9C147.5,304.9,147.5,304.9,147.6,304.9 M145.6,298.6c0-0.5,0.3-0.8,0.8-0.8h2.1
	c1.9,0,3.1,0.6,3.5,2.1c0.2,0.5,0.3,1.1,0.3,2.4c0,1.3-0.1,1.9-0.3,2.4c-0.5,1.5-1.6,2.1-3.5,2.1h-2.1c-0.5,0-0.8-0.3-0.8-0.8V298.6
	z"/>
<path class="st0" d="M1107.2,246.7c-0.1,0.2-0.3,0.3-0.6,0.4l-1.3,0.3l-0.4-1.6l1.3-0.3c0.3-0.1,0.5,0,0.7,0.1
	c0.2,0.1,0.3,0.3,0.4,0.5C1107.4,246.3,1107.4,246.5,1107.2,246.7 M1110.1,249.9c0-0.2-0.1-0.3-0.2-0.4l-1.5-1.6
	c0.6-0.6,0.9-1.4,0.7-2.3c-0.3-1.4-1.6-2.1-3.1-1.7l-2.3,0.6c-0.5,0.1-0.7,0.5-0.6,1l1.4,5.8c0.1,0.3,0.2,0.5,0.4,0.6
	c0.1,0.1,0.3,0.1,0.5,0.1c0.1,0,0.2,0,0.2,0c0.2-0.1,0.4-0.2,0.6-0.4c0.1-0.2,0.1-0.5,0.1-0.7l-0.5-1.9l1-0.2l1.8,2v0
	c0.3,0.3,0.6,0.4,1,0.3C1110,250.9,1110.2,250.4,1110.1,249.9 M1100.4,250.9l-2.6,0l0-1.5l2.1,0c0.2,0,0.4-0.1,0.6-0.2
	c0.1-0.1,0.2-0.3,0.2-0.6c0-0.2-0.1-0.4-0.2-0.6c-0.2-0.1-0.4-0.2-0.6-0.2l-2.1,0l0-1.4l2.6,0c0.5,0,0.8-0.3,0.8-0.8
	c0-0.5-0.3-0.8-0.8-0.8c0,0,0,0,0,0l-3.6,0.1c-0.5,0-0.8,0.3-0.8,0.8l0.1,6.1c0,0.2,0.1,0.4,0.2,0.6s0.3,0.2,0.6,0.2h0l3.6-0.1
	c0.2,0,0.4-0.1,0.6-0.2c0.1-0.1,0.2-0.3,0.2-0.6c0-0.2-0.1-0.4-0.2-0.6C1100.9,251,1100.6,250.9,1100.4,250.9 M1091.4,243.9
	c-1.4-0.3-2.5,0.1-3.2,1.2c-0.3,0.5-0.4,0.9-0.7,2v0c-0.3,1.1-0.3,1.5-0.3,2.1c0.1,1.2,0.9,2.2,2.3,2.5c0.3,0.1,0.6,0.1,0.8,0.1
	c1,0,1.8-0.5,2.3-1.3c0.3-0.5,0.5-1.1,0.6-1.6l0-0.1c0.1-0.4-0.1-0.8-0.5-0.9l-1.5-0.4c-0.4-0.1-0.8,0.1-0.9,0.5
	c-0.1,0.4,0.1,0.8,0.6,0.9l0.5,0.1c-0.1,0.3-0.1,0.5-0.2,0.7c-0.2,0.4-0.7,0.6-1.3,0.4c-0.6-0.1-0.9-0.5-0.9-1c0-0.3,0-0.7,0.3-1.6
	c0.2-0.9,0.3-1.2,0.5-1.5c0.3-0.5,0.7-0.6,1.3-0.5c0.5,0.1,0.7,0.3,0.9,0.7c0.1,0.3,0.3,0.5,0.7,0.6c0.5,0.1,0.9-0.1,1-0.6
	c0-0.2,0-0.3,0-0.6C1093.3,244.8,1092.5,244.2,1091.4,243.9 M1077.3,237.3c-1.5,0-3.8-0.7-3.8-2.6c0-1.9,2.3-2.6,3.7-2.6
	c2.1,0,3.5,0.9,5.2,2.4C1080.7,236.3,1079,237.3,1077.3,237.3 M1119.1,216c-0.8,0.3-1.2,1.1-0.9,1.9c0.3,0.8,0.2,2-0.4,2.9
	c-0.8,1.1-1.5,1.6-2.7,1.6c-0.3,0-0.6-0.1-0.8-0.4c-0.3-0.4-0.3-1-0.1-1.8c0.4-1.3,2-7.2,2-7.2c0.2-0.8-0.3-1.6-1-1.8
	c-0.8-0.2-1.6,0.3-1.8,1c0,0-1.6,5.8-2,7.1c-0.2,0.6-0.3,1.2-0.3,1.7c-1,0.8-2,1.2-2.6,1.2c-0.5,0-1-0.3-1.3-0.7
	c-0.3-0.4-0.4-0.9-0.2-1.5c0.1-0.2,0.1-0.3,0.2-0.5c1-3.4,1.8-6.7,1.9-6.7c0.2-0.8-0.3-1.6-1-1.8c-0.8-0.2-1.6,0.3-1.8,1
	c0,0-0.8,3.3-1.8,6.6c-1,3.5-2.2,3.5-2.8,3.5c-0.3,0-0.6-0.1-0.8-0.4c-0.3-0.4-0.3-1-0.1-1.7c0.4-1.3,2-7.2,2-7.2l0,0
	c0-0.1,0.1-0.2,0.1-0.4c0-0.8-0.7-1.5-1.5-1.5h-6.3c0.2-0.6,0.4-1.2,0.6-1.8c1-3.1,2.2-4.6,3.6-4.6c1.6,0,2.4,0.9,2.5,1
	c0.5,0.6,1.4,0.7,2,0.2c0.6-0.5,0.7-1.4,0.2-2c-0.2-0.2-1.7-2.1-4.7-2.1c-2.8,0-5,2.2-6.4,6.7c-0.6,2-1.6,4.8-2.5,7.5
	c-0.9,2.7-1.8,5.3-2.3,7c-1.2,3.7-2.5,6.7-3.9,8.9c-1.9-1.6-3.9-2.9-6.9-2.9c-3.2,0-6.6,2-6.6,5.6c0,3.6,3.5,5.5,6.7,5.5
	c2.6,0,5-1.3,7.2-3.9c2.9,2.5,6.8,5.3,13.9,5.6c7.3,0,14.4-3,19.5-8.3c0.6-0.6,0.5-1.5,0-2.1c-0.6-0.6-1.5-0.5-2.1,0
	c-4.5,4.7-10.8,7.4-17.3,7.4c-6.3-0.3-9.5-2.7-12.2-5c1.6-2.6,3.1-5.9,4.4-10c0.5-1.7,1.4-4.3,2.3-7c0.3-1,0.6-1.9,0.9-2.9h5.3
	c-0.5,1.8-1.3,4.5-1.5,5.3c-0.5,1.6-0.3,3.2,0.6,4.3c0.7,1,1.9,1.5,3.2,1.5c1.6,0,2.7-0.6,3.6-1.5c0.9,1,2.1,1.5,3.4,1.5
	c1.1,0,2.4-0.5,3.6-1.3c0.7,0.8,1.8,1.3,2.9,1.3c2.2,0,3.9-0.9,5.2-2.9c1.2-1.8,1.2-4.1,0.7-5.5
	C1120.7,216.2,1119.8,215.8,1119.1,216 M1116,209.2c1,0,1.8-0.8,1.8-1.8c0-1-0.8-1.8-1.8-1.8s-1.8,0.8-1.8,1.8
	C1114.2,208.3,1115,209.2,1116,209.2 M1086.7,209.6c0,3.2-2.4,4.9-7.1,5.3l0.2-0.9c0.9-4.9,1.4-7.7,2.7-9.8
	C1085.3,205.1,1086.7,207.4,1086.7,209.6 M1079.1,217.8c9.2-0.4,10.6-5.2,10.6-8.2c0-4.3-3.7-8.8-9.9-8.8c-8.7,0-11,5.1-11,8.1
	c0,2.3,1.3,4.3,3.2,5.2c0.7,0.3,1.6,0,1.9-0.7c0.3-0.7,0-1.6-0.7-1.9c-0.9-0.4-1.5-1.4-1.5-2.5c0-0.5,0.2-5,7.8-5.1
	c-1.1,2.3-1.7,5.2-2.5,9.7l-0.3,1.9c-0.9,5.1-2.7,7.9-5.1,7.9c-0.2,0-2.4-0.1-2.4-2.3c0-1.5,1-1.7,1.1-1.7c0.8,0,1.4-0.7,1.4-1.5
	c0-0.8-0.7-1.5-1.5-1.5c-1.3,0-4,1.2-4,4.6c0,3.4,2.7,5.2,5.3,5.2C1074.1,226.1,1077.3,224.6,1079.1,217.8 M1129.5,204.6
	c-0.8-0.2-1.6,0.2-1.8,1l-3.2,11.7c-0.2,0.8,0.2,1.6,1,1.8c0.1,0,0.3,0.1,0.4,0.1c0.6,0,1.2-0.4,1.4-1.1l3.2-11.7
	C1130.8,205.6,1130.3,204.8,1129.5,204.6 M1124.5,221.3c-1,0-1.8,0.8-1.8,1.8c0,1,0.8,1.8,1.8,1.8s1.8-0.8,1.8-1.8
	C1126.3,222.1,1125.5,221.3,1124.5,221.3 M1119.2,200c0.6-0.5,0.7-1.4,0.2-2c-5.1-6.3-12.8-10-20.9-10c-5.5,0-10.8,1.7-15.4,4.8
	c-0.7,0.5-0.8,1.4-0.4,2c0.5,0.7,1.4,0.8,2,0.4c4-2.8,8.8-4.3,13.7-4.3c7.3,0,14.1,3.2,18.7,8.9c0.3,0.4,0.7,0.5,1.1,0.5
	C1118.6,200.4,1118.9,200.3,1119.2,200 M1098.3,171.2c24.2,0,43.7,19.6,43.7,43.7c0,24.2-19.6,43.7-43.7,43.7
	c-24.2,0-43.7-19.6-43.7-43.7C1054.5,190.8,1074.1,171.2,1098.3,171.2 M1098.3,174.1c-22.5,0-40.8,18.3-40.8,40.8
	s18.3,40.8,40.8,40.8c22.5,0,40.8-18.3,40.8-40.8S1120.8,174.1,1098.3,174.1 M1105.6,185c0.4,0.1,0.7,0,1-0.5l1.6-2.1l-0.8,3.2
	c-0.1,0.3,0,0.5,0.1,0.7c0.1,0.2,0.3,0.3,0.5,0.4c0.1,0,0.2,0,0.2,0c0.4,0,0.7-0.2,0.8-0.7l1.4-5.7c0.1-0.3,0-0.6-0.1-0.8
	c-0.1-0.2-0.3-0.4-0.6-0.4c-0.6-0.1-0.9,0.1-1.2,0.6l-2.3,3l-0.7-3.7c-0.1-0.6-0.3-1-0.8-1.1c-0.3-0.1-0.5,0-0.8,0.1
	c-0.2,0.1-0.4,0.4-0.4,0.7l-1.4,5.7c-0.1,0.3,0,0.5,0.1,0.7c0.1,0.2,0.3,0.3,0.5,0.4c0.5,0.1,0.9-0.1,1-0.7l0.8-3.2l0.5,2.6
	C1105,184.7,1105.2,184.9,1105.6,185 M1096.4,185.2C1096.4,185.2,1096.4,185.2,1096.4,185.2c0.5,0,0.9-0.4,0.9-1l0-2.1l2.1,0
	c0.3,0,0.5-0.1,0.6-0.2c0.1-0.1,0.2-0.3,0.2-0.6c0-0.2-0.1-0.4-0.2-0.6c-0.2-0.1-0.4-0.2-0.6-0.2l-2.1,0l0-1.5l2.6,0
	c0.5,0,0.8-0.3,0.8-0.8c0-0.5-0.3-0.8-0.8-0.8c0,0,0,0,0,0l-3.6,0.1c-0.5,0-0.8,0.3-0.8,0.8l0.1,6
	C1095.5,184.8,1095.9,185.2,1096.4,185.2 M1088.9,185L1088.9,185L1088.9,185L1088.9,185L1088.9,185z M1090.4,182.2
	c-0.2-0.6-0.4-1.1-0.5-1.3c-0.3-0.5-0.8-0.6-1.6-0.4l-0.7,0.2l1.2,4.3l0.7-0.2c0.7-0.2,1.1-0.6,1.1-1.1
	C1090.7,183.3,1090.6,182.9,1090.4,182.2 M1092.2,181.7c0.3,1.1,0.4,1.6,0.3,2c-0.1,1.3-0.8,2.1-2.5,2.5l-1.7,0.5
	c-0.1,0-0.2,0-0.3,0c-0.3,0-0.6-0.2-0.7-0.6l-1.6-5.8c-0.1-0.5,0.1-0.9,0.5-1l1.7-0.5c1.6-0.5,2.7-0.2,3.4,0.9
	C1091.7,180.2,1091.9,180.6,1092.2,181.7 M1134.4,318.8c0,0.6,0.4,0.9,0.9,0.9c0.5,0,0.9-0.3,0.9-0.9v-4.3h0.1l1.4,3.2
	c0.3,0.6,0.5,0.8,0.9,0.8c0.4,0,0.7-0.2,0.9-0.8l1.4-3.2h0.1v4.3c0,0.6,0.4,0.9,0.9,0.9s0.9-0.3,0.9-0.9v-7c0-0.7-0.4-1.1-1-1.1
	c-0.6,0-0.9,0.3-1.2,1l-1.9,4.3h-0.1l-1.9-4.3c-0.3-0.7-0.6-1-1.2-1c-0.6,0-1.1,0.4-1.1,1.1V318.8z M1129,319.8c2,0,3.4-1.2,3.4-3.4
	v-4.7c0-0.6-0.4-1-1-1c-0.5,0-1,0.4-1,1v4.7c0,1.1-0.6,1.7-1.5,1.7c-0.8,0-1.5-0.6-1.5-1.7v-4.7c0-0.6-0.4-1-1-1c-0.6,0-1,0.4-1,1
	v4.7C1125.6,318.6,1126.9,319.8,1129,319.8 M1117.8,318.8c0,0.5,0.3,0.8,0.8,0.8h4.3c0.5,0,0.9-0.4,0.9-0.8c0-0.5-0.4-0.8-0.9-0.8
	h-3.1c-0.1,0-0.1,0-0.1-0.1v-1.8c0-0.1,0-0.1,0.1-0.1h2.5c0.5,0,0.9-0.3,0.9-0.8c0-0.5-0.3-0.8-0.9-0.8h-2.5c-0.1,0-0.1,0-0.1-0.1
	v-1.8c0-0.1,0-0.1,0.1-0.1h3.1c0.5,0,0.9-0.4,0.9-0.8c0-0.5-0.4-0.8-0.9-0.8h-4.3c-0.5,0-0.8,0.3-0.8,0.8V318.8z M1112.6,319.8
	c2.3,0,3.5-1.2,3.5-2.8c0-1.6-1-2.4-2.8-2.7l-0.5-0.1c-1-0.1-1.4-0.5-1.4-1c0-0.6,0.4-1,1.2-1c0.5,0,1.1,0.2,1.5,0.4
	c0.2,0.1,0.4,0.1,0.6,0.1c0.5,0,0.8-0.4,0.8-0.8c0-0.3-0.1-0.6-0.5-0.8c-0.5-0.3-1.5-0.6-2.5-0.6c-1.9,0-3.1,1.1-3.1,2.7
	c0,1.6,1,2.4,2.8,2.7l0.5,0.1c1.1,0.1,1.4,0.5,1.4,1c0,0.6-0.5,1-1.5,1c-0.7,0-1.2-0.2-1.9-0.6c-0.2-0.1-0.4-0.2-0.6-0.2
	c-0.5,0-0.9,0.4-0.9,0.8c0,0.3,0.2,0.6,0.5,0.8C1110.4,319.4,1111.4,319.8,1112.6,319.8 M1104.2,319.8c2,0,3.4-1.2,3.4-3.4v-4.7
	c0-0.6-0.4-1-1-1c-0.5,0-1,0.4-1,1v4.7c0,1.1-0.6,1.7-1.5,1.7c-0.8,0-1.5-0.6-1.5-1.7v-4.7c0-0.6-0.4-1-1-1c-0.6,0-1,0.4-1,1v4.7
	C1100.8,318.6,1102.2,319.8,1104.2,319.8 M1090.2,318.8c0,0.6,0.4,0.9,0.9,0.9c0.5,0,0.9-0.3,0.9-0.9v-4.3h0.1l1.4,3.2
	c0.3,0.6,0.5,0.8,0.9,0.8c0.4,0,0.7-0.2,0.9-0.8l1.4-3.2h0.1v4.3c0,0.6,0.4,0.9,0.9,0.9c0.5,0,0.9-0.3,0.9-0.9v-7
	c0-0.7-0.4-1.1-1-1.1c-0.6,0-0.9,0.3-1.2,1l-1.9,4.3h-0.1l-1.9-4.3c-0.3-0.7-0.6-1-1.2-1c-0.6,0-1.1,0.4-1.1,1.1V318.8z
	 M1080.6,317.8v-5.3c0-0.1,0-0.1,0.1-0.1h0.9c0.9,0,1.5,0.3,1.8,1c0.1,0.3,0.2,0.8,0.2,1.7c0,0.9-0.1,1.4-0.2,1.7
	c-0.2,0.7-0.9,1-1.8,1L1080.6,317.8C1080.6,317.9,1080.6,317.9,1080.6,317.8 M1078.7,318.8c0,0.5,0.3,0.8,0.8,0.8h2.1
	c1.9,0,3.1-0.6,3.5-2.1c0.2-0.5,0.3-1.1,0.3-2.4s-0.1-1.9-0.3-2.4c-0.5-1.5-1.6-2.1-3.5-2.1h-2.1c-0.5,0-0.8,0.3-0.8,0.8V318.8z
	 M1073.4,318.1c-0.7,0-1.2-0.4-1.4-1c-0.1-0.3-0.1-0.8-0.1-1.9c0-1.1,0-1.6,0.1-1.9c0.2-0.6,0.7-1,1.4-1c0.7,0,1.2,0.4,1.4,1
	c0.1,0.3,0.1,0.8,0.1,1.9c0,1.1,0,1.6-0.1,1.9C1074.6,317.7,1074.1,318.1,1073.4,318.1 M1073.4,319.8c1.6,0,2.8-0.7,3.2-2.2
	c0.2-0.6,0.2-1.1,0.2-2.4c0-1.3-0.1-1.8-0.2-2.4c-0.5-1.4-1.7-2.2-3.2-2.2c-1.6,0-2.8,0.7-3.2,2.2c-0.2,0.6-0.2,1.1-0.2,2.4
	c0,1.3,0.1,1.8,0.2,2.4C1070.6,319.1,1071.8,319.8,1073.4,319.8 M1064.8,318.1c-0.7,0-1.2-0.4-1.4-1c-0.1-0.3-0.1-0.8-0.1-1.9
	c0-1.1,0-1.6,0.1-1.9c0.2-0.6,0.7-1,1.4-1c0.7,0,1.2,0.4,1.4,1c0.1,0.3,0.1,0.8,0.1,1.9c0,1.1,0,1.6-0.1,1.9
	C1066,317.7,1065.5,318.1,1064.8,318.1 M1064.8,319.8c1.6,0,2.8-0.7,3.2-2.2c0.2-0.6,0.2-1.1,0.2-2.4c0-1.3-0.1-1.8-0.2-2.4
	c-0.5-1.4-1.7-2.2-3.2-2.2s-2.8,0.7-3.2,2.2c-0.2,0.6-0.2,1.1-0.2,2.4c0,1.3,0.1,1.8,0.2,2.4C1062,319.1,1063.2,319.8,1064.8,319.8
	 M1054.4,318.7c0,0.6,0.4,1,1,1c0.5,0,1-0.4,1-1v-2.5c0-0.1,0-0.1,0.1-0.1h2.5c0.6,0,0.9-0.3,0.9-0.8s-0.3-0.8-0.9-0.8h-2.5
	c-0.1,0-0.1,0-0.1-0.1v-1.9c0-0.1,0-0.1,0.1-0.1h3.1c0.5,0,0.9-0.4,0.9-0.8c0-0.5-0.4-0.8-0.9-0.8h-4.3c-0.5,0-0.8,0.3-0.8,0.8
	V318.7z M1128.9,304.6c0.5,1.4,1.7,2.2,3.3,2.2c1.6,0,2.8-0.8,3.2-2.2c0.2-0.5,0.2-1.2,0.2-2v-0.1c0-0.5-0.3-0.8-0.8-0.8h-1.8
	c-0.5,0-0.8,0.3-0.8,0.8c0,0.5,0.3,0.8,0.8,0.8h0.6c0.1,0,0.1,0,0.1,0.1c0,0.3,0,0.6-0.1,0.9c-0.2,0.6-0.7,0.9-1.4,0.9
	c-0.8,0-1.3-0.4-1.4-1c-0.1-0.3-0.1-0.8-0.1-1.9c0-1.1,0-1.6,0.1-1.9c0.2-0.6,0.7-1,1.4-1c0.6,0,1,0.2,1.3,0.7
	c0.3,0.4,0.5,0.5,0.8,0.5c0.5,0,0.9-0.4,0.9-0.9c0-0.2-0.1-0.4-0.2-0.6c-0.5-0.8-1.5-1.4-2.9-1.4c-1.6,0-2.8,0.7-3.3,2.2
	c-0.2,0.6-0.2,1.1-0.2,2.4S1128.7,303.9,1128.9,304.6 M1120,305.7c0,0.6,0.4,0.9,0.9,0.9c0.5,0,0.9-0.3,0.9-0.9v-4.8h0.1l2.7,4.8
	c0.4,0.6,0.7,0.9,1.3,0.9c0.7,0,1.1-0.4,1.1-1.1v-7c0-0.6-0.4-0.9-0.9-0.9s-0.9,0.3-0.9,0.9v4.9h-0.1l-2.7-4.8
	c-0.4-0.6-0.7-0.9-1.3-0.9c-0.7,0-1.1,0.4-1.1,1.1V305.7z M1115.7,305.6c0,0.6,0.4,1,1,1c0.5,0,1-0.4,1-1v-7c0-0.6-0.4-1-1-1
	c-0.6,0-1,0.4-1,1V305.6z M1111.1,306.6c0.6,0,1-0.4,1-1v-6.2c0-0.1,0-0.1,0.1-0.1h1.5c0.6,0,1-0.4,1-0.8c0-0.5-0.4-0.9-1-0.9h-5.1
	c-0.6,0-1,0.4-1,0.9c0,0.5,0.4,0.8,1,0.8h1.5c0.1,0,0.1,0,0.1,0.1v6.2C1110.1,306.2,1110.5,306.6,1111.1,306.6 M1103,306.7
	c2.3,0,3.5-1.2,3.5-2.8c0-1.6-1-2.4-2.8-2.7l-0.5-0.1c-1-0.1-1.4-0.5-1.4-1c0-0.6,0.4-1,1.2-1c0.5,0,1.1,0.2,1.5,0.4
	c0.2,0.1,0.4,0.1,0.6,0.1c0.5,0,0.8-0.4,0.8-0.8c0-0.3-0.1-0.6-0.5-0.8c-0.5-0.3-1.5-0.6-2.5-0.6c-1.9,0-3.1,1.1-3.1,2.7
	c0,1.6,1,2.4,2.8,2.7l0.5,0.1c1.1,0.1,1.4,0.5,1.4,1c0,0.6-0.5,1-1.5,1c-0.7,0-1.2-0.2-1.9-0.6c-0.2-0.1-0.4-0.2-0.6-0.2
	c-0.5,0-0.9,0.4-0.9,0.8c0,0.3,0.2,0.6,0.5,0.8C1100.8,306.3,1101.8,306.7,1103,306.7 M1094.6,306.7c2,0,3.4-1.2,3.4-3.4v-4.7
	c0-0.6-0.4-1-1-1c-0.5,0-1,0.4-1,1v4.7c0,1.1-0.6,1.7-1.5,1.7c-0.8,0-1.5-0.6-1.5-1.7v-4.7c0-0.6-0.4-1-1-1c-0.6,0-1,0.4-1,1v4.7
	C1091.2,305.5,1092.6,306.7,1094.6,306.7 M1082.7,304.6c0.5,1.4,1.7,2.2,3.3,2.2c1.6,0,2.8-0.8,3.2-2.2c0.2-0.5,0.2-1.2,0.2-2v-0.1
	c0-0.5-0.3-0.8-0.8-0.8h-1.8c-0.5,0-0.8,0.3-0.8,0.8c0,0.5,0.3,0.8,0.8,0.8h0.6c0.1,0,0.1,0,0.1,0.1c0,0.3,0,0.6-0.1,0.9
	c-0.2,0.6-0.7,0.9-1.4,0.9c-0.8,0-1.3-0.4-1.5-1c-0.1-0.3-0.1-0.8-0.1-1.9c0-1.1,0-1.6,0.1-1.9c0.2-0.6,0.7-1,1.4-1
	c0.6,0,1,0.2,1.3,0.7c0.3,0.4,0.5,0.5,0.8,0.5c0.5,0,0.9-0.4,0.9-0.9c0-0.2-0.1-0.4-0.2-0.6c-0.5-0.8-1.5-1.4-2.9-1.4
	c-1.6,0-2.8,0.7-3.3,2.2c-0.2,0.6-0.2,1.1-0.2,2.4S1082.5,303.9,1082.7,304.6 M1077.5,306.7c2.3,0,3.5-1.2,3.5-2.8
	c0-1.6-1-2.4-2.8-2.7l-0.5-0.1c-1-0.1-1.4-0.5-1.4-1c0-0.6,0.4-1,1.2-1c0.5,0,1.1,0.2,1.5,0.4c0.2,0.1,0.4,0.1,0.6,0.1
	c0.5,0,0.8-0.4,0.8-0.8c0-0.3-0.1-0.6-0.5-0.8c-0.5-0.3-1.5-0.6-2.5-0.6c-1.9,0-3.1,1.1-3.1,2.7c0,1.6,1,2.4,2.8,2.7l0.5,0.1
	c1.1,0.1,1.4,0.5,1.4,1c0,0.6-0.5,1-1.4,1c-0.7,0-1.2-0.2-1.9-0.6c-0.2-0.1-0.4-0.2-0.6-0.2c-0.5,0-0.9,0.4-0.9,0.8
	c0,0.3,0.2,0.6,0.5,0.8C1075.3,306.3,1076.2,306.7,1077.5,306.7 M1070.5,305.6c0,0.6,0.4,1,1,1c0.5,0,1-0.4,1-1v-7c0-0.6-0.4-1-1-1
	c-0.6,0-1,0.4-1,1V305.6z M1063.6,304.8v-5.3c0-0.1,0-0.1,0.1-0.1h0.9c0.9,0,1.5,0.3,1.8,1c0.1,0.3,0.2,0.8,0.2,1.7
	s-0.1,1.4-0.2,1.7c-0.2,0.7-0.9,1-1.8,1L1063.6,304.8C1063.6,304.9,1063.6,304.8,1063.6,304.8 M1061.6,305.7c0,0.5,0.3,0.8,0.8,0.8
	h2.1c1.9,0,3.1-0.6,3.5-2c0.2-0.5,0.3-1.1,0.3-2.4s-0.1-1.9-0.3-2.4c-0.5-1.4-1.6-2.1-3.5-2.1h-2.1c-0.5,0-0.8,0.3-0.8,0.8V305.7z
	 M1127.2,265.3c-0.6-1.8-2.8-2.8-5.4-2.8c-1.2,0-2.5,0.2-3.8,0.7c-4.1,1.5-6.7,4.9-5.8,7.5c0.6,1.8,2.8,2.8,5.4,2.8
	c1.2,0,2.5-0.2,3.9-0.7C1125.5,271.4,1128.1,267.9,1127.2,265.3 M1128.5,271.3c-1.4,1.9-3.6,3.4-6.1,4.3c-1.6,0.6-3.2,0.9-4.8,0.9
	c-3.3,0-6.1-1.3-7.5-3.4l-7.8,2.8l17.5,6.4c0.8,0.3,1.1,1.1,0.9,1.9c-0.3,0.8-1.1,1.1-1.9,0.9l-20.8-7.6l-20.6,7.5
	c-0.8,0.3-1.6-0.1-1.9-0.9c-0.3-0.8,0.1-1.6,0.9-1.9l17.3-6.3l-9.7-3.5c-1.8,2.9-5.5,4.2-8.9,2.9h0h0l-11.5-4.2
	c-0.8-0.3-1.1-1.1-0.9-1.9c0.3-0.8,1.1-1.1,1.9-0.9l11.5,4.2c0,0,0,0,0,0h0c2.4,0.9,4.9-0.3,5.8-2.5c0.8-2.3-0.4-4.8-2.8-5.6
	c0,0,0,0,0,0c0,0,0,0,0,0l-11.5-4.2c-0.8-0.3-1.1-1.1-0.9-1.9c0.3-0.8,1.1-1.1,1.9-0.9l11.5,4.2c0,0,0,0,0,0c0,0,0,0,0,0
	c3.4,1.2,5.4,4.6,4.9,8l12.9,4.7l11.1-4c-0.2-1.8,0.4-3.8,1.7-5.5c1.4-1.9,3.6-3.4,6.1-4.3c1.6-0.6,3.2-0.9,4.8-0.9
	c4,0,7.1,1.8,8.1,4.7C1130.7,266.5,1130.2,269.1,1128.5,271.3 M1064.8,263.8c0.3-0.8,1.1-1.1,1.9-0.9l11.5,4.2
	c0.8,0.3,1.1,1.1,0.9,1.9c-0.3,0.8-1.1,1.1-1.9,0.9l-11.5-4.2C1064.9,265.4,1064.5,264.6,1064.8,263.8"/>
<path class="st0" d="M909.5,42.3c24.2,0,43.7,19.6,43.7,43.7c0,24.2-19.6,43.7-43.7,43.7c-24.2,0-43.7-19.6-43.7-43.7
	C865.7,61.8,885.3,42.3,909.5,42.3 M909.5,45.2c-22.5,0-40.8,18.3-40.8,40.8c0,22.5,18.3,40.8,40.8,40.8c22.5,0,40.8-18.3,40.8-40.8
	C950.3,63.5,932,45.2,909.5,45.2 M929,104.6c0.6-0.6,0.5-1.5,0-2.1c-0.6-0.6-1.5-0.5-2.1,0c-4.5,4.7-10.8,7.4-17.4,7.4
	c-6,0-11.8-2.2-16.2-6.3c-0.6-0.5-1.5-0.5-2.1,0.1c-0.5,0.6-0.5,1.5,0.1,2.1c5,4.6,11.4,7.1,18.2,7.1C916.9,113,924,109.9,929,104.6
	 M930.3,71.1c0.6-0.5,0.7-1.4,0.2-2c-5.1-6.3-12.8-10-20.9-10c-6,0-11.8,2-16.5,5.7c-0.6,0.5-0.8,1.4-0.3,2c0.5,0.6,1.4,0.8,2,0.3
	c4.2-3.3,9.4-5.1,14.8-5.1c7.3,0,14.1,3.2,18.7,8.9c0.3,0.4,0.7,0.5,1.1,0.5C929.7,71.4,930,71.3,930.3,71.1 M894.6,88
	c1.7-7,3.3-13,3.3-13c0.2-0.8-0.2-1.6-1-1.8c-0.8-0.2-1.6,0.2-1.8,1c0,0.1-1.4,5-2.9,11.1c0,0,0,0.1-0.1,0.1c-2,8.3-5.3,8.3-6.6,8.3
	c-0.5,0-1.2-0.1-1.7-0.7c-0.7-0.8-0.7-2.4-0.2-4.3c0.8-3.4,1.4-5.2,3.5-11.4c0.5-1.6,0.3-3.3-0.6-4.6c-0.9-1.2-2.2-1.9-3.8-1.9
	c-3.9,0-5.7,3.1-5.7,6c0,1.1,0.2,1.7,0.7,2.8c0.4,0.7,1.3,1,2,0.6c0.7-0.4,1-1.2,0.6-2c-0.3-0.6-0.4-0.8-0.4-1.5
	c0-0.5,0.1-3.1,2.8-3.1c0.6,0,1.1,0.2,1.4,0.7c0.4,0.5,0.5,1.3,0.2,2c-2.1,6.2-2.7,8.2-3.5,11.6c-1,3.6-0.1,5.7,0.7,6.8
	c0.9,1.2,2.3,1.9,4,1.9c2.4,0,4.4-1,6-2.9c0.3,1,0.6,1.8,1,2.3c0.3,0.4,0.7,0.6,1.2,0.6c0.3,0,0.6-0.1,0.8-0.2
	c0.7-0.4,0.9-1.4,0.4-2C894.6,93.6,893.6,91.2,894.6,88 M931.3,93.1c-0.3,0-0.8,0.3-1.6,0.3c-0.5,0-0.9-0.2-1.1-0.4
	c-0.2-0.2-0.2-0.6,0-1.2c0.2-0.6,0.3-1.1,0.5-1.6c0.2-0.6,0.5-1.4,0.7-2.4c0.4-1.5,0.1-2.9-0.7-3.9c-0.5-0.7-1.6-1.5-3.5-1.5
	c-0.5,0-1,0.1-1.4,0.3l1.5-5.6c0.2-0.8-0.3-1.6-1-1.8c-0.8-0.2-1.6,0.3-1.8,1l-3.2,12.3c0,0,0,0,0,0c-0.8,3.2-3.2,4.8-4.7,4.8
	c-1.2,0-2.7-0.5-2.7-2.9c0-3.6,2-5.3,3.3-5.3c0.8,0,1.2,0.3,1.8,0.3c0.6,0,0.9-0.1,1.2-0.5c0.5-0.6,0.4-1.6-0.3-2
	c-0.7-0.5-1.5-0.8-2.7-0.8c-2.6,0-6.2,2.5-6.2,8.2c0,4.3,2.8,5.9,5,5.9c1.3,0,2.7-0.7,3.8-1.8l0,0c-0.2,0.8,0.3,1.6,1,1.8
	c0.1,0,0.2,0,0.4,0c0.6,0,1.2-0.4,1.4-1.1l1.2-4.5c0,0,0,0,0,0c0.5-2,1.7-5.5,3.5-5.5c0.4,0,0.9,0.1,1.2,0.4
	c0.2,0.3,0.3,0.8,0.1,1.4c-0.2,0.9-0.5,1.6-0.7,2.2c-0.2,0.6-0.4,1.1-0.5,1.8c-0.5,1.9,0,3,0.5,3.7c0.7,0.9,1.9,1.5,3.4,1.5
	c0.7,0,1.3,0,2.1-0.3c0.8-0.3,1.1-1.1,0.9-1.9C932.5,93.4,931.9,93.1,931.3,93.1 M903.5,82.3c0-0.7-0.5-1.4-1.3-1.5
	c-0.7-0.1-1.4,0.4-1.6,1.1c-0.7,2.9-1.1,4.3-1.9,6.2c-0.3,0.7,0,1.6,0.8,1.9c0.7,0.3,1.6,0,1.9-0.8c0.3-0.7,0.5-1.3,0.7-2
	c0.3,0.5,0.7,0.9,1,1.3c0.9,1.1,1.4,1.7,1.4,2.5c0,2.5-2.2,2.5-2.5,2.5c-1.1,0-1.8-0.3-2.9-1c-0.7-0.5-1.6-0.3-2,0.3
	c-0.5,0.7-0.3,1.6,0.3,2c1.5,1.1,2.9,1.5,4.6,1.5c2.7,0,5.4-1.9,5.4-5.5c0-1.9-1.1-3.2-2-4.4C904.5,85.5,903.5,84.3,903.5,82.3
	 M941.4,75.7c-0.8-0.2-1.6,0.2-1.8,1l-3.2,11.7c-0.2,0.8,0.2,1.6,1,1.8c0.1,0,0.3,0.1,0.4,0.1c0.6,0,1.2-0.4,1.4-1.1l3.2-11.7
	C942.7,76.7,942.2,75.9,941.4,75.7 M936.4,92.3c-1,0-1.8,0.8-1.8,1.8c0,1,0.8,1.8,1.8,1.8s1.8-0.8,1.8-1.8
	C938.2,93.1,937.4,92.3,936.4,92.3 M922.6,120.5c-0.1-0.4-0.6-0.6-1-0.5l-2.5,0.7l-0.4-1.4l2-0.6c0.5-0.1,0.7-0.5,0.6-1
	c-0.1-0.4-0.5-0.7-1-0.5l-2,0.6l-0.4-1.4l2.5-0.7c0.2-0.1,0.4-0.2,0.5-0.4c0.1-0.2,0.1-0.4,0.1-0.6c-0.1-0.2-0.2-0.4-0.4-0.5
	c-0.2-0.1-0.4-0.1-0.6,0l-3.5,1c-0.2,0.1-0.4,0.2-0.5,0.4c-0.1,0.2-0.1,0.4,0,0.6l1.7,5.8c0.1,0.4,0.4,0.6,0.7,0.6
	c0.1,0,0.2,0,0.3,0l3.5-1C922.5,121.4,922.7,120.9,922.6,120.5 M913.4,115.8c-0.5,0-0.8,0.3-0.9,0.8l-0.8,3.9l-1.2-3.9
	c-0.2-0.5-0.4-0.8-0.9-0.7c-0.4,0-0.7,0.3-0.8,0.8l-1,3.9l-1-3.8c-0.1-0.5-0.4-0.8-0.9-0.8c-0.3,0-0.5,0.1-0.6,0.3
	c-0.2,0.2-0.2,0.4-0.2,0.6c0,0.1,0,0.3,0.1,0.3l1.6,5.7c0.2,0.6,0.5,0.9,1,0.9c0,0,0,0,0,0c0.5,0,0.8-0.3,0.9-0.9l1-3.7l1.1,3.7
	c0.2,0.6,0.5,0.9,1,0.9c0.5,0,0.8-0.3,0.9-0.9l1.4-5.7c0,0,0-0.2,0-0.3c0-0.2-0.1-0.5-0.2-0.6C913.8,115.9,913.6,115.8,913.4,115.8
	 M901.4,114.7c-0.8-0.2-1.5-0.2-2.1,0.1c-0.6,0.3-1,0.8-1.2,1.5c-0.4,1.3,0.2,2.3,1.7,2.9l0.4,0.2c0.8,0.4,0.9,0.7,0.8,1
	c-0.1,0.2-0.2,0.4-0.4,0.5c-0.2,0.1-0.5,0.1-0.9,0c-0.5-0.1-0.9-0.4-1.4-0.9c-0.1-0.1-0.2-0.2-0.5-0.3c-0.4-0.1-0.9,0.1-1,0.6
	c-0.1,0.3,0,0.6,0.2,0.8l0,0c0.3,0.3,1,1,2.1,1.3c0.4,0.1,0.8,0.2,1.2,0.2c1.2,0,2.1-0.6,2.4-1.7c0.4-1.3-0.2-2.3-1.7-2.9l-0.4-0.2
	c-0.9-0.4-0.9-0.7-0.9-1c0.1-0.4,0.5-0.6,1.1-0.4c0.4,0.1,0.8,0.3,1.1,0.6c0.1,0.1,0.3,0.2,0.5,0.3c0.4,0.1,0.9-0.1,1-0.5
	c0.1-0.3,0-0.6-0.2-0.8C902.9,115.3,902.1,114.9,901.4,114.7 M916.8,56.1c0.4,0.1,0.7,0,1-0.5l1.6-2.1l-0.8,3.2
	c-0.1,0.3,0,0.5,0.1,0.7c0.1,0.2,0.3,0.3,0.5,0.4c0.1,0,0.2,0,0.2,0c0.4,0,0.7-0.2,0.8-0.7l1.4-5.7c0.1-0.3,0-0.6-0.1-0.8
	c-0.1-0.2-0.3-0.4-0.6-0.4c-0.6-0.1-0.9,0.1-1.2,0.6l-2.3,3l-0.7-3.7c-0.1-0.6-0.3-1-0.8-1.1c-0.3-0.1-0.5,0-0.8,0.1
	c-0.2,0.1-0.4,0.4-0.4,0.7l-1.4,5.7c-0.1,0.3,0,0.5,0.1,0.7c0.1,0.2,0.3,0.3,0.5,0.4c0.5,0.1,0.9-0.1,1-0.7l0.8-3.2l0.5,2.6
	C916.2,55.7,916.4,56,916.8,56.1 M907.6,56.3C907.6,56.3,907.6,56.3,907.6,56.3c0.5,0,0.9-0.4,0.9-1l0-2.1l2.1,0
	c0.3,0,0.5-0.1,0.6-0.2c0.1-0.1,0.2-0.3,0.2-0.6c0-0.2-0.1-0.4-0.2-0.6c-0.2-0.1-0.4-0.2-0.6-0.2l-2.1,0l0-1.5l2.6,0
	c0.5,0,0.8-0.3,0.8-0.8c0-0.5-0.3-0.8-0.8-0.8c0,0,0,0,0,0l-3.6,0.1c-0.5,0-0.8,0.3-0.8,0.8l0.1,6C906.7,55.9,907.1,56.3,907.6,56.3
	 M900.1,56.1L900.1,56.1L900.1,56.1L900.1,56.1L900.1,56.1z M901.6,53.3c-0.2-0.6-0.4-1.1-0.5-1.3c-0.3-0.5-0.8-0.6-1.6-0.4
	l-0.7,0.2l1.2,4.3l0.7-0.2c0.7-0.2,1.1-0.6,1.1-1.1C901.9,54.4,901.8,53.9,901.6,53.3 M903.4,52.8c0.3,1.1,0.4,1.6,0.3,2
	c-0.1,1.3-0.8,2.1-2.5,2.5l-1.7,0.5c-0.1,0-0.2,0-0.3,0c-0.3,0-0.6-0.2-0.7-0.6l-1.6-5.8c-0.1-0.5,0.1-0.9,0.5-1l1.7-0.5
	c1.6-0.5,2.7-0.2,3.4,0.9C902.9,51.2,903.1,51.7,903.4,52.8 M945.6,189.8c0,0.6,0.4,0.9,0.9,0.9c0.5,0,0.9-0.3,0.9-0.9v-4.3h0.1
	l1.4,3.2c0.3,0.6,0.5,0.8,0.9,0.8c0.4,0,0.7-0.2,0.9-0.8l1.4-3.2h0.1v4.3c0,0.6,0.4,0.9,0.9,0.9s0.9-0.3,0.9-0.9v-7
	c0-0.7-0.4-1.1-1-1.1c-0.6,0-0.9,0.3-1.2,1l-1.9,4.3h-0.1l-1.9-4.3c-0.3-0.7-0.6-1-1.2-1c-0.6,0-1.1,0.4-1.1,1.1V189.8z
	 M940.2,190.8c2,0,3.4-1.2,3.4-3.4v-4.7c0-0.6-0.4-1-1-1c-0.5,0-1,0.4-1,1v4.7c0,1.1-0.6,1.7-1.5,1.7c-0.8,0-1.5-0.6-1.5-1.7v-4.7
	c0-0.6-0.4-1-1-1c-0.6,0-1,0.4-1,1v4.7C936.8,189.6,938.1,190.8,940.2,190.8 M929,189.8c0,0.5,0.3,0.8,0.8,0.8h4.3
	c0.5,0,0.9-0.4,0.9-0.8c0-0.5-0.4-0.8-0.9-0.8H931c-0.1,0-0.1,0-0.1-0.1v-1.8c0-0.1,0-0.1,0.1-0.1h2.5c0.5,0,0.9-0.3,0.9-0.8
	c0-0.5-0.3-0.8-0.9-0.8H931c-0.1,0-0.1,0-0.1-0.1v-1.8c0-0.1,0-0.1,0.1-0.1h3.1c0.5,0,0.9-0.4,0.9-0.8c0-0.5-0.4-0.8-0.9-0.8h-4.3
	c-0.5,0-0.8,0.3-0.8,0.8V189.8z M923.8,190.8c2.3,0,3.5-1.2,3.5-2.8c0-1.6-1-2.4-2.8-2.7l-0.5-0.1c-1-0.1-1.4-0.5-1.4-1
	c0-0.6,0.4-1,1.2-1c0.5,0,1.1,0.2,1.5,0.4c0.2,0.1,0.4,0.1,0.6,0.1c0.5,0,0.8-0.4,0.8-0.8c0-0.3-0.1-0.6-0.5-0.8
	c-0.5-0.3-1.5-0.6-2.5-0.6c-1.9,0-3.1,1.1-3.1,2.7c0,1.6,1,2.4,2.8,2.7l0.5,0.1c1.1,0.1,1.4,0.5,1.4,1c0,0.6-0.5,1-1.5,1
	c-0.7,0-1.2-0.2-1.9-0.6c-0.2-0.1-0.4-0.2-0.6-0.2c-0.5,0-0.9,0.4-0.9,0.8c0,0.3,0.2,0.6,0.5,0.8
	C921.6,190.4,922.6,190.8,923.8,190.8 M915.4,190.8c2,0,3.4-1.2,3.4-3.4v-4.7c0-0.6-0.4-1-1-1c-0.5,0-1,0.4-1,1v4.7
	c0,1.1-0.6,1.7-1.5,1.7c-0.8,0-1.5-0.6-1.5-1.7v-4.7c0-0.6-0.4-1-1-1c-0.6,0-1,0.4-1,1v4.7C912,189.6,913.4,190.8,915.4,190.8
	 M901.4,189.8c0,0.6,0.4,0.9,0.9,0.9c0.5,0,0.9-0.3,0.9-0.9v-4.3h0.1l1.4,3.2c0.3,0.6,0.5,0.8,0.9,0.8c0.4,0,0.7-0.2,0.9-0.8
	l1.4-3.2h0.1v4.3c0,0.6,0.4,0.9,0.9,0.9c0.5,0,0.9-0.3,0.9-0.9v-7c0-0.7-0.4-1.1-1-1.1c-0.6,0-0.9,0.3-1.2,1l-1.9,4.3h-0.1l-1.9-4.3
	c-0.3-0.7-0.6-1-1.2-1c-0.6,0-1.1,0.4-1.1,1.1V189.8z M891.8,188.9v-5.3c0-0.1,0-0.1,0.1-0.1h0.9c0.9,0,1.5,0.3,1.8,1
	c0.1,0.3,0.2,0.8,0.2,1.7c0,0.9-0.1,1.4-0.2,1.7c-0.2,0.7-0.9,1-1.8,1L891.8,188.9C891.8,189,891.8,188.9,891.8,188.9 M889.9,189.8
	c0,0.5,0.3,0.8,0.8,0.8h2.1c1.9,0,3.1-0.6,3.5-2.1c0.2-0.5,0.3-1.1,0.3-2.4s-0.1-1.9-0.3-2.4c-0.5-1.5-1.6-2.1-3.5-2.1h-2.1
	c-0.5,0-0.8,0.3-0.8,0.8V189.8z M884.5,189.1c-0.7,0-1.2-0.4-1.4-1c-0.1-0.3-0.1-0.8-0.1-1.9c0-1.1,0-1.6,0.1-1.9
	c0.2-0.6,0.7-1,1.4-1c0.7,0,1.2,0.4,1.4,1c0.1,0.3,0.1,0.8,0.1,1.9c0,1.1,0,1.6-0.1,1.9C885.7,188.7,885.3,189.1,884.5,189.1
	 M884.5,190.8c1.6,0,2.8-0.7,3.2-2.2c0.2-0.6,0.2-1.1,0.2-2.4c0-1.3-0.1-1.8-0.2-2.4c-0.5-1.4-1.7-2.2-3.2-2.2
	c-1.6,0-2.8,0.7-3.2,2.2c-0.2,0.6-0.2,1.1-0.2,2.4c0,1.3,0.1,1.8,0.2,2.4C881.8,190.1,883,190.8,884.5,190.8 M876,189.1
	c-0.7,0-1.2-0.4-1.4-1c-0.1-0.3-0.1-0.8-0.1-1.9c0-1.1,0-1.6,0.1-1.9c0.2-0.6,0.7-1,1.4-1c0.7,0,1.2,0.4,1.4,1
	c0.1,0.3,0.1,0.8,0.1,1.9c0,1.1,0,1.6-0.1,1.9C877.2,188.7,876.7,189.1,876,189.1 M876,190.8c1.6,0,2.8-0.7,3.2-2.2
	c0.2-0.6,0.2-1.1,0.2-2.4c0-1.3-0.1-1.8-0.2-2.4c-0.5-1.4-1.7-2.2-3.2-2.2s-2.8,0.7-3.2,2.2c-0.2,0.6-0.2,1.1-0.2,2.4
	c0,1.3,0.1,1.8,0.2,2.4C873.2,190.1,874.4,190.8,876,190.8 M865.6,189.7c0,0.6,0.4,1,1,1c0.5,0,1-0.4,1-1v-2.5c0-0.1,0-0.1,0.1-0.1
	h2.5c0.6,0,0.9-0.3,0.9-0.8s-0.3-0.8-0.9-0.8h-2.5c-0.1,0-0.1,0-0.1-0.1v-1.9c0-0.1,0-0.1,0.1-0.1h3.1c0.5,0,0.9-0.4,0.9-0.8
	c0-0.5-0.4-0.8-0.9-0.8h-4.3c-0.5,0-0.8,0.3-0.8,0.8V189.7z M940.1,175.6c0.5,1.4,1.7,2.2,3.3,2.2s2.8-0.8,3.2-2.2
	c0.2-0.5,0.2-1.2,0.2-2v-0.1c0-0.5-0.3-0.8-0.8-0.8h-1.8c-0.5,0-0.8,0.3-0.8,0.8c0,0.5,0.3,0.8,0.8,0.8h0.6c0.1,0,0.1,0,0.1,0.1
	c0,0.3,0,0.6-0.1,0.9c-0.2,0.6-0.7,0.9-1.4,0.9c-0.8,0-1.3-0.4-1.4-1c-0.1-0.3-0.1-0.8-0.1-1.9c0-1.1,0-1.6,0.1-1.9
	c0.2-0.6,0.7-1,1.4-1c0.6,0,1,0.2,1.3,0.7c0.3,0.4,0.5,0.5,0.8,0.5c0.5,0,0.9-0.4,0.9-0.9c0-0.2-0.1-0.4-0.2-0.6
	c-0.5-0.8-1.5-1.4-2.9-1.4c-1.6,0-2.8,0.7-3.3,2.2c-0.2,0.6-0.2,1.1-0.2,2.4S939.9,175,940.1,175.6 M931.2,176.8
	c0,0.6,0.4,0.9,0.9,0.9c0.5,0,0.9-0.3,0.9-0.9v-4.8h0.1l2.7,4.8c0.4,0.6,0.7,0.9,1.3,0.9c0.7,0,1.1-0.4,1.1-1.1v-7
	c0-0.6-0.4-0.9-0.9-0.9s-0.9,0.3-0.9,0.9v4.9h-0.1l-2.7-4.8c-0.4-0.6-0.7-0.9-1.3-0.9c-0.7,0-1.1,0.4-1.1,1.1V176.8z M926.9,176.7
	c0,0.6,0.4,1,1,1c0.5,0,1-0.4,1-1v-7c0-0.6-0.4-1-1-1c-0.6,0-1,0.4-1,1V176.7z M922.2,177.7c0.6,0,1-0.4,1-1v-6.2
	c0-0.1,0-0.1,0.1-0.1h1.5c0.6,0,1-0.4,1-0.8c0-0.5-0.4-0.9-1-0.9h-5.1c-0.6,0-1,0.4-1,0.9c0,0.5,0.4,0.8,1,0.8h1.5
	c0.1,0,0.1,0,0.1,0.1v6.2C921.3,177.3,921.7,177.7,922.2,177.7 M914.2,177.7c2.3,0,3.5-1.2,3.5-2.8c0-1.6-1-2.4-2.8-2.7l-0.5-0.1
	c-1-0.1-1.4-0.5-1.4-1c0-0.6,0.4-1,1.2-1c0.5,0,1.1,0.2,1.5,0.4c0.2,0.1,0.4,0.1,0.6,0.1c0.5,0,0.8-0.4,0.8-0.8
	c0-0.3-0.1-0.6-0.5-0.8c-0.5-0.3-1.5-0.6-2.5-0.6c-1.9,0-3.1,1.1-3.1,2.7c0,1.6,1,2.4,2.8,2.7l0.5,0.1c1.1,0.1,1.4,0.5,1.4,1
	c0,0.6-0.5,1-1.5,1c-0.7,0-1.2-0.2-1.9-0.6c-0.2-0.1-0.4-0.2-0.6-0.2c-0.5,0-0.9,0.4-0.9,0.8c0,0.3,0.2,0.6,0.5,0.8
	C912,177.4,913,177.7,914.2,177.7 M905.8,177.7c2,0,3.4-1.2,3.4-3.4v-4.7c0-0.6-0.4-1-1-1c-0.5,0-1,0.4-1,1v4.7
	c0,1.1-0.6,1.7-1.5,1.7c-0.8,0-1.5-0.6-1.5-1.7v-4.7c0-0.6-0.4-1-1-1c-0.6,0-1,0.4-1,1v4.7C902.4,176.5,903.8,177.7,905.8,177.7
	 M893.9,175.6c0.5,1.4,1.7,2.2,3.3,2.2c1.6,0,2.8-0.8,3.2-2.2c0.2-0.5,0.2-1.2,0.2-2v-0.1c0-0.5-0.3-0.8-0.8-0.8H898
	c-0.5,0-0.8,0.3-0.8,0.8c0,0.5,0.3,0.8,0.8,0.8h0.6c0.1,0,0.1,0,0.1,0.1c0,0.3,0,0.6-0.1,0.9c-0.2,0.6-0.7,0.9-1.4,0.9
	c-0.8,0-1.3-0.4-1.5-1c-0.1-0.3-0.1-0.8-0.1-1.9c0-1.1,0-1.6,0.1-1.9c0.2-0.6,0.7-1,1.4-1c0.6,0,1,0.2,1.3,0.7
	c0.3,0.4,0.5,0.5,0.8,0.5c0.5,0,0.9-0.4,0.9-0.9c0-0.2-0.1-0.4-0.2-0.6c-0.5-0.8-1.5-1.4-2.9-1.4c-1.6,0-2.8,0.7-3.3,2.2
	c-0.2,0.6-0.2,1.1-0.2,2.4S893.7,175,893.9,175.6 M888.7,177.7c2.3,0,3.5-1.2,3.5-2.8c0-1.6-1-2.4-2.8-2.7l-0.5-0.1
	c-1-0.1-1.4-0.5-1.4-1c0-0.6,0.4-1,1.2-1c0.5,0,1.1,0.2,1.5,0.4c0.2,0.1,0.4,0.1,0.6,0.1c0.5,0,0.8-0.4,0.8-0.8
	c0-0.3-0.1-0.6-0.5-0.8c-0.5-0.3-1.5-0.6-2.5-0.6c-1.9,0-3.1,1.1-3.1,2.7c0,1.6,1,2.4,2.8,2.7l0.5,0.1c1.1,0.1,1.4,0.5,1.4,1
	c0,0.6-0.5,1-1.5,1c-0.7,0-1.2-0.2-1.9-0.6c-0.2-0.1-0.4-0.2-0.6-0.2c-0.5,0-0.9,0.4-0.9,0.8c0,0.3,0.2,0.6,0.5,0.8
	C886.5,177.4,887.4,177.7,888.7,177.7 M881.7,176.7c0,0.6,0.4,1,1,1c0.5,0,1-0.4,1-1v-7c0-0.6-0.4-1-1-1c-0.6,0-1,0.4-1,1V176.7z
	 M874.8,175.8v-5.3c0-0.1,0-0.1,0.1-0.1h0.9c0.9,0,1.5,0.3,1.8,1c0.1,0.3,0.2,0.8,0.2,1.7s-0.1,1.4-0.2,1.7c-0.2,0.7-0.9,1-1.8,1
	L874.8,175.8C874.8,175.9,874.8,175.9,874.8,175.8 M872.8,176.8c0,0.5,0.3,0.8,0.8,0.8h2.1c1.9,0,3.1-0.6,3.5-2.1
	c0.2-0.5,0.3-1.1,0.3-2.4s-0.1-1.9-0.3-2.4c-0.5-1.4-1.6-2.1-3.5-2.1h-2.1c-0.5,0-0.8,0.3-0.8,0.8V176.8z M938.4,136.4
	c-0.6-1.8-2.8-2.8-5.4-2.8c-1.2,0-2.5,0.2-3.8,0.7c-4.1,1.5-6.7,4.9-5.8,7.5c0.6,1.8,2.8,2.8,5.4,2.8c1.2,0,2.5-0.2,3.9-0.7
	C936.7,142.4,939.3,139,938.4,136.4 M939.7,142.3c-1.4,1.9-3.6,3.4-6.1,4.3c-1.6,0.6-3.2,0.9-4.8,0.9c-3.3,0-6.1-1.3-7.5-3.4
	l-7.8,2.8l17.5,6.4c0.8,0.3,1.1,1.1,0.9,1.9c-0.3,0.8-1.1,1.1-1.9,0.9l-20.8-7.6l-20.6,7.5c-0.8,0.3-1.6-0.1-1.9-0.9
	c-0.3-0.8,0.1-1.6,0.9-1.9L905,147l-9.7-3.5c-1.8,2.9-5.5,4.2-8.9,2.9h0h0l-11.5-4.2c-0.8-0.3-1.1-1.1-0.9-1.9
	c0.3-0.8,1.1-1.1,1.9-0.9l11.5,4.2l0,0h0c2.4,0.9,4.9-0.3,5.8-2.5c0.8-2.3-0.4-4.8-2.8-5.6c0,0,0,0,0,0c0,0,0,0,0,0l-11.5-4.2
	c-0.8-0.3-1.1-1.1-0.9-1.9c0.3-0.8,1.1-1.1,1.9-0.9l11.5,4.2c0,0,0,0,0,0c0,0,0,0,0,0c3.4,1.2,5.4,4.6,4.9,8l12.9,4.7l11.1-4
	c-0.2-1.8,0.4-3.8,1.7-5.5c1.4-1.9,3.6-3.4,6.1-4.3c1.6-0.6,3.2-0.9,4.8-0.9c4,0,7.1,1.8,8.1,4.7
	C941.9,137.6,941.4,140.1,939.7,142.3 M876,134.9c0.3-0.8,1.1-1.1,1.9-0.9l11.5,4.2c0.8,0.3,1.1,1.1,0.9,1.9
	c-0.3,0.8-1.1,1.1-1.9,0.9l-11.5-4.2C876.1,136.5,875.7,135.6,876,134.9"/>
<path class="st0" d="M876.1,348.7c-0.9,0-1.4,0.6-1.4,1.4c0,0.7,0.7,1.2,1.2,1.2c0.4,0,1.3,0,2.1-1.6
	C877.3,349.1,876.7,348.7,876.1,348.7 M881.1,349c1.4,1.2,2.8,2.4,4.6,2.4c3.2,0,4.8-2.7,4.8-4.6c0-1.2-0.4-4.1-4-4.1
	c-0.7,0-1.3-0.6-1.3-1.3s0.6-1.3,1.3-1.3c2.2,0,3.6-1.1,3.6-2.9c0-1-0.7-2.3-2.6-3.1c-2.6,1.2-3.1,2.5-3.6,4.4c0,0-1.8,6.6-2.5,9.4
	C881.3,348.3,881.2,348.6,881.1,349 M885.7,353.9c-2.4,0-4.3-1.2-5.8-2.5c-1,1.6-2.4,2.4-4.1,2.4c-1.8,0-3.8-1.5-3.8-3.8
	c0-2.3,1.7-3.9,4-3.9c1.1,0,2,0.4,2.8,1.1c0.7-2.7,2.5-9.3,2.5-9.3c0.4-1.6,1-3.1,2.4-4.5c-0.1,0-0.2,0-0.2,0
	c-7.2,0-7.4,4.2-7.4,4.7c0,1,0.6,2,1.4,2.3c0.7,0.3,0.9,1,0.7,1.7c-0.3,0.7-1,1-1.7,0.7c-1.7-0.8-2.9-2.7-2.9-4.7
	c0-2.7,2.1-7.3,10-7.3c6.2,0,9.1,3.3,9.1,6.4c0,1.7-0.7,3.2-2,4.1c1.7,1.3,2.4,3.5,2.4,5.4C893.1,350.2,890.3,353.9,885.7,353.9
	 M929.9,346.4c-0.2,0-0.5,0-0.7,0.1l0.5-1.8c0.5-1.9,1.4-2.1,2.2-2.1c0.3,0,0.6,0.1,0.8,0.4c0.3,0.3,0.4,0.8,0.3,1.3
	C932.9,345.5,932,346.6,929.9,346.4 M900.3,342.5c0.6,0,0.8,0.4,0.8,0.8c0,0.3-0.2,1.2-1,1.8c-0.7,0.5-1.6,0.7-2.7,0.4
	C897.9,344,898.8,342.5,900.3,342.5 M914.2,350.5c-0.4,0-0.7-0.1-0.9-0.4c-0.3-0.4-0.3-0.9-0.1-1.6c0.1-0.2,0.1-0.3,0.1-0.5
	c0.9-3.1,1.7-6.1,1.7-6.1c0.2-0.7-0.2-1.4-0.9-1.6c-0.7-0.2-1.4,0.2-1.6,0.9c0,0-0.8,3-1.7,6c-0.9,3.2-2,3.2-2.6,3.2
	c-0.2,0-0.6-0.1-0.8-0.4c-0.3-0.4-0.3-0.9-0.1-1.6c0.4-1.2,1.9-6.6,1.9-6.6c0.2-0.7-0.2-1.4-0.9-1.6c-0.7-0.2-1.4,0.2-1.6,0.9
	c0,0-1.4,4.9-1.8,6.4c-1.2,1.5-3.6,2.9-5.3,2.9c-1.2,0-2.5-0.3-2.6-2.5c2.3,0.4,3.7-0.2,4.6-0.9c1.4-1.1,2-2.7,2-3.8
	c0-1.9-1.4-3.4-3.4-3.4c-4,0-5.9,4.7-5.9,7.8c0,3.3,1.9,5.3,5.2,5.3c1.7,0,3.8-0.8,5.4-2c0.1,0.2,0.2,0.4,0.4,0.6
	c0.7,0.9,1.7,1.4,2.9,1.4c1.4,0,2.4-0.5,3.1-1.3c0.7,0.8,1.7,1.3,2.8,1.3c0,0,0,0,0,0s0,0,0,0c3.5,0,4.4-3.4,4.7-4.7l1.4-5.3
	c0.4,0.3,0.8,0.5,1.3,0.6c0.2,0,0.5,0.2,0.6,0.3c0.1,0.2,0.1,0.6-0.1,1l-0.3,1c-0.3,1-0.6,2.1-0.9,3c-0.3,1-0.1,2,0.5,2.8
	c0.6,0.8,1.5,1.3,2.5,1.3c0.4,0,0.9-0.2,1.3-0.4c0.2,0.3,0.4,0.6,0.8,0.7c0.1,0,0.2,0,0.3,0c0.6,0,1.1-0.4,1.2-1l1-3.8
	c0.7,3,2.4,4.6,5.1,4.6c2.4,0,4-1.7,4.5-3.4c0.2-0.7-0.2-1.4-0.9-1.6c-0.7-0.2-1.4,0.2-1.6,0.9c-0.2,0.8-1,1.6-2,1.6
	c-0.9,0-1.8-0.2-2.4-1.7c2.5-0.4,3.9-2.4,4.2-4.3c0.2-1.3-0.2-2.4-1-3.3c-0.7-0.8-1.7-1.2-2.8-1.2c-0.3,0-0.6,0-0.9,0.1l1.2-4.5
	c0.2-0.7-0.2-1.4-0.9-1.6c-0.7-0.2-1.4,0.2-1.6,0.9l-2.5,9.1c0,0,0,0,0,0.1c0,0,0,0,0,0l-1.2,4.4c-0.4,0.9-1.1,1.8-1.9,1.8
	c-0.5,0-0.7-0.4-0.6-0.9c0.2-0.9,0.6-2,0.8-2.9l0.3-1c0.3-1.2,0.3-2.2-0.2-3c-0.4-0.8-1.1-1.3-2.1-1.6c-0.3-0.1-0.8-0.2-1.5-1.4
	c-0.3-0.4-0.8-0.7-1.3-0.6c-0.5,0.1-0.9,0.4-1.1,0.9l-2,7.7C915.9,349.8,915.3,350.5,914.2,350.5 M942.6,347.5c-0.1,0-0.2,0-0.3,0
	c-0.7-0.2-1.1-0.9-0.9-1.6l2.9-10.6c0.2-0.7,0.9-1.1,1.6-0.9c0.7,0.2,1.1,0.9,0.9,1.6l-2.9,10.6
	C943.7,347.1,943.2,347.5,942.6,347.5 M942.9,351c0,0.9-0.7,1.6-1.6,1.6c-0.9,0-1.6-0.7-1.6-1.6c0-0.9,0.7-1.6,1.6-1.6
	C942.2,349.4,942.9,350.1,942.9,351 M909.6,370.8c-7.1,0-14-2.9-19.1-7.9c-0.6-0.6-0.6-1.5,0-2.1c0.6-0.6,1.5-0.6,2.1,0
	c4.5,4.5,10.7,7,17,7c6.4,0,12.3-2.5,16.9-6.9c0.6-0.6,1.5-0.6,2.1,0c0.6,0.6,0.6,1.5,0,2.1C923.5,368.1,916.8,370.8,909.6,370.8
	 M929.4,329.3c-0.4,0-0.8-0.2-1.1-0.5c-4.6-5.7-11.4-8.9-18.7-8.9c-5.9,0-11.6,2.2-16,6.1c-0.6,0.5-1.5,0.5-2.1-0.1
	c-0.5-0.6-0.5-1.5,0.1-2.1c4.9-4.4,11.3-6.8,17.9-6.8c8.2,0,15.8,3.6,20.9,10c0.5,0.6,0.4,1.5-0.2,2.1
	C930.1,329.2,929.8,329.3,929.4,329.3 M918.4,377.4l-1.5,0.4l0.2-2.4L918.4,377.4z M921.3,378.9c0-0.1-0.1-0.2-0.1-0.3l-3.2-5
	c-0.4-0.6-0.8-0.8-1.4-0.7c-0.6,0.1-0.9,0.5-0.9,1.3l-0.7,5.9c0,0.1,0,0.2,0,0.3c0.1,0.2,0.2,0.4,0.4,0.5c0.1,0.1,0.3,0.1,0.4,0.1
	c0.1,0,0.1,0,0.2,0c0.4-0.1,0.6-0.4,0.7-0.8l0.1-0.9l2.5-0.6l0.5,0.8c0.2,0.4,0.6,0.5,1,0.4c0.2-0.1,0.4-0.2,0.5-0.4
	C921.4,379.4,921.4,379.2,921.3,378.9 M910.7,376.3c0,0.3-0.1,0.5-0.3,0.6c-0.2,0.1-0.4,0.2-0.7,0.2l-1.3,0l0-1.7l1.3,0
	c0.3,0,0.5,0.1,0.7,0.2C910.6,375.8,910.7,376,910.7,376.3 M912.5,376.3c0-0.7-0.2-1.3-0.7-1.7c-0.5-0.4-1.1-0.7-1.9-0.7l-2.4,0
	c-0.5,0-0.8,0.3-0.8,0.8l-0.1,6c0,0.3,0.1,0.5,0.2,0.7c0.2,0.2,0.4,0.3,0.6,0.3c0.2,0,0.5-0.1,0.6-0.3c0.2-0.2,0.3-0.4,0.3-0.7l0-2
	l1,0l1.2,2.4l0,0c0.2,0.4,0.5,0.6,0.9,0.6h0c0.2,0,0.5-0.1,0.6-0.2c0.1-0.2,0.2-0.4,0.2-0.6c0-0.2,0-0.3-0.1-0.5l-1-1.9
	C912,377.9,912.5,377.2,912.5,376.3 M904.3,373.4l-3.5-0.9c-0.5-0.1-0.8,0.1-1,0.6l-1.4,5.8c-0.1,0.5,0.1,1,0.6,1.1
	c0.1,0,0.2,0,0.2,0c0.4,0,0.7-0.3,0.9-0.7l0.5-2.1l2,0.5c0.5,0.1,0.9-0.1,1-0.6c0.1-0.2,0-0.4-0.1-0.6c-0.1-0.2-0.3-0.3-0.5-0.4
	l-2-0.5l0.4-1.5l2.6,0.6c0.2,0.1,0.5,0,0.6-0.1c0.2-0.1,0.3-0.3,0.4-0.5c0.1-0.2,0-0.4-0.1-0.6C904.7,373.6,904.5,373.5,904.3,373.4
	 M909.5,300.2c24.2,0,43.7,19.6,43.7,43.7c0,24.2-19.6,43.7-43.7,43.7c-24.2,0-43.7-19.6-43.7-43.7
	C865.7,319.8,885.3,300.2,909.5,300.2 M909.5,303.1c-22.5,0-40.8,18.3-40.8,40.8s18.3,40.8,40.8,40.8c22.5,0,40.8-18.3,40.8-40.8
	S932,303.1,909.5,303.1 M916.8,314c0.4,0.1,0.7,0,1-0.5l1.6-2.1l-0.8,3.2c-0.1,0.3,0,0.5,0.1,0.7c0.1,0.2,0.3,0.3,0.5,0.4
	c0.1,0,0.2,0,0.2,0c0.4,0,0.7-0.2,0.8-0.7l1.4-5.7c0.1-0.3,0-0.6-0.1-0.8c-0.1-0.2-0.3-0.4-0.6-0.4c-0.6-0.1-0.9,0.1-1.2,0.6l-2.3,3
	l-0.7-3.7c-0.1-0.6-0.3-1-0.8-1.1c-0.3-0.1-0.5,0-0.8,0.1c-0.2,0.1-0.4,0.4-0.4,0.7l-1.4,5.7c-0.1,0.3,0,0.5,0.1,0.7
	c0.1,0.2,0.3,0.3,0.5,0.4c0.5,0.1,0.9-0.1,1-0.7l0.8-3.2l0.5,2.6C916.2,313.7,916.4,313.9,916.8,314 M907.6,314.2
	C907.6,314.2,907.6,314.2,907.6,314.2c0.5,0,0.9-0.4,0.9-1l0-2.1l2.1,0c0.3,0,0.5-0.1,0.6-0.2c0.1-0.1,0.2-0.3,0.2-0.6
	c0-0.2-0.1-0.4-0.2-0.6c-0.2-0.1-0.4-0.2-0.6-0.2l-2.1,0l0-1.5l2.6,0c0.5,0,0.8-0.3,0.8-0.8c0-0.5-0.3-0.8-0.8-0.8c0,0,0,0,0,0
	l-3.6,0.1c-0.5,0-0.8,0.3-0.8,0.8l0.1,6C906.7,313.8,907.1,314.2,907.6,314.2 M900.1,314L900.1,314L900.1,314L900.1,314L900.1,314z
	 M901.6,311.2c-0.2-0.6-0.4-1.1-0.5-1.3c-0.3-0.5-0.8-0.6-1.6-0.4l-0.7,0.2l1.2,4.3l0.7-0.2c0.7-0.2,1.1-0.6,1.1-1.1
	C901.9,312.3,901.8,311.8,901.6,311.2 M903.4,310.7c0.3,1.1,0.4,1.6,0.3,2c-0.1,1.3-0.8,2.1-2.5,2.5l-1.7,0.5c-0.1,0-0.2,0-0.3,0
	c-0.3,0-0.6-0.2-0.7-0.6l-1.6-5.8c-0.1-0.5,0.1-0.9,0.5-1l1.7-0.5c1.6-0.5,2.7-0.2,3.4,0.9C902.9,309.1,903.1,309.6,903.4,310.7
	 M945.6,447.7c0,0.6,0.4,0.9,0.9,0.9c0.5,0,0.9-0.3,0.9-0.9v-4.3h0.1l1.4,3.2c0.3,0.6,0.5,0.8,0.9,0.8c0.4,0,0.7-0.2,0.9-0.8
	l1.4-3.2h0.1v4.3c0,0.6,0.4,0.9,0.9,0.9s0.9-0.3,0.9-0.9v-7c0-0.7-0.4-1.2-1-1.2c-0.6,0-0.9,0.3-1.2,1l-1.9,4.3h-0.1l-1.9-4.3
	c-0.3-0.7-0.6-1-1.2-1c-0.6,0-1.1,0.4-1.1,1.2V447.7z M940.2,448.7c2,0,3.4-1.2,3.4-3.4v-4.7c0-0.6-0.4-1-1-1c-0.5,0-1,0.4-1,1v4.7
	c0,1.1-0.6,1.7-1.5,1.7c-0.8,0-1.5-0.6-1.5-1.7v-4.7c0-0.6-0.4-1-1-1c-0.6,0-1,0.4-1,1v4.7C936.8,447.5,938.1,448.7,940.2,448.7
	 M929,447.7c0,0.5,0.3,0.8,0.8,0.8h4.3c0.5,0,0.9-0.4,0.9-0.8c0-0.5-0.4-0.8-0.9-0.8H931c-0.1,0-0.1,0-0.1-0.1V445
	c0-0.1,0-0.1,0.1-0.1h2.5c0.5,0,0.9-0.3,0.9-0.8c0-0.5-0.3-0.8-0.9-0.8H931c-0.1,0-0.1,0-0.1-0.1v-1.8c0-0.1,0-0.1,0.1-0.1h3.1
	c0.5,0,0.9-0.4,0.9-0.8c0-0.5-0.4-0.8-0.9-0.8h-4.3c-0.5,0-0.8,0.3-0.8,0.8V447.7z M923.8,448.7c2.3,0,3.5-1.2,3.5-2.8
	c0-1.6-1-2.4-2.8-2.7l-0.5-0.1c-1-0.1-1.4-0.5-1.4-1c0-0.6,0.4-1,1.2-1c0.5,0,1.1,0.2,1.5,0.4c0.2,0.1,0.4,0.1,0.6,0.1
	c0.5,0,0.8-0.4,0.8-0.8c0-0.3-0.1-0.6-0.5-0.8c-0.5-0.3-1.5-0.6-2.5-0.6c-1.9,0-3.1,1.1-3.1,2.7c0,1.6,1,2.4,2.8,2.7l0.5,0.1
	c1.1,0.1,1.4,0.5,1.4,1c0,0.6-0.5,1-1.5,1c-0.7,0-1.2-0.2-1.9-0.6c-0.2-0.1-0.4-0.2-0.6-0.2c-0.5,0-0.9,0.4-0.9,0.8
	c0,0.3,0.2,0.6,0.5,0.8C921.6,448.3,922.6,448.7,923.8,448.7 M915.4,448.7c2,0,3.4-1.2,3.4-3.4v-4.7c0-0.6-0.4-1-1-1
	c-0.5,0-1,0.4-1,1v4.7c0,1.1-0.6,1.7-1.5,1.7c-0.8,0-1.5-0.6-1.5-1.7v-4.7c0-0.6-0.4-1-1-1c-0.6,0-1,0.4-1,1v4.7
	C912,447.5,913.4,448.7,915.4,448.7 M901.4,447.7c0,0.6,0.4,0.9,0.9,0.9c0.5,0,0.9-0.3,0.9-0.9v-4.3h0.1l1.4,3.2
	c0.3,0.6,0.5,0.8,0.9,0.8c0.4,0,0.7-0.2,0.9-0.8l1.4-3.2h0.1v4.3c0,0.6,0.4,0.9,0.9,0.9c0.5,0,0.9-0.3,0.9-0.9v-7
	c0-0.7-0.4-1.2-1-1.2c-0.6,0-0.9,0.3-1.2,1l-1.9,4.3h-0.1l-1.9-4.3c-0.3-0.7-0.6-1-1.2-1c-0.6,0-1.1,0.4-1.1,1.2V447.7z
	 M891.8,446.8v-5.3c0-0.1,0-0.1,0.1-0.1h0.9c0.9,0,1.5,0.3,1.8,1c0.1,0.3,0.2,0.8,0.2,1.7c0,0.9-0.1,1.4-0.2,1.7
	c-0.2,0.7-0.9,1-1.8,1L891.8,446.8C891.8,446.9,891.8,446.9,891.8,446.8 M889.9,447.8c0,0.5,0.3,0.8,0.8,0.8h2.1
	c1.9,0,3.1-0.6,3.5-2.1c0.2-0.5,0.3-1.1,0.3-2.4s-0.1-1.9-0.3-2.4c-0.5-1.5-1.6-2.1-3.5-2.1h-2.1c-0.5,0-0.8,0.3-0.8,0.8V447.8z
	 M884.5,447c-0.7,0-1.2-0.4-1.4-1c-0.1-0.3-0.1-0.8-0.1-1.9c0-1.1,0-1.6,0.1-1.9c0.2-0.6,0.7-1,1.4-1c0.7,0,1.2,0.4,1.4,1
	c0.1,0.3,0.1,0.8,0.1,1.9c0,1.1,0,1.6-0.1,1.9C885.7,446.7,885.3,447,884.5,447 M884.5,448.7c1.6,0,2.8-0.7,3.2-2.2
	c0.2-0.6,0.2-1.1,0.2-2.4c0-1.3-0.1-1.8-0.2-2.4c-0.5-1.4-1.7-2.2-3.2-2.2c-1.6,0-2.8,0.7-3.2,2.2c-0.2,0.6-0.2,1.1-0.2,2.4
	c0,1.3,0.1,1.8,0.2,2.4C881.8,448,883,448.7,884.5,448.7 M876,447c-0.7,0-1.2-0.4-1.4-1c-0.1-0.3-0.1-0.8-0.1-1.9
	c0-1.1,0-1.6,0.1-1.9c0.2-0.6,0.7-1,1.4-1c0.7,0,1.2,0.4,1.4,1c0.1,0.3,0.1,0.8,0.1,1.9c0,1.1,0,1.6-0.1,1.9
	C877.2,446.7,876.7,447,876,447 M876,448.7c1.6,0,2.8-0.7,3.2-2.2c0.2-0.6,0.2-1.1,0.2-2.4c0-1.3-0.1-1.8-0.2-2.4
	c-0.5-1.4-1.7-2.2-3.2-2.2s-2.8,0.7-3.2,2.2c-0.2,0.6-0.2,1.1-0.2,2.4c0,1.3,0.1,1.8,0.2,2.4C873.2,448,874.4,448.7,876,448.7
	 M865.6,447.6c0,0.6,0.4,1,1,1c0.5,0,1-0.4,1-1v-2.5c0-0.1,0-0.1,0.1-0.1h2.5c0.6,0,0.9-0.3,0.9-0.8s-0.3-0.8-0.9-0.8h-2.5
	c-0.1,0-0.1,0-0.1-0.1v-1.9c0-0.1,0-0.1,0.1-0.1h3.1c0.5,0,0.9-0.4,0.9-0.8c0-0.5-0.4-0.8-0.9-0.8h-4.3c-0.5,0-0.8,0.3-0.8,0.8
	V447.6z M940.1,433.5c0.5,1.4,1.7,2.2,3.3,2.2s2.8-0.8,3.2-2.2c0.2-0.5,0.2-1.2,0.2-2v-0.1c0-0.5-0.3-0.8-0.8-0.8h-1.8
	c-0.5,0-0.8,0.3-0.8,0.8c0,0.5,0.3,0.8,0.8,0.8h0.6c0.1,0,0.1,0,0.1,0.1c0,0.3,0,0.6-0.1,0.9c-0.2,0.6-0.7,0.9-1.4,0.9
	c-0.8,0-1.3-0.4-1.4-1c-0.1-0.3-0.1-0.8-0.1-1.9c0-1.1,0-1.6,0.1-1.9c0.2-0.6,0.7-1,1.4-1c0.6,0,1,0.2,1.3,0.7
	c0.3,0.4,0.5,0.5,0.8,0.5c0.5,0,0.9-0.4,0.9-0.9c0-0.2-0.1-0.4-0.2-0.6c-0.5-0.8-1.5-1.4-2.9-1.4c-1.6,0-2.8,0.7-3.3,2.2
	c-0.2,0.6-0.2,1.1-0.2,2.4S939.9,432.9,940.1,433.5 M931.2,434.7c0,0.6,0.4,0.9,0.9,0.9c0.5,0,0.9-0.3,0.9-0.9v-4.8h0.1l2.7,4.8
	c0.4,0.6,0.7,0.9,1.3,0.9c0.7,0,1.1-0.4,1.1-1.1v-7c0-0.6-0.4-0.9-0.9-0.9s-0.9,0.3-0.9,0.9v4.9h-0.1l-2.7-4.8
	c-0.4-0.6-0.7-0.9-1.3-0.9c-0.7,0-1.1,0.4-1.1,1.1V434.7z M926.9,434.6c0,0.6,0.4,1,1,1c0.5,0,1-0.4,1-1v-7c0-0.6-0.4-1-1-1
	c-0.6,0-1,0.4-1,1V434.6z M922.2,435.6c0.6,0,1-0.4,1-1v-6.2c0-0.1,0-0.1,0.1-0.1h1.5c0.6,0,1-0.4,1-0.8c0-0.5-0.4-0.9-1-0.9h-5.1
	c-0.6,0-1,0.4-1,0.9c0,0.5,0.4,0.8,1,0.8h1.5c0.1,0,0.1,0,0.1,0.1v6.2C921.3,435.2,921.7,435.6,922.2,435.6 M914.2,435.7
	c2.3,0,3.5-1.2,3.5-2.8c0-1.6-1-2.4-2.8-2.7l-0.5-0.1c-1-0.1-1.4-0.5-1.4-1c0-0.6,0.4-1,1.2-1c0.5,0,1.1,0.2,1.5,0.4
	c0.2,0.1,0.4,0.1,0.6,0.1c0.5,0,0.8-0.4,0.8-0.8c0-0.3-0.1-0.6-0.5-0.8c-0.5-0.3-1.5-0.6-2.5-0.6c-1.9,0-3.1,1.1-3.1,2.7
	c0,1.6,1,2.4,2.8,2.7l0.5,0.1c1.1,0.1,1.4,0.5,1.4,1c0,0.6-0.5,1-1.5,1c-0.7,0-1.2-0.2-1.9-0.6c-0.2-0.1-0.4-0.2-0.6-0.2
	c-0.5,0-0.9,0.4-0.9,0.8c0,0.3,0.2,0.6,0.5,0.8C912,435.3,913,435.7,914.2,435.7 M905.8,435.7c2,0,3.4-1.2,3.4-3.4v-4.7
	c0-0.6-0.4-1-1-1c-0.5,0-1,0.4-1,1v4.7c0,1.1-0.6,1.7-1.5,1.7c-0.8,0-1.5-0.6-1.5-1.7v-4.7c0-0.6-0.4-1-1-1c-0.6,0-1,0.4-1,1v4.7
	C902.4,434.5,903.8,435.7,905.8,435.7 M893.9,433.5c0.5,1.4,1.7,2.2,3.3,2.2c1.6,0,2.8-0.8,3.2-2.2c0.2-0.5,0.2-1.2,0.2-2v-0.1
	c0-0.5-0.3-0.8-0.8-0.8H898c-0.5,0-0.8,0.3-0.8,0.8c0,0.5,0.3,0.8,0.8,0.8h0.6c0.1,0,0.1,0,0.1,0.1c0,0.3,0,0.6-0.1,0.9
	c-0.2,0.6-0.7,0.9-1.4,0.9c-0.8,0-1.3-0.4-1.5-1c-0.1-0.3-0.1-0.8-0.1-1.9c0-1.1,0-1.6,0.1-1.9c0.2-0.6,0.7-1,1.4-1
	c0.6,0,1,0.2,1.3,0.7c0.3,0.4,0.5,0.5,0.8,0.5c0.5,0,0.9-0.4,0.9-0.9c0-0.2-0.1-0.4-0.2-0.6c-0.5-0.8-1.5-1.4-2.9-1.4
	c-1.6,0-2.8,0.7-3.3,2.2c-0.2,0.6-0.2,1.1-0.2,2.4S893.7,432.9,893.9,433.5 M888.7,435.7c2.3,0,3.5-1.2,3.5-2.8c0-1.6-1-2.4-2.8-2.7
	l-0.5-0.1c-1-0.1-1.4-0.5-1.4-1c0-0.6,0.4-1,1.2-1c0.5,0,1.1,0.2,1.5,0.4c0.2,0.1,0.4,0.1,0.6,0.1c0.5,0,0.8-0.4,0.8-0.8
	c0-0.3-0.1-0.6-0.5-0.8c-0.5-0.3-1.5-0.6-2.5-0.6c-1.9,0-3.1,1.1-3.1,2.7c0,1.6,1,2.4,2.8,2.7l0.5,0.1c1.1,0.1,1.4,0.5,1.4,1
	c0,0.6-0.5,1-1.5,1c-0.7,0-1.2-0.2-1.9-0.6c-0.2-0.1-0.4-0.2-0.6-0.2c-0.5,0-0.9,0.4-0.9,0.8c0,0.3,0.2,0.6,0.5,0.8
	C886.5,435.3,887.4,435.7,888.7,435.7 M881.7,434.6c0,0.6,0.4,1,1,1c0.5,0,1-0.4,1-1v-7c0-0.6-0.4-1-1-1c-0.6,0-1,0.4-1,1V434.6z
	 M874.8,433.7v-5.3c0-0.1,0-0.1,0.1-0.1h0.9c0.9,0,1.5,0.3,1.8,1c0.1,0.3,0.2,0.8,0.2,1.7s-0.1,1.4-0.2,1.7c-0.2,0.7-0.9,1-1.8,1
	L874.8,433.7C874.8,433.8,874.8,433.8,874.8,433.7 M872.8,434.7c0,0.5,0.3,0.8,0.8,0.8h2.1c1.9,0,3.1-0.6,3.5-2.1
	c0.2-0.5,0.3-1.1,0.3-2.4s-0.1-1.9-0.3-2.4c-0.5-1.4-1.6-2.1-3.5-2.1h-2.1c-0.5,0-0.8,0.3-0.8,0.8V434.7z M938.4,394.3
	c-0.6-1.8-2.8-2.8-5.4-2.8c-1.2,0-2.5,0.2-3.8,0.7c-4.1,1.5-6.7,4.9-5.8,7.5c0.6,1.8,2.8,2.8,5.4,2.8c1.2,0,2.5-0.2,3.9-0.7
	C936.7,400.4,939.3,396.9,938.4,394.3 M939.7,400.3c-1.4,1.9-3.6,3.4-6.1,4.3c-1.6,0.6-3.2,0.9-4.8,0.9c-3.3,0-6.1-1.3-7.5-3.4
	l-7.8,2.8l17.5,6.4c0.8,0.3,1.1,1.1,0.9,1.9c-0.3,0.8-1.1,1.1-1.9,0.9l-20.8-7.6l-20.6,7.5c-0.8,0.3-1.6-0.1-1.9-0.9
	c-0.3-0.8,0.1-1.6,0.9-1.9l17.3-6.3l-9.7-3.5c-1.8,2.9-5.5,4.2-8.9,3c0,0,0,0,0,0h0l-11.5-4.2c-0.8-0.3-1.1-1.1-0.9-1.9
	c0.3-0.8,1.1-1.1,1.9-0.9l11.5,4.2l0,0h0c2.4,0.9,4.9-0.3,5.8-2.5c0.8-2.3-0.4-4.8-2.8-5.6c0,0,0,0,0,0c0,0,0,0,0,0l-11.5-4.2
	c-0.8-0.3-1.1-1.1-0.9-1.9c0.3-0.8,1.1-1.1,1.9-0.9l11.5,4.2c0,0,0,0,0,0c0,0,0,0,0,0c3.4,1.2,5.4,4.6,4.9,8l12.9,4.7l11.1-4
	c-0.2-1.8,0.4-3.8,1.7-5.5c1.4-1.9,3.6-3.4,6.1-4.3c1.6-0.6,3.2-0.9,4.8-0.9c4,0,7.1,1.8,8.1,4.7C941.9,395.5,941.4,398,939.7,400.3
	 M876,392.8c0.3-0.8,1.1-1.1,1.9-0.9l11.5,4.2c0.8,0.3,1.1,1.1,0.9,1.9c-0.3,0.8-1.1,1.1-1.9,0.9l-11.5-4.2
	C876.1,394.4,875.7,393.6,876,392.8"/>
<path class="st0" d="M377.6,48.8l-0.5-2.6l-0.8,3.2c-0.1,0.5-0.5,0.8-1,0.7c-0.2-0.1-0.4-0.2-0.5-0.4c-0.1-0.2-0.1-0.4-0.1-0.7
	l1.4-5.7c0.1-0.3,0.2-0.5,0.4-0.7c0.2-0.1,0.5-0.2,0.8-0.1c0.6,0.1,0.7,0.5,0.8,1.1l0.7,3.7l2.3-3c0.3-0.5,0.7-0.7,1.2-0.6
	c0.3,0.1,0.5,0.2,0.6,0.4c0.1,0.2,0.1,0.5,0.1,0.8l-1.4,5.7c-0.1,0.4-0.4,0.7-0.8,0.7c-0.1,0-0.1,0-0.2,0c-0.2-0.1-0.4-0.2-0.5-0.4
	c-0.1-0.2-0.1-0.4-0.1-0.7l0.8-3.2l-1.6,2.1c-0.4,0.5-0.6,0.6-1,0.5C377.9,49.7,377.7,49.4,377.6,48.8 M368.3,49l-0.1-6
	c0-0.5,0.3-0.8,0.8-0.8l3.6-0.1c0,0,0,0,0,0c0.5,0,0.8,0.3,0.8,0.8c0,0.5-0.3,0.8-0.8,0.8l-2.6,0l0,1.5l2.1,0c0.3,0,0.5,0.1,0.6,0.2
	c0.1,0.1,0.2,0.3,0.2,0.6c0,0.2-0.1,0.4-0.2,0.6c-0.1,0.1-0.4,0.2-0.6,0.2l-2.1,0l0,2.1c0,0.6-0.4,1-0.9,1c0,0,0,0,0,0
	C368.6,50,368.3,49.6,368.3,49 M361.6,49.7L361.6,49.7L361.6,49.7L361.6,49.7L361.6,49.7z M363.4,48.4c0,0.5-0.4,0.9-1.1,1.1
	l-0.7,0.2l-1.2-4.3l0.7-0.2c0.7-0.2,1.3-0.1,1.6,0.4c0.2,0.2,0.3,0.7,0.5,1.3C363.4,47.6,363.5,48.1,363.4,48.4 M364.2,44.6
	c-0.7-1.1-1.8-1.4-3.4-0.9l-1.7,0.5c-0.5,0.1-0.7,0.5-0.5,1l1.6,5.8c0.1,0.4,0.4,0.6,0.7,0.6c0.1,0,0.2,0,0.3,0l1.7-0.5
	c1.6-0.5,2.4-1.3,2.5-2.5c0-0.4,0-0.9-0.3-2C364.6,45.4,364.4,44.9,364.2,44.6 M399.1,72c0,1-0.8,1.8-1.8,1.8c-1,0-1.8-0.8-1.8-1.8
	c0-1,0.8-1.8,1.8-1.8C398.3,70.2,399.1,71,399.1,72 M385.6,80.7c0-1.3-0.4-2.1-1.2-2.1c-1.8,0-3.3,3.9-3.3,6.3
	c0,1.3,0.4,2.1,1.2,2.1C384.1,87,385.6,83.2,385.6,80.7 M365.2,74.2c0-2.3-1.4-4.7-4.5-5.6c-1.3,2.1-1.9,5-2.7,9.9l-0.2,0.9
	C361.1,79.2,365.2,78.1,365.2,74.2 M397.3,77.6l-2.7,9.8c-3.9,14.2-15.1,19.2-23.4,19.2c-6.7,0-13.2-2.5-18.2-7.1
	c-0.6-0.5-0.6-1.5-0.1-2.1c0.5-0.6,1.5-0.6,2.1-0.1c4.4,4.1,10.2,6.3,16.2,6.3c10.3,0,16.7-7.1,19.6-14.1c-0.6,0.2-1.3,0.4-2,0.4
	c-1.2,0-2.4-0.5-3.1-1.5c-0.9,0.9-2,1.5-3.3,1.5c-1,0-2.3-0.4-3.2-1.7c-1.2,1.1-2.4,1.7-3.8,1.7c-1.2,0-2.3-0.5-3.1-1.4
	c-0.8,0.8-1.9,1.4-3.4,1.4c-1.3,0-2.4-0.6-3.2-1.5c-0.9-1.1-1.1-2.7-0.6-4.3c0.2-0.8,1-3.5,1.5-5.3c-1.4,1.8-4.2,3.5-9.4,3.7
	c-1.8,7.1-5.4,8.3-7.5,8.3c-2.6,0-5.3-1.8-5.3-5.2c0-3.4,2.7-4.6,4-4.6c0.8,0,1.5,0.7,1.5,1.5c0,0.8-0.6,1.4-1.4,1.5
	c-0.1,0-1.1,0.2-1.1,1.7c0,2.2,2.2,2.3,2.4,2.3c2.4,0,4.2-2.8,5.1-7.9l0.3-1.9c0.8-4.5,1.3-7.4,2.5-9.7c-7.6,0.1-7.8,4.6-7.8,5.1
	c0,1.1,0.6,2.1,1.5,2.5c0.7,0.3,1.1,1.2,0.7,1.9c-0.3,0.7-1.2,1.1-1.9,0.7c-1.9-0.9-3.2-2.9-3.2-5.2c0-3,2.3-8.1,11-8.1
	c6.7,0,10.3,4.5,10.3,8.8c0,0.5-0.1,1.1-0.2,1.8c0.3-0.1,0.6-0.2,1-0.1c0.8,0.2,1.3,1,1.1,1.8c0,0-1.6,5.9-2,7.2
	c-0.2,0.7-0.2,1.4,0.1,1.8c0.2,0.3,0.6,0.4,0.8,0.4c0.6,0,1.8,0,2.8-3.5c1-3.4,1.8-6.6,1.8-6.6c0.2-0.8,1-1.3,1.8-1
	c0.8,0.2,1.2,1,1,1.8c0,0-0.9,3.3-1.9,6.7c0,0.2-0.1,0.3-0.2,0.5c-0.2,0.7-0.2,1.3,0.1,1.7c0.2,0.3,0.5,0.4,0.9,0.4
	c1,0,1.9-0.5,2.9-1.5c0-0.2,0-0.4,0-0.6c0-3.1,1.9-9.2,6.2-9.2c0.8,0,1.8,0.3,2.7,1c0.3-0.7,1-1,1.7-0.8c0.8,0.2,1.3,1,1.1,1.8
	c0,0-1.6,5.9-2,7.2c-0.2,0.7-0.2,1.4,0.1,1.8c0.2,0.3,0.6,0.4,0.8,0.4c2.1,0,3.6-2.6,4.3-5.1c0,0,0,0,0,0l1.4-5.1
	c0.2-0.8,1-1.2,1.8-1C397.1,76,397.5,76.8,397.3,77.6 M342.3,82.3L339.2,94c-0.2,0.6-0.8,1.1-1.4,1.1c-0.1,0-0.3,0-0.4-0.1
	c-0.8-0.2-1.2-1-1-1.8l3.2-11.7c0.2-0.8,1-1.2,1.8-1C342.1,80.8,342.5,81.6,342.3,82.3 M344.2,76.6c0,1-0.8,1.8-1.8,1.8
	c-1,0-1.8-0.8-1.8-1.8s0.8-1.8,1.8-1.8C343.4,74.8,344.2,75.6,344.2,76.6 M406.9,71l-3.2,11.7c-0.2,0.6-0.8,1.1-1.4,1.1
	c-0.1,0-0.3,0-0.4-0.1c-0.8-0.2-1.2-1-1-1.8l3.2-11.7c0.2-0.8,1-1.2,1.8-1C406.6,69.5,407.1,70.3,406.9,71 M402.7,87.7
	c0,1-0.8,1.8-1.8,1.8c-1,0-1.8-0.8-1.8-1.8c0-1,0.8-1.8,1.8-1.8C401.9,85.9,402.7,86.7,402.7,87.7 M355.6,59.4
	c-0.5-0.7-0.3-1.6,0.4-2c4.5-3.1,9.8-4.7,15.2-4.7c8.2,0,15.8,3.6,20.9,10c0.5,0.6,0.4,1.5-0.2,2.1c-0.3,0.2-0.6,0.3-0.9,0.3
	c-0.4,0-0.8-0.2-1.1-0.5c-4.6-5.7-11.4-8.9-18.7-8.9c-4.9,0-9.5,1.4-13.6,4.2C357,60.2,356.1,60,355.6,59.4 M371.1,35.9
	c24.2,0,43.7,19.6,43.7,43.7s-19.6,43.7-43.7,43.7s-43.7-19.6-43.7-43.7S346.9,35.9,371.1,35.9 M371.1,38.8
	c-22.5,0-40.8,18.3-40.8,40.8s18.3,40.8,40.8,40.8s40.8-18.3,40.8-40.8S393.6,38.8,371.1,38.8 M380,110.9c-0.1-0.6-0.6-0.8-1.2-0.7
	l-1.2,0.3l0.4,1.8l1.2-0.3c0.3-0.1,0.5-0.2,0.7-0.4C380,111.4,380.1,111.2,380,110.9 M381.5,112.4c-0.4,0.6-1,0.9-1.8,1.1l-1.3,0.3
	l0.4,1.7c0.1,0.5-0.1,1-0.6,1.1c-0.1,0-0.2,0-0.2,0c-0.4,0-0.8-0.3-0.9-0.7l-1.4-5.8c-0.1-0.2,0-0.4,0.1-0.6
	c0.1-0.2,0.3-0.3,0.5-0.4l2.2-0.5c0.8-0.2,1.5-0.1,2.1,0.2c0.6,0.3,0.9,0.9,1.1,1.6C381.9,111.2,381.8,111.8,381.5,112.4
	 M371.5,112.6l-0.4-0.1c-1-0.1-1.1-0.5-1.1-0.8c0-0.4,0.3-0.7,0.9-0.7c0,0,0,0,0,0c0.4,0,0.9,0.1,1.2,0.3c0.2,0.1,0.3,0.1,0.5,0.1
	c0.2,0,0.4-0.1,0.6-0.2c0.2-0.1,0.2-0.3,0.2-0.6c0-0.3-0.1-0.5-0.4-0.7c-0.5-0.3-1.3-0.5-2.1-0.5c0,0,0,0-0.1,0
	c-1.6,0-2.7,0.9-2.7,2.3c0,1.3,0.8,2.1,2.4,2.4l0.4,0.1c0.9,0.1,1.1,0.4,1.1,0.8c0,0.2-0.1,0.4-0.3,0.6c-0.2,0.1-0.5,0.2-0.9,0.2
	c-0.5,0-0.9-0.1-1.6-0.5c-0.1-0.1-0.3-0.1-0.5-0.2c0,0,0,0,0,0c-0.4,0-0.8,0.3-0.8,0.8c0,0.3,0.1,0.6,0.4,0.8l0,0
	c0.4,0.2,1.2,0.7,2.4,0.7c0,0,0.1,0,0.1,0c0.9,0,1.7-0.2,2.2-0.7c0.5-0.4,0.8-1,0.8-1.7C373.9,113.6,373.2,112.9,371.5,112.6
	 M366.5,110.2c-0.1,0.2-0.2,0.4-0.4,0.5c-0.2,0.1-0.4,0.1-0.6,0.1l-2.6-0.6l-0.3,1.4l2,0.5c0.5,0.1,0.7,0.5,0.6,1
	c-0.1,0.2-0.2,0.4-0.4,0.5c-0.2,0.1-0.4,0.1-0.6,0.1l-2-0.5l-0.4,1.5l2.6,0.6c0.5,0.1,0.7,0.5,0.6,1c-0.1,0.2-0.2,0.4-0.4,0.5
	c-0.1,0.1-0.3,0.1-0.4,0.1c-0.1,0-0.2,0-0.2,0l-3.5-0.9c-0.2-0.1-0.4-0.2-0.5-0.4c-0.1-0.2-0.1-0.4-0.1-0.6l1.4-5.9
	c0.1-0.2,0.2-0.4,0.3-0.5c0.2-0.1,0.4-0.1,0.6-0.1l3.5,0.9C366.4,109.3,366.6,109.7,366.5,110.2 M394.1,137.6
	c-1.3,0.5-2.6,0.7-3.9,0.7c-2.6,0-4.8-1-5.4-2.8c-0.9-2.6,1.7-6.1,5.8-7.5c1.3-0.5,2.6-0.7,3.8-0.7c2.6,0,4.8,1,5.4,2.8
	C400.8,132.7,398.2,136.1,394.1,137.6 M402.6,129.1c-1.1-2.9-4.2-4.7-8.1-4.7c-1.6,0-3.3,0.3-4.8,0.9c-2.5,0.9-4.6,2.4-6.1,4.3
	c-1.3,1.8-1.9,3.7-1.7,5.5l-11.1,4l-12.9-4.7c0.5-3.3-1.5-6.7-4.9-8c0,0,0,0,0,0c0,0,0,0,0,0l-11.5-4.2c-0.8-0.3-1.6,0.1-1.9,0.9
	c-0.3,0.8,0.1,1.6,0.9,1.9l11.5,4.2c0,0,0,0,0,0c0,0,0,0,0,0c2.4,0.9,3.6,3.4,2.8,5.6c-0.8,2.3-3.4,3.4-5.8,2.5h0c0,0,0,0,0,0
	l-11.5-4.2c-0.8-0.3-1.6,0.1-1.9,0.9c-0.3,0.8,0.1,1.6,0.9,1.9l11.5,4.2c0,0,0,0,0,0h0c3.4,1.2,7.1-0.1,8.9-3l9.7,3.5l-17.3,6.3
	c-0.8,0.3-1.1,1.1-0.9,1.9c0.3,0.8,1.1,1.1,1.9,0.9l20.6-7.5l20.8,7.6c0.8,0.3,1.6-0.1,1.9-0.9c0.3-0.8-0.1-1.6-0.9-1.9l-17.5-6.4
	l7.8-2.8c1.4,2.1,4.1,3.4,7.5,3.4c1.6,0,3.3-0.3,4.8-0.9c2.5-0.9,4.6-2.4,6.1-4.3C402.9,133.8,403.4,131.3,402.6,129.1 M338.4,130.4
	l11.5,4.2c0.8,0.3,1.6-0.1,1.9-0.9c0.3-0.8-0.1-1.6-0.9-1.9l-11.5-4.2c-0.8-0.3-1.6,0.1-1.9,0.9
	C337.3,129.3,337.7,130.2,338.4,130.4 M407.2,176.6c0-0.7,0.4-1.1,1.1-1.1c0.6,0,0.9,0.3,1.2,1l1.9,4.3h0.1l1.9-4.3
	c0.3-0.7,0.6-1,1.2-1c0.6,0,1,0.4,1,1.1v7c0,0.6-0.4,0.9-0.9,0.9c-0.5,0-0.9-0.3-0.9-0.9v-4.3h-0.1l-1.4,3.2
	c-0.3,0.6-0.5,0.8-0.9,0.8c-0.4,0-0.7-0.2-0.9-0.8l-1.4-3.2h-0.1v4.3c0,0.6-0.4,0.9-0.9,0.9c-0.5,0-0.9-0.3-0.9-0.9V176.6z
	 M398.3,181.1v-4.7c0-0.6,0.4-1,1-1c0.5,0,1,0.4,1,1v4.7c0,1.1,0.6,1.7,1.5,1.7c0.9,0,1.5-0.6,1.5-1.7v-4.7c0-0.6,0.4-1,1-1
	c0.6,0,1,0.4,1,1v4.7c0,2.2-1.4,3.4-3.4,3.4C399.7,184.5,398.3,183.3,398.3,181.1 M390.6,176.3c0-0.5,0.3-0.8,0.8-0.8h4.3
	c0.5,0,0.9,0.4,0.9,0.8c0,0.5-0.4,0.8-0.9,0.8h-3.1c-0.1,0-0.1,0-0.1,0.1v1.8c0,0.1,0,0.1,0.1,0.1h2.5c0.5,0,0.9,0.3,0.9,0.8
	c0,0.5-0.3,0.8-0.9,0.8h-2.5c-0.1,0-0.1,0-0.1,0.1v1.8c0,0.1,0,0.1,0.1,0.1h3.1c0.5,0,0.9,0.4,0.9,0.8c0,0.5-0.4,0.8-0.9,0.8h-4.3
	c-0.5,0-0.8-0.3-0.8-0.8V176.3z M382.6,183.8c-0.3-0.2-0.5-0.5-0.5-0.8c0-0.5,0.4-0.8,0.9-0.8c0.2,0,0.4,0.1,0.6,0.2
	c0.7,0.4,1.3,0.6,1.9,0.6c0.9,0,1.5-0.4,1.5-1c0-0.5-0.3-0.8-1.4-1l-0.5-0.1c-1.8-0.2-2.8-1.1-2.8-2.7c0-1.6,1.2-2.7,3.1-2.7
	c1,0,2,0.3,2.5,0.6c0.3,0.2,0.5,0.5,0.5,0.8c0,0.5-0.4,0.8-0.8,0.8c-0.2,0-0.4-0.1-0.6-0.1c-0.4-0.2-1-0.4-1.5-0.4
	c-0.8,0-1.2,0.4-1.2,1c0,0.5,0.4,0.8,1.4,1l0.5,0.1c1.8,0.3,2.8,1.1,2.8,2.7c0,1.6-1.2,2.8-3.5,2.8
	C384.1,184.5,383.2,184.1,382.6,183.8 M373.6,181.1v-4.7c0-0.6,0.4-1,1-1c0.5,0,1,0.4,1,1v4.7c0,1.1,0.6,1.7,1.5,1.7
	c0.9,0,1.5-0.6,1.5-1.7v-4.7c0-0.6,0.4-1,1-1c0.6,0,1,0.4,1,1v4.7c0,2.2-1.4,3.4-3.4,3.4C374.9,184.5,373.6,183.3,373.6,181.1
	 M363,176.6c0-0.7,0.4-1.1,1.1-1.1c0.6,0,0.9,0.3,1.2,1l1.9,4.3h0.1l1.9-4.3c0.3-0.7,0.6-1,1.2-1c0.6,0,1,0.4,1,1.1v7
	c0,0.6-0.4,0.9-0.9,0.9c-0.5,0-0.9-0.3-0.9-0.9v-4.3h-0.1l-1.4,3.2c-0.3,0.6-0.5,0.8-0.9,0.8s-0.7-0.2-0.9-0.8l-1.4-3.2h-0.1v4.3
	c0,0.6-0.4,0.9-0.9,0.9c-0.5,0-0.9-0.3-0.9-0.9V176.6z M353.4,182.7h0.9c0.9,0,1.5-0.3,1.8-1c0.1-0.3,0.2-0.8,0.2-1.7
	c0-0.9-0.1-1.4-0.2-1.7c-0.2-0.7-0.9-1-1.8-1h-0.9c-0.1,0-0.1,0-0.1,0.1L353.4,182.7C353.4,182.6,353.4,182.7,353.4,182.7
	 M351.4,176.3c0-0.5,0.3-0.8,0.8-0.8h2.1c1.9,0,3.1,0.6,3.5,2.1c0.2,0.5,0.3,1.1,0.3,2.4s-0.1,1.9-0.3,2.4c-0.5,1.4-1.6,2.1-3.5,2.1
	h-2.1c-0.5,0-0.8-0.3-0.8-0.8V176.3z M347.5,181.8c0.1-0.3,0.1-0.8,0.1-1.9c0-1.1,0-1.6-0.1-1.9c-0.2-0.6-0.7-1-1.4-1
	c-0.7,0-1.2,0.4-1.4,1c-0.1,0.3-0.1,0.8-0.1,1.9c0,1.1,0,1.6,0.1,1.9c0.2,0.6,0.7,1,1.4,1C346.8,182.8,347.3,182.4,347.5,181.8
	 M342.9,182.4c-0.2-0.6-0.2-1.1-0.2-2.4c0-1.3,0.1-1.8,0.2-2.4c0.5-1.4,1.7-2.2,3.2-2.2c1.6,0,2.8,0.7,3.2,2.2
	c0.2,0.6,0.2,1.1,0.2,2.4c0,1.3-0.1,1.8-0.2,2.4c-0.5,1.4-1.7,2.2-3.2,2.2C344.5,184.5,343.3,183.8,342.9,182.4 M338.9,181.8
	c0.1-0.3,0.1-0.8,0.1-1.9c0-1.1,0-1.6-0.1-1.9c-0.2-0.6-0.7-1-1.4-1c-0.7,0-1.2,0.4-1.4,1c-0.1,0.3-0.1,0.8-0.1,1.9
	c0,1.1,0,1.6,0.1,1.9c0.2,0.6,0.7,1,1.4,1C338.2,182.8,338.7,182.4,338.9,181.8 M334.3,182.4c-0.2-0.6-0.2-1.1-0.2-2.4
	c0-1.3,0.1-1.8,0.2-2.4c0.5-1.4,1.7-2.2,3.2-2.2c1.6,0,2.8,0.7,3.2,2.2c0.2,0.6,0.2,1.1,0.2,2.4c0,1.3-0.1,1.8-0.2,2.4
	c-0.5,1.4-1.7,2.2-3.2,2.2C335.9,184.5,334.7,183.8,334.3,182.4 M327.1,176.3c0-0.5,0.3-0.8,0.8-0.8h4.3c0.5,0,0.9,0.4,0.9,0.8
	c0,0.5-0.4,0.8-0.9,0.8h-3.1c-0.1,0-0.1,0-0.1,0.1v1.9c0,0.1,0,0.1,0.1,0.1h2.5c0.6,0,0.9,0.3,0.9,0.8c0,0.5-0.3,0.8-0.9,0.8h-2.5
	c-0.1,0-0.1,0-0.1,0.1v2.5c0,0.6-0.4,1-1,1c-0.6,0-1-0.4-1-1V176.3z M401.4,166.9c0-1.3,0.1-1.8,0.2-2.4c0.5-1.4,1.7-2.2,3.3-2.2
	c1.4,0,2.4,0.6,2.9,1.4c0.1,0.2,0.2,0.4,0.2,0.6c0,0.5-0.4,0.9-0.9,0.9c-0.3,0-0.6-0.1-0.8-0.5c-0.3-0.5-0.8-0.7-1.3-0.7
	c-0.8,0-1.2,0.4-1.4,1c-0.1,0.3-0.1,0.7-0.1,1.9c0,1.1,0,1.6,0.1,1.9c0.2,0.6,0.7,1,1.5,1c0.7,0,1.2-0.4,1.4-0.9
	c0.1-0.2,0.1-0.5,0.1-0.9c0-0.1,0-0.1-0.1-0.1h-0.6c-0.5,0-0.8-0.3-0.8-0.8s0.3-0.8,0.8-0.8h1.8c0.5,0,0.8,0.3,0.8,0.8v0.1
	c0,0.8-0.1,1.5-0.2,2c-0.5,1.4-1.7,2.2-3.2,2.2c-1.6,0-2.8-0.7-3.3-2.2C401.5,168.7,401.4,168.2,401.4,166.9 M392.7,163.5
	c0-0.7,0.4-1.1,1.1-1.1c0.5,0,0.9,0.3,1.3,0.9l2.7,4.8h0.1v-4.9c0-0.6,0.4-0.9,0.9-0.9c0.5,0,0.9,0.3,0.9,0.9v7
	c0,0.7-0.4,1.1-1.1,1.1c-0.5,0-0.9-0.3-1.3-0.9l-2.7-4.8h-0.1v4.8c0,0.6-0.4,0.9-0.9,0.9c-0.5,0-0.9-0.3-0.9-0.9V163.5z
	 M388.4,163.4c0-0.6,0.4-1,1-1c0.5,0,1,0.4,1,1v7c0,0.6-0.4,1-1,1c-0.6,0-1-0.4-1-1V163.4z M382.8,170.4v-6.2c0-0.1,0-0.1-0.1-0.1
	h-1.5c-0.6,0-1-0.4-1-0.8c0-0.5,0.4-0.9,1-0.9h5.1c0.6,0,1,0.4,1,0.9c0,0.5-0.4,0.8-1,0.8h-1.5c-0.1,0-0.1,0-0.1,0.1v6.2
	c0,0.6-0.4,1-1,1C383.2,171.4,382.8,171,382.8,170.4 M373,170.7c-0.3-0.2-0.5-0.5-0.5-0.8c0-0.5,0.4-0.8,0.9-0.8
	c0.2,0,0.4,0.1,0.6,0.2c0.7,0.4,1.3,0.6,1.9,0.6c0.9,0,1.5-0.4,1.5-1c0-0.5-0.3-0.8-1.4-1l-0.5-0.1c-1.8-0.2-2.8-1.1-2.8-2.7
	c0-1.6,1.2-2.7,3.1-2.7c1,0,2,0.3,2.5,0.6c0.3,0.2,0.5,0.5,0.5,0.8c0,0.5-0.4,0.8-0.8,0.8c-0.2,0-0.4-0.1-0.6-0.1
	c-0.4-0.2-1-0.4-1.5-0.4c-0.8,0-1.2,0.4-1.2,1c0,0.5,0.4,0.8,1.4,1l0.5,0.1c1.8,0.3,2.8,1.1,2.8,2.7c0,1.6-1.2,2.8-3.5,2.8
	C374.5,171.4,373.6,171.1,373,170.7 M364,168v-4.7c0-0.6,0.4-1,1-1c0.5,0,1,0.4,1,1v4.7c0,1.1,0.6,1.7,1.5,1.7
	c0.9,0,1.5-0.6,1.5-1.7v-4.7c0-0.6,0.4-1,1-1c0.6,0,1,0.4,1,1v4.7c0,2.2-1.4,3.4-3.4,3.4C365.3,171.4,364,170.2,364,168
	 M355.2,166.9c0-1.3,0.1-1.8,0.2-2.4c0.5-1.4,1.7-2.2,3.3-2.2c1.4,0,2.4,0.6,2.9,1.4c0.1,0.2,0.2,0.4,0.2,0.6c0,0.5-0.4,0.9-0.9,0.9
	c-0.3,0-0.6-0.1-0.8-0.5c-0.3-0.5-0.8-0.7-1.3-0.7c-0.8,0-1.2,0.4-1.4,1c-0.1,0.3-0.1,0.7-0.1,1.9c0,1.1,0,1.6,0.1,1.9
	c0.2,0.6,0.7,1,1.4,1c0.7,0,1.2-0.4,1.4-0.9c0.1-0.2,0.1-0.5,0.1-0.9c0-0.1,0-0.1-0.1-0.1h-0.6c-0.5,0-0.8-0.3-0.8-0.8
	s0.3-0.8,0.8-0.8h1.8c0.5,0,0.8,0.3,0.8,0.8v0.1c0,0.8-0.1,1.5-0.2,2c-0.5,1.4-1.7,2.2-3.2,2.2c-1.6,0-2.8-0.7-3.3-2.2
	C355.2,168.7,355.2,168.2,355.2,166.9 M347.4,170.7c-0.3-0.2-0.5-0.5-0.5-0.8c0-0.5,0.4-0.8,0.9-0.8c0.2,0,0.4,0.1,0.6,0.2
	c0.7,0.4,1.3,0.6,1.9,0.6c0.9,0,1.4-0.4,1.4-1c0-0.5-0.3-0.8-1.4-1l-0.5-0.1c-1.8-0.2-2.8-1.1-2.8-2.7c0-1.6,1.2-2.7,3.1-2.7
	c1,0,2,0.3,2.5,0.6c0.3,0.2,0.5,0.5,0.5,0.8c0,0.5-0.4,0.8-0.8,0.8c-0.2,0-0.4-0.1-0.6-0.1c-0.4-0.2-1-0.4-1.5-0.4
	c-0.8,0-1.2,0.4-1.2,1c0,0.5,0.4,0.8,1.4,1l0.5,0.1c1.8,0.3,2.8,1.1,2.8,2.7c0,1.6-1.2,2.8-3.5,2.8C349,171.4,348,171.1,347.4,170.7
	 M343.2,163.4c0-0.6,0.4-1,1-1c0.5,0,1,0.4,1,1v7c0,0.6-0.4,1-1,1c-0.6,0-1-0.4-1-1V163.4z M336.4,169.6h0.9c0.9,0,1.5-0.3,1.8-1
	c0.1-0.3,0.2-0.8,0.2-1.7c0-0.9-0.1-1.4-0.2-1.7c-0.2-0.7-0.9-1-1.8-1h-0.9c-0.1,0-0.1,0-0.1,0.1L336.4,169.6
	C336.3,169.6,336.3,169.6,336.4,169.6 M334.4,163.3c0-0.5,0.3-0.8,0.8-0.8h2.1c1.9,0,3.1,0.6,3.5,2.1c0.2,0.5,0.3,1.1,0.3,2.4
	s-0.1,1.9-0.3,2.4c-0.5,1.5-1.6,2.1-3.5,2.1h-2.1c-0.5,0-0.8-0.3-0.8-0.8V163.3z"/>
<path class="st0" d="M382.4,385.2l-1.3-5.7c-0.1-0.5-0.5-0.8-1-0.7c-0.2,0.1-0.4,0.2-0.5,0.4c-0.1,0.2-0.1,0.4-0.1,0.7l0.9,3.7
	l-3-3.3c-0.5-0.5-0.9-0.7-1.3-0.6c-0.6,0.1-0.9,0.6-0.7,1.3l1.3,5.7c0.1,0.4,0.4,0.7,0.8,0.7c0.1,0,0.1,0,0.2,0
	c0.5-0.1,0.7-0.5,0.6-1l-0.9-3.7l3,3.3c0.5,0.5,0.9,0.7,1.3,0.6c0.3-0.1,0.5-0.2,0.6-0.4C382.4,385.8,382.5,385.5,382.4,385.2
	 M371.7,382.7c0,0.6-0.4,0.9-1,0.9c0,0,0,0,0,0l-1.2,0l0-1.8l1.2,0c0.3,0,0.6,0.1,0.7,0.3C371.7,382.2,371.7,382.5,371.7,382.7
	 M370.9,380.2l-2.3,0c-0.2,0-0.4,0.1-0.6,0.2c-0.1,0.1-0.2,0.3-0.2,0.6l-0.1,6c0,0.6,0.4,1,0.9,1c0,0,0,0,0,0c0.2,0,0.5-0.1,0.6-0.2
	c0.2-0.2,0.3-0.4,0.3-0.7l0-1.8l1.3,0c0.8,0,1.5-0.2,2-0.7c0.5-0.4,0.7-1,0.8-1.8c0-0.7-0.2-1.4-0.7-1.8
	C372.4,380.5,371.7,380.2,370.9,380.2 M365,379.6c-0.2-0.1-0.5,0-0.7,0.1c-0.2,0.1-0.3,0.3-0.4,0.6l-1,4c-0.2,0.8-0.6,1.1-1.2,0.9
	c-0.2-0.1-0.4-0.2-0.6-0.3c-0.2-0.2-0.3-0.4-0.6-0.4c-0.2-0.1-0.4,0-0.6,0.1c-0.2,0.1-0.3,0.3-0.4,0.5c-0.1,0.2,0,0.4,0.1,0.7
	c0.2,0.5,0.9,0.9,1.6,1.1c0.3,0.1,0.6,0.1,0.9,0.1c0.5,0,0.9-0.1,1.3-0.3c0.6-0.4,1-1,1.2-1.9l1-3.9c0.1-0.3,0-0.5-0.1-0.7
	C365.5,379.8,365.3,379.7,365,379.6 M378.5,342c0.1,0.7,0.7,1.2,1.4,1.2c0.1,0,0.2,0,0.3,0c0.8-0.2,1.3-0.9,1.1-1.7
	c-0.3-1.6-0.6-2.1-1.3-3.4l-0.2-0.3c-0.4-0.7-1.3-1-2-0.6c-0.7,0.4-1,1.3-0.6,2l0.2,0.3C378.1,340.7,378.2,340.9,378.5,342
	 M377.3,342.4c-0.3-1.6-0.6-2.1-1.3-3.4l-0.2-0.3c-0.4-0.7-1.3-1-2-0.6c-0.7,0.4-1,1.3-0.6,2l0.2,0.3c0.7,1.2,0.8,1.4,1,2.5
	c0.1,0.7,0.7,1.2,1.4,1.2c0.1,0,0.2,0,0.3,0C377,344,377.5,343.2,377.3,342.4 M392.1,347.8c-2.6-1.7-6.9-1.6-14.3,0.5
	c-0.8,0.2-1.2,1-1,1.8c0.2,0.8,1,1.2,1.8,1c2.3-0.6,9.2-2.6,11.9-0.9c0.4,0.3,1,0.8,1.2,2.2c0.2,1.4,0,2.4-0.7,3.2
	c-1.2,1.4-4,2.2-8.7,2.5c-0.8,0-1.4,0.7-1.4,1.5c0,0.8,0.7,1.4,1.5,1.4c0,0,0.1,0,0.1,0c5.7-0.3,9-1.4,10.8-3.6
	c1.2-1.4,1.6-3.2,1.3-5.5C394.3,350.1,393.4,348.7,392.1,347.8 M377.1,346.1c-0.1-0.8-0.8-1.4-1.6-1.3c-1,0.1-1.8,0.2-2.6,0.3
	c-0.1-1.3-0.2-2.7-0.3-4.1c-0.1-0.8-0.8-1.4-1.6-1.3c-0.8,0.1-1.4,0.8-1.3,1.6c0.1,1.5,0.2,2.8,0.3,4.1c-2.2,0.2-4.1,0.2-7.1,0.1
	c-0.8,0-1.5,0.6-1.5,1.4s0.6,1.5,1.4,1.5c1.1,0,2.1,0,3,0c1.5,0,2.8,0,4.2-0.1c0.1,6.3-1.1,9.6-5.4,11.2c-0.8,0.3-1.1,1.1-0.9,1.9
	c0.2,0.6,0.8,1,1.4,1c0.2,0,0.3,0,0.5-0.1c6.3-2.3,7.5-7.6,7.3-14.2c0.8-0.1,1.8-0.2,2.8-0.3C376.7,347.7,377.2,346.9,377.1,346.1
	 M359.2,340c-0.8-0.2-1.6,0.3-1.8,1.1c-1.5,6.3-1.6,12.5-0.2,18.9c0.1,0.7,0.8,1.2,1.4,1.2c0.1,0,0.2,0,0.3,0
	c0.8-0.2,1.3-0.9,1.1-1.7c-1.3-6-1.2-11.7,0.2-17.6C360.5,341,360,340.2,359.2,340 M340,342.9c2.9,0.6,7.9,1.1,10.9,1.3
	c0,0,0.1,0,0.1,0c0.8,0,1.4-0.6,1.5-1.4c0-0.8-0.6-1.5-1.4-1.5c-3-0.2-7.7-0.7-10.5-1.2c-0.8-0.2-1.6,0.4-1.7,1.1
	C338.7,342,339.2,342.8,340,342.9 M352.8,356.8c1.3-1.7,1.8-3.7,1.5-5.9c-0.2-1.6-1.1-2.9-2.4-3.7c-4.4-2.7-13.1,0-14.7,0.6
	c-0.8,0.3-1.2,1.1-0.9,1.9c0.3,0.8,1.1,1.2,1.8,0.9c4.2-1.4,9.9-2.3,12.3-0.9c0.6,0.4,1,0.9,1.1,1.6c0.2,1.4-0.1,2.6-0.9,3.7
	c-1.5,2-5,3.6-9,4.1c-0.8,0.1-1.4,0.8-1.3,1.6c0.1,0.7,0.7,1.3,1.4,1.3c0.1,0,0.1,0,0.2,0C346.7,361.4,350.8,359.5,352.8,356.8
	 M404.2,340c-0.8-0.2-1.6,0.2-1.8,1l-3.2,11.7c-0.2,0.8,0.2,1.6,1,1.8c0.1,0,0.3,0.1,0.4,0.1c0.6,0,1.2-0.4,1.4-1.1l3.2-11.7
	C405.5,341,405,340.2,404.2,340 M399.2,356.6c-1,0-1.8,0.8-1.8,1.8c0,1,0.8,1.8,1.8,1.8c1,0,1.8-0.8,1.8-1.8
	C401,357.4,400.2,356.6,399.2,356.6 M388.5,367c-4.5,4.7-10.8,7.4-17.4,7.4c-6.5,0-12.8-2.7-17.3-7.4c-0.6-0.6-1.5-0.6-2.1,0
	c-0.6,0.6-0.6,1.5,0,2.1c5.1,5.3,12.1,8.3,19.5,8.3c7.3,0,14.4-3,19.5-8.3c0.6-0.6,0.5-1.5,0-2.1C390,366.3,389.1,366.4,388.5,367
	 M354.1,333.4c4.5-4.5,10.7-7.1,17.1-7.1c8,0,15.4,3.9,19.9,10.5c0.3,0.4,0.7,0.6,1.2,0.6c0.3,0,0.6-0.1,0.8-0.3
	c0.7-0.5,0.8-1.4,0.4-2c-5-7.4-13.4-11.8-22.3-11.8c-7.1,0-14.1,2.9-19.2,8c-0.6,0.6-0.6,1.5,0,2.1C352.6,334,353.5,334,354.1,333.4
	 M371,306.6c24.2,0,43.7,19.6,43.7,43.7c0,24.2-19.6,43.7-43.7,43.7c-24.2,0-43.7-19.6-43.7-43.7C327.3,326.2,346.8,306.6,371,306.6
	 M371,309.5c-22.5,0-40.8,18.3-40.8,40.8s18.3,40.8,40.8,40.8c22.5,0,40.8-18.3,40.8-40.8S393.5,309.5,371,309.5 M378.3,320.4
	c0.4,0.1,0.7,0,1-0.5l1.6-2.1l-0.8,3.2c-0.1,0.3,0,0.5,0.1,0.7c0.1,0.2,0.3,0.3,0.5,0.4c0.1,0,0.2,0,0.2,0c0.4,0,0.7-0.2,0.8-0.7
	l1.4-5.7c0.1-0.3,0-0.6-0.1-0.8c-0.1-0.2-0.3-0.4-0.6-0.4c-0.6-0.1-0.9,0.1-1.2,0.6l-2.3,3l-0.7-3.7c-0.1-0.6-0.3-1-0.8-1.1
	c-0.3-0.1-0.5,0-0.8,0.1c-0.2,0.1-0.4,0.4-0.4,0.7l-1.4,5.7c-0.1,0.3,0,0.5,0.1,0.7c0.1,0.2,0.3,0.3,0.5,0.4c0.5,0.1,0.9-0.1,1-0.7
	l0.8-3.2l0.5,2.6C377.7,320.1,377.9,320.3,378.3,320.4 M369.2,320.6C369.2,320.6,369.2,320.6,369.2,320.6c0.5,0,0.9-0.4,0.9-1l0-2.1
	l2.1,0c0.3,0,0.5-0.1,0.6-0.2c0.1-0.1,0.2-0.3,0.2-0.6c0-0.2-0.1-0.4-0.2-0.6c-0.2-0.1-0.4-0.2-0.6-0.2l-2.1,0l0-1.5l2.6,0
	c0.5,0,0.8-0.3,0.8-0.8c0-0.5-0.3-0.8-0.8-0.8c0,0,0,0,0,0l-3.6,0.1c-0.5,0-0.8,0.3-0.8,0.8l0.1,6
	C368.3,320.2,368.6,320.6,369.2,320.6 M361.6,320.4L361.6,320.4L361.6,320.4L361.6,320.4L361.6,320.4z M363.2,317.6
	c-0.2-0.6-0.4-1.1-0.5-1.3c-0.3-0.5-0.8-0.6-1.6-0.4l-0.7,0.2l1.2,4.3l0.7-0.2c0.7-0.2,1.1-0.6,1.1-1.1
	C363.5,318.7,363.4,318.2,363.2,317.6 M364.9,317.1c0.3,1.1,0.4,1.6,0.3,2c-0.1,1.3-0.8,2.1-2.5,2.5l-1.7,0.5c-0.1,0-0.2,0-0.3,0
	c-0.3,0-0.6-0.2-0.7-0.6l-1.6-5.8c-0.1-0.5,0.1-0.9,0.5-1l1.7-0.5c1.6-0.5,2.7-0.2,3.4,0.9C364.4,315.5,364.6,316,364.9,317.1
	 M407.2,454.1c0,0.6,0.4,0.9,0.9,0.9c0.5,0,0.9-0.3,0.9-0.9v-4.3h0.1l1.4,3.2c0.3,0.6,0.5,0.8,0.9,0.8c0.4,0,0.7-0.2,0.9-0.8
	l1.4-3.2h0.1v4.3c0,0.6,0.4,0.9,0.9,0.9s0.9-0.3,0.9-0.9v-7c0-0.7-0.4-1.2-1-1.2c-0.6,0-0.9,0.3-1.2,1l-1.9,4.3h-0.1l-1.9-4.3
	c-0.3-0.7-0.6-1-1.2-1c-0.6,0-1.1,0.4-1.1,1.2V454.1z M401.7,455.1c2,0,3.4-1.2,3.4-3.4v-4.7c0-0.6-0.4-1-1-1c-0.5,0-1,0.4-1,1v4.7
	c0,1.1-0.6,1.7-1.5,1.7c-0.8,0-1.5-0.6-1.5-1.7v-4.7c0-0.6-0.4-1-1-1c-0.6,0-1,0.4-1,1v4.7C398.3,453.9,399.7,455.1,401.7,455.1
	 M390.6,454.1c0,0.5,0.3,0.8,0.8,0.8h4.3c0.5,0,0.9-0.4,0.9-0.8c0-0.5-0.4-0.8-0.9-0.8h-3.1c-0.1,0-0.1,0-0.1-0.1v-1.8
	c0-0.1,0-0.1,0.1-0.1h2.5c0.5,0,0.9-0.3,0.9-0.8c0-0.5-0.3-0.8-0.9-0.8h-2.5c-0.1,0-0.1,0-0.1-0.1v-1.8c0-0.1,0-0.1,0.1-0.1h3.1
	c0.5,0,0.9-0.4,0.9-0.8c0-0.5-0.4-0.8-0.9-0.8h-4.3c-0.5,0-0.8,0.3-0.8,0.8V454.1z M385.4,455.1c2.3,0,3.5-1.2,3.5-2.8
	c0-1.6-1-2.4-2.8-2.7l-0.5-0.1c-1-0.1-1.4-0.5-1.4-1c0-0.6,0.4-1,1.2-1c0.5,0,1.1,0.2,1.5,0.4c0.2,0.1,0.4,0.1,0.6,0.1
	c0.5,0,0.8-0.4,0.8-0.8c0-0.3-0.1-0.6-0.5-0.8c-0.5-0.3-1.5-0.6-2.5-0.6c-1.9,0-3.1,1.1-3.1,2.7c0,1.6,1,2.4,2.8,2.7l0.5,0.1
	c1.1,0.1,1.4,0.5,1.4,1c0,0.6-0.5,1-1.4,1c-0.7,0-1.2-0.2-1.9-0.6c-0.2-0.1-0.4-0.2-0.6-0.2c-0.5,0-0.9,0.4-0.9,0.8
	c0,0.3,0.2,0.6,0.5,0.8C383.2,454.7,384.1,455.1,385.4,455.1 M377,455.1c2,0,3.4-1.2,3.4-3.4v-4.7c0-0.6-0.4-1-1-1c-0.5,0-1,0.4-1,1
	v4.7c0,1.1-0.6,1.7-1.5,1.7c-0.8,0-1.5-0.6-1.5-1.7v-4.7c0-0.6-0.4-1-1-1c-0.6,0-1,0.4-1,1v4.7C373.6,453.9,374.9,455.1,377,455.1
	 M363,454.1c0,0.6,0.4,0.9,0.9,0.9c0.5,0,0.9-0.3,0.9-0.9v-4.3h0.1l1.4,3.2c0.3,0.6,0.5,0.8,0.9,0.8c0.4,0,0.7-0.2,0.9-0.8l1.4-3.2
	h0.1v4.3c0,0.6,0.4,0.9,0.9,0.9c0.5,0,0.9-0.3,0.9-0.9v-7c0-0.7-0.4-1.2-1-1.2c-0.6,0-0.9,0.3-1.2,1l-1.9,4.3h-0.1l-1.9-4.3
	c-0.3-0.7-0.6-1-1.2-1c-0.6,0-1.1,0.4-1.1,1.2V454.1z M353.4,453.2v-5.3c0-0.1,0-0.1,0.1-0.1h0.9c0.9,0,1.5,0.3,1.8,1
	c0.1,0.3,0.2,0.8,0.2,1.7c0,0.9-0.1,1.4-0.2,1.7c-0.2,0.7-0.9,1-1.8,1L353.4,453.2C353.4,453.3,353.4,453.3,353.4,453.2
	 M351.4,454.2c0,0.5,0.3,0.8,0.8,0.8h2.1c1.9,0,3.1-0.6,3.5-2.1c0.2-0.5,0.3-1.1,0.3-2.4s-0.1-1.9-0.3-2.4c-0.5-1.4-1.6-2-3.5-2
	h-2.1c-0.5,0-0.8,0.3-0.8,0.8V454.2z M346.1,453.4c-0.7,0-1.2-0.4-1.4-1c-0.1-0.3-0.1-0.8-0.1-1.9c0-1.2,0-1.6,0.1-1.9
	c0.2-0.6,0.7-1,1.4-1c0.7,0,1.2,0.4,1.4,1c0.1,0.3,0.1,0.8,0.1,1.9c0,1.1,0,1.6-0.1,1.9C347.3,453.1,346.8,453.4,346.1,453.4
	 M346.1,455.1c1.6,0,2.8-0.7,3.2-2.2c0.2-0.6,0.2-1.1,0.2-2.4c0-1.3-0.1-1.8-0.2-2.4c-0.5-1.4-1.7-2.2-3.2-2.2
	c-1.6,0-2.8,0.7-3.2,2.2c-0.2,0.6-0.2,1.1-0.2,2.4c0,1.3,0.1,1.8,0.2,2.4C343.3,454.4,344.5,455.1,346.1,455.1 M337.5,453.4
	c-0.7,0-1.2-0.4-1.4-1c-0.1-0.3-0.1-0.8-0.1-1.9c0-1.2,0-1.6,0.1-1.9c0.2-0.6,0.7-1,1.4-1c0.7,0,1.2,0.4,1.4,1
	c0.1,0.3,0.1,0.8,0.1,1.9c0,1.1,0,1.6-0.1,1.9C338.7,453.1,338.2,453.4,337.5,453.4 M337.5,455.1c1.6,0,2.8-0.7,3.2-2.2
	c0.2-0.6,0.2-1.1,0.2-2.4c0-1.3-0.1-1.8-0.2-2.4c-0.5-1.4-1.7-2.2-3.2-2.2s-2.8,0.7-3.2,2.2c-0.2,0.6-0.2,1.1-0.2,2.4
	c0,1.3,0.1,1.8,0.2,2.4C334.7,454.4,335.9,455.1,337.5,455.1 M327.1,454.1c0,0.6,0.4,1,1,1c0.5,0,1-0.4,1-1v-2.5
	c0-0.1,0-0.1,0.1-0.1h2.5c0.6,0,0.9-0.3,0.9-0.8c0-0.5-0.3-0.8-0.9-0.8h-2.5c-0.1,0-0.1,0-0.1-0.1v-1.9c0-0.1,0-0.1,0.1-0.1h3.1
	c0.5,0,0.9-0.4,0.9-0.8c0-0.5-0.4-0.8-0.9-0.8h-4.3c-0.5,0-0.8,0.3-0.8,0.8V454.1z M401.7,439.9c0.5,1.4,1.7,2.2,3.3,2.2
	c1.6,0,2.8-0.8,3.2-2.2c0.2-0.5,0.2-1.2,0.2-2v-0.1c0-0.5-0.3-0.8-0.8-0.8h-1.8c-0.5,0-0.8,0.3-0.8,0.8c0,0.5,0.3,0.8,0.8,0.8h0.6
	c0.1,0,0.1,0,0.1,0.1c0,0.3,0,0.6-0.1,0.9c-0.2,0.6-0.7,0.9-1.4,0.9c-0.8,0-1.3-0.4-1.5-1c-0.1-0.3-0.1-0.8-0.1-1.9
	c0-1.1,0-1.6,0.1-1.9c0.2-0.6,0.7-1,1.4-1c0.6,0,1,0.2,1.3,0.7c0.3,0.4,0.5,0.5,0.8,0.5c0.5,0,0.9-0.4,0.9-0.9
	c0-0.2-0.1-0.4-0.2-0.6c-0.5-0.8-1.5-1.4-2.9-1.4c-1.6,0-2.8,0.7-3.3,2.2c-0.2,0.6-0.2,1.1-0.2,2.4
	C401.4,438.8,401.5,439.3,401.7,439.9 M392.7,441.1c0,0.6,0.4,0.9,0.9,0.9c0.5,0,0.9-0.3,0.9-0.9v-4.8h0.1l2.7,4.8
	c0.4,0.6,0.7,0.9,1.3,0.9c0.7,0,1.1-0.4,1.1-1.1v-7c0-0.6-0.4-0.9-0.9-0.9c-0.5,0-0.9,0.3-0.9,0.9v4.9h-0.1l-2.7-4.8
	c-0.4-0.6-0.7-0.9-1.3-0.9c-0.7,0-1.1,0.4-1.1,1.1V441.1z M388.4,441c0,0.6,0.4,1,1,1c0.5,0,1-0.4,1-1v-7c0-0.6-0.4-1-1-1
	c-0.6,0-1,0.4-1,1V441z M383.8,442c0.6,0,1-0.4,1-1v-6.2c0-0.1,0-0.1,0.1-0.1h1.5c0.6,0,1-0.4,1-0.8c0-0.5-0.4-0.9-1-0.9h-5.1
	c-0.6,0-1,0.4-1,0.9c0,0.5,0.4,0.8,1,0.8h1.5c0.1,0,0.1,0,0.1,0.1v6.2C382.8,441.6,383.2,442,383.8,442 M375.8,442.1
	c2.3,0,3.5-1.2,3.5-2.8c0-1.6-1-2.4-2.8-2.7l-0.5-0.1c-1-0.1-1.4-0.5-1.4-1c0-0.6,0.4-1,1.2-1c0.5,0,1.1,0.2,1.5,0.4
	c0.2,0.1,0.4,0.1,0.6,0.1c0.5,0,0.8-0.4,0.8-0.8c0-0.3-0.1-0.6-0.5-0.8c-0.5-0.3-1.5-0.6-2.5-0.6c-1.9,0-3.1,1.1-3.1,2.7
	c0,1.6,1,2.4,2.8,2.7l0.5,0.1c1.1,0.1,1.4,0.5,1.4,1c0,0.6-0.5,1-1.5,1c-0.7,0-1.2-0.2-1.9-0.6c-0.2-0.1-0.4-0.2-0.6-0.2
	c-0.5,0-0.9,0.4-0.9,0.8c0,0.3,0.2,0.6,0.5,0.8C373.6,441.7,374.5,442.1,375.8,442.1 M367.4,442.1c2,0,3.4-1.2,3.4-3.4V434
	c0-0.6-0.4-1-1-1c-0.5,0-1,0.4-1,1v4.7c0,1.1-0.6,1.7-1.5,1.7c-0.8,0-1.5-0.6-1.5-1.7V434c0-0.6-0.4-1-1-1c-0.6,0-1,0.4-1,1v4.7
	C364,440.9,365.3,442.1,367.4,442.1 M355.4,439.9c0.5,1.4,1.7,2.2,3.3,2.2c1.6,0,2.8-0.8,3.2-2.2c0.2-0.5,0.2-1.2,0.2-2v-0.1
	c0-0.5-0.3-0.8-0.8-0.8h-1.8c-0.5,0-0.8,0.3-0.8,0.8c0,0.5,0.3,0.8,0.8,0.8h0.6c0.1,0,0.1,0,0.1,0.1c0,0.3,0,0.6-0.1,0.9
	c-0.2,0.6-0.7,0.9-1.4,0.9c-0.8,0-1.3-0.4-1.4-1c-0.1-0.3-0.1-0.8-0.1-1.9c0-1.1,0-1.6,0.1-1.9c0.2-0.6,0.7-1,1.4-1
	c0.6,0,1,0.2,1.3,0.7c0.3,0.4,0.5,0.5,0.8,0.5c0.5,0,0.9-0.4,0.9-0.9c0-0.2-0.1-0.4-0.2-0.6c-0.5-0.8-1.5-1.4-2.9-1.4
	c-1.6,0-2.8,0.7-3.3,2.2c-0.2,0.6-0.2,1.1-0.2,2.4C355.2,438.8,355.2,439.3,355.4,439.9 M350.2,442.1c2.3,0,3.5-1.2,3.5-2.8
	c0-1.6-1-2.4-2.8-2.7l-0.5-0.1c-1-0.1-1.4-0.5-1.4-1c0-0.6,0.4-1,1.2-1c0.5,0,1.1,0.2,1.5,0.4c0.2,0.1,0.4,0.1,0.6,0.1
	c0.5,0,0.8-0.4,0.8-0.8c0-0.3-0.1-0.6-0.5-0.8c-0.5-0.3-1.5-0.6-2.5-0.6c-1.9,0-3.1,1.1-3.1,2.7c0,1.6,1,2.4,2.8,2.7l0.5,0.1
	c1.1,0.1,1.4,0.5,1.4,1c0,0.6-0.5,1-1.5,1c-0.7,0-1.2-0.2-1.9-0.6c-0.2-0.1-0.4-0.2-0.6-0.2c-0.5,0-0.9,0.4-0.9,0.8
	c0,0.3,0.2,0.6,0.5,0.8C348,441.7,349,442.1,350.2,442.1 M343.2,441c0,0.6,0.4,1,1,1c0.5,0,1-0.4,1-1v-7c0-0.6-0.4-1-1-1
	c-0.6,0-1,0.4-1,1V441z M336.3,440.1v-5.3c0-0.1,0-0.1,0.1-0.1h0.9c0.9,0,1.5,0.3,1.8,1c0.1,0.3,0.2,0.8,0.2,1.7s-0.1,1.4-0.2,1.7
	c-0.2,0.7-0.9,1-1.8,1L336.3,440.1C336.3,440.2,336.3,440.2,336.3,440.1 M334.4,441.1c0,0.5,0.3,0.8,0.8,0.8h2.1
	c1.9,0,3.1-0.6,3.5-2c0.2-0.5,0.3-1.1,0.3-2.4c0-1.3-0.1-1.9-0.3-2.4c-0.5-1.5-1.6-2.1-3.5-2.1h-2.1c-0.5,0-0.8,0.3-0.8,0.8V441.1z
	 M399.9,400.7c-0.6-1.8-2.8-2.8-5.4-2.8c-1.2,0-2.5,0.2-3.8,0.7c-4.1,1.5-6.7,4.9-5.8,7.5c0.6,1.8,2.8,2.8,5.4,2.8
	c1.2,0,2.5-0.2,3.9-0.7C398.2,406.8,400.8,403.3,399.9,400.7 M401.2,406.7c-1.4,1.9-3.6,3.4-6.1,4.3c-1.6,0.6-3.2,0.9-4.8,0.9
	c-3.3,0-6.1-1.3-7.5-3.4l-7.8,2.8l17.5,6.4c0.8,0.3,1.1,1.1,0.9,1.9c-0.3,0.8-1.1,1.1-1.9,0.9l-20.8-7.6l-20.6,7.5
	c-0.8,0.3-1.6-0.1-1.9-0.9c-0.3-0.8,0.1-1.6,0.9-1.9l17.3-6.3l-9.7-3.5c-1.8,2.9-5.5,4.2-8.9,3h0h0l-11.5-4.2
	c-0.8-0.3-1.1-1.1-0.9-1.9c0.3-0.8,1.1-1.1,1.9-0.9L349,408l0,0h0c2.4,0.9,4.9-0.3,5.8-2.5c0.8-2.3-0.4-4.8-2.8-5.6c0,0,0,0,0,0
	c0,0,0,0,0,0l-11.5-4.2c-0.8-0.3-1.1-1.1-0.9-1.9c0.3-0.8,1.1-1.1,1.9-0.9l11.5,4.2c0,0,0,0,0,0c0,0,0,0,0,0c3.4,1.2,5.4,4.6,4.9,8
	l12.9,4.7l11.1-4c-0.2-1.8,0.4-3.8,1.7-5.5c1.4-1.9,3.6-3.4,6.1-4.3c1.6-0.6,3.2-0.9,4.8-0.9c4,0,7.1,1.8,8.1,4.7
	C403.4,401.9,402.9,404.4,401.2,406.7 M337.5,399.2c0.3-0.8,1.1-1.1,1.9-0.9l11.5,4.2c0.8,0.3,1.1,1.1,0.9,1.9
	c-0.3,0.8-1.1,1.1-1.9,0.9l-11.5-4.2C337.7,400.8,337.3,400,337.5,399.2"/>
</svg>
