<?xml version="1.0" encoding="utf-8"?>
<!-- Generator: Adobe Illustrator 27.0.1, SVG Export Plug-In . SVG Version: 6.00 Build 0)  -->
<svg version="1.1" id="Ebene_1" xmlns="http://www.w3.org/2000/svg" xmlns:xlink="http://www.w3.org/1999/xlink" x="0px" y="0px"
	 viewBox="0 0 1280 490" style="enable-background:new 0 0 1280 490;" xml:space="preserve">
<style type="text/css">
	.st0{fill:#FFFFFF;}
</style>
<path class="st0" d="M656.8,89l-1.2-6.7l-2,8.2c-0.3,1.3-1.4,2-2.5,1.6c-0.6-0.2-1.1-0.5-1.4-0.9c-0.3-0.5-0.4-1.1-0.2-1.7l3.5-14.6
	c0.2-0.8,0.5-1.4,1.1-1.7s1.2-0.5,1.9-0.3c1.4,0.4,1.9,1.4,2.2,2.8l1.7,9.6l5.8-7.7c0.9-1.2,1.7-1.9,3.2-1.5
	c0.7,0.2,1.3,0.5,1.5,1.2c0.3,0.5,0.4,1.3,0.2,2.1l-3.4,14.5c-0.3,1.1-1,1.7-2,1.7c-0.2,0-0.4,0-0.5-0.1c-0.6-0.2-1.1-0.5-1.4-0.9
	c-0.3-0.5-0.4-1.1-0.2-1.7l2-8.2l-4.1,5.4c-0.9,1.3-1.5,1.5-2.6,1.3C657.4,91.1,657.1,90.5,656.8,89 M632.8,89.4l-0.3-15.2
	c0-1.3,0.7-2.1,2-2.1l9.2-0.2c0,0,0,0,0.1,0c1.3,0,2.1,0.8,2.1,2c0,1.2-0.9,2-2.1,2l-6.7,0.1l0.1,3.9l5.3-0.1c0.6,0,1.2,0.2,1.5,0.5
	c0.4,0.4,0.5,0.8,0.6,1.4c0,0.5-0.2,1.1-0.5,1.4c-0.4,0.4-0.9,0.5-1.5,0.5l-5.3,0.2l0.1,5.4c0,1.4-0.9,2.4-2.3,2.4l0,0
	C633.8,91.8,632.9,90.8,632.8,89.4 M615.8,91.1L615.8,91.1L615.8,91.1l0.1,0.2L615.8,91.1z M620.5,87.7c0,1.4-1,2.4-2.9,2.9
	l-1.8,0.5l-3.1-10.9l1.8-0.5c1.9-0.5,3.2-0.2,4,1c0.4,0.6,0.8,1.8,1.3,3.4C620.3,85.8,620.5,87,620.5,87.7 M622.4,78
	c-1.8-2.7-4.6-3.4-8.8-2.3l-4.3,1.2c-1.2,0.4-1.7,1.4-1.4,2.5l4.2,14.9c0.3,1,1,1.5,1.8,1.5c0.2,0,0.5,0,0.6-0.1l4.3-1.2
	c4.2-1.2,6.2-3.3,6.3-6.5c0.1-1.1-0.1-2.4-0.8-5.2C623.6,80.1,622.9,78.9,622.4,78 M689.7,169.1c0.4-2.4-0.7-4.4-3.2-4.4
	c-1.7,0-4.4,0.6-6,5.9l-1.3,4.7c0.5-0.3,1.2-0.4,1.8-0.3C686.9,175.5,689.4,172.3,689.7,169.1 M704.6,184.5
	c-1.4,4.8-5.9,9.6-12.7,9.6c-7.5,0-12.3-4.3-14.3-12.6l-2.8,10.2c-0.5,1.6-2,2.7-3.6,2.7c-0.4,0-0.6,0-1-0.1c-2-0.5-3.2-2.6-2.6-4.5
	l0.2-0.6c-2.8,2.8-6.2,4.5-9.5,4.5s-7.2-1.4-9.9-5.2c-3.7,3.4-7.6,5.2-11.9,5.2c-3.1,0-5.9-1.4-7.9-3.5c-2.1,2.1-5,3.5-8.8,3.5
	c-3.3,0-6.2-1.4-8.1-3.9c-2.2-2.9-2.7-6.8-1.4-11c1-3.3,5.2-18.2,5.2-18.2c0.5-2,2.5-3.1,4.5-2.5c2,0.5,3.2,2.5,2.7,4.5
	c0,0-4.2,14.9-5.2,18.4c-0.5,1.9-0.5,3.5,0.3,4.4c0.6,0.8,1.4,1,2.2,1c1.6,0,4.6,0,7.1-8.8c2.5-8.6,4.6-16.8,4.7-16.9
	c0.5-2,2.5-3.2,4.5-2.6s3.2,2.5,2.6,4.5c0,0.1-2.2,8.4-4.7,17.1c-0.1,0.5-0.3,0.9-0.5,1.4c-0.5,1.8-0.4,3.3,0.4,4.3
	c0.5,0.7,1.4,1.1,2.4,1.1c3.1,0,6.2-2,9.1-5.8c0-0.5-0.1-1.2-0.1-1.8c0-14.4,9.2-20.9,15.8-20.9c3,0,5.2,0.6,6.9,1.9
	c1.6,1.3,1.9,3.6,0.6,5.2c-0.7,1-1.5,1.2-3.1,1.2c-1.4,0-2.4-0.9-4.5-0.9c-3.3,0-8.4,4.3-8.4,13.5c0,6.2,3.7,7.5,6.9,7.5
	c3.6,0,9.9-4.3,11.9-12.4c0,0,0,0,0-0.1l1.4-5.1v-0.1c0-0.2,0.1-0.3,0.2-0.5l6.8-25.2c0.5-2,2.6-3.2,4.5-2.6c2,0.5,3.2,2.6,2.6,4.5
	l-3.3,12.4c0.8-0.2,1.6-0.2,2.4-0.2c3.1,0,5.9,1.3,7.9,3.4c2.2,2.4,3.1,5.8,2.7,9.3c-0.6,5.5-4.5,11-11.7,12.2
	c1.6,4.1,4.1,4.5,6.4,4.5c2.9,0,4.9-2.2,5.5-4.3c0.6-2,2.7-3.1,4.6-2.4C704.1,180.5,705.2,182.5,704.6,184.5 M729.4,145.6l-8.1,29.8
	c-0.5,1.6-2,2.7-3.6,2.7c-0.4,0-0.6,0-1-0.1c-2-0.5-3.2-2.6-2.6-4.5l8.1-29.8c0.5-2,2.6-3.2,4.5-2.6
	C728.8,141.5,730,143.6,729.4,145.6 M718.4,187.8c0,2.4-1.9,4.3-4.3,4.3c-2.4,0-4.3-1.9-4.3-4.3c0-2.4,1.9-4.3,4.3-4.3
	C716.5,183.5,718.4,185.4,718.4,187.8 M586.8,211.9c-2.6-1.9-4.3-3.2-6.9-3.2c-4,0-7.1,1.4-7.1,5.2c0,4.6,2.9,6.2,6.4,6.2
	C582.1,220.1,584.6,217.6,586.8,211.9 M689,210.7c1.4,1.4,1.4,3.8,0,5.2c-12.8,12.8-30.6,20.3-48.8,20.3c-0.1,0-0.1,0-0.2,0
	c-0.1,0-0.1,0-0.2,0c-23.8,0-37.4-11.1-47.2-19.5c-3.1,6.5-7.1,10.8-13.3,10.8c-6.8,0-14.1-4.3-14.1-13.6c0-6.1,4.5-12.7,14.6-12.7
	c3.3,0,6.3,1.3,9.4,3.3c1.3-4.3,2.4-9,3.4-13.7c-3.1,2-6.6,3-10.5,3c-4.2,0-7.8-1.7-10.1-4.8c-2.2-2.9-4.3-8.2-1.8-17.3
	c0.7-2.5,1.8-6.3,3.1-10.2c1.6-5.4,3.5-11.5,4.1-14.1c0.5-2.8,0.5-7-1.7-9.7c-1.4-1.8-3.8-2.7-7.1-2.7c-5.1,0-9,3.3-10.5,8.6
	c-0.9,3.3-0.6,6.2,0.7,8.1c1.2,1.7,3.2,2.8,5.6,3.1c2.1,0.3,3.5,2.1,3.3,4.1c-0.3,2.1-2.1,3.5-4.1,3.3c-4.5-0.5-8.5-2.8-10.9-6.2
	c-1.8-2.6-3.6-7.3-1.8-14.3c2.3-8.6,9.2-14.2,17.6-14.2c7,0,10.9,3,12.8,5.4c3.8,4.7,4.2,11.2,3.2,15.8c-0.6,2.9-2.4,8.9-4.3,14.7
	c-1.2,3.8-2.3,7.5-3,10c-1.3,4.8-1.1,8.7,0.5,10.9c1.2,1.5,3,1.9,4.3,1.9c3.2,0,11.6,0,16.7-21.1l0,0c3.6-14.4,7.2-28,7.2-28.2
	c0.5-2,2.5-3.2,4.5-2.6c2,0.5,3.2,2.5,2.6,4.5c-0.1,0.3-8.2,31.6-12.5,49.4l-0.9,3.8c-1.4,6.1-2.8,11.9-4.4,17.1
	c0.5,0.5,1.1,0.9,1.5,1.4c9.5,8.1,21.4,18,42.8,18c0.1,0,0.1,0,0.2,0c0.1,0,0.1,0,0.2,0c16.2,0,32-6.6,43.4-18.1
	C685.2,209.2,687.6,209.2,689,210.7 M692.3,132.2c-1.2,0-2.3-0.5-3-1.4c-11.5-15.4-29.9-24.6-49.1-24.6c-14.5,0-28.5,5.2-39.6,14.5
	c-1.5,1.4-3.9,1.1-5.2-0.5s-1.1-3.9,0.5-5.2c12.4-10.5,28.1-16.3,44.4-16.3c21.5,0,42.2,10.3,55.1,27.6c1.3,1.6,0.9,4-0.7,5.2
	C694,132,693.2,132.2,692.3,132.2 M640,55.9c61.6,0,111.7,49.9,111.7,111.7s-50,111.6-111.7,111.6s-111.7-49.9-111.7-111.7
	S578.3,55.9,640,55.9 M640,63.3c-57.5,0-104.1,46.7-104.1,104.1S582.6,271.6,640,271.6c57.4,0,104.1-46.7,104.1-104.1
	S697.4,63.3,640,63.3 M663.2,252.9l-3.3-5.2l-0.5,6.2L663.2,252.9z M669.1,259.4c-1,0.3-1.9-0.2-2.4-1.1l-1.3-1.9L659,258l-0.2,2.3
	c-0.1,1.1-0.7,1.8-1.7,2.1c-0.2,0.1-0.4,0.1-0.5,0.1c-0.4,0-0.7-0.1-1.1-0.3c-0.5-0.3-0.9-0.7-1-1.4c-0.1-0.3-0.1-0.6-0.1-0.9
	l1.6-15.1c0.2-1.8,0.9-2.9,2.4-3.3c1.4-0.4,2.6,0.2,3.6,1.7l8.3,12.7c0.2,0.3,0.3,0.5,0.4,0.8C671.1,258.1,670.2,259.2,669.1,259.4
	 M642.3,251.6l-1-0.1c-2.4-0.3-2.8-1.2-2.8-1.8c0-0.5,0.2-1,0.5-1.4c0.4-0.4,1-0.5,1.8-0.5c1.1,0,2.2,0.3,3.2,0.7
	c0.5,0.2,0.9,0.3,1.3,0.3c1.2,0,2-0.9,2-2.1c0-0.8-0.4-1.4-1.1-1.8c-1.3-0.7-3.4-1.3-5.4-1.2c-4.3,0.1-7,2.5-6.9,6.2
	c0.1,3.3,2.2,5.3,6.3,5.9l1,0.1c2.3,0.3,2.8,0.9,2.8,1.9c0,0.6-0.3,1.1-0.7,1.4c-0.5,0.4-1.3,0.6-2.2,0.6H641
	c-1.3,0-2.4-0.3-3.9-1.2c-0.3-0.2-0.7-0.4-1.4-0.4c-0.5,0-1.1,0.3-1.4,0.6s-0.5,0.9-0.5,1.4c0,0.8,0.5,1.4,1.1,1.9l0,0
	c1,0.6,3.1,1.5,6,1.5c0.1,0,0.2,0,0.2,0c2.4,0,4.4-0.7,5.7-1.9c1.3-1.1,1.9-2.7,1.9-4.5C648.6,254,646.5,252.1,642.3,251.6
	 M628.6,244c0.3,0.5,0.4,1.2,0.2,1.8l-2.4,9.8c-0.5,2.3-1.7,4-3.3,5c-1,0.6-2.2,0.9-3.5,0.9c-0.7,0-1.4-0.1-2.2-0.3
	c-2.3-0.5-3.9-1.6-4.9-3.2c-1-1.6-1.3-3.6-0.7-6l2.4-9.8c0.4-1.4,1.4-2.1,2.8-1.8c1.3,0.3,2,1.5,1.6,2.9l-2.4,9.9
	c-0.3,1-0.2,1.9,0.3,2.6c0.4,0.6,1,1.1,1.9,1.4c0.9,0.2,1.6,0.1,2.3-0.4c0.6-0.5,1.1-1.2,1.4-2.3l2.4-9.9c0.4-1.4,1.4-2.2,2.8-1.8
	C627.8,243.2,628.3,243.5,628.6,244 M698.9,315.5c-3.3,1.2-6.7,1.8-9.9,1.8c-6.6,0-12.1-2.5-13.8-7.1c-2.4-6.6,4.3-15.5,14.7-19.3
	c3.3-1.2,6.7-1.8,9.9-1.8c6.6,0,12.1,2.5,13.8,7.1C716,302.9,709.3,311.7,698.9,315.5 M720.6,293.7c-2.7-7.4-10.7-11.9-20.8-11.9
	c-4.1,0-8.3,0.8-12.4,2.3c-6.3,2.3-11.9,6.2-15.5,11c-3.4,4.5-5,9.4-4.4,14.1l-28.2,10.3l-33-12c1.2-8.5-3.8-17.2-12.5-20.3l0,0l0,0
	l-29.4-10.7c-1.9-0.7-4.1,0.3-4.8,2.3c-0.7,1.9,0.3,4.1,2.3,4.8l29.4,10.7l0,0l0,0c6.1,2.2,9.2,8.7,7.1,14.4
	c-2.1,5.8-8.7,8.6-14.7,6.4l0,0l0,0l-29.5-10.9c-1.9-0.7-4.1,0.3-4.8,2.3c-0.7,1.9,0.3,4.1,2.3,4.8l29.4,10.7l0,0l0,0
	c8.7,3.2,18.1-0.2,22.6-7.5l24.7,9l-44.2,16.1c-1.9,0.7-2.9,2.8-2.3,4.8c0.7,1.9,2.8,2.9,4.8,2.3l52.5-19.1l53,19.3
	c1.9,0.7,4.1-0.3,4.8-2.3c0.7-1.9-0.3-4.1-2.3-4.8l-44.6-16.3l19.9-7.2c3.6,5.4,10.6,8.7,19.1,8.7c4.1,0,8.3-0.8,12.4-2.3
	c6.3-2.4,11.9-6.2,15.5-11C721.3,305.8,722.6,299.3,720.6,293.7 M556.6,297.2l29.4,10.7c1.9,0.7,4.1-0.3,4.8-2.3
	c0.7-1.9-0.3-4.1-2.3-4.8l-29.4-10.7c-1.9-0.7-4.1,0.3-4.8,2.3C553.7,294.4,554.7,296.5,556.6,297.2 M732.2,414.9
	c0-1.8,1.1-2.9,2.7-2.9c1.4,0,2.3,0.8,3.1,2.5l4.8,10.9h0.1l4.7-10.9c0.7-1.7,1.5-2.5,3-2.5c1.6,0,2.6,1.2,2.6,2.9v17.7
	c0,1.5-0.9,2.4-2.3,2.4c-1.4,0-2.3-0.9-2.3-2.4v-10.9l0,0l-3.5,8.1c-0.7,1.6-1.3,2.1-2.4,2.1c-1.2,0-1.7-0.5-2.4-2.1l-3.5-8.1h-0.2
	v10.9c0,1.5-0.9,2.4-2.2,2.4c-1.4,0-2.3-0.9-2.3-2.4L732.2,414.9L732.2,414.9z M709.5,426.5v-11.9c0-1.5,1-2.6,2.4-2.6
	c1.4,0,2.4,1,2.4,2.6v12c0,2.7,1.6,4.3,3.8,4.3c2.3,0,3.8-1.5,3.8-4.3v-12c0-1.5,1-2.6,2.4-2.6c1.4,0,2.4,1,2.4,2.6v11.9
	c0,5.7-3.5,8.8-8.7,8.8C712.9,435.2,709.5,432.1,709.5,426.5 M689.8,414.4c0-1.3,0.8-2.2,2.2-2.2h11c1.4,0,2.3,0.9,2.3,2.2
	c0,1.2-0.9,2.1-2.3,2.1H695c-0.1,0-0.2,0.1-0.2,0.2v4.5c0,0.1,0.1,0.2,0.2,0.2h6.4c1.4,0,2.3,0.9,2.3,2.1c0,1.3-0.9,2.1-2.3,2.1H695
	c-0.1,0-0.2,0.1-0.2,0.2v4.7c0,0.1,0.1,0.2,0.2,0.2h8.1c1.4,0,2.3,0.9,2.3,2.1c0,1.3-0.9,2.2-2.3,2.2h-11c-1.4,0-2.2-0.9-2.2-2.2
	V414.4z M669.4,433.3c-0.7-0.5-1.2-1.3-1.2-2.1c0-1.2,0.9-2.2,2.2-2.2c0.5,0,1,0.2,1.4,0.4c1.9,1,3.2,1.4,4.9,1.4
	c2.4,0,3.7-1.1,3.7-2.6c0-1.4-0.8-2.2-3.5-2.5l-1.2-0.2c-4.6-0.6-7.1-2.8-7.1-6.8c0-4.2,3.2-7,8.1-7c2.5,0,5,0.6,6.3,1.5
	c0.8,0.5,1.2,1.2,1.2,2c0,1.3-0.9,2.2-2.2,2.2c-0.5,0-1-0.1-1.4-0.4c-1.1-0.5-2.5-0.9-3.9-0.9c-2,0-3.1,1-3.1,2.4
	c0,1.3,0.9,2.2,3.5,2.5l1.2,0.2c4.7,0.6,7.1,2.8,7.1,6.9c0,4.1-3,7.1-8.9,7.1C673.3,435.2,670.8,434.2,669.4,433.3 M646.4,426.5
	v-11.9c0-1.5,1-2.6,2.4-2.6c1.4,0,2.4,1,2.4,2.6v12c0,2.7,1.6,4.3,3.8,4.3c2.3,0,3.8-1.5,3.8-4.3v-12c0-1.5,1-2.6,2.4-2.6
	c1.4,0,2.4,1,2.4,2.6v11.9c0,5.7-3.5,8.8-8.7,8.8C649.7,435.2,646.4,432.1,646.4,426.5 M619.3,414.9c0-1.8,1.1-2.9,2.7-2.9
	c1.4,0,2.3,0.8,3.1,2.5l4.8,10.9h0.1l4.7-10.9c0.7-1.7,1.5-2.5,3-2.5c1.6,0,2.6,1.2,2.6,2.9v17.7c0,1.5-0.9,2.4-2.3,2.4
	s-2.3-0.9-2.3-2.4v-10.9h-0.2l-3.5,8.1c-0.7,1.6-1.3,2.1-2.4,2.1s-1.7-0.5-2.4-2.1l-3.5-8.1h-0.2v10.9c0,1.5-0.9,2.4-2.2,2.4
	c-1.4,0-2.3-0.9-2.3-2.4v-17.7H619.3z M595,430.5h2.3c2.3,0,3.9-0.7,4.4-2.5c0.3-0.7,0.4-2.1,0.4-4.4c0-2.4-0.2-3.6-0.4-4.4
	c-0.5-1.8-2.2-2.5-4.4-2.5H595c-0.1,0-0.2,0.1-0.2,0.2v13.6C594.8,430.4,594.8,430.5,595,430.5 M589.9,414.4c0-1.3,0.8-2.2,2.2-2.2
	h5.3c4.8,0,7.9,1.5,9,5.2c0.5,1.3,0.6,2.9,0.6,6.1s-0.3,4.8-0.6,6.1c-1.2,3.7-4.2,5.2-9,5.2h-5.3c-1.4,0-2.2-0.8-2.2-2.2V414.4z
	 M579.8,428.4c0.3-0.8,0.4-2,0.4-4.9c0-2.9-0.1-4.1-0.4-4.9c-0.5-1.5-1.7-2.4-3.5-2.4c-1.9,0-3.1,0.9-3.5,2.4
	c-0.3,0.8-0.4,2-0.4,4.9c0,2.9,0.1,4.1,0.4,4.9c0.5,1.5,1.7,2.4,3.5,2.4C578.1,430.8,579.3,429.9,579.8,428.4 M567.9,429.7
	c-0.5-1.6-0.6-2.9-0.6-6.2c0-3.3,0.1-4.6,0.6-6.2c1.2-3.7,4.3-5.5,8.2-5.5c4,0,7.1,1.8,8.2,5.5c0.5,1.6,0.6,2.9,0.6,6.2
	s-0.1,4.6-0.6,6.2c-1.2,3.7-4.3,5.5-8.2,5.5C572.3,435.2,569.2,433.4,567.9,429.7 M557.9,428.4c0.3-0.8,0.4-2,0.4-4.9
	c0-2.9-0.1-4.1-0.4-4.9c-0.5-1.5-1.7-2.4-3.5-2.4c-1.9,0-3.1,0.9-3.5,2.4c-0.3,0.8-0.4,2-0.4,4.9c0,2.9,0.1,4.1,0.4,4.9
	c0.5,1.5,1.7,2.4,3.5,2.4C556.2,430.8,557.3,429.9,557.9,428.4 M546,429.7c-0.5-1.6-0.6-2.9-0.6-6.2c0-3.3,0.1-4.6,0.6-6.2
	c1.2-3.7,4.3-5.5,8.2-5.5c4,0,7.1,1.8,8.2,5.5c0.5,1.6,0.6,2.9,0.6,6.2s-0.1,4.6-0.6,6.2c-1.2,3.7-4.3,5.5-8.2,5.5
	C550.4,435.2,547.2,433.4,546,429.7 M527.8,414.4c0-1.3,0.8-2.2,2.2-2.2h11c1.4,0,2.3,0.9,2.3,2.2c0,1.2-0.9,2.1-2.3,2.1h-8.1
	c-0.1,0-0.2,0.1-0.2,0.2v4.8c0,0.1,0.1,0.2,0.2,0.2h6.4c1.4,0,2.3,0.9,2.3,2.1c0,1.3-0.8,2.1-2.3,2.1h-6.4c-0.1,0-0.2,0.1-0.2,0.2
	v6.4c0,1.5-1,2.6-2.4,2.6c-1.4,0-2.4-1-2.4-2.6L527.8,414.4L527.8,414.4z M717.4,390.2c0-3.3,0.1-4.6,0.6-6.2
	c1.2-3.7,4.3-5.5,8.3-5.5c3.7,0,6.2,1.5,7.4,3.5c0.3,0.5,0.5,0.9,0.5,1.4c0,1.3-1,2.2-2.3,2.2c-0.8,0-1.5-0.3-2.2-1.2
	c-0.9-1.2-2-1.6-3.4-1.6c-1.9,0-3.2,1-3.6,2.5c-0.3,0.8-0.4,1.9-0.4,4.8c0,2.9,0.1,4.1,0.4,4.9c0.5,1.5,1.7,2.5,3.7,2.5
	c1.7,0,3.2-0.9,3.6-2.4c0.2-0.6,0.3-1.4,0.3-2.3c0-0.1-0.1-0.2-0.2-0.2h-1.5c-1.3,0-2.1-0.7-2.1-1.9c0-1.2,0.8-1.9,2.1-1.9h4.7
	c1.3,0,1.9,0.7,1.9,1.9v0.3c0,2-0.2,3.9-0.5,5.2c-1.2,3.6-4.3,5.7-8.2,5.7c-4.1,0-7.1-1.8-8.3-5.5
	C717.6,394.7,717.4,393.5,717.4,390.2 M695.2,381.6c0-1.8,1.1-2.9,2.7-2.9c1.4,0,2.4,0.8,3.3,2.4l7,12.4h0.1v-12.4
	c0-1.5,0.9-2.4,2.3-2.4c1.4,0,2.3,0.9,2.3,2.4v17.7c0,1.8-1.1,2.9-2.7,2.9c-1.4,0-2.4-0.8-3.3-2.4l-7-12.3h-0.1v12.4
	c0,1.5-0.9,2.4-2.3,2.4c-1.4,0-2.3-0.9-2.3-2.4V381.6z M684.3,381.2c0-1.5,1-2.6,2.4-2.6c1.4,0,2.4,1,2.4,2.6v17.8
	c0,1.5-1,2.6-2.4,2.6c-1.4,0-2.4-1-2.4-2.6V381.2z M670,399.1v-15.7c0-0.1-0.1-0.2-0.2-0.2H666c-1.5,0-2.4-0.9-2.4-2.2
	c0-1.3,1-2.2,2.4-2.2H679c1.5,0,2.4,0.9,2.4,2.2c0,1.3-1,2.2-2.4,2.2h-3.8c-0.1,0-0.2,0.1-0.2,0.2v15.7c0,1.5-1,2.6-2.4,2.6
	S670,400.7,670,399.1 M644.8,400c-0.7-0.5-1.2-1.3-1.2-2.1c0-1.2,0.9-2.2,2.2-2.2c0.5,0,1,0.2,1.4,0.4c1.9,1,3.2,1.4,4.9,1.4
	c2.4,0,3.7-1.1,3.7-2.6c0-1.4-0.8-2.2-3.5-2.5l-1.2-0.2c-4.6-0.6-7.1-2.8-7.1-6.8c0-4.2,3.2-7,8.1-7c2.5,0,5,0.6,6.3,1.5
	c0.8,0.5,1.2,1.2,1.2,2c0,1.3-0.9,2.2-2.2,2.2c-0.5,0-1-0.1-1.4-0.4c-1.1-0.5-2.5-0.9-3.9-0.9c-2,0-3.1,1-3.1,2.4
	c0,1.3,0.9,2.2,3.5,2.5l1.2,0.2c4.7,0.6,7.1,2.8,7.1,6.9c0,4.1-3,7.1-8.9,7.1C648.8,401.9,646.4,400.9,644.8,400 M621.9,393.1v-11.9
	c0-1.5,1-2.6,2.4-2.6c1.4,0,2.4,1,2.4,2.6v12c0,2.7,1.6,4.3,3.8,4.3c2.3,0,3.8-1.5,3.8-4.3v-12c0-1.5,1-2.6,2.4-2.6s2.4,1,2.4,2.6
	v11.9c0,5.7-3.5,8.8-8.7,8.8C625.3,401.9,621.9,398.8,621.9,393.1 M599.4,390.2c0-3.3,0.1-4.6,0.6-6.2c1.2-3.7,4.3-5.5,8.3-5.5
	c3.7,0,6.2,1.5,7.4,3.5c0.3,0.5,0.5,0.9,0.5,1.4c0,1.3-1,2.2-2.3,2.2c-0.8,0-1.5-0.3-2.2-1.2c-0.9-1.2-2-1.6-3.4-1.6
	c-1.9,0-3.2,1-3.6,2.5c-0.3,0.8-0.4,1.9-0.4,4.8c0,2.9,0.1,4.1,0.4,4.9c0.5,1.5,1.7,2.5,3.7,2.5c1.7,0,3.2-0.9,3.6-2.4
	c0.2-0.6,0.3-1.4,0.3-2.3c0-0.1-0.1-0.2-0.2-0.2h-1.5c-1.3,0-2.1-0.7-2.1-1.9c0-1.2,0.8-1.9,2.1-1.9h4.7c1.3,0,1.9,0.7,1.9,1.9v0.3
	c0,2-0.2,3.9-0.5,5.2c-1.2,3.6-4.3,5.7-8.2,5.7s-7.1-1.8-8.3-5.5C599.6,394.7,599.4,393.5,599.4,390.2 M579.6,400
	c-0.7-0.5-1.2-1.3-1.2-2.1c0-1.2,0.9-2.2,2.2-2.2c0.5,0,1,0.2,1.4,0.4c1.9,1,3.2,1.4,4.9,1.4c2.4,0,3.7-1.1,3.7-2.6
	c0-1.4-0.8-2.2-3.5-2.5l-1.2-0.2c-4.6-0.6-7.1-2.8-7.1-6.8c0-4.2,3.2-7,8.1-7c2.5,0,5,0.6,6.3,1.5c0.8,0.5,1.2,1.2,1.2,2
	c0,1.3-0.9,2.2-2.2,2.2c-0.5,0-1-0.1-1.4-0.4c-1.1-0.5-2.5-0.9-3.9-0.9c-2,0-3.1,1-3.1,2.4c0,1.3,0.9,2.2,3.5,2.5l1.2,0.2
	c4.7,0.6,7.1,2.8,7.1,6.9c0,4.1-3,7.1-8.9,7.1C583.5,401.9,581.1,400.9,579.6,400 M568.9,381.2c0-1.5,1-2.6,2.4-2.6
	c1.4,0,2.4,1,2.4,2.6v17.8c0,1.5-1,2.6-2.4,2.6c-1.4,0-2.4-1-2.4-2.6V381.2z M551.5,397.2h2.3c2.3,0,3.9-0.7,4.4-2.5
	c0.3-0.7,0.4-2.1,0.4-4.4c0-2.3-0.2-3.6-0.4-4.4c-0.5-1.8-2.2-2.5-4.4-2.5h-2.3c-0.1,0-0.2,0.1-0.2,0.2V397
	C551.3,397.1,551.4,397.2,551.5,397.2 M546.4,381c0-1.3,0.8-2.2,2.2-2.2h5.3c4.8,0,7.9,1.5,9,5.2c0.5,1.3,0.6,2.9,0.6,6.1
	s-0.3,4.8-0.6,6.1c-1.2,3.7-4.2,5.2-9,5.2h-5.3c-1.4,0-2.2-0.8-2.2-2.2V381z"/>
<path class="st0" d="M231.8,190l-0.5-2.4l-0.7,2.9c-0.1,0.5-0.5,0.7-0.9,0.6c-0.2-0.1-0.4-0.2-0.5-0.4c-0.1-0.2-0.1-0.4-0.1-0.6
	l1.3-5.2c0.1-0.3,0.2-0.5,0.4-0.6c0.2-0.1,0.5-0.2,0.7-0.1c0.5,0.1,0.6,0.5,0.7,1l0.6,3.3l2.1-2.7c0.3-0.5,0.6-0.6,1.1-0.5
	c0.3,0.1,0.5,0.2,0.5,0.4c0.1,0.2,0.1,0.5,0.1,0.7l-1.3,5.2c-0.1,0.4-0.4,0.6-0.7,0.6c-0.1,0-0.1,0-0.2,0c-0.2-0.1-0.4-0.2-0.5-0.4
	s-0.1-0.4-0.1-0.6l0.7-2.9l-1.4,1.9c-0.4,0.5-0.5,0.5-0.9,0.5C232.1,190.8,231.9,190.6,231.8,190 M223.4,190.1l-0.1-5.4
	c0-0.5,0.3-0.7,0.7-0.7l3.3-0.1l0,0c0.5,0,0.7,0.3,0.7,0.7s-0.3,0.7-0.7,0.7h-2.4v1.4h1.9c0.3,0,0.5,0.1,0.5,0.2
	c0.1,0.1,0.2,0.3,0.2,0.5c0,0.2-0.1,0.4-0.2,0.5c-0.1,0.1-0.4,0.2-0.5,0.2h-1.9v1.9c0,0.5-0.4,0.9-0.8,0.9l0,0
	C223.6,191,223.4,190.7,223.4,190.1 M217.3,190.8L217.3,190.8L217.3,190.8L217.3,190.8L217.3,190.8z M218.9,189.6c0,0.5-0.4,0.8-1,1
	l-0.6,0.2l-1.1-3.9l0.6-0.2c0.6-0.2,1.2-0.1,1.4,0.4c0.2,0.2,0.3,0.6,0.5,1.2C218.9,188.9,218.9,189.3,218.9,189.6 M219.7,186.2
	c-0.6-1-1.6-1.3-3.1-0.8l-1.5,0.5c-0.5,0.1-0.6,0.5-0.5,0.9l1.4,5.2c0.1,0.4,0.4,0.5,0.6,0.5c0.1,0,0.2,0,0.3,0l1.5-0.5
	c1.4-0.5,2.2-1.2,2.3-2.3c0-0.4,0-0.8-0.3-1.8C220,186.9,219.8,186.4,219.7,186.2 M212.1,223.1c0.6-2.4,0.1-4.5-1.7-5.9
	c-0.5-0.5-1.4-0.4-1.9,0.2c-0.5,0.5-0.4,1.4,0.2,1.8c0.6,0.5,1.4,1.5,0.8,3.2c-0.6,2.3-2.4,3.4-5.2,3.4c-1.6,0-4.5-1.2-4.5-4
	c0-3.3,2.1-5.6,6.5-5.6c0.8,0,1.4-0.6,1.4-1.4s-0.5-1.4-1.4-1.4c-1.4,0-2.5-0.4-3.2-1.1c-0.6-0.7-0.5-1.7-0.5-2.3
	c0.2-0.9,0.9-3,4.1-3c1.7,0,2.6,1,2.6,1.9c0,0.5-0.1,0.7-0.2,0.8c-0.3,0.8-0.2,1.4,0.5,1.8c0.6,0.4,1.4,0.1,1.8-0.5
	c0.3-0.5,0.5-1.2,0.5-2c0.1-0.8-0.4-2.2-1.3-3.2c-0.7-0.7-1.9-1.6-4-1.6c-4.3,0-6.2,2.6-6.7,5.1c-0.3,1.7,0.1,3.3,1,4.4
	c0.1,0.1,0.2,0.3,0.4,0.4c-2.2,1.1-4.3,3.7-4.3,7.2c0,3.3,3,6.6,7.1,6.6C208.3,228.5,211.1,226.5,212.1,223.1 M239.3,221.6
	c0.8-2.9,1.5-5.5,1.5-5.5c0.2-0.7-0.3-1.4-0.9-1.6c-0.7-0.2-1.4,0.3-1.6,0.9c0,0-0.7,3-1.6,6c-0.9,3.2-2,3.2-2.5,3.2
	c-0.9,0-1.1-0.9-0.8-1.9c0.4-1.2,1.8-6.5,1.8-6.5c0.2-0.7-0.3-1.4-1-1.6c-0.7-0.2-1.4,0.2-1.6,0.9c0,0-1.4,5.2-1.8,6.4
	c-0.5,1.4-0.3,2.9,0.5,3.9c0.6,0.9,1.7,1.4,2.9,1.4c1.4,0,2.4-0.6,3.2-1.5c0.6,1,1.6,1.5,2.8,1.5c4,0,5-4.2,5.3-5.8
	c0.5-2,0.6-4.4,0.4-5.9c-0.1-0.7-0.8-1.2-1.5-1.1c-0.7,0.1-1.2,0.8-1.1,1.5c0.2,1.1,0.1,3.3-0.4,4.9c-0.7,3.3-1.7,3.7-2.7,3.7
	C239.4,224.5,238.7,224,239.3,221.6 M222.6,221.6c0.8-2.9,1.5-5.5,1.5-5.5c0.2-0.7-0.3-1.4-0.9-1.6c-0.7-0.2-1.4,0.3-1.6,0.9
	c0,0-0.7,3-1.6,6c-0.9,3.2-2,3.2-2.5,3.2c-0.9,0-1.1-0.9-0.8-1.9c0.4-1.2,1.8-6.5,1.8-6.5c0.2-0.7-0.3-1.4-1-1.6
	c-0.7-0.2-1.4,0.2-1.6,0.9c0,0-1.4,5.2-1.8,6.4c-0.5,1.4-0.3,2.9,0.5,3.9c0.6,0.9,1.7,1.4,2.9,1.4c1.4,0,2.4-0.6,3.2-1.5
	c0.6,1,1.6,1.5,2.8,1.5c4,0,5-4.2,5.3-5.8c0.5-2,0.6-4.4,0.4-5.9c-0.1-0.7-0.8-1.2-1.5-1.1c-0.7,0.1-1.2,0.8-1.1,1.5
	c0.2,1.1,0.1,3.3-0.4,4.9c-0.7,3.3-1.7,3.7-2.7,3.7C222.7,224.5,222.1,224,222.6,221.6 M222.6,221.6c0.8-2.9,1.5-5.5,1.5-5.5
	c0.2-0.7-0.3-1.4-0.9-1.6c-0.7-0.2-1.4,0.3-1.6,0.9c0,0-0.7,3-1.6,6c-0.9,3.2-2,3.2-2.5,3.2c-0.3,0-0.5-0.1-0.7-0.4
	c-0.3-0.4-0.3-0.9-0.1-1.6c0.4-1.2,1.8-6.5,1.8-6.5c0.2-0.7-0.3-1.4-1-1.6s-1.4,0.2-1.6,0.9c0,0-1.4,5.2-1.8,6.4
	c-0.5,1.4-0.3,2.9,0.5,3.9c0.6,0.9,1.7,1.4,2.9,1.4c1.4,0,2.4-0.5,3.2-1.4c0.6,0.8,1.6,1.4,2.8,1.4c4,0,5-4.2,5.3-5.8
	c0.5-2,0.6-4.4,0.4-5.9c-0.1-0.7-0.8-1.2-1.5-1.1c-0.7,0.1-1.2,0.8-1.1,1.5c0.2,1.1,0.1,3.3-0.4,4.9c-0.7,3.3-1.7,3.7-2.7,3.7
	c-0.5,0-0.7-0.3-0.7-0.3C222.4,223.8,222.4,222.8,222.6,221.6 M251.3,220.6l2.9-10.6c0.2-0.7-0.2-1.4-0.9-1.6
	c-0.7-0.2-1.4,0.2-1.6,0.9l-2.9,10.6c-0.2,0.7,0.2,1.4,0.9,1.6c0.1,0,0.3,0.1,0.4,0.1C250.7,221.6,251.2,221.3,251.3,220.6
	 M248.8,223.5c-0.9,0-1.6,0.7-1.6,1.6c0,0.9,0.7,1.6,1.6,1.6c0.9,0,1.6-0.7,1.6-1.6C250.4,224.2,249.7,223.5,248.8,223.5
	 M225.8,178.3c21.9,0,39.5,17.7,39.5,39.5s-17.7,39.5-39.5,39.5c-21.9,0-39.5-17.7-39.5-39.5S203.9,178.3,225.8,178.3 M225.8,180.9
	c-20.4,0-36.9,16.6-36.9,36.9s16.6,36.9,36.9,36.9s36.9-16.6,36.9-36.9S246.2,180.9,225.8,180.9 M244,234.2c0.5-0.5,0.5-1.4-0.1-1.9
	c-0.5-0.5-1.4-0.5-1.9,0.1c-4.2,4.5-10,7.1-16.1,7.1c-6.1,0-11.9-2.5-15.9-7c-0.5-0.5-1.4-0.5-1.9-0.1c-0.5,0.5-0.5,1.4-0.1,1.9
	c4.6,5,11.1,7.8,17.8,7.8C232.8,242.3,239.4,239.3,244,234.2 M245.4,205.5c0.6-0.5,0.7-1.3,0.3-1.8c-4.5-6.4-12-10.2-19.9-10.2
	c-5,0-9.9,1.5-13.9,4.3c-0.6,0.5-0.7,1.3-0.4,1.8c0.5,0.6,1.3,0.7,1.8,0.4c3.7-2.5,8-3.9,12.4-3.9c7.1,0,13.7,3.4,17.7,9.1
	c0.3,0.4,0.6,0.5,1.1,0.5C244.9,205.8,245.2,205.7,245.4,205.5 M234.1,248.1l-1.2-1.9l-0.2,2.2L234.1,248.1z M236.2,250.5
	c-0.4,0.1-0.6-0.1-0.9-0.4l-0.5-0.7l-2.3,0.5l-0.1,0.8c0,0.4-0.3,0.6-0.6,0.7c-0.1,0-0.1,0-0.2,0c-0.1,0-0.3,0-0.4-0.1
	c-0.2-0.1-0.3-0.3-0.4-0.5c0-0.1,0-0.2,0-0.3l0.5-5.3c0.1-0.6,0.4-1,0.8-1.2c0.5-0.1,0.9,0.1,1.3,0.6l3,4.5c0.1,0.1,0.1,0.2,0.1,0.3
	C236.9,249.9,236.6,250.4,236.2,250.5 M226.7,247.7h-0.4c-0.9-0.1-1-0.4-1-0.6c0-0.2,0.1-0.4,0.2-0.5c0.2-0.1,0.4-0.2,0.6-0.2
	c0.4,0,0.8,0.1,1.2,0.3c0.2,0.1,0.3,0.1,0.5,0.1c0.5,0,0.7-0.4,0.7-0.7c0-0.3-0.2-0.5-0.4-0.6c-0.5-0.3-1.3-0.5-1.9-0.5
	c-1.5,0-2.4,0.9-2.4,2.2c0,1.2,0.8,1.9,2.3,2.1h0.4c0.8,0.1,1,0.4,1,0.6c0,0.2-0.1,0.4-0.3,0.5s-0.5,0.2-0.8,0.2l0,0
	c-0.5,0-0.8-0.1-1.4-0.4c-0.1-0.1-0.3-0.1-0.5-0.1s-0.4,0.1-0.5,0.2c-0.1,0.2-0.2,0.4-0.2,0.5c0,0.3,0.2,0.5,0.4,0.6l0,0
	c0.4,0.2,1.1,0.5,2.1,0.5h0.1c0.8,0,1.5-0.3,2-0.6c0.5-0.4,0.7-0.9,0.6-1.6C228.9,248.6,228.2,247.9,226.7,247.7 M221.8,245
	c0.1,0.2,0.2,0.5,0.1,0.6l-0.8,3.4c-0.2,0.8-0.6,1.4-1.2,1.8c-0.4,0.2-0.8,0.4-1.3,0.4c-0.3,0-0.5,0-0.8-0.1
	c-0.8-0.2-1.4-0.5-1.7-1.1c-0.4-0.5-0.5-1.3-0.3-2.1l0.8-3.4c0.1-0.5,0.5-0.7,1-0.6c0.5,0.1,0.7,0.5,0.5,1l-0.8,3.5
	c-0.1,0.4-0.1,0.7,0.1,0.9c0.2,0.3,0.4,0.4,0.6,0.5s0.5,0,0.8-0.1c0.3-0.2,0.4-0.5,0.5-0.8l0.8-3.5c0.1-0.5,0.5-0.7,1-0.6
	C221.6,244.7,221.7,244.8,221.8,245 M246.7,270.3c-1.2,0.5-2.4,0.6-3.5,0.6c-2.4,0-4.3-0.9-4.9-2.5c-0.8-2.4,1.5-5.5,5.2-6.8
	c1.2-0.5,2.4-0.6,3.4-0.6c2.4,0,4.3,0.9,4.9,2.5C252.8,265.9,250.4,268.9,246.7,270.3 M254.4,262.6c-1-2.6-3.8-4.3-7.3-4.3
	c-1.4,0-3,0.3-4.3,0.8c-2.3,0.8-4.2,2.2-5.5,3.9c-1.2,1.6-1.7,3.3-1.5,5l-10,3.6l-11.7-4.3c0.5-3-1.4-6.1-4.4-7.2l0,0l0,0l-10.4-3.8
	c-0.7-0.3-1.4,0.1-1.7,0.8c-0.3,0.7,0.1,1.4,0.8,1.7l10.4,3.8l0,0l0,0c2.2,0.8,3.3,3.1,2.5,5.1c-0.7,2.1-3.1,3.1-5.2,2.3l0,0l0,0
	l-10.4-3.8c-0.7-0.3-1.4,0.1-1.7,0.8c-0.3,0.7,0.1,1.4,0.8,1.7l10.4,3.8l0,0l0,0c3.1,1.1,6.4-0.1,8.1-2.7l8.8,3.2l-15.7,5.7
	c-0.7,0.3-1,1-0.8,1.7c0.3,0.7,1,1,1.7,0.8l18.6-6.8l18.8,6.9c0.7,0.3,1.4-0.1,1.7-0.8c0.3-0.7-0.1-1.4-0.8-1.7l-15.8-5.8l7.1-2.5
	c1.3,1.9,3.7,3.1,6.8,3.1c1.4,0,3-0.3,4.3-0.8c2.3-0.8,4.2-2.2,5.5-3.9C254.7,266.9,255.1,264.6,254.4,262.6 M196.3,263.9l10.4,3.8
	c0.7,0.3,1.4-0.1,1.7-0.8c0.3-0.7-0.1-1.4-0.8-1.7l-10.4-3.8c-0.7-0.3-1.4,0.1-1.7,0.8C195.3,262.8,195.7,263.6,196.3,263.9
	 M258.6,305.6c0-0.6,0.4-1,1-1c0.5,0,0.8,0.3,1.1,0.9l1.7,3.9h0.1l1.7-3.9c0.3-0.6,0.5-0.9,1.1-0.9s0.9,0.4,0.9,1v6.3
	c0,0.5-0.4,0.8-0.8,0.8s-0.8-0.3-0.8-0.8V308h-0.1l-1.3,2.9c-0.3,0.5-0.5,0.7-0.8,0.7s-0.6-0.2-0.8-0.7l-1.3-2.9h-0.1v3.9
	c0,0.5-0.4,0.8-0.8,0.8s-0.8-0.3-0.8-0.8L258.6,305.6L258.6,305.6z M250.5,309.7v-4.3c0-0.5,0.4-0.9,0.9-0.9c0.5,0,0.9,0.4,0.9,0.9
	v4.3c0,1,0.5,1.5,1.4,1.5s1.4-0.5,1.4-1.5v-4.3c0-0.5,0.4-0.9,0.9-0.9c0.5,0,0.9,0.4,0.9,0.9v4.3c0,2-1.3,3.1-3.1,3.1
	C251.7,312.7,250.5,311.7,250.5,309.7 M243.5,305.3c0-0.5,0.3-0.7,0.7-0.7h3.9c0.5,0,0.8,0.4,0.8,0.7c0,0.5-0.4,0.7-0.8,0.7h-2.8
	c-0.1,0-0.1,0-0.1,0.1v1.6c0,0.1,0,0.1,0.1,0.1h2.3c0.5,0,0.8,0.3,0.8,0.7s-0.3,0.7-0.8,0.7h-2.3c-0.1,0-0.1,0-0.1,0.1v1.6
	c0,0.1,0,0.1,0.1,0.1h2.8c0.5,0,0.8,0.4,0.8,0.7c0,0.5-0.4,0.7-0.8,0.7h-3.9c-0.5,0-0.7-0.3-0.7-0.7V305.3z M236.3,312.1
	c-0.3-0.2-0.5-0.5-0.5-0.7c0-0.5,0.4-0.7,0.8-0.7c0.2,0,0.4,0.1,0.5,0.2c0.6,0.4,1.2,0.5,1.7,0.5c0.8,0,1.3-0.4,1.3-0.9
	c0-0.5-0.3-0.7-1.3-0.9l-0.5-0.1c-1.6-0.2-2.5-1-2.5-2.4s1.1-2.4,2.8-2.4c0.9,0,1.8,0.3,2.3,0.5c0.3,0.2,0.5,0.5,0.5,0.7
	c0,0.5-0.4,0.7-0.7,0.7c-0.2,0-0.4-0.1-0.5-0.1c-0.4-0.2-0.9-0.4-1.4-0.4c-0.7,0-1.1,0.4-1.1,0.9c0,0.5,0.4,0.7,1.3,0.9l0.5,0.1
	c1.6,0.3,2.5,1,2.5,2.4c0,1.4-1.1,2.5-3.2,2.5C237.7,312.7,236.9,312.4,236.3,312.1 M228.2,309.7v-4.3c0-0.5,0.4-0.9,0.9-0.9
	c0.5,0,0.9,0.4,0.9,0.9v4.3c0,1,0.5,1.5,1.4,1.5s1.4-0.5,1.4-1.5v-4.3c0-0.5,0.4-0.9,0.9-0.9s0.9,0.4,0.9,0.9v4.3
	c0,2-1.3,3.1-3.1,3.1C229.3,312.7,228.2,311.7,228.2,309.7 M218.6,305.6c0-0.6,0.4-1,1-1c0.5,0,0.8,0.3,1.1,0.9l1.7,3.9h0.1l1.7-3.9
	c0.3-0.6,0.5-0.9,1.1-0.9c0.5,0,0.9,0.4,0.9,1v6.3c0,0.5-0.4,0.8-0.8,0.8s-0.8-0.3-0.8-0.8V308h-0.1l-1.3,2.9
	c-0.3,0.5-0.5,0.7-0.8,0.7c-0.4,0-0.6-0.2-0.8-0.7l-1.3-2.9h-0.1v3.9c0,0.5-0.4,0.8-0.8,0.8s-0.8-0.3-0.8-0.8L218.6,305.6
	L218.6,305.6z M209.9,311.1h0.8c0.8,0,1.4-0.3,1.6-0.9c0.1-0.3,0.2-0.7,0.2-1.5c0-0.8-0.1-1.3-0.2-1.5c-0.2-0.6-0.8-0.9-1.6-0.9
	h-0.8c-0.1,0-0.1,0-0.1,0.1L209.9,311.1C209.9,311,209.9,311.1,209.9,311.1 M208.1,305.3c0-0.5,0.3-0.7,0.7-0.7h1.9
	c1.7,0,2.8,0.5,3.2,1.9c0.2,0.5,0.3,1,0.3,2.2s-0.1,1.7-0.3,2.2c-0.5,1.3-1.4,1.8-3.2,1.8h-1.9c-0.5,0-0.7-0.3-0.7-0.7V305.3z
	 M204.5,310.4c0.1-0.3,0.1-0.7,0.1-1.7s0-1.4-0.1-1.7c-0.2-0.5-0.6-0.9-1.3-0.9c-0.6,0-1.1,0.4-1.3,0.9c-0.1,0.3-0.1,0.7-0.1,1.7
	s0,1.4,0.1,1.7c0.2,0.5,0.6,0.9,1.3,0.9C203.9,311.2,204.4,310.9,204.5,310.4 M200.3,310.8c-0.2-0.5-0.2-1-0.2-2.2s0.1-1.6,0.2-2.2
	c0.5-1.3,1.5-2,2.9-2c1.4,0,2.5,0.6,2.9,2c0.2,0.5,0.2,1,0.2,2.2s-0.1,1.6-0.2,2.2c-0.5,1.3-1.5,2-2.9,2
	C201.8,312.7,200.7,312.1,200.3,310.8 M196.8,310.4c0.1-0.3,0.1-0.7,0.1-1.7s0-1.4-0.1-1.7c-0.2-0.5-0.6-0.9-1.3-0.9
	c-0.6,0-1.1,0.4-1.3,0.9c-0.1,0.3-0.1,0.7-0.1,1.7s0,1.4,0.1,1.7c0.2,0.5,0.6,0.9,1.3,0.9C196.1,311.2,196.6,310.9,196.8,310.4
	 M192.6,310.8c-0.2-0.5-0.2-1-0.2-2.2s0.1-1.6,0.2-2.2c0.5-1.3,1.5-2,2.9-2c1.4,0,2.5,0.6,2.9,2c0.2,0.5,0.2,1,0.2,2.2
	s-0.1,1.6-0.2,2.2c-0.5,1.3-1.5,2-2.9,2C194.1,312.7,193,312.1,192.6,310.8 M186.1,305.3c0-0.5,0.3-0.7,0.7-0.7h3.9
	c0.5,0,0.8,0.4,0.8,0.7c0,0.5-0.4,0.7-0.8,0.7h-2.8c-0.1,0-0.1,0-0.1,0.1v1.7c0,0.1,0,0.1,0.1,0.1h2.3c0.5,0,0.8,0.3,0.8,0.7
	s-0.3,0.7-0.8,0.7h-2.3c-0.1,0-0.1,0-0.1,0.1v2.3c0,0.5-0.4,0.9-0.9,0.9s-0.9-0.4-0.9-0.9L186.1,305.3L186.1,305.3z M253.3,296.8
	c0-1.2,0.1-1.6,0.2-2.2c0.5-1.3,1.5-2,3-2c1.3,0,2.2,0.5,2.6,1.3c0.1,0.2,0.2,0.4,0.2,0.5c0,0.5-0.4,0.8-0.8,0.8
	c-0.3,0-0.5-0.1-0.7-0.5c-0.3-0.5-0.7-0.6-1.2-0.6c-0.7,0-1.1,0.4-1.3,0.9c-0.1,0.3-0.1,0.6-0.1,1.7c0,1,0,1.4,0.1,1.7
	c0.2,0.5,0.6,0.9,1.4,0.9c0.6,0,1.1-0.4,1.3-0.8c0.1-0.2,0.1-0.5,0.1-0.8c0-0.1,0-0.1-0.1-0.1h-0.6c-0.5,0-0.7-0.3-0.7-0.7
	s0.3-0.7,0.7-0.7h1.6c0.5,0,0.7,0.3,0.7,0.7v0.1c0,0.7-0.1,1.4-0.2,1.8c-0.5,1.3-1.5,2-2.9,2c-1.4,0-2.5-0.6-3-2
	C253.4,298.4,253.3,298,253.3,296.8 M245.4,293.7c0-0.6,0.4-1,1-1c0.5,0,0.8,0.3,1.2,0.8l2.4,4.3h0.1v-4.4c0-0.5,0.4-0.8,0.8-0.8
	c0.5,0,0.8,0.3,0.8,0.8v6.3c0,0.6-0.4,1-1,1c-0.5,0-0.8-0.3-1.2-0.8l-2.4-4.3h-0.1v4.3c0,0.5-0.4,0.8-0.8,0.8
	c-0.5,0-0.8-0.3-0.8-0.8V293.7z M241.6,293.6c0-0.5,0.4-0.9,0.9-0.9c0.5,0,0.9,0.4,0.9,0.9v6.3c0,0.5-0.4,0.9-0.9,0.9
	s-0.9-0.4-0.9-0.9V293.6z M236.5,300v-5.6c0-0.1,0-0.1-0.1-0.1H235c-0.5,0-0.9-0.4-0.9-0.7c0-0.5,0.4-0.8,0.9-0.8h4.6
	c0.5,0,0.9,0.4,0.9,0.8c0,0.5-0.4,0.7-0.9,0.7h-1.4c-0.1,0-0.1,0-0.1,0.1v5.6c0,0.5-0.4,0.9-0.9,0.9
	C236.9,300.9,236.5,300.5,236.5,300 M227.6,300.3c-0.3-0.2-0.5-0.5-0.5-0.7c0-0.5,0.4-0.7,0.8-0.7c0.2,0,0.4,0.1,0.5,0.2
	c0.6,0.4,1.2,0.5,1.7,0.5c0.8,0,1.3-0.4,1.3-0.9c0-0.5-0.3-0.7-1.3-0.9l-0.5-0.1c-1.6-0.2-2.5-1-2.5-2.4c0-1.4,1.1-2.4,2.8-2.4
	c0.9,0,1.8,0.3,2.3,0.5c0.3,0.2,0.5,0.5,0.5,0.7c0,0.5-0.4,0.7-0.7,0.7c-0.2,0-0.4-0.1-0.5-0.1c-0.4-0.2-0.9-0.4-1.4-0.4
	c-0.7,0-1.1,0.4-1.1,0.9c0,0.5,0.4,0.7,1.3,0.9l0.5,0.1c1.6,0.3,2.5,1,2.5,2.4s-1.1,2.5-3.2,2.5C229,301,228.2,300.6,227.6,300.3
	 M219.5,297.8v-4.3c0-0.5,0.4-0.9,0.9-0.9c0.5,0,0.9,0.4,0.9,0.9v4.3c0,1,0.5,1.5,1.4,1.5c0.8,0,1.4-0.5,1.4-1.5v-4.3
	c0-0.5,0.4-0.9,0.9-0.9s0.9,0.4,0.9,0.9v4.3c0,2-1.3,3.1-3.1,3.1C220.7,301,219.5,299.9,219.5,297.8 M211.5,296.8
	c0-1.2,0.1-1.6,0.2-2.2c0.5-1.3,1.5-2,3-2c1.3,0,2.2,0.5,2.6,1.3c0.1,0.2,0.2,0.4,0.2,0.5c0,0.5-0.4,0.8-0.8,0.8
	c-0.3,0-0.5-0.1-0.7-0.5c-0.3-0.5-0.7-0.6-1.2-0.6c-0.7,0-1.1,0.4-1.3,0.9c-0.1,0.3-0.1,0.6-0.1,1.7c0,1,0,1.4,0.1,1.7
	c0.2,0.5,0.6,0.9,1.3,0.9c0.6,0,1.1-0.4,1.3-0.8c0.1-0.2,0.1-0.5,0.1-0.8c0-0.1,0-0.1-0.1-0.1h-0.5c-0.5,0-0.7-0.3-0.7-0.7
	s0.3-0.7,0.7-0.7h1.6c0.5,0,0.7,0.3,0.7,0.7v0.1c0,0.7-0.1,1.4-0.2,1.8c-0.5,1.3-1.5,2-2.9,2c-1.4,0-2.5-0.6-3-2
	C211.5,298.4,211.5,298,211.5,296.8 M204.5,300.3c-0.3-0.2-0.5-0.5-0.5-0.7c0-0.5,0.4-0.7,0.8-0.7c0.2,0,0.4,0.1,0.5,0.2
	c0.6,0.4,1.2,0.5,1.7,0.5c0.8,0,1.3-0.4,1.3-0.9c0-0.5-0.3-0.7-1.3-0.9l-0.5-0.1c-1.6-0.2-2.5-1-2.5-2.4c0-1.4,1.1-2.4,2.8-2.4
	c0.9,0,1.8,0.3,2.3,0.5c0.3,0.2,0.5,0.5,0.5,0.7c0,0.5-0.4,0.7-0.7,0.7c-0.2,0-0.4-0.1-0.5-0.1c-0.4-0.2-0.9-0.4-1.4-0.4
	c-0.7,0-1.1,0.4-1.1,0.9c0,0.5,0.4,0.7,1.3,0.9l0.5,0.1c1.6,0.3,2.5,1,2.5,2.4s-1.1,2.5-3.2,2.5C205.8,301,205,300.6,204.5,300.3
	 M200.7,293.6c0-0.5,0.4-0.9,0.9-0.9c0.5,0,0.9,0.4,0.9,0.9v6.3c0,0.5-0.4,0.9-0.9,0.9s-0.9-0.4-0.9-0.9V293.6z M194.5,299.3h0.8
	c0.8,0,1.4-0.3,1.6-0.9c0.1-0.3,0.2-0.7,0.2-1.5s-0.1-1.3-0.2-1.5c-0.2-0.6-0.8-0.9-1.6-0.9h-0.8c-0.1,0-0.1,0-0.1,0.1L194.5,299.3
	C194.4,299.3,194.4,299.3,194.5,299.3 M192.7,293.6c0-0.5,0.3-0.7,0.7-0.7h1.9c1.7,0,2.8,0.5,3.2,1.9c0.2,0.5,0.3,1,0.3,2.2
	c0,1.2-0.1,1.7-0.3,2.2c-0.5,1.4-1.4,1.9-3.2,1.9h-1.9c-0.5,0-0.7-0.3-0.7-0.7V293.6z"/>
<path class="st0" d="M1062.8,246.6c-0.1,0.2-0.3,0.3-0.5,0.4l-1.2,0.3l-0.4-1.4l1.2-0.3c0.3-0.1,0.5,0,0.6,0.1
	c0.2,0.1,0.3,0.3,0.4,0.5C1063,246.2,1063,246.4,1062.8,246.6 M1065.4,249.5c0-0.2-0.1-0.3-0.2-0.4l-1.4-1.4
	c0.5-0.5,0.8-1.3,0.6-2.1c-0.3-1.3-1.4-1.9-2.8-1.5l-2.1,0.5c-0.5,0.1-0.6,0.5-0.5,0.9l1.3,5.2c0.1,0.3,0.2,0.5,0.4,0.5
	c0.1,0.1,0.3,0.1,0.5,0.1c0.1,0,0.2,0,0.2,0c0.2-0.1,0.4-0.2,0.5-0.4c0.1-0.2,0.1-0.5,0.1-0.6l-0.5-1.7l0.9-0.2l1.6,1.8l0,0
	c0.3,0.3,0.5,0.4,0.9,0.3C1065.3,250.4,1065.5,249.9,1065.4,249.5 M1056.6,250.4h-2.4V249h1.9c0.2,0,0.4-0.1,0.5-0.2
	c0.1-0.1,0.2-0.3,0.2-0.5c0-0.2-0.1-0.4-0.2-0.5c-0.2-0.1-0.4-0.2-0.5-0.2h-1.9v-1.3h2.4c0.5,0,0.7-0.3,0.7-0.7s-0.3-0.7-0.7-0.7
	l0,0l-3.3,0.1c-0.5,0-0.7,0.3-0.7,0.7l0.1,5.5c0,0.2,0.1,0.4,0.2,0.5c0.1,0.2,0.3,0.2,0.5,0.2l0,0l3.3-0.1c0.2,0,0.4-0.1,0.5-0.2
	c0.1-0.1,0.2-0.3,0.2-0.5c0-0.2-0.1-0.4-0.2-0.5C1057.1,250.5,1056.8,250.4,1056.6,250.4 M1048.5,244.1c-1.3-0.3-2.3,0.1-2.9,1.1
	c-0.3,0.5-0.4,0.8-0.6,1.8l0,0c-0.3,1-0.3,1.4-0.3,1.9c0.1,1.1,0.8,2,2.1,2.3c0.3,0.1,0.5,0.1,0.7,0.1c0.9,0,1.6-0.5,2.1-1.2
	c0.3-0.5,0.5-1,0.5-1.4v-0.1c0.1-0.4-0.1-0.7-0.5-0.8l-1.4-0.4c-0.4-0.1-0.7,0.1-0.8,0.5c-0.1,0.4,0.1,0.7,0.5,0.8l0.5,0.1
	c-0.1,0.3-0.1,0.5-0.2,0.6c-0.2,0.4-0.6,0.5-1.2,0.4c-0.5-0.1-0.8-0.5-0.8-0.9c0-0.3,0-0.6,0.3-1.4c0.2-0.8,0.3-1.1,0.5-1.4
	c0.3-0.5,0.6-0.5,1.2-0.5c0.5,0.1,0.6,0.3,0.8,0.6c0.1,0.3,0.3,0.5,0.6,0.5c0.5,0.1,0.8-0.1,0.9-0.5c0-0.2,0-0.3,0-0.5
	C1050.2,244.9,1049.5,244.3,1048.5,244.1 M1035.7,238.1c-1.4,0-3.4-0.6-3.4-2.4s2.1-2.4,3.3-2.4c1.9,0,3.2,0.8,4.7,2.2
	C1038.8,237.2,1037.3,238.1,1035.7,238.1 M1073.6,218.8c-0.7,0.3-1.1,1-0.8,1.7c0.3,0.7,0.2,1.8-0.4,2.6c-0.7,1-1.4,1.4-2.4,1.4
	c-0.3,0-0.5-0.1-0.7-0.4c-0.3-0.4-0.3-0.9-0.1-1.6c0.4-1.2,1.8-6.5,1.8-6.5c0.2-0.7-0.3-1.4-0.9-1.6c-0.7-0.2-1.4,0.3-1.6,0.9
	c0,0-1.4,5.2-1.8,6.4c-0.2,0.5-0.3,1.1-0.3,1.5c-0.9,0.7-1.8,1.1-2.4,1.1c-0.5,0-0.9-0.3-1.2-0.6s-0.4-0.8-0.2-1.4
	c0.1-0.2,0.1-0.3,0.2-0.5c0.9-3.1,1.6-6.1,1.7-6.1c0.2-0.7-0.3-1.4-0.9-1.6c-0.7-0.2-1.4,0.3-1.6,0.9c0,0-0.7,3-1.6,6
	c-0.9,3.2-2,3.2-2.5,3.2c-0.3,0-0.5-0.1-0.7-0.4c-0.3-0.4-0.3-0.9-0.1-1.5c0.4-1.2,1.8-6.5,1.8-6.5l0,0c0-0.1,0.1-0.2,0.1-0.4
	c0-0.7-0.6-1.4-1.4-1.4h-5.7c0.2-0.5,0.4-1.1,0.5-1.6c0.9-2.8,2-4.2,3.3-4.2c1.4,0,2.2,0.8,2.3,0.9c0.5,0.5,1.3,0.6,1.8,0.2
	c0.5-0.5,0.6-1.3,0.2-1.8c-0.2-0.2-1.5-1.9-4.3-1.9c-2.5,0-4.5,2-5.8,6.1c-0.5,1.8-1.4,4.3-2.3,6.8c-0.8,2.4-1.6,4.8-2.1,6.3
	c-1.1,3.3-2.3,6.1-3.5,8.1c-1.7-1.4-3.5-2.6-6.2-2.6c-2.9,0-6,1.8-6,5.1c0,3.3,3.2,5,6.1,5c2.4,0,4.5-1.2,6.5-3.5
	c2.6,2.3,6.2,4.8,12.6,5.1c6.6,0,13-2.7,17.6-7.5c0.5-0.5,0.5-1.4,0-1.9c-0.5-0.5-1.4-0.5-1.9,0c-4.1,4.3-9.8,6.7-15.7,6.7
	c-5.7-0.3-8.6-2.4-11-4.5c1.4-2.4,2.8-5.3,4-9c0.5-1.5,1.3-3.9,2.1-6.3c0.3-0.9,0.5-1.7,0.8-2.6h4.8c-0.5,1.6-1.2,4.1-1.4,4.8
	c-0.5,1.4-0.3,2.9,0.5,3.9c0.6,0.9,1.7,1.4,2.9,1.4c1.4,0,2.4-0.5,3.3-1.4c0.8,0.9,1.9,1.4,3.1,1.4c1,0,2.2-0.5,3.3-1.2
	c0.6,0.7,1.6,1.2,2.6,1.2c2,0,3.5-0.8,4.7-2.6c1.1-1.6,1.1-3.7,0.6-5C1075,219,1074.2,218.6,1073.6,218.8 M1070.8,212.7
	c0.9,0,1.6-0.7,1.6-1.6c0-0.9-0.7-1.6-1.6-1.6s-1.6,0.7-1.6,1.6C1069.1,211.8,1069.8,212.7,1070.8,212.7 M1044.2,213
	c0,2.9-2.2,4.4-6.4,4.8l0.2-0.8c0.8-4.4,1.3-7,2.4-8.9C1043,209,1044.2,211,1044.2,213 M1037.4,220.4c8.3-0.4,9.6-4.7,9.6-7.4
	c0-3.9-3.3-8-9-8c-7.9,0-10,4.6-10,7.3c0,2.1,1.2,3.9,2.9,4.7c0.6,0.3,1.4,0,1.7-0.6c0.3-0.6,0-1.4-0.6-1.7
	c-0.8-0.4-1.4-1.3-1.4-2.3c0-0.5,0.2-4.5,7.1-4.6c-1,2.1-1.5,4.7-2.3,8.8l-0.3,1.7c-0.8,4.6-2.4,7.1-4.6,7.1c-0.2,0-2.2-0.1-2.2-2.1
	c0-1.4,0.9-1.5,1-1.5c0.7,0,1.3-0.6,1.3-1.4c0-0.7-0.6-1.4-1.4-1.4c-1.2,0-3.6,1.1-3.6,4.2s2.4,4.7,4.8,4.7
	C1032.8,228,1035.7,226.6,1037.4,220.4 M1083,208.5c-0.7-0.2-1.4,0.2-1.6,0.9l-2.9,10.6c-0.2,0.7,0.2,1.4,0.9,1.6
	c0.1,0,0.3,0.1,0.4,0.1c0.5,0,1.1-0.4,1.3-1l2.9-10.6C1084.1,209.4,1083.7,208.7,1083,208.5 M1078.4,223.6c-0.9,0-1.6,0.7-1.6,1.6
	c0,0.9,0.7,1.6,1.6,1.6c0.9,0,1.6-0.7,1.6-1.6C1080.1,224.3,1079.3,223.6,1078.4,223.6 M1073.6,204.3c0.5-0.5,0.6-1.3,0.2-1.8
	c-4.6-5.7-11.6-9-18.9-9c-5,0-9.8,1.5-13.9,4.3c-0.6,0.5-0.7,1.3-0.4,1.8c0.5,0.6,1.3,0.7,1.8,0.4c3.6-2.5,8-3.9,12.4-3.9
	c6.6,0,12.8,2.9,16.9,8.1c0.3,0.4,0.6,0.5,1,0.5C1073.1,204.7,1073.4,204.6,1073.6,204.3 M1054.7,178.3c21.9,0,39.5,17.7,39.5,39.5
	c0,21.9-17.7,39.5-39.5,39.5c-21.9,0-39.5-17.7-39.5-39.5C1015.1,196,1032.8,178.3,1054.7,178.3 M1054.7,180.9
	c-20.4,0-36.9,16.6-36.9,36.9s16.6,36.9,36.9,36.9c20.4,0,36.9-16.6,36.9-36.9S1075.1,180.9,1054.7,180.9 M1061.3,190.8
	c0.4,0.1,0.6,0,0.9-0.5l1.4-1.9l-0.7,2.9c-0.1,0.3,0,0.5,0.1,0.6s0.3,0.3,0.5,0.4c0.1,0,0.2,0,0.2,0c0.4,0,0.6-0.2,0.7-0.6l1.3-5.2
	c0.1-0.3,0-0.5-0.1-0.7c-0.1-0.2-0.3-0.4-0.5-0.4c-0.5-0.1-0.8,0.1-1.1,0.5l-2.1,2.7l-0.6-3.3c-0.1-0.5-0.3-0.9-0.7-1
	c-0.3-0.1-0.5,0-0.7,0.1c-0.2,0.1-0.4,0.4-0.4,0.6l-1.3,5.2c-0.1,0.3,0,0.5,0.1,0.6c0.1,0.2,0.3,0.3,0.5,0.4
	c0.5,0.1,0.8-0.1,0.9-0.6l0.7-2.9l0.5,2.4C1060.8,190.5,1061,190.7,1061.3,190.8 M1053,190.9L1053,190.9c0.5,0,0.8-0.4,0.8-0.9v-1.9
	h1.9c0.3,0,0.5-0.1,0.5-0.2c0.1-0.1,0.2-0.3,0.2-0.5c0-0.2-0.1-0.4-0.2-0.5c-0.2-0.1-0.4-0.2-0.5-0.2h-1.9v-1.4h2.4
	c0.5,0,0.7-0.3,0.7-0.7s-0.3-0.7-0.7-0.7l0,0l-3.3,0.1c-0.5,0-0.7,0.3-0.7,0.7l0.1,5.4C1052.2,190.6,1052.6,190.9,1053,190.9
	 M1046.2,190.8L1046.2,190.8L1046.2,190.8L1046.2,190.8L1046.2,190.8z M1047.6,188.2c-0.2-0.5-0.4-1-0.5-1.2
	c-0.3-0.5-0.7-0.5-1.4-0.4l-0.6,0.2l1.1,3.9l0.6-0.2c0.6-0.2,1-0.5,1-1C1047.9,189.2,1047.8,188.9,1047.6,188.2 M1049.2,187.8
	c0.3,1,0.4,1.4,0.3,1.8c-0.1,1.2-0.7,1.9-2.3,2.3l-1.5,0.5c-0.1,0-0.2,0-0.3,0c-0.3,0-0.5-0.2-0.6-0.5l-1.4-5.2
	c-0.1-0.5,0.1-0.8,0.5-0.9l1.5-0.5c1.4-0.5,2.4-0.2,3.1,0.8C1048.8,186.4,1048.9,186.8,1049.2,187.8 M1087.4,311.8
	c0,0.5,0.4,0.8,0.8,0.8s0.8-0.3,0.8-0.8v-3.9h0.1l1.3,2.9c0.3,0.5,0.5,0.7,0.8,0.7c0.4,0,0.6-0.2,0.8-0.7l1.3-2.9h0.1v3.9
	c0,0.5,0.4,0.8,0.8,0.8s0.8-0.3,0.8-0.8v-6.3c0-0.6-0.4-1-0.9-1s-0.8,0.3-1.1,0.9l-1.7,3.9h-0.1l-1.7-3.9c-0.3-0.6-0.5-0.9-1.1-0.9
	s-1,0.4-1,1L1087.4,311.8L1087.4,311.8z M1082.5,312.7c1.8,0,3.1-1.1,3.1-3.1v-4.3c0-0.5-0.4-0.9-0.9-0.9c-0.5,0-0.9,0.4-0.9,0.9
	v4.3c0,1-0.5,1.5-1.4,1.5c-0.7,0-1.4-0.5-1.4-1.5v-4.3c0-0.5-0.4-0.9-0.9-0.9c-0.5,0-0.9,0.4-0.9,0.9v4.3
	C1079.4,311.7,1080.6,312.7,1082.5,312.7 M1072.4,311.8c0,0.5,0.3,0.7,0.7,0.7h3.9c0.5,0,0.8-0.4,0.8-0.7c0-0.5-0.4-0.7-0.8-0.7
	h-2.8c-0.1,0-0.1,0-0.1-0.1v-1.6c0-0.1,0-0.1,0.1-0.1h2.3c0.5,0,0.8-0.3,0.8-0.7s-0.3-0.7-0.8-0.7h-2.3c-0.1,0-0.1,0-0.1-0.1v-1.6
	c0-0.1,0-0.1,0.1-0.1h2.8c0.5,0,0.8-0.4,0.8-0.7c0-0.5-0.4-0.7-0.8-0.7h-3.9c-0.5,0-0.7,0.3-0.7,0.7V311.8z M1067.7,312.7
	c2.1,0,3.2-1.1,3.2-2.5c0-1.4-0.9-2.2-2.5-2.4l-0.5-0.1c-0.9-0.1-1.3-0.5-1.3-0.9c0-0.5,0.4-0.9,1.1-0.9c0.5,0,1,0.2,1.4,0.4
	c0.2,0.1,0.4,0.1,0.5,0.1c0.5,0,0.7-0.4,0.7-0.7c0-0.3-0.1-0.5-0.5-0.7c-0.5-0.3-1.4-0.5-2.3-0.5c-1.7,0-2.8,1-2.8,2.4
	c0,1.4,0.9,2.2,2.5,2.4l0.5,0.1c1,0.1,1.3,0.5,1.3,0.9c0,0.5-0.5,0.9-1.4,0.9c-0.6,0-1.1-0.2-1.7-0.5c-0.2-0.1-0.4-0.2-0.5-0.2
	c-0.5,0-0.8,0.4-0.8,0.7c0,0.3,0.2,0.5,0.5,0.7C1065.7,312.4,1066.6,312.7,1067.7,312.7 M1060.1,312.7c1.8,0,3.1-1.1,3.1-3.1v-4.3
	c0-0.5-0.4-0.9-0.9-0.9c-0.5,0-0.9,0.4-0.9,0.9v4.3c0,1-0.5,1.5-1.4,1.5c-0.7,0-1.4-0.5-1.4-1.5v-4.3c0-0.5-0.4-0.9-0.9-0.9
	c-0.5,0-0.9,0.4-0.9,0.9v4.3C1057,311.7,1058.3,312.7,1060.1,312.7 M1047.4,311.8c0,0.5,0.4,0.8,0.8,0.8s0.8-0.3,0.8-0.8v-3.9h0.1
	l1.3,2.9c0.3,0.5,0.5,0.7,0.8,0.7c0.4,0,0.6-0.2,0.8-0.7l1.3-2.9h0.1v3.9c0,0.5,0.4,0.8,0.8,0.8s0.8-0.3,0.8-0.8v-6.3
	c0-0.6-0.4-1-0.9-1s-0.8,0.3-1.1,0.9l-1.7,3.9h-0.1l-1.7-3.9c-0.3-0.6-0.5-0.9-1.1-0.9s-1,0.4-1,1L1047.4,311.8L1047.4,311.8z
	 M1038.7,310.9v-4.8c0-0.1,0-0.1,0.1-0.1h0.8c0.8,0,1.4,0.3,1.6,0.9c0.1,0.3,0.2,0.7,0.2,1.5c0,0.8-0.1,1.3-0.2,1.5
	c-0.2,0.6-0.8,0.9-1.6,0.9H1038.7C1038.7,311,1038.7,311,1038.7,310.9 M1037,311.8c0,0.5,0.3,0.7,0.7,0.7h1.9c1.7,0,2.8-0.5,3.2-1.9
	c0.2-0.5,0.3-1,0.3-2.2s-0.1-1.7-0.3-2.2c-0.5-1.4-1.4-1.9-3.2-1.9h-1.9c-0.5,0-0.7,0.3-0.7,0.7V311.8z M1032.2,311.2
	c-0.6,0-1.1-0.4-1.3-0.9c-0.1-0.3-0.1-0.7-0.1-1.7s0-1.4,0.1-1.7c0.2-0.5,0.6-0.9,1.3-0.9c0.6,0,1.1,0.4,1.3,0.9
	c0.1,0.3,0.1,0.7,0.1,1.7s0,1.4-0.1,1.7C1033.3,310.8,1032.8,311.2,1032.2,311.2 M1032.2,312.7c1.4,0,2.5-0.6,2.9-2
	c0.2-0.5,0.2-1,0.2-2.2s-0.1-1.6-0.2-2.2c-0.5-1.3-1.5-2-2.9-2c-1.4,0-2.5,0.6-2.9,2c-0.2,0.5-0.2,1-0.2,2.2s0.1,1.6,0.2,2.2
	C1029.7,312.1,1030.8,312.7,1032.2,312.7 M1024.4,311.2c-0.6,0-1.1-0.4-1.3-0.9c-0.1-0.3-0.1-0.7-0.1-1.7s0-1.4,0.1-1.7
	c0.2-0.5,0.6-0.9,1.3-0.9c0.6,0,1.1,0.4,1.3,0.9c0.1,0.3,0.1,0.7,0.1,1.7s0,1.4-0.1,1.7C1025.5,310.8,1025.1,311.2,1024.4,311.2
	 M1024.4,312.7c1.4,0,2.5-0.6,2.9-2c0.2-0.5,0.2-1,0.2-2.2s-0.1-1.6-0.2-2.2c-0.5-1.3-1.5-2-2.9-2s-2.5,0.6-2.9,2
	c-0.2,0.5-0.2,1-0.2,2.2s0.1,1.6,0.2,2.2C1021.9,312.1,1023,312.7,1024.4,312.7 M1015,311.7c0,0.5,0.4,0.9,0.9,0.9
	c0.5,0,0.9-0.4,0.9-0.9v-2.3c0-0.1,0-0.1,0.1-0.1h2.3c0.5,0,0.8-0.3,0.8-0.7s-0.3-0.7-0.8-0.7h-2.3c-0.1,0-0.1,0-0.1-0.1v-1.7
	c0-0.1,0-0.1,0.1-0.1h2.8c0.5,0,0.8-0.4,0.8-0.7c0-0.5-0.4-0.7-0.8-0.7h-3.9c-0.5,0-0.7,0.3-0.7,0.7L1015,311.7L1015,311.7z
	 M1082.4,299c0.5,1.3,1.5,2,3,2c1.4,0,2.5-0.7,2.9-2c0.2-0.5,0.2-1.1,0.2-1.8v-0.1c0-0.5-0.3-0.7-0.7-0.7h-1.6
	c-0.5,0-0.7,0.3-0.7,0.7s0.3,0.7,0.7,0.7h0.5c0.1,0,0.1,0,0.1,0.1c0,0.3,0,0.5-0.1,0.8c-0.2,0.5-0.6,0.8-1.3,0.8
	c-0.7,0-1.2-0.4-1.3-0.9c-0.1-0.3-0.1-0.7-0.1-1.7s0-1.4,0.1-1.7c0.2-0.5,0.6-0.9,1.3-0.9c0.5,0,0.9,0.2,1.2,0.6
	c0.3,0.4,0.5,0.5,0.7,0.5c0.5,0,0.8-0.4,0.8-0.8c0-0.2-0.1-0.4-0.2-0.5c-0.5-0.7-1.4-1.3-2.6-1.3c-1.4,0-2.5,0.6-3,2
	c-0.2,0.5-0.2,1-0.2,2.2C1082.2,298.1,1082.2,298.4,1082.4,299 M1074.4,300c0,0.5,0.4,0.8,0.8,0.8s0.8-0.3,0.8-0.8v-4.3h0.1l2.4,4.3
	c0.4,0.5,0.6,0.8,1.2,0.8c0.6,0,1-0.4,1-1v-6.3c0-0.5-0.4-0.8-0.8-0.8c-0.5,0-0.8,0.3-0.8,0.8v4.4h-0.1l-2.4-4.3
	c-0.4-0.5-0.6-0.8-1.2-0.8c-0.6,0-1,0.4-1,1V300z M1070.5,299.9c0,0.5,0.4,0.9,0.9,0.9c0.5,0,0.9-0.4,0.9-0.9v-6.3
	c0-0.5-0.4-0.9-0.9-0.9c-0.5,0-0.9,0.4-0.9,0.9V299.9z M1066.3,300.8c0.5,0,0.9-0.4,0.9-0.9v-5.6c0-0.1,0-0.1,0.1-0.1h1.4
	c0.5,0,0.9-0.4,0.9-0.7c0-0.5-0.4-0.8-0.9-0.8h-4.6c-0.5,0-0.9,0.4-0.9,0.8s0.4,0.7,0.9,0.7h1.4c0.1,0,0.1,0,0.1,0.1v5.6
	C1065.4,300.4,1065.8,300.8,1066.3,300.8 M1059,300.9c2.1,0,3.2-1.1,3.2-2.5s-0.9-2.2-2.5-2.4l-0.5-0.1c-0.9-0.1-1.3-0.5-1.3-0.9
	c0-0.5,0.4-0.9,1.1-0.9c0.5,0,1,0.2,1.4,0.4c0.2,0.1,0.4,0.1,0.5,0.1c0.5,0,0.7-0.4,0.7-0.7c0-0.3-0.1-0.5-0.5-0.7
	c-0.5-0.3-1.4-0.5-2.3-0.5c-1.7,0-2.8,1-2.8,2.4s0.9,2.2,2.5,2.4l0.5,0.1c1,0.1,1.3,0.5,1.3,0.9c0,0.5-0.5,0.9-1.4,0.9
	c-0.6,0-1.1-0.2-1.7-0.5c-0.2-0.1-0.4-0.2-0.5-0.2c-0.5,0-0.8,0.4-0.8,0.7c0,0.3,0.2,0.5,0.5,0.7
	C1057,300.5,1057.9,300.9,1059,300.9 M1051.4,300.9c1.8,0,3.1-1.1,3.1-3.1v-4.3c0-0.5-0.4-0.9-0.9-0.9c-0.5,0-0.9,0.4-0.9,0.9v4.3
	c0,1-0.5,1.5-1.4,1.5c-0.7,0-1.4-0.5-1.4-1.5v-4.3c0-0.5-0.4-0.9-0.9-0.9c-0.5,0-0.9,0.4-0.9,0.9v4.3
	C1048.3,299.8,1049.6,300.9,1051.4,300.9 M1040.6,299c0.5,1.3,1.5,2,3,2c1.4,0,2.5-0.7,2.9-2c0.2-0.5,0.2-1.1,0.2-1.8v-0.1
	c0-0.5-0.3-0.7-0.7-0.7h-1.6c-0.5,0-0.7,0.3-0.7,0.7s0.3,0.7,0.7,0.7h0.5c0.1,0,0.1,0,0.1,0.1c0,0.3,0,0.5-0.1,0.8
	c-0.2,0.5-0.6,0.8-1.3,0.8c-0.7,0-1.2-0.4-1.4-0.9c-0.1-0.3-0.1-0.7-0.1-1.7s0-1.4,0.1-1.7c0.2-0.5,0.6-0.9,1.3-0.9
	c0.5,0,0.9,0.2,1.2,0.6c0.3,0.4,0.5,0.5,0.7,0.5c0.5,0,0.8-0.4,0.8-0.8c0-0.2-0.1-0.4-0.2-0.5c-0.5-0.7-1.4-1.3-2.6-1.3
	c-1.4,0-2.5,0.6-3,2c-0.2,0.5-0.2,1-0.2,2.2C1040.3,298.1,1040.4,298.4,1040.6,299 M1035.9,300.9c2.1,0,3.2-1.1,3.2-2.5
	s-0.9-2.2-2.5-2.4l-0.5-0.1c-0.9-0.1-1.3-0.5-1.3-0.9c0-0.5,0.4-0.9,1.1-0.9c0.5,0,1,0.2,1.4,0.4c0.2,0.1,0.4,0.1,0.5,0.1
	c0.5,0,0.7-0.4,0.7-0.7c0-0.3-0.1-0.5-0.5-0.7c-0.5-0.3-1.4-0.5-2.3-0.5c-1.7,0-2.8,1-2.8,2.4s0.9,2.2,2.5,2.4l0.5,0.1
	c1,0.1,1.3,0.5,1.3,0.9c0,0.5-0.5,0.9-1.3,0.9c-0.6,0-1.1-0.2-1.7-0.5c-0.2-0.1-0.4-0.2-0.5-0.2c-0.5,0-0.8,0.4-0.8,0.7
	c0,0.3,0.2,0.5,0.5,0.7C1033.9,300.5,1034.7,300.9,1035.9,300.9 M1029.6,299.9c0,0.5,0.4,0.9,0.9,0.9c0.5,0,0.9-0.4,0.9-0.9v-6.3
	c0-0.5-0.4-0.9-0.9-0.9s-0.9,0.4-0.9,0.9V299.9z M1023.3,299.2v-4.8c0-0.1,0-0.1,0.1-0.1h0.8c0.8,0,1.4,0.3,1.6,0.9
	c0.1,0.3,0.2,0.7,0.2,1.5c0,0.8-0.1,1.3-0.2,1.5c-0.2,0.6-0.8,0.9-1.6,0.9L1023.3,299.2C1023.3,299.3,1023.3,299.2,1023.3,299.2
	 M1021.5,300c0,0.5,0.3,0.7,0.7,0.7h1.9c1.7,0,2.8-0.5,3.2-1.8c0.2-0.5,0.3-1,0.3-2.2c0-1.2-0.1-1.7-0.3-2.2
	c-0.5-1.3-1.4-1.9-3.2-1.9h-1.9c-0.5,0-0.7,0.3-0.7,0.7V300z M1080.9,263.4c-0.5-1.6-2.5-2.5-4.9-2.5c-1.1,0-2.3,0.2-3.4,0.6
	c-3.7,1.4-6.1,4.4-5.2,6.8c0.5,1.6,2.5,2.5,4.9,2.5c1.1,0,2.3-0.2,3.5-0.6C1079.3,268.9,1081.7,265.8,1080.9,263.4 M1082.1,268.9
	c-1.3,1.7-3.3,3.1-5.5,3.9c-1.4,0.5-2.9,0.8-4.3,0.8c-3,0-5.5-1.2-6.8-3.1l-7.1,2.5l15.8,5.8c0.7,0.3,1,1,0.8,1.7
	c-0.3,0.7-1,1-1.7,0.8l-18.8-6.9l-18.6,6.8c-0.7,0.3-1.4-0.1-1.7-0.8c-0.3-0.7,0.1-1.4,0.8-1.7l15.7-5.7l-8.8-3.2
	c-1.6,2.6-5,3.8-8.1,2.6l0,0l0,0l-10.4-3.8c-0.7-0.3-1-1-0.8-1.7c0.3-0.7,1-1,1.7-0.8l10.4,3.8l0,0l0,0c2.2,0.8,4.4-0.3,5.2-2.3
	c0.7-2.1-0.4-4.3-2.5-5.1l0,0l0,0l-10.4-3.8c-0.7-0.3-1-1-0.8-1.7c0.3-0.7,1-1,1.7-0.8l10.4,3.8l0,0l0,0c3.1,1.1,4.9,4.2,4.4,7.2
	l11.7,4.3l10-3.6c-0.2-1.6,0.4-3.4,1.5-5c1.3-1.7,3.3-3.1,5.5-3.9c1.4-0.5,2.9-0.8,4.3-0.8c3.6,0,6.4,1.6,7.3,4.3
	C1084.1,264.5,1083.6,266.9,1082.1,268.9 M1024.4,262.1c0.3-0.7,1-1,1.7-0.8l10.4,3.8c0.7,0.3,1,1,0.8,1.7c-0.3,0.7-1,1-1.7,0.8
	l-10.4-3.8C1024.5,263.5,1024.2,262.8,1024.4,262.1"/>
<path class="st0" d="M883.9,61.6c21.9,0,39.5,17.7,39.5,39.5c0,21.9-17.7,39.5-39.5,39.5c-21.9,0-39.5-17.7-39.5-39.5
	C844.3,79.3,862,61.6,883.9,61.6 M883.9,64.3c-20.4,0-36.9,16.6-36.9,36.9s16.6,36.9,36.9,36.9s36.9-16.6,36.9-36.9
	S904.3,64.3,883.9,64.3 M901.5,118c0.5-0.5,0.5-1.4,0-1.9c-0.5-0.5-1.4-0.5-1.9,0c-4.1,4.3-9.8,6.7-15.7,6.7c-5.4,0-10.7-2-14.7-5.7
	c-0.5-0.5-1.4-0.5-1.9,0.1c-0.5,0.5-0.5,1.4,0.1,1.9c4.5,4.2,10.3,6.4,16.5,6.4C890.6,125.6,897,122.8,901.5,118 M902.7,87.7
	c0.5-0.5,0.6-1.3,0.2-1.8c-4.6-5.7-11.6-9-18.9-9c-5.4,0-10.7,1.8-14.9,5.2c-0.5,0.5-0.7,1.3-0.3,1.8c0.5,0.5,1.3,0.7,1.8,0.3
	c3.8-3,8.5-4.6,13.4-4.6c6.6,0,12.8,2.9,16.9,8.1c0.3,0.4,0.6,0.5,1,0.5C902.2,88,902.5,87.9,902.7,87.7 M870.4,103
	c1.5-6.3,3-11.8,3-11.8c0.2-0.7-0.2-1.4-0.9-1.6s-1.4,0.2-1.6,0.9c0,0.1-1.3,4.5-2.6,10c0,0,0,0.1-0.1,0.1c-1.8,7.5-4.8,7.5-6,7.5
	c-0.5,0-1.1-0.1-1.5-0.6c-0.6-0.7-0.6-2.2-0.2-3.9c0.7-3.1,1.3-4.7,3.2-10.3c0.5-1.4,0.3-3-0.5-4.2c-0.8-1.1-2-1.7-3.4-1.7
	c-3.5,0-5.2,2.8-5.2,5.4c0,1,0.2,1.5,0.6,2.5c0.4,0.6,1.2,0.9,1.8,0.5c0.6-0.4,0.9-1.1,0.5-1.8c-0.3-0.5-0.4-0.7-0.4-1.4
	c0-0.5,0.1-2.8,2.5-2.8c0.5,0,1,0.2,1.3,0.6c0.4,0.5,0.5,1.2,0.2,1.8c-1.9,5.6-2.4,7.4-3.2,10.5c-0.9,3.3-0.1,5.2,0.6,6.2
	c0.8,1.1,2.1,1.7,3.6,1.7c2.2,0,4-0.9,5.4-2.6c0.3,0.9,0.5,1.6,0.9,2.1c0.3,0.4,0.6,0.5,1.1,0.5c0.3,0,0.5-0.1,0.7-0.2
	c0.6-0.4,0.8-1.3,0.4-1.8C870.4,108.1,869.5,105.9,870.4,103 M903.6,107.6c-0.3,0-0.7,0.3-1.4,0.3c-0.5,0-0.8-0.2-1-0.4
	c-0.2-0.2-0.2-0.5,0-1.1c0.2-0.5,0.3-1,0.5-1.4c0.2-0.5,0.5-1.3,0.6-2.2c0.4-1.4,0.1-2.6-0.6-3.5c-0.5-0.6-1.4-1.4-3.2-1.4
	c-0.5,0-0.9,0.1-1.3,0.3l1.4-5.1c0.2-0.7-0.3-1.4-0.9-1.6c-0.7-0.2-1.4,0.3-1.6,0.9l-2.9,11.1l0,0c-0.7,2.9-2.9,4.3-4.3,4.3
	c-1.1,0-2.4-0.5-2.4-2.6c0-3.3,1.8-4.8,3-4.8c0.7,0,1.1,0.3,1.6,0.3c0.5,0,0.8-0.1,1.1-0.5c0.5-0.5,0.4-1.4-0.3-1.8
	c-0.6-0.5-1.4-0.7-2.4-0.7c-2.4,0-5.6,2.3-5.6,7.4c0,3.9,2.5,5.3,4.5,5.3c1.2,0,2.4-0.6,3.4-1.6l0,0c-0.2,0.7,0.3,1.4,0.9,1.6
	c0.1,0,0.2,0,0.4,0c0.5,0,1.1-0.4,1.3-1l1.1-4.1l0,0c0.5-1.8,1.5-5,3.2-5c0.4,0,0.8,0.1,1.1,0.4c0.2,0.3,0.3,0.7,0.1,1.3
	c-0.2,0.8-0.5,1.4-0.6,2c-0.2,0.5-0.4,1-0.5,1.6c-0.5,1.7,0,2.7,0.5,3.3c0.6,0.8,1.7,1.4,3.1,1.4c0.6,0,1.2,0,1.9-0.3s1-1,0.8-1.7
	C904.7,107.9,904.2,107.6,903.6,107.6 M878.5,97.8c0-0.6-0.5-1.3-1.2-1.4c-0.6-0.1-1.3,0.4-1.4,1c-0.6,2.6-1,3.9-1.7,5.6
	c-0.3,0.6,0,1.4,0.7,1.7c0.6,0.3,1.4,0,1.7-0.7c0.3-0.6,0.5-1.2,0.6-1.8c0.3,0.5,0.6,0.8,0.9,1.2c0.8,1,1.3,1.5,1.3,2.3
	c0,2.3-2,2.3-2.3,2.3c-1,0-1.6-0.3-2.6-0.9c-0.6-0.5-1.4-0.3-1.8,0.3c-0.5,0.6-0.3,1.4,0.3,1.8c1.4,1,2.6,1.4,4.2,1.4
	c2.4,0,4.9-1.7,4.9-5c0-1.7-1-2.9-1.8-4C879.4,100.7,878.5,99.6,878.5,97.8 M912.8,91.9c-0.7-0.2-1.4,0.2-1.6,0.9l-2.9,10.6
	c-0.2,0.7,0.2,1.4,0.9,1.6c0.1,0,0.3,0.1,0.4,0.1c0.5,0,1.1-0.4,1.3-1l2.9-10.6C913.9,92.8,913.5,92,912.8,91.9 M908.2,106.9
	c-0.9,0-1.6,0.7-1.6,1.6s0.7,1.6,1.6,1.6s1.6-0.7,1.6-1.6C909.9,107.6,909.1,106.9,908.2,106.9 M895.8,132.4
	c-0.1-0.4-0.5-0.5-0.9-0.5l-2.3,0.6l-0.4-1.3l1.8-0.5c0.5-0.1,0.6-0.5,0.5-0.9c-0.1-0.4-0.5-0.6-0.9-0.5l-1.8,0.5l-0.4-1.3l2.3-0.6
	c0.2-0.1,0.4-0.2,0.5-0.4c0.1-0.2,0.1-0.4,0.1-0.5c-0.1-0.2-0.2-0.4-0.4-0.5c-0.2-0.1-0.4-0.1-0.5,0l-3.2,0.9
	c-0.2,0.1-0.4,0.2-0.5,0.4c-0.1,0.2-0.1,0.4,0,0.5l1.5,5.2c0.1,0.4,0.4,0.5,0.6,0.5c0.1,0,0.2,0,0.3,0l3.2-0.9
	C895.7,133.2,895.8,132.8,895.8,132.4 M887.4,128.2c-0.5,0-0.7,0.3-0.8,0.7l-0.7,3.5l-1.1-3.5c-0.2-0.5-0.4-0.7-0.8-0.6
	c-0.4,0-0.6,0.3-0.7,0.7l-0.9,3.5l-0.9-3.4c-0.1-0.5-0.4-0.7-0.8-0.7c-0.3,0-0.5,0.1-0.5,0.3c-0.2,0.2-0.2,0.4-0.2,0.5
	c0,0.1,0,0.3,0.1,0.3l1.4,5.2c0.2,0.5,0.5,0.8,0.9,0.8l0,0c0.5,0,0.7-0.3,0.8-0.8l0.9-3.3l1,3.3c0.2,0.5,0.5,0.8,0.9,0.8
	s0.7-0.3,0.8-0.8l1.3-5.2c0,0,0-0.2,0-0.3c0-0.2-0.1-0.5-0.2-0.5C887.8,128.2,887.6,128.2,887.4,128.2 M876.6,127.2
	c-0.7-0.2-1.4-0.2-1.9,0.1c-0.5,0.3-0.9,0.7-1.1,1.4c-0.4,1.2,0.2,2.1,1.5,2.6l0.4,0.2c0.7,0.4,0.8,0.6,0.7,0.9
	c-0.1,0.2-0.2,0.4-0.4,0.5s-0.5,0.1-0.8,0c-0.5-0.1-0.8-0.4-1.3-0.8c-0.1-0.1-0.2-0.2-0.5-0.3c-0.4-0.1-0.8,0.1-0.9,0.5
	c-0.1,0.3,0,0.5,0.2,0.7l0,0c0.3,0.3,0.9,0.9,1.9,1.2c0.4,0.1,0.7,0.2,1.1,0.2c1.1,0,1.9-0.5,2.2-1.5c0.4-1.2-0.2-2.1-1.5-2.6
	l-0.4-0.2c-0.8-0.4-0.8-0.6-0.8-0.9c0.1-0.4,0.5-0.5,1-0.4c0.4,0.1,0.7,0.3,1,0.5c0.1,0.1,0.3,0.2,0.5,0.3c0.4,0.1,0.8-0.1,0.9-0.5
	c0.1-0.3,0-0.5-0.2-0.7C877.9,127.7,877.2,127.3,876.6,127.2 M890.5,74.1c0.4,0.1,0.6,0,0.9-0.5l1.4-1.9l-0.7,2.9
	c-0.1,0.3,0,0.5,0.1,0.6s0.3,0.3,0.5,0.4c0.1,0,0.2,0,0.2,0c0.4,0,0.6-0.2,0.7-0.6l1.3-5.2c0.1-0.3,0-0.5-0.1-0.7s-0.3-0.4-0.5-0.4
	c-0.5-0.1-0.8,0.1-1.1,0.5l-2.1,2.7l-0.6-3.3c-0.1-0.5-0.3-0.9-0.7-1c-0.3-0.1-0.5,0-0.7,0.1c-0.2,0.1-0.4,0.4-0.4,0.6l-1.3,5.2
	c-0.1,0.3,0,0.5,0.1,0.6s0.3,0.3,0.5,0.4c0.5,0.1,0.8-0.1,0.9-0.6l0.7-2.9l0.5,2.4C890,73.8,890.1,74,890.5,74.1 M882.2,74.3
	L882.2,74.3c0.5,0,0.8-0.4,0.8-0.9v-1.9h1.9c0.3,0,0.5-0.1,0.5-0.2c0.1-0.1,0.2-0.3,0.2-0.5c0-0.2-0.1-0.4-0.2-0.5
	c-0.2-0.1-0.4-0.2-0.5-0.2H883v-1.4h2.4c0.5,0,0.7-0.3,0.7-0.7c0-0.5-0.3-0.7-0.7-0.7l0,0l-3.3,0.1c-0.5,0-0.7,0.3-0.7,0.7l0.1,5.4
	C881.4,74,881.7,74.3,882.2,74.3 M875.4,74.1L875.4,74.1L875.4,74.1L875.4,74.1L875.4,74.1z M876.8,71.6c-0.2-0.5-0.4-1-0.5-1.2
	c-0.3-0.5-0.7-0.5-1.4-0.4l-0.6,0.2l1.1,3.9l0.6-0.2c0.6-0.2,1-0.5,1-1C877,72.6,876.9,72.1,876.8,71.6 M878.4,71.1
	c0.3,1,0.4,1.4,0.3,1.8c-0.1,1.2-0.7,1.9-2.3,2.3l-1.5,0.5c-0.1,0-0.2,0-0.3,0c-0.3,0-0.5-0.2-0.6-0.5l-1.4-5.2
	c-0.1-0.5,0.1-0.8,0.5-0.9l1.5-0.5c1.4-0.5,2.4-0.2,3.1,0.8C877.9,69.7,878.1,70.2,878.4,71.1 M916.6,195.1c0,0.5,0.4,0.8,0.8,0.8
	c0.5,0,0.8-0.3,0.8-0.8v-3.9h0.1l1.3,2.9c0.3,0.5,0.5,0.7,0.8,0.7c0.4,0,0.6-0.2,0.8-0.7l1.3-2.9h0.1v3.9c0,0.5,0.4,0.8,0.8,0.8
	c0.5,0,0.8-0.3,0.8-0.8v-6.3c0-0.6-0.4-1-0.9-1c-0.5,0-0.8,0.3-1.1,0.9l-1.7,3.9h-0.1l-1.7-3.9c-0.3-0.6-0.5-0.9-1.1-0.9s-1,0.4-1,1
	L916.6,195.1L916.6,195.1z M911.7,196c1.8,0,3.1-1.1,3.1-3.1v-4.3c0-0.5-0.4-0.9-0.9-0.9c-0.5,0-0.9,0.4-0.9,0.9v4.3
	c0,1-0.5,1.5-1.4,1.5c-0.7,0-1.4-0.5-1.4-1.5v-4.3c0-0.5-0.4-0.9-0.9-0.9c-0.5,0-0.9,0.4-0.9,0.9v4.3
	C908.6,194.9,909.8,196,911.7,196 M901.5,195.1c0,0.5,0.3,0.7,0.7,0.7h3.9c0.5,0,0.8-0.4,0.8-0.7c0-0.5-0.4-0.7-0.8-0.7h-2.8
	c-0.1,0-0.1,0-0.1-0.1v-1.6c0-0.1,0-0.1,0.1-0.1h2.3c0.5,0,0.8-0.3,0.8-0.7c0-0.5-0.3-0.7-0.8-0.7h-2.3c-0.1,0-0.1,0-0.1-0.1v-1.6
	c0-0.1,0-0.1,0.1-0.1h2.8c0.5,0,0.8-0.4,0.8-0.7c0-0.5-0.4-0.7-0.8-0.7h-3.9c-0.5,0-0.7,0.3-0.7,0.7V195.1z M896.8,196
	c2.1,0,3.2-1.1,3.2-2.5c0-1.4-0.9-2.2-2.5-2.4l-0.5-0.1c-0.9-0.1-1.3-0.5-1.3-0.9c0-0.5,0.4-0.9,1.1-0.9c0.5,0,1,0.2,1.4,0.4
	c0.2,0.1,0.4,0.1,0.5,0.1c0.5,0,0.7-0.4,0.7-0.7c0-0.3-0.1-0.5-0.5-0.7c-0.5-0.3-1.4-0.5-2.3-0.5c-1.7,0-2.8,1-2.8,2.4
	s0.9,2.2,2.5,2.4l0.5,0.1c1,0.1,1.3,0.5,1.3,0.9c0,0.5-0.5,0.9-1.4,0.9c-0.6,0-1.1-0.2-1.7-0.5c-0.2-0.1-0.4-0.2-0.5-0.2
	c-0.5,0-0.8,0.4-0.8,0.7c0,0.3,0.2,0.5,0.5,0.7C894.8,195.7,895.8,196,896.8,196 M889.2,196c1.8,0,3.1-1.1,3.1-3.1v-4.3
	c0-0.5-0.4-0.9-0.9-0.9c-0.5,0-0.9,0.4-0.9,0.9v4.3c0,1-0.5,1.5-1.4,1.5c-0.7,0-1.4-0.5-1.4-1.5v-4.3c0-0.5-0.4-0.9-0.9-0.9
	c-0.5,0-0.9,0.4-0.9,0.9v4.3C886.2,194.9,887.4,196,889.2,196 M876.6,195.1c0,0.5,0.4,0.8,0.8,0.8c0.5,0,0.8-0.3,0.8-0.8v-3.9h0.1
	l1.3,2.9c0.3,0.5,0.5,0.7,0.8,0.7c0.4,0,0.6-0.2,0.8-0.7l1.3-2.9h0.1v3.9c0,0.5,0.4,0.8,0.8,0.8c0.5,0,0.8-0.3,0.8-0.8v-6.3
	c0-0.6-0.4-1-0.9-1c-0.5,0-0.8,0.3-1.1,0.9l-1.7,3.9h-0.1l-1.7-3.9c-0.3-0.6-0.5-0.9-1.1-0.9s-1,0.4-1,1L876.6,195.1L876.6,195.1z
	 M867.9,194.3v-4.8c0-0.1,0-0.1,0.1-0.1h0.8c0.8,0,1.4,0.3,1.6,0.9c0.1,0.3,0.2,0.7,0.2,1.5c0,0.8-0.1,1.3-0.2,1.5
	c-0.2,0.6-0.8,0.9-1.6,0.9L867.9,194.3C867.9,194.4,867.9,194.3,867.9,194.3 M866.2,195.1c0,0.5,0.3,0.7,0.7,0.7h1.9
	c1.7,0,2.8-0.5,3.2-1.9c0.2-0.5,0.3-1,0.3-2.2s-0.1-1.7-0.3-2.2c-0.5-1.4-1.4-1.9-3.2-1.9h-1.9c-0.5,0-0.7,0.3-0.7,0.7V195.1z
	 M861.3,194.5c-0.6,0-1.1-0.4-1.3-0.9c-0.1-0.3-0.1-0.7-0.1-1.7s0-1.4,0.1-1.7c0.2-0.5,0.6-0.9,1.3-0.9c0.6,0,1.1,0.4,1.3,0.9
	c0.1,0.3,0.1,0.7,0.1,1.7c0,1,0,1.4-0.1,1.7C862.4,194.1,862,194.5,861.3,194.5 M861.3,196c1.4,0,2.5-0.6,2.9-2
	c0.2-0.5,0.2-1,0.2-2.2s-0.1-1.6-0.2-2.2c-0.5-1.3-1.5-2-2.9-2c-1.4,0-2.5,0.6-2.9,2c-0.2,0.5-0.2,1-0.2,2.2c0,1.2,0.1,1.6,0.2,2.2
	C858.8,195.4,859.9,196,861.3,196 M853.6,194.5c-0.6,0-1.1-0.4-1.3-0.9c-0.1-0.3-0.1-0.7-0.1-1.7s0-1.4,0.1-1.7
	c0.2-0.5,0.6-0.9,1.3-0.9c0.6,0,1.1,0.4,1.3,0.9c0.1,0.3,0.1,0.7,0.1,1.7c0,1,0,1.4-0.1,1.7C854.7,194.1,854.2,194.5,853.6,194.5
	 M853.6,196c1.4,0,2.5-0.6,2.9-2c0.2-0.5,0.2-1,0.2-2.2s-0.1-1.6-0.2-2.2c-0.5-1.3-1.5-2-2.9-2s-2.5,0.6-2.9,2
	c-0.2,0.5-0.2,1-0.2,2.2c0,1.2,0.1,1.6,0.2,2.2C851.1,195.4,852.1,196,853.6,196 M844.2,195c0,0.5,0.4,0.9,0.9,0.9
	c0.5,0,0.9-0.4,0.9-0.9v-2.3c0-0.1,0-0.1,0.1-0.1h2.3c0.5,0,0.8-0.3,0.8-0.7s-0.3-0.7-0.8-0.7h-2.3c-0.1,0-0.1,0-0.1-0.1v-1.7
	c0-0.1,0-0.1,0.1-0.1h2.8c0.5,0,0.8-0.4,0.8-0.7c0-0.5-0.4-0.7-0.8-0.7H845c-0.5,0-0.7,0.3-0.7,0.7L844.2,195L844.2,195z
	 M911.6,182.3c0.5,1.3,1.5,2,3,2c1.4,0,2.5-0.7,2.9-2c0.2-0.5,0.2-1.1,0.2-1.8v-0.1c0-0.5-0.3-0.7-0.7-0.7h-1.6
	c-0.5,0-0.7,0.3-0.7,0.7c0,0.5,0.3,0.7,0.7,0.7h0.5c0.1,0,0.1,0,0.1,0.1c0,0.3,0,0.5-0.1,0.8c-0.2,0.5-0.6,0.8-1.3,0.8
	c-0.7,0-1.2-0.4-1.3-0.9c-0.1-0.3-0.1-0.7-0.1-1.7c0-1,0-1.4,0.1-1.7c0.2-0.5,0.6-0.9,1.3-0.9c0.5,0,0.9,0.2,1.2,0.6
	c0.3,0.4,0.5,0.5,0.7,0.5c0.5,0,0.8-0.4,0.8-0.8c0-0.2-0.1-0.4-0.2-0.5c-0.5-0.7-1.4-1.3-2.6-1.3c-1.4,0-2.5,0.6-3,2
	c-0.2,0.5-0.2,1-0.2,2.2C911.3,181.4,911.4,181.7,911.6,182.3 M903.5,183.3c0,0.5,0.4,0.8,0.8,0.8c0.5,0,0.8-0.3,0.8-0.8V179h0.1
	l2.4,4.3c0.4,0.5,0.6,0.8,1.2,0.8c0.6,0,1-0.4,1-1v-6.3c0-0.5-0.4-0.8-0.8-0.8s-0.8,0.3-0.8,0.8v4.4h-0.1l-2.4-4.3
	c-0.4-0.5-0.6-0.8-1.2-0.8c-0.6,0-1,0.4-1,1V183.3z M899.6,183.3c0,0.5,0.4,0.9,0.9,0.9c0.5,0,0.9-0.4,0.9-0.9v-6.3
	c0-0.5-0.4-0.9-0.9-0.9c-0.5,0-0.9,0.4-0.9,0.9V183.3z M895.4,184.2c0.5,0,0.9-0.4,0.9-0.9v-5.6c0-0.1,0-0.1,0.1-0.1h1.4
	c0.5,0,0.9-0.4,0.9-0.7c0-0.5-0.4-0.8-0.9-0.8h-4.6c-0.5,0-0.9,0.4-0.9,0.8c0,0.5,0.4,0.7,0.9,0.7h1.4c0.1,0,0.1,0,0.1,0.1v5.6
	C894.6,183.8,894.9,184.2,895.4,184.2 M888.2,184.2c2.1,0,3.2-1.1,3.2-2.5c0-1.4-0.9-2.2-2.5-2.4l-0.5-0.1c-0.9-0.1-1.3-0.5-1.3-0.9
	c0-0.5,0.4-0.9,1.1-0.9c0.5,0,1,0.2,1.4,0.4c0.2,0.1,0.4,0.1,0.5,0.1c0.5,0,0.7-0.4,0.7-0.7c0-0.3-0.1-0.5-0.5-0.7
	c-0.5-0.3-1.4-0.5-2.3-0.5c-1.7,0-2.8,1-2.8,2.4c0,1.4,0.9,2.2,2.5,2.4l0.5,0.1c1,0.1,1.3,0.5,1.3,0.9c0,0.5-0.5,0.9-1.4,0.9
	c-0.6,0-1.1-0.2-1.7-0.5c-0.2-0.1-0.4-0.2-0.5-0.2c-0.5,0-0.8,0.4-0.8,0.7c0,0.3,0.2,0.5,0.5,0.7
	C886.2,183.9,887.1,184.2,888.2,184.2 M880.6,184.2c1.8,0,3.1-1.1,3.1-3.1v-4.3c0-0.5-0.4-0.9-0.9-0.9c-0.5,0-0.9,0.4-0.9,0.9v4.3
	c0,1-0.5,1.5-1.4,1.5c-0.7,0-1.4-0.5-1.4-1.5v-4.3c0-0.5-0.4-0.9-0.9-0.9c-0.5,0-0.9,0.4-0.9,0.9v4.3
	C877.5,183.1,878.7,184.2,880.6,184.2 M869.8,182.3c0.5,1.3,1.5,2,3,2c1.4,0,2.5-0.7,2.9-2c0.2-0.5,0.2-1.1,0.2-1.8v-0.1
	c0-0.5-0.3-0.7-0.7-0.7h-1.6c-0.5,0-0.7,0.3-0.7,0.7c0,0.5,0.3,0.7,0.7,0.7h0.5c0.1,0,0.1,0,0.1,0.1c0,0.3,0,0.5-0.1,0.8
	c-0.2,0.5-0.6,0.8-1.3,0.8c-0.7,0-1.2-0.4-1.4-0.9c-0.1-0.3-0.1-0.7-0.1-1.7c0-1,0-1.4,0.1-1.7c0.2-0.5,0.6-0.9,1.3-0.9
	c0.5,0,0.9,0.2,1.2,0.6c0.3,0.4,0.5,0.5,0.7,0.5c0.5,0,0.8-0.4,0.8-0.8c0-0.2-0.1-0.4-0.2-0.5c-0.5-0.7-1.4-1.3-2.6-1.3
	c-1.4,0-2.5,0.6-3,2c-0.2,0.5-0.2,1-0.2,2.2C869.4,181.4,869.6,181.7,869.8,182.3 M865.1,184.2c2.1,0,3.2-1.1,3.2-2.5
	c0-1.4-0.9-2.2-2.5-2.4l-0.5-0.1c-0.9-0.1-1.3-0.5-1.3-0.9c0-0.5,0.4-0.9,1.1-0.9c0.5,0,1,0.2,1.4,0.4c0.2,0.1,0.4,0.1,0.5,0.1
	c0.5,0,0.7-0.4,0.7-0.7c0-0.3-0.1-0.5-0.5-0.7c-0.5-0.3-1.4-0.5-2.3-0.5c-1.7,0-2.8,1-2.8,2.4c0,1.4,0.9,2.2,2.5,2.4l0.5,0.1
	c1,0.1,1.3,0.5,1.3,0.9c0,0.5-0.5,0.9-1.4,0.9c-0.6,0-1.1-0.2-1.7-0.5c-0.2-0.1-0.4-0.2-0.5-0.2c-0.5,0-0.8,0.4-0.8,0.7
	c0,0.3,0.2,0.5,0.5,0.7C863.1,183.9,863.9,184.2,865.1,184.2 M858.7,183.3c0,0.5,0.4,0.9,0.9,0.9c0.5,0,0.9-0.4,0.9-0.9v-6.3
	c0-0.5-0.4-0.9-0.9-0.9c-0.5,0-0.9,0.4-0.9,0.9V183.3z M852.5,182.4v-4.8c0-0.1,0-0.1,0.1-0.1h0.8c0.8,0,1.4,0.3,1.6,0.9
	c0.1,0.3,0.2,0.7,0.2,1.5s-0.1,1.3-0.2,1.5c-0.2,0.6-0.8,0.9-1.6,0.9L852.5,182.4C852.5,182.5,852.5,182.5,852.5,182.4 M850.7,183.3
	c0,0.5,0.3,0.7,0.7,0.7h1.9c1.7,0,2.8-0.5,3.2-1.9c0.2-0.5,0.3-1,0.3-2.2c0-1.2-0.1-1.7-0.3-2.2c-0.5-1.3-1.4-1.9-3.2-1.9h-1.9
	c-0.5,0-0.7,0.3-0.7,0.7V183.3z M910.1,146.8c-0.5-1.6-2.5-2.5-4.9-2.5c-1.1,0-2.3,0.2-3.4,0.6c-3.7,1.4-6.1,4.4-5.2,6.8
	c0.5,1.6,2.5,2.5,4.9,2.5c1.1,0,2.3-0.2,3.5-0.6C908.5,152.2,910.9,149.1,910.1,146.8 M911.2,152.1c-1.3,1.7-3.3,3.1-5.5,3.9
	c-1.4,0.5-2.9,0.8-4.3,0.8c-3,0-5.5-1.2-6.8-3.1l-7.1,2.5l15.8,5.8c0.7,0.3,1,1,0.8,1.7c-0.3,0.7-1,1-1.7,0.8l-18.8-6.9l-18.6,6.8
	c-0.7,0.3-1.4-0.1-1.7-0.8c-0.3-0.7,0.1-1.4,0.8-1.7l15.7-5.6l-8.8-3.2c-1.6,2.6-5,3.8-8.1,2.6l0,0l0,0l-10.4-3.8
	c-0.7-0.3-1-1-0.8-1.7c0.3-0.7,1-1,1.7-0.8l10.4,3.8l0,0l0,0c2.2,0.8,4.4-0.3,5.2-2.3c0.7-2.1-0.4-4.3-2.5-5.1l0,0l0,0l-10.4-3.8
	c-0.7-0.3-1-1-0.8-1.7c0.3-0.7,1-1,1.7-0.8l10.4,3.8l0,0l0,0c3.1,1.1,4.9,4.2,4.4,7.2l11.7,4.3l10-3.6c-0.2-1.6,0.4-3.4,1.5-5
	c1.3-1.7,3.3-3.1,5.5-3.9c1.4-0.5,2.9-0.8,4.3-0.8c3.6,0,6.4,1.6,7.3,4.3C913.2,147.9,912.8,150.1,911.2,152.1 M853.6,145.4
	c0.3-0.7,1-1,1.7-0.8l10.4,3.8c0.7,0.3,1,1,0.8,1.7c-0.3,0.7-1,1-1.7,0.8l-10.4-3.8C853.7,146.9,853.3,146.1,853.6,145.4"/>
<path class="st0" d="M853.7,338.9c-0.8,0-1.3,0.5-1.3,1.3c0,0.6,0.6,1.1,1.1,1.1c0.4,0,1.2,0,1.9-1.4
	C854.8,339.3,854.2,338.9,853.7,338.9 M858.2,339.2c1.3,1.1,2.5,2.2,4.2,2.2c2.9,0,4.3-2.4,4.3-4.2c0-1.1-0.4-3.7-3.6-3.7
	c-0.6,0-1.2-0.5-1.2-1.2s0.5-1.2,1.2-1.2c2,0,3.3-1,3.3-2.6c0-0.9-0.6-2.1-2.4-2.8c-2.4,1.1-2.8,2.3-3.3,4c0,0-1.6,6-2.3,8.5
	C858.4,338.5,858.3,338.8,858.2,339.2 M862.4,343.6c-2.2,0-3.9-1.1-5.2-2.3c-0.9,1.4-2.2,2.2-3.7,2.2c-1.6,0-3.4-1.4-3.4-3.4
	s1.5-3.5,3.6-3.5c1,0,1.8,0.4,2.5,1c0.6-2.4,2.3-8.4,2.3-8.4c0.4-1.4,0.9-2.8,2.2-4.1c-0.1,0-0.2,0-0.2,0c-6.5,0-6.7,3.8-6.7,4.3
	c0,0.9,0.5,1.8,1.3,2.1c0.6,0.3,0.8,0.9,0.6,1.5c-0.3,0.6-0.9,0.9-1.5,0.6c-1.5-0.7-2.6-2.4-2.6-4.3c0-2.4,1.9-6.6,9-6.6
	c5.6,0,8.2,3,8.2,5.8c0,1.5-0.6,2.9-1.8,3.7c1.5,1.2,2.2,3.2,2.2,4.9C869.1,340.2,866.5,343.6,862.4,343.6 M902.4,336.8
	c-0.2,0-0.5,0-0.6,0.1l0.5-1.6c0.5-1.7,1.3-1.9,2-1.9c0.3,0,0.5,0.1,0.7,0.4c0.3,0.3,0.4,0.7,0.3,1.2
	C905.1,336,904.3,337,902.4,336.8 M875.6,333.3c0.5,0,0.7,0.4,0.7,0.7c0,0.3-0.2,1.1-0.9,1.6c-0.6,0.5-1.4,0.6-2.4,0.4
	C873.4,334.6,874.2,333.3,875.6,333.3 M888.2,340.5c-0.4,0-0.6-0.1-0.8-0.4c-0.3-0.4-0.3-0.8-0.1-1.4c0.1-0.2,0.1-0.3,0.1-0.5
	c0.8-2.8,1.5-5.5,1.5-5.5c0.2-0.6-0.2-1.3-0.8-1.4c-0.6-0.2-1.3,0.2-1.4,0.8c0,0-0.7,2.7-1.5,5.4c-0.8,2.9-1.8,2.9-2.4,2.9
	c-0.2,0-0.5-0.1-0.7-0.4c-0.3-0.4-0.3-0.8-0.1-1.4c0.4-1.1,1.7-6,1.7-6c0.2-0.6-0.2-1.3-0.8-1.4c-0.6-0.2-1.3,0.2-1.4,0.8
	c0,0-1.3,4.4-1.6,5.8c-1.1,1.4-3.3,2.6-4.8,2.6c-1.1,0-2.3-0.3-2.4-2.3c2.1,0.4,3.3-0.2,4.2-0.8c1.3-1,1.8-2.4,1.8-3.4
	c0-1.7-1.3-3.1-3.1-3.1c-3.6,0-5.3,4.3-5.3,7.1c0,3,1.7,4.8,4.7,4.8c1.5,0,3.4-0.7,4.9-1.8c0.1,0.2,0.2,0.4,0.4,0.5
	c0.6,0.8,1.5,1.3,2.6,1.3c1.3,0,2.2-0.5,2.8-1.2c0.6,0.7,1.5,1.2,2.5,1.2l0,0l0,0c3.2,0,4-3.1,4.3-4.3l1.3-4.8
	c0.4,0.3,0.7,0.5,1.2,0.5c0.2,0,0.5,0.2,0.5,0.3c0.1,0.2,0.1,0.5-0.1,0.9l-0.3,0.9c-0.3,0.9-0.5,1.9-0.8,2.7
	c-0.3,0.9-0.1,1.8,0.5,2.5s1.4,1.2,2.3,1.2c0.4,0,0.8-0.2,1.2-0.4c0.2,0.3,0.4,0.5,0.7,0.6c0.1,0,0.2,0,0.3,0c0.5,0,1-0.4,1.1-0.9
	l0.9-3.4c0.6,2.7,2.2,4.2,4.6,4.2c2.2,0,3.6-1.5,4.1-3.1c0.2-0.6-0.2-1.3-0.8-1.4c-0.6-0.2-1.3,0.2-1.4,0.8
	c-0.2,0.7-0.9,1.4-1.8,1.4c-0.8,0-1.6-0.2-2.2-1.5c2.3-0.4,3.5-2.2,3.8-3.9c0.2-1.2-0.2-2.2-0.9-3c-0.6-0.7-1.5-1.1-2.5-1.1
	c-0.3,0-0.5,0-0.8,0.1l1.1-4.1c0.2-0.6-0.2-1.3-0.8-1.4c-0.6-0.2-1.3,0.2-1.4,0.8l-2.3,8.2c0,0,0,0,0,0.1l0,0l-1.1,4
	c-0.4,0.8-1,1.6-1.7,1.6c-0.5,0-0.6-0.4-0.5-0.8c0.2-0.8,0.5-1.8,0.7-2.6l0.3-0.9c0.3-1.1,0.3-2-0.2-2.7c-0.4-0.7-1-1.2-1.9-1.4
	c-0.3-0.1-0.7-0.2-1.4-1.3c-0.3-0.4-0.7-0.6-1.2-0.5c-0.5,0.1-0.8,0.4-1,0.8l-1.8,7C889.7,339.9,889.1,340.5,888.2,340.5
	 M913.9,337.8c-0.1,0-0.2,0-0.3,0c-0.6-0.2-1-0.8-0.8-1.4l2.6-9.6c0.2-0.6,0.8-1,1.4-0.8c0.6,0.2,1,0.8,0.8,1.4L915,337
	C914.8,337.4,914.4,337.8,913.9,337.8 M914.1,341c0,0.8-0.6,1.4-1.4,1.4s-1.4-0.6-1.4-1.4c0-0.8,0.6-1.4,1.4-1.4
	S914.1,340.2,914.1,341 M884,358.9c-6.4,0-12.7-2.6-17.3-7.1c-0.5-0.5-0.5-1.4,0-1.9c0.5-0.5,1.4-0.5,1.9,0
	c4.1,4.1,9.7,6.3,15.4,6.3c5.8,0,11.1-2.3,15.3-6.2c0.5-0.5,1.4-0.5,1.9,0c0.5,0.5,0.5,1.4,0,1.9C896.6,356.4,890.5,358.9,884,358.9
	 M901.9,321.3c-0.4,0-0.7-0.2-1-0.5c-4.2-5.2-10.3-8.1-16.9-8.1c-5.3,0-10.5,2-14.5,5.5c-0.5,0.5-1.4,0.5-1.9-0.1
	c-0.5-0.5-0.5-1.4,0.1-1.9c4.4-4,10.2-6.2,16.2-6.2c7.4,0,14.3,3.3,18.9,9c0.5,0.5,0.4,1.4-0.2,1.9
	C902.5,321.2,902.3,321.3,901.9,321.3 M892,364.9l-1.4,0.4l0.2-2.2L892,364.9z M894.6,366.2c0-0.1-0.1-0.2-0.1-0.3l-2.9-4.5
	c-0.4-0.5-0.7-0.7-1.3-0.6c-0.5,0.1-0.8,0.5-0.8,1.2l-0.6,5.3c0,0.1,0,0.2,0,0.3c0.1,0.2,0.2,0.4,0.4,0.5c0.1,0.1,0.3,0.1,0.4,0.1
	s0.1,0,0.2,0c0.4-0.1,0.5-0.4,0.6-0.7l0.1-0.8l2.3-0.5l0.5,0.7c0.2,0.4,0.5,0.5,0.9,0.4c0.2-0.1,0.4-0.2,0.5-0.4
	C894.7,366.7,894.7,366.5,894.6,366.2 M885,363.9c0,0.3-0.1,0.5-0.3,0.5c-0.2,0.1-0.4,0.2-0.6,0.2h-1.2V363h1.2
	c0.3,0,0.5,0.1,0.6,0.2C884.9,363.4,885,363.6,885,363.9 M886.6,363.9c0-0.6-0.2-1.2-0.6-1.5s-1-0.6-1.7-0.6h-2.2
	c-0.5,0-0.7,0.3-0.7,0.7l-0.1,5.4c0,0.3,0.1,0.5,0.2,0.6c0.2,0.2,0.4,0.3,0.5,0.3c0.2,0,0.5-0.1,0.5-0.3c0.2-0.2,0.3-0.4,0.3-0.6
	V366h0.9l1.1,2.2l0,0c0.2,0.4,0.5,0.5,0.8,0.5l0,0c0.2,0,0.5-0.1,0.5-0.2c0.1-0.2,0.2-0.4,0.2-0.5c0-0.2,0-0.3-0.1-0.5l-0.9-1.7
	C886.2,365.3,886.6,364.7,886.6,363.9 M879.2,361.2l-3.2-0.8c-0.5-0.1-0.7,0.1-0.9,0.5l-1.3,5.2c-0.1,0.5,0.1,0.9,0.5,1
	c0.1,0,0.2,0,0.2,0c0.4,0,0.6-0.3,0.8-0.6l0.5-1.9l1.8,0.5c0.5,0.1,0.8-0.1,0.9-0.5c0.1-0.2,0-0.4-0.1-0.5c-0.1-0.2-0.3-0.3-0.5-0.4
	l-1.8-0.5l0.4-1.4l2.4,0.5c0.2,0.1,0.5,0,0.5-0.1c0.2-0.1,0.3-0.3,0.4-0.5c0.1-0.2,0-0.4-0.1-0.5
	C879.6,361.4,879.4,361.3,879.2,361.2 M883.9,295c21.9,0,39.5,17.7,39.5,39.5c0,21.9-17.7,39.5-39.5,39.5
	c-21.9,0-39.5-17.7-39.5-39.5C844.3,312.7,862,295,883.9,295 M883.9,297.6c-20.4,0-36.9,16.6-36.9,36.9c0,20.4,16.6,36.9,36.9,36.9
	s36.9-16.6,36.9-36.9C920.8,314.2,904.3,297.6,883.9,297.6 M890.5,307.5c0.4,0.1,0.6,0,0.9-0.5l1.4-1.9l-0.7,2.9
	c-0.1,0.3,0,0.5,0.1,0.6s0.3,0.3,0.5,0.4c0.1,0,0.2,0,0.2,0c0.4,0,0.6-0.2,0.7-0.6l1.3-5.2c0.1-0.3,0-0.5-0.1-0.7s-0.3-0.4-0.5-0.4
	c-0.5-0.1-0.8,0.1-1.1,0.5l-2.1,2.7l-0.6-3.3c-0.1-0.5-0.3-0.9-0.7-1c-0.3-0.1-0.5,0-0.7,0.1c-0.2,0.1-0.4,0.4-0.4,0.6l-1.3,5.2
	c-0.1,0.3,0,0.5,0.1,0.6s0.3,0.3,0.5,0.4c0.5,0.1,0.8-0.1,0.9-0.6l0.7-2.9l0.5,2.4C890,307.2,890.1,307.4,890.5,307.5 M882.2,307.7
	L882.2,307.7c0.5,0,0.8-0.4,0.8-0.9v-1.9h1.9c0.3,0,0.5-0.1,0.5-0.2c0.1-0.1,0.2-0.3,0.2-0.5c0-0.2-0.1-0.4-0.2-0.5
	c-0.2-0.1-0.4-0.2-0.5-0.2H883v-1.4h2.4c0.5,0,0.7-0.3,0.7-0.7s-0.3-0.7-0.7-0.7l0,0l-3.3,0.1c-0.5,0-0.7,0.3-0.7,0.7l0.1,5.4
	C881.4,307.3,881.7,307.7,882.2,307.7 M875.4,307.5L875.4,307.5L875.4,307.5L875.4,307.5L875.4,307.5z M876.8,305
	c-0.2-0.5-0.4-1-0.5-1.2c-0.3-0.5-0.7-0.5-1.4-0.4l-0.6,0.2l1.1,3.9l0.6-0.2c0.6-0.2,1-0.5,1-1C877,306,876.9,305.5,876.8,305
	 M878.4,304.5c0.3,1,0.4,1.4,0.3,1.8c-0.1,1.2-0.7,1.9-2.3,2.3l-1.5,0.5c-0.1,0-0.2,0-0.3,0c-0.3,0-0.5-0.2-0.6-0.5l-1.4-5.2
	c-0.1-0.5,0.1-0.8,0.5-0.9l1.5-0.5c1.4-0.5,2.4-0.2,3.1,0.8C877.9,303.1,878.1,303.5,878.4,304.5 M916.6,428.5
	c0,0.5,0.4,0.8,0.8,0.8c0.5,0,0.8-0.3,0.8-0.8v-3.9h0.1l1.3,2.9c0.3,0.5,0.5,0.7,0.8,0.7c0.4,0,0.6-0.2,0.8-0.7l1.3-2.9h0.1v3.9
	c0,0.5,0.4,0.8,0.8,0.8c0.5,0,0.8-0.3,0.8-0.8v-6.3c0-0.6-0.4-1.1-0.9-1.1c-0.5,0-0.8,0.3-1.1,0.9l-1.7,3.9h-0.1l-1.7-3.9
	c-0.3-0.6-0.5-0.9-1.1-0.9s-1,0.4-1,1.1L916.6,428.5L916.6,428.5z M911.7,429.4c1.8,0,3.1-1.1,3.1-3.1V422c0-0.5-0.4-0.9-0.9-0.9
	c-0.5,0-0.9,0.4-0.9,0.9v4.3c0,1-0.5,1.5-1.4,1.5c-0.7,0-1.4-0.5-1.4-1.5V422c0-0.5-0.4-0.9-0.9-0.9c-0.5,0-0.9,0.4-0.9,0.9v4.3
	C908.6,428.3,909.8,429.4,911.7,429.4 M901.5,428.5c0,0.5,0.3,0.7,0.7,0.7h3.9c0.5,0,0.8-0.4,0.8-0.7c0-0.5-0.4-0.7-0.8-0.7h-2.8
	c-0.1,0-0.1,0-0.1-0.1V426c0-0.1,0-0.1,0.1-0.1h2.3c0.5,0,0.8-0.3,0.8-0.7s-0.3-0.7-0.8-0.7h-2.3c-0.1,0-0.1,0-0.1-0.1v-1.6
	c0-0.1,0-0.1,0.1-0.1h2.8c0.5,0,0.8-0.4,0.8-0.7c0-0.5-0.4-0.7-0.8-0.7h-3.9c-0.5,0-0.7,0.3-0.7,0.7V428.5z M896.8,429.4
	c2.1,0,3.2-1.1,3.2-2.5s-0.9-2.2-2.5-2.4l-0.5-0.1c-0.9-0.1-1.3-0.5-1.3-0.9c0-0.5,0.4-0.9,1.1-0.9c0.5,0,1,0.2,1.4,0.4
	c0.2,0.1,0.4,0.1,0.5,0.1c0.5,0,0.7-0.4,0.7-0.7c0-0.3-0.1-0.5-0.5-0.7c-0.5-0.3-1.4-0.5-2.3-0.5c-1.7,0-2.8,1-2.8,2.4
	c0,1.4,0.9,2.2,2.5,2.4l0.5,0.1c1,0.1,1.3,0.5,1.3,0.9c0,0.5-0.5,0.9-1.4,0.9c-0.6,0-1.1-0.2-1.7-0.5c-0.2-0.1-0.4-0.2-0.5-0.2
	c-0.5,0-0.8,0.4-0.8,0.7c0,0.3,0.2,0.5,0.5,0.7C894.8,429,895.8,429.4,896.8,429.4 M889.2,429.4c1.8,0,3.1-1.1,3.1-3.1V422
	c0-0.5-0.4-0.9-0.9-0.9c-0.5,0-0.9,0.4-0.9,0.9v4.3c0,1-0.5,1.5-1.4,1.5c-0.7,0-1.4-0.5-1.4-1.5V422c0-0.5-0.4-0.9-0.9-0.9
	c-0.5,0-0.9,0.4-0.9,0.9v4.3C886.2,428.3,887.4,429.4,889.2,429.4 M876.6,428.5c0,0.5,0.4,0.8,0.8,0.8c0.5,0,0.8-0.3,0.8-0.8v-3.9
	h0.1l1.3,2.9c0.3,0.5,0.5,0.7,0.8,0.7c0.4,0,0.6-0.2,0.8-0.7l1.3-2.9h0.1v3.9c0,0.5,0.4,0.8,0.8,0.8c0.5,0,0.8-0.3,0.8-0.8v-6.3
	c0-0.6-0.4-1.1-0.9-1.1c-0.5,0-0.8,0.3-1.1,0.9l-1.7,3.9h-0.1l-1.7-3.9c-0.3-0.6-0.5-0.9-1.1-0.9s-1,0.4-1,1.1L876.6,428.5
	L876.6,428.5z M867.9,427.7v-4.8c0-0.1,0-0.1,0.1-0.1h0.8c0.8,0,1.4,0.3,1.6,0.9c0.1,0.3,0.2,0.7,0.2,1.5s-0.1,1.3-0.2,1.5
	c-0.2,0.6-0.8,0.9-1.6,0.9L867.9,427.7C867.9,427.7,867.9,427.7,867.9,427.7 M866.2,428.6c0,0.5,0.3,0.7,0.7,0.7h1.9
	c1.7,0,2.8-0.5,3.2-1.9c0.2-0.5,0.3-1,0.3-2.2c0-1.2-0.1-1.7-0.3-2.2c-0.5-1.4-1.4-1.9-3.2-1.9h-1.9c-0.5,0-0.7,0.3-0.7,0.7V428.6z
	 M861.3,427.8c-0.6,0-1.1-0.4-1.3-0.9c-0.1-0.3-0.1-0.7-0.1-1.7s0-1.4,0.1-1.7c0.2-0.5,0.6-0.9,1.3-0.9c0.6,0,1.1,0.4,1.3,0.9
	c0.1,0.3,0.1,0.7,0.1,1.7s0,1.4-0.1,1.7C862.4,427.6,862,427.8,861.3,427.8 M861.3,429.4c1.4,0,2.5-0.6,2.9-2c0.2-0.5,0.2-1,0.2-2.2
	s-0.1-1.6-0.2-2.2c-0.5-1.3-1.5-2-2.9-2c-1.4,0-2.5,0.6-2.9,2c-0.2,0.5-0.2,1-0.2,2.2s0.1,1.6,0.2,2.2
	C858.8,428.7,859.9,429.4,861.3,429.4 M853.6,427.8c-0.6,0-1.1-0.4-1.3-0.9c-0.1-0.3-0.1-0.7-0.1-1.7s0-1.4,0.1-1.7
	c0.2-0.5,0.6-0.9,1.3-0.9c0.6,0,1.1,0.4,1.3,0.9c0.1,0.3,0.1,0.7,0.1,1.7s0,1.4-0.1,1.7C854.7,427.6,854.2,427.8,853.6,427.8
	 M853.6,429.4c1.4,0,2.5-0.6,2.9-2c0.2-0.5,0.2-1,0.2-2.2s-0.1-1.6-0.2-2.2c-0.5-1.3-1.5-2-2.9-2s-2.5,0.6-2.9,2
	c-0.2,0.5-0.2,1-0.2,2.2s0.1,1.6,0.2,2.2C851.1,428.7,852.1,429.4,853.6,429.4 M844.2,428.4c0,0.5,0.4,0.9,0.9,0.9
	c0.5,0,0.9-0.4,0.9-0.9v-2.3c0-0.1,0-0.1,0.1-0.1h2.3c0.5,0,0.8-0.3,0.8-0.7s-0.3-0.7-0.8-0.7h-2.3c-0.1,0-0.1,0-0.1-0.1v-1.7
	c0-0.1,0-0.1,0.1-0.1h2.8c0.5,0,0.8-0.4,0.8-0.7c0-0.5-0.4-0.7-0.8-0.7H845c-0.5,0-0.7,0.3-0.7,0.7L844.2,428.4L844.2,428.4z
	 M911.6,415.6c0.5,1.3,1.5,2,3,2c1.4,0,2.5-0.7,2.9-2c0.2-0.5,0.2-1.1,0.2-1.8v-0.1c0-0.5-0.3-0.7-0.7-0.7h-1.6
	c-0.5,0-0.7,0.3-0.7,0.7s0.3,0.7,0.7,0.7h0.5c0.1,0,0.1,0,0.1,0.1c0,0.3,0,0.5-0.1,0.8c-0.2,0.5-0.6,0.8-1.3,0.8
	c-0.7,0-1.2-0.4-1.3-0.9c-0.1-0.3-0.1-0.7-0.1-1.7s0-1.4,0.1-1.7c0.2-0.5,0.6-0.9,1.3-0.9c0.5,0,0.9,0.2,1.2,0.6
	c0.3,0.4,0.5,0.5,0.7,0.5c0.5,0,0.8-0.4,0.8-0.8c0-0.2-0.1-0.4-0.2-0.5c-0.5-0.7-1.4-1.3-2.6-1.3c-1.4,0-2.5,0.6-3,2
	c-0.2,0.5-0.2,1-0.2,2.2S911.4,415.1,911.6,415.6 M903.5,416.7c0,0.5,0.4,0.8,0.8,0.8c0.5,0,0.8-0.3,0.8-0.8v-4.3h0.1l2.4,4.3
	c0.4,0.5,0.6,0.8,1.2,0.8c0.6,0,1-0.4,1-1v-6.3c0-0.5-0.4-0.8-0.8-0.8s-0.8,0.3-0.8,0.8v4.4h-0.1l-2.4-4.3c-0.4-0.5-0.6-0.8-1.2-0.8
	c-0.6,0-1,0.4-1,1V416.7z M899.6,416.6c0,0.5,0.4,0.9,0.9,0.9c0.5,0,0.9-0.4,0.9-0.9v-6.3c0-0.5-0.4-0.9-0.9-0.9
	c-0.5,0-0.9,0.4-0.9,0.9V416.6z M895.4,417.5c0.5,0,0.9-0.4,0.9-0.9V411c0-0.1,0-0.1,0.1-0.1h1.4c0.5,0,0.9-0.4,0.9-0.7
	c0-0.5-0.4-0.8-0.9-0.8h-4.6c-0.5,0-0.9,0.4-0.9,0.8c0,0.5,0.4,0.7,0.9,0.7h1.4c0.1,0,0.1,0,0.1,0.1v5.6
	C894.6,417.2,894.9,417.5,895.4,417.5 M888.2,417.6c2.1,0,3.2-1.1,3.2-2.5c0-1.4-0.9-2.2-2.5-2.4l-0.5-0.1c-0.9-0.1-1.3-0.5-1.3-0.9
	c0-0.5,0.4-0.9,1.1-0.9c0.5,0,1,0.2,1.4,0.4c0.2,0.1,0.4,0.1,0.5,0.1c0.5,0,0.7-0.4,0.7-0.7c0-0.3-0.1-0.5-0.5-0.7
	c-0.5-0.3-1.4-0.5-2.3-0.5c-1.7,0-2.8,1-2.8,2.4c0,1.4,0.9,2.2,2.5,2.4l0.5,0.1c1,0.1,1.3,0.5,1.3,0.9c0,0.5-0.5,0.9-1.4,0.9
	c-0.6,0-1.1-0.2-1.7-0.5c-0.2-0.1-0.4-0.2-0.5-0.2c-0.5,0-0.8,0.4-0.8,0.7c0,0.3,0.2,0.5,0.5,0.7
	C886.2,417.2,887.1,417.6,888.2,417.6 M880.6,417.6c1.8,0,3.1-1.1,3.1-3.1v-4.3c0-0.5-0.4-0.9-0.9-0.9c-0.5,0-0.9,0.4-0.9,0.9v4.3
	c0,1-0.5,1.5-1.4,1.5c-0.7,0-1.4-0.5-1.4-1.5v-4.3c0-0.5-0.4-0.9-0.9-0.9c-0.5,0-0.9,0.4-0.9,0.9v4.3
	C877.5,416.5,878.7,417.6,880.6,417.6 M869.8,415.6c0.5,1.3,1.5,2,3,2c1.4,0,2.5-0.7,2.9-2c0.2-0.5,0.2-1.1,0.2-1.8v-0.1
	c0-0.5-0.3-0.7-0.7-0.7h-1.6c-0.5,0-0.7,0.3-0.7,0.7s0.3,0.7,0.7,0.7h0.5c0.1,0,0.1,0,0.1,0.1c0,0.3,0,0.5-0.1,0.8
	c-0.2,0.5-0.6,0.8-1.3,0.8c-0.7,0-1.2-0.4-1.4-0.9c-0.1-0.3-0.1-0.7-0.1-1.7s0-1.4,0.1-1.7c0.2-0.5,0.6-0.9,1.3-0.9
	c0.5,0,0.9,0.2,1.2,0.6c0.3,0.4,0.5,0.5,0.7,0.5c0.5,0,0.8-0.4,0.8-0.8c0-0.2-0.1-0.4-0.2-0.5c-0.5-0.7-1.4-1.3-2.6-1.3
	c-1.4,0-2.5,0.6-3,2c-0.2,0.5-0.2,1-0.2,2.2S869.6,415.1,869.8,415.6 M865.1,417.6c2.1,0,3.2-1.1,3.2-2.5c0-1.4-0.9-2.2-2.5-2.4
	l-0.5-0.1c-0.9-0.1-1.3-0.5-1.3-0.9c0-0.5,0.4-0.9,1.1-0.9c0.5,0,1,0.2,1.4,0.4c0.2,0.1,0.4,0.1,0.5,0.1c0.5,0,0.7-0.4,0.7-0.7
	c0-0.3-0.1-0.5-0.5-0.7c-0.5-0.3-1.4-0.5-2.3-0.5c-1.7,0-2.8,1-2.8,2.4c0,1.4,0.9,2.2,2.5,2.4l0.5,0.1c1,0.1,1.3,0.5,1.3,0.9
	c0,0.5-0.5,0.9-1.4,0.9c-0.6,0-1.1-0.2-1.7-0.5c-0.2-0.1-0.4-0.2-0.5-0.2c-0.5,0-0.8,0.4-0.8,0.7c0,0.3,0.2,0.5,0.5,0.7
	C863.1,417.2,863.9,417.6,865.1,417.6 M858.7,416.6c0,0.5,0.4,0.9,0.9,0.9c0.5,0,0.9-0.4,0.9-0.9v-6.3c0-0.5-0.4-0.9-0.9-0.9
	c-0.5,0-0.9,0.4-0.9,0.9V416.6z M852.5,415.8V411c0-0.1,0-0.1,0.1-0.1h0.8c0.8,0,1.4,0.3,1.6,0.9c0.1,0.3,0.2,0.7,0.2,1.5
	c0,0.8-0.1,1.3-0.2,1.5c-0.2,0.6-0.8,0.9-1.6,0.9L852.5,415.8C852.5,415.9,852.5,415.9,852.5,415.8 M850.7,416.7
	c0,0.5,0.3,0.7,0.7,0.7h1.9c1.7,0,2.8-0.5,3.2-1.9c0.2-0.5,0.3-1,0.3-2.2c0-1.2-0.1-1.7-0.3-2.2c-0.5-1.3-1.4-1.9-3.2-1.9h-1.9
	c-0.5,0-0.7,0.3-0.7,0.7V416.7z M910.1,380.1c-0.5-1.6-2.5-2.5-4.9-2.5c-1.1,0-2.3,0.2-3.4,0.6c-3.7,1.4-6.1,4.4-5.2,6.8
	c0.5,1.6,2.5,2.5,4.9,2.5c1.1,0,2.3-0.2,3.5-0.6C908.5,385.7,910.9,382.5,910.1,380.1 M911.2,385.6c-1.3,1.7-3.3,3.1-5.5,3.9
	c-1.4,0.5-2.9,0.8-4.3,0.8c-3,0-5.5-1.2-6.8-3.1l-7.1,2.5l15.8,5.8c0.7,0.3,1,1,0.8,1.7c-0.3,0.7-1,1-1.7,0.8l-18.8-6.9L865,398
	c-0.7,0.3-1.4-0.1-1.7-0.8c-0.3-0.7,0.1-1.4,0.8-1.7l15.7-5.7l-8.8-3.2c-1.6,2.6-5,3.8-8.1,2.7l0,0l0,0l-10.4-3.8
	c-0.7-0.3-1-1-0.8-1.7c0.3-0.7,1-1,1.7-0.8l10.4,3.8l0,0l0,0c2.2,0.8,4.4-0.3,5.2-2.3c0.7-2.1-0.4-4.3-2.5-5.1l0,0l0,0l-10.4-3.8
	c-0.7-0.3-1-1-0.8-1.7c0.3-0.7,1-1,1.7-0.8l10.4,3.8l0,0l0,0c3.1,1.1,4.9,4.2,4.4,7.2l11.7,4.3l10-3.6c-0.2-1.6,0.4-3.4,1.5-5
	c1.3-1.7,3.3-3.1,5.5-3.9c1.4-0.5,2.9-0.8,4.3-0.8c3.6,0,6.4,1.6,7.3,4.3C913.2,381.2,912.8,383.5,911.2,385.6 M853.6,378.8
	c0.3-0.7,1-1,1.7-0.8l10.4,3.8c0.7,0.3,1,1,0.8,1.7c-0.3,0.7-1,1-1.7,0.8l-10.4-3.8C853.7,380.2,853.3,379.5,853.6,378.8"/>
<path class="st0" d="M402.6,67.5l-0.5-2.4l-0.7,2.9c-0.1,0.5-0.5,0.7-0.9,0.6c-0.2-0.1-0.4-0.2-0.5-0.4S400,68,400,67.7l1.3-5.2
	c0.1-0.3,0.2-0.5,0.4-0.6c0.2-0.1,0.5-0.2,0.7-0.1c0.5,0.1,0.6,0.5,0.7,1l0.6,3.3l2.1-2.7c0.3-0.5,0.6-0.6,1.1-0.5
	c0.3,0.1,0.5,0.2,0.5,0.4s0.1,0.5,0.1,0.7l-1.3,5.2c-0.1,0.4-0.4,0.6-0.7,0.6c-0.1,0-0.1,0-0.2,0c-0.2-0.1-0.4-0.2-0.5-0.4
	c-0.1-0.2-0.1-0.4-0.1-0.6l0.7-2.9l-1.4,1.9c-0.4,0.5-0.5,0.5-0.9,0.5C402.9,68.3,402.7,68.1,402.6,67.5 M394.2,67.7l-0.1-5.4
	c0-0.5,0.3-0.7,0.7-0.7l3.3-0.1l0,0c0.5,0,0.7,0.3,0.7,0.7c0,0.5-0.3,0.7-0.7,0.7h-2.4v1.4h1.9c0.3,0,0.5,0.1,0.5,0.2
	s0.2,0.3,0.2,0.5c0,0.2-0.1,0.4-0.2,0.5c-0.1,0.1-0.4,0.2-0.5,0.2h-1.9v1.9c0,0.5-0.4,0.9-0.8,0.9l0,0
	C394.5,68.6,394.2,68.3,394.2,67.7 M388.1,68.3L388.1,68.3L388.1,68.3L388.1,68.3L388.1,68.3z M389.8,67.2c0,0.5-0.4,0.8-1,1
	l-0.6,0.2l-1.1-3.9l0.6-0.2c0.6-0.2,1.2-0.1,1.4,0.4c0.2,0.2,0.3,0.6,0.5,1.2C389.8,66.4,389.9,66.9,389.8,67.2 M390.5,63.7
	c-0.6-1-1.6-1.3-3.1-0.8l-1.5,0.5c-0.5,0.1-0.6,0.5-0.5,0.9l1.4,5.2c0.1,0.4,0.4,0.5,0.6,0.5c0.1,0,0.2,0,0.3,0l1.5-0.5
	c1.4-0.5,2.2-1.2,2.3-2.3c0-0.4,0-0.8-0.3-1.8C390.9,64.5,390.7,64,390.5,63.7 M422.1,88.5c0,0.9-0.7,1.6-1.6,1.6s-1.6-0.7-1.6-1.6
	c0-0.9,0.7-1.6,1.6-1.6C421.3,86.9,422.1,87.6,422.1,88.5 M409.9,96.4c0-1.2-0.4-1.9-1.1-1.9c-1.6,0-3,3.5-3,5.7
	c0,1.2,0.4,1.9,1.1,1.9C408.5,102.1,409.9,98.7,409.9,96.4 M391.4,90.5c0-2.1-1.3-4.3-4.1-5.1c-1.2,1.9-1.7,4.5-2.4,9l-0.2,0.8
	C387.7,95,391.4,94,391.4,90.5 M420.4,93.6l-2.4,8.9c-3.5,12.8-13.7,17.4-21.2,17.4c-6.1,0-11.9-2.3-16.5-6.4
	c-0.5-0.5-0.5-1.4-0.1-1.9c0.5-0.5,1.4-0.5,1.9-0.1c4,3.7,9.2,5.7,14.7,5.7c9.3,0,15.1-6.4,17.7-12.8c-0.5,0.2-1.2,0.4-1.8,0.4
	c-1.1,0-2.2-0.5-2.8-1.4c-0.8,0.8-1.8,1.4-3,1.4c-0.9,0-2.1-0.4-2.9-1.5c-1.1,1-2.2,1.5-3.4,1.5c-1.1,0-2.1-0.5-2.8-1.3
	c-0.7,0.7-1.7,1.3-3.1,1.3c-1.2,0-2.2-0.5-2.9-1.4c-0.8-1-1-2.4-0.5-3.9c0.2-0.7,0.9-3.2,1.4-4.8c-1.3,1.6-3.8,3.2-8.5,3.3
	c-1.6,6.4-4.9,7.5-6.8,7.5c-2.4,0-4.8-1.6-4.8-4.7s2.4-4.2,3.6-4.2c0.7,0,1.4,0.6,1.4,1.4c0,0.7-0.5,1.3-1.3,1.4c-0.1,0-1,0.2-1,1.5
	c0,2,2,2.1,2.2,2.1c2.2,0,3.8-2.5,4.6-7.1l0.3-1.7c0.7-4.1,1.2-6.7,2.3-8.8c-6.9,0.1-7.1,4.2-7.1,4.6c0,1,0.5,1.9,1.4,2.3
	c0.6,0.3,1,1.1,0.6,1.7c-0.3,0.6-1.1,1-1.7,0.6c-1.7-0.8-2.9-2.6-2.9-4.7c0-2.7,2.1-7.3,10-7.3c6.1,0,9.3,4.1,9.3,8
	c0,0.5-0.1,1-0.2,1.6c0.3-0.1,0.5-0.2,0.9-0.1c0.7,0.2,1.2,0.9,1,1.6c0,0-1.4,5.3-1.8,6.5c-0.2,0.6-0.2,1.3,0.1,1.6
	c0.2,0.3,0.5,0.4,0.7,0.4c0.5,0,1.6,0,2.5-3.2c0.9-3.1,1.6-6,1.6-6c0.2-0.7,0.9-1.2,1.6-0.9c0.7,0.2,1.1,0.9,0.9,1.6
	c0,0-0.8,3-1.7,6.1c0,0.2-0.1,0.3-0.2,0.5c-0.2,0.6-0.2,1.2,0.1,1.5c0.2,0.3,0.5,0.4,0.8,0.4c0.9,0,1.7-0.5,2.6-1.4
	c0-0.2,0-0.4,0-0.5c0-2.8,1.7-8.3,5.6-8.3c0.7,0,1.6,0.3,2.4,0.9c0.3-0.6,0.9-0.9,1.5-0.7c0.7,0.2,1.2,0.9,1,1.6
	c0,0-1.4,5.3-1.8,6.5c-0.2,0.6-0.2,1.3,0.1,1.6c0.2,0.3,0.5,0.4,0.7,0.4c1.9,0,3.3-2.4,3.9-4.6l0,0L418,93c0.2-0.7,0.9-1.1,1.6-0.9
	C420.3,92.1,420.6,92.9,420.4,93.6 M370.7,97.8l-2.8,10.6c-0.2,0.5-0.7,1-1.3,1c-0.1,0-0.3,0-0.4-0.1c-0.7-0.2-1.1-0.9-0.9-1.6
	l2.9-10.6c0.2-0.7,0.9-1.1,1.6-0.9C370.5,96.5,370.9,97.2,370.7,97.8 M372.4,92.7c0,0.9-0.7,1.6-1.6,1.6c-0.9,0-1.6-0.7-1.6-1.6
	s0.7-1.6,1.6-1.6C371.7,91.1,372.4,91.8,372.4,92.7 M429.1,87.6l-2.9,10.6c-0.2,0.5-0.7,1-1.3,1c-0.1,0-0.3,0-0.4-0.1
	c-0.7-0.2-1.1-0.9-0.9-1.6l2.9-10.6c0.2-0.7,0.9-1.1,1.6-0.9C428.9,86.3,429.3,87,429.1,87.6 M425.3,102.7c0,0.9-0.7,1.6-1.6,1.6
	s-1.6-0.7-1.6-1.6s0.7-1.6,1.6-1.6C424.6,101.1,425.3,101.8,425.3,102.7 M382.7,77.1c-0.5-0.6-0.3-1.4,0.4-1.8
	c4.1-2.8,8.9-4.3,13.8-4.3c7.4,0,14.3,3.3,18.9,9c0.5,0.5,0.4,1.4-0.2,1.9c-0.3,0.2-0.5,0.3-0.8,0.3c-0.4,0-0.7-0.2-1-0.5
	c-4.2-5.2-10.3-8.1-16.9-8.1c-4.4,0-8.6,1.3-12.3,3.8C384,77.8,383.2,77.7,382.7,77.1 M396.7,55.9c21.9,0,39.5,17.7,39.5,39.5
	s-17.7,39.5-39.5,39.5c-21.8,0-39.5-17.7-39.5-39.5S374.8,55.9,396.7,55.9 M396.7,58.5c-20.4,0-36.9,16.6-36.9,36.9
	s16.6,36.9,36.9,36.9s36.9-16.6,36.9-36.9S417.1,58.5,396.7,58.5 M404.8,123.7c-0.1-0.5-0.5-0.7-1.1-0.6l-1.1,0.3l0.4,1.6l1.1-0.3
	c0.3-0.1,0.5-0.2,0.6-0.4C404.8,124.2,404.9,124,404.8,123.7 M406.1,125.1c-0.4,0.5-0.9,0.8-1.6,1l-1.2,0.3l0.4,1.5
	c0.1,0.5-0.1,0.9-0.5,1c-0.1,0-0.2,0-0.2,0c-0.4,0-0.7-0.3-0.8-0.6l-1.3-5.2c-0.1-0.2,0-0.4,0.1-0.5s0.3-0.3,0.5-0.4l2-0.5
	c0.7-0.2,1.4-0.1,1.9,0.2c0.5,0.3,0.8,0.8,1,1.4C406.5,124,406.4,124.5,406.1,125.1 M397.1,125.3l-0.4-0.1c-0.9-0.1-1-0.5-1-0.7
	c0-0.4,0.3-0.6,0.8-0.6l0,0c0.4,0,0.8,0.1,1.1,0.3c0.2,0.1,0.3,0.1,0.5,0.1c0.2,0,0.4-0.1,0.5-0.2c0.2-0.1,0.2-0.3,0.2-0.5
	s-0.1-0.5-0.4-0.6c-0.5-0.3-1.2-0.5-1.9-0.5c0,0,0,0-0.1,0c-1.4,0-2.4,0.8-2.4,2.1c0,1.2,0.7,1.9,2.2,2.2l0.4,0.1
	c0.8,0.1,1,0.4,1,0.7c0,0.2-0.1,0.4-0.3,0.5c-0.2,0.1-0.5,0.2-0.8,0.2c-0.5,0-0.8-0.1-1.4-0.5c-0.1-0.1-0.3-0.1-0.5-0.2l0,0
	c-0.4,0-0.7,0.3-0.7,0.7c0,0.3,0.1,0.5,0.4,0.7l0,0c0.4,0.2,1.1,0.6,2.2,0.6h0.1c0.8,0,1.5-0.2,2-0.6c0.5-0.4,0.7-0.9,0.7-1.5
	C399.3,126.2,398.6,125.5,397.1,125.3 M392.6,123.1c-0.1,0.2-0.2,0.4-0.4,0.5c-0.2,0.1-0.4,0.1-0.5,0.1l-2.4-0.5l-0.3,1.3l1.8,0.5
	c0.5,0.1,0.6,0.5,0.5,0.9c-0.1,0.2-0.2,0.4-0.4,0.5c-0.2,0.1-0.4,0.1-0.5,0.1l-1.8-0.5l-0.4,1.4l2.4,0.5c0.5,0.1,0.6,0.5,0.5,0.9
	c-0.1,0.2-0.2,0.4-0.4,0.5c-0.1,0.1-0.3,0.1-0.4,0.1s-0.2,0-0.2,0l-3.2-0.8c-0.2-0.1-0.4-0.2-0.5-0.4c-0.1-0.2-0.1-0.4-0.1-0.5
	l1.3-5.3c0.1-0.2,0.2-0.4,0.3-0.5c0.2-0.1,0.4-0.1,0.5-0.1l3.2,0.8C392.5,122.3,392.7,122.6,392.6,123.1 M417.5,147.9
	c-1.2,0.5-2.4,0.6-3.5,0.6c-2.4,0-4.3-0.9-4.9-2.5c-0.8-2.4,1.5-5.5,5.2-6.8c1.2-0.5,2.4-0.6,3.4-0.6c2.4,0,4.3,0.9,4.9,2.5
	C423.6,143.4,421.3,146.5,417.5,147.9 M425.2,140.2c-1-2.6-3.8-4.3-7.3-4.3c-1.4,0-3,0.3-4.3,0.8c-2.3,0.8-4.2,2.2-5.5,3.9
	c-1.2,1.6-1.7,3.3-1.5,5l-10,3.6l-11.7-4.3c0.5-3-1.4-6.1-4.4-7.2l0,0l0,0l-10.4-3.8c-0.7-0.3-1.4,0.1-1.7,0.8
	c-0.3,0.7,0.1,1.4,0.8,1.7l10.4,3.8l0,0l0,0c2.2,0.8,3.3,3.1,2.5,5.1c-0.7,2.1-3.1,3.1-5.2,2.3l0,0l0,0l-10.4-3.8
	c-0.7-0.3-1.4,0.1-1.7,0.8c-0.3,0.7,0.1,1.4,0.8,1.7l10.4,3.8l0,0l0,0c3.1,1.1,6.4-0.1,8.1-2.7l8.8,3.2l-15.7,5.7
	c-0.7,0.3-1,1-0.8,1.7c0.3,0.7,1,1,1.7,0.8l18.6-6.8l18.8,6.9c0.7,0.3,1.4-0.1,1.7-0.8c0.3-0.7-0.1-1.4-0.8-1.7l-15.8-5.8l7.1-2.5
	c1.3,1.9,3.7,3.1,6.8,3.1c1.4,0,3-0.3,4.3-0.8c2.3-0.8,4.2-2.2,5.5-3.9C425.5,144.4,426,142.2,425.2,140.2 M367.1,141.4l10.4,3.8
	c0.7,0.3,1.4-0.1,1.7-0.8c0.3-0.7-0.1-1.4-0.8-1.7l-10.4-3.8c-0.7-0.3-1.4,0.1-1.7,0.8C366.2,140.4,366.5,141.2,367.1,141.4
	 M429.4,183.2c0-0.6,0.4-1,1-1c0.5,0,0.8,0.3,1.1,0.9l1.7,3.9h0.1l1.7-3.9c0.3-0.6,0.5-0.9,1.1-0.9s0.9,0.4,0.9,1v6.3
	c0,0.5-0.4,0.8-0.8,0.8s-0.8-0.3-0.8-0.8v-3.9h-0.1l-1.3,2.9c-0.3,0.5-0.5,0.7-0.8,0.7c-0.4,0-0.6-0.2-0.8-0.7l-1.3-2.9H431v3.9
	c0,0.5-0.4,0.8-0.8,0.8c-0.5,0-0.8-0.3-0.8-0.8L429.4,183.2L429.4,183.2z M421.3,187.2V183c0-0.5,0.4-0.9,0.9-0.9
	c0.5,0,0.9,0.4,0.9,0.9v4.3c0,1,0.5,1.5,1.4,1.5c0.8,0,1.4-0.5,1.4-1.5V183c0-0.5,0.4-0.9,0.9-0.9s0.9,0.4,0.9,0.9v4.3
	c0,2-1.3,3.1-3.1,3.1C422.6,190.3,421.3,189.2,421.3,187.2 M414.4,182.9c0-0.5,0.3-0.7,0.7-0.7h3.9c0.5,0,0.8,0.4,0.8,0.7
	c0,0.5-0.4,0.7-0.8,0.7h-2.8c-0.1,0-0.1,0-0.1,0.1v1.6c0,0.1,0,0.1,0.1,0.1h2.3c0.5,0,0.8,0.3,0.8,0.7c0,0.5-0.3,0.7-0.8,0.7h-2.3
	c-0.1,0-0.1,0-0.1,0.1v1.6c0,0.1,0,0.1,0.1,0.1h2.8c0.5,0,0.8,0.4,0.8,0.7c0,0.5-0.4,0.7-0.8,0.7h-3.9c-0.5,0-0.7-0.3-0.7-0.7V182.9
	z M407.1,189.7c-0.3-0.2-0.5-0.5-0.5-0.7c0-0.5,0.4-0.7,0.8-0.7c0.2,0,0.4,0.1,0.5,0.2c0.6,0.4,1.2,0.5,1.7,0.5
	c0.8,0,1.4-0.4,1.4-0.9c0-0.5-0.3-0.7-1.3-0.9l-0.5-0.1c-1.6-0.2-2.5-1-2.5-2.4c0-1.4,1.1-2.4,2.8-2.4c0.9,0,1.8,0.3,2.3,0.5
	c0.3,0.2,0.5,0.5,0.5,0.7c0,0.5-0.4,0.7-0.7,0.7c-0.2,0-0.4-0.1-0.5-0.1c-0.4-0.2-0.9-0.4-1.4-0.4c-0.7,0-1.1,0.4-1.1,0.9
	c0,0.5,0.4,0.7,1.3,0.9l0.5,0.1c1.6,0.3,2.5,1,2.5,2.4s-1.1,2.5-3.2,2.5C408.5,190.3,407.7,190,407.1,189.7 M399,187.2V183
	c0-0.5,0.4-0.9,0.9-0.9c0.5,0,0.9,0.4,0.9,0.9v4.3c0,1,0.5,1.5,1.4,1.5c0.8,0,1.4-0.5,1.4-1.5V183c0-0.5,0.4-0.9,0.9-0.9
	s0.9,0.4,0.9,0.9v4.3c0,2-1.3,3.1-3.1,3.1C400.2,190.3,399,189.2,399,187.2 M389.4,183.2c0-0.6,0.4-1,1-1c0.5,0,0.8,0.3,1.1,0.9
	l1.7,3.9h0.1l1.7-3.9c0.3-0.6,0.5-0.9,1.1-0.9s0.9,0.4,0.9,1v6.3c0,0.5-0.4,0.8-0.8,0.8s-0.8-0.3-0.8-0.8v-3.9h-0.1l-1.3,2.9
	c-0.3,0.5-0.5,0.7-0.8,0.7s-0.6-0.2-0.8-0.7l-1.3-2.9H391v3.9c0,0.5-0.4,0.8-0.8,0.8s-0.8-0.3-0.8-0.8L389.4,183.2L389.4,183.2z
	 M380.7,188.7h0.8c0.8,0,1.4-0.3,1.6-0.9c0.1-0.3,0.2-0.7,0.2-1.5s-0.1-1.3-0.2-1.5c-0.2-0.6-0.8-0.9-1.6-0.9h-0.8
	c-0.1,0-0.1,0-0.1,0.1L380.7,188.7C380.7,188.6,380.7,188.7,380.7,188.7 M378.9,182.9c0-0.5,0.3-0.7,0.7-0.7h1.9
	c1.7,0,2.8,0.5,3.2,1.9c0.2,0.5,0.3,1,0.3,2.2s-0.1,1.7-0.3,2.2c-0.5,1.3-1.4,1.9-3.2,1.9h-1.9c-0.5,0-0.7-0.3-0.7-0.7V182.9z
	 M375.4,187.9c0.1-0.3,0.1-0.7,0.1-1.7c0-1,0-1.4-0.1-1.7c-0.2-0.5-0.6-0.9-1.3-0.9c-0.6,0-1.1,0.4-1.3,0.9
	c-0.1,0.3-0.1,0.7-0.1,1.7s0,1.4,0.1,1.7c0.2,0.5,0.6,0.9,1.3,0.9S375.2,188.4,375.4,187.9 M371.2,188.4c-0.2-0.5-0.2-1-0.2-2.2
	s0.1-1.6,0.2-2.2c0.5-1.3,1.5-2,2.9-2c1.4,0,2.5,0.6,2.9,2c0.2,0.5,0.2,1,0.2,2.2s-0.1,1.6-0.2,2.2c-0.5,1.3-1.5,2-2.9,2
	C372.7,190.3,371.6,189.7,371.2,188.4 M367.6,187.9c0.1-0.3,0.1-0.7,0.1-1.7c0-1,0-1.4-0.1-1.7c-0.2-0.5-0.6-0.9-1.3-0.9
	c-0.6,0-1.1,0.4-1.3,0.9c-0.1,0.3-0.1,0.7-0.1,1.7s0,1.4,0.1,1.7c0.2,0.5,0.6,0.9,1.3,0.9C367,188.8,367.4,188.4,367.6,187.9
	 M363.4,188.4c-0.2-0.5-0.2-1-0.2-2.2s0.1-1.6,0.2-2.2c0.5-1.3,1.5-2,2.9-2c1.4,0,2.5,0.6,2.9,2c0.2,0.5,0.2,1,0.2,2.2
	s-0.1,1.6-0.2,2.2c-0.5,1.3-1.5,2-2.9,2C364.9,190.3,363.8,189.7,363.4,188.4 M356.9,182.9c0-0.5,0.3-0.7,0.7-0.7h3.9
	c0.5,0,0.8,0.4,0.8,0.7c0,0.5-0.4,0.7-0.8,0.7h-2.8c-0.1,0-0.1,0-0.1,0.1v1.7c0,0.1,0,0.1,0.1,0.1h2.3c0.5,0,0.8,0.3,0.8,0.7
	s-0.3,0.7-0.8,0.7h-2.3c-0.1,0-0.1,0-0.1,0.1v2.3c0,0.5-0.4,0.9-0.9,0.9s-0.9-0.4-0.9-0.9L356.9,182.9L356.9,182.9z M424.2,174.4
	c0-1.2,0.1-1.6,0.2-2.2c0.5-1.3,1.5-2,3-2c1.3,0,2.2,0.5,2.6,1.3c0.1,0.2,0.2,0.4,0.2,0.5c0,0.5-0.4,0.8-0.8,0.8
	c-0.3,0-0.5-0.1-0.7-0.5c-0.3-0.5-0.7-0.6-1.2-0.6c-0.7,0-1.1,0.4-1.3,0.9c-0.1,0.3-0.1,0.6-0.1,1.7c0,1,0,1.4,0.1,1.7
	c0.2,0.5,0.6,0.9,1.4,0.9c0.6,0,1.1-0.4,1.3-0.8c0.1-0.2,0.1-0.5,0.1-0.8c0-0.1,0-0.1-0.1-0.1h-0.5c-0.5,0-0.7-0.3-0.7-0.7
	c0-0.5,0.3-0.7,0.7-0.7h1.6c0.5,0,0.7,0.3,0.7,0.7v0.1c0,0.7-0.1,1.4-0.2,1.8c-0.5,1.3-1.5,2-2.9,2c-1.4,0-2.5-0.6-3-2
	C424.2,176,424.2,175.6,424.2,174.4 M416.3,171.3c0-0.6,0.4-1,1-1c0.5,0,0.8,0.3,1.2,0.8l2.4,4.3h0.1V171c0-0.5,0.4-0.8,0.8-0.8
	c0.5,0,0.8,0.3,0.8,0.8v6.3c0,0.6-0.4,1-1,1c-0.5,0-0.8-0.3-1.2-0.8l-2.4-4.3h-0.1v4.3c0,0.5-0.4,0.8-0.8,0.8s-0.8-0.3-0.8-0.8
	V171.3z M412.4,171.2c0-0.5,0.4-0.9,0.9-0.9c0.5,0,0.9,0.4,0.9,0.9v6.3c0,0.5-0.4,0.9-0.9,0.9s-0.9-0.4-0.9-0.9V171.2z M407.3,177.6
	v-5.6c0-0.1,0-0.1-0.1-0.1h-1.4c-0.5,0-0.9-0.4-0.9-0.7c0-0.5,0.4-0.8,0.9-0.8h4.6c0.5,0,0.9,0.4,0.9,0.8c0,0.5-0.4,0.7-0.9,0.7
	h-1.4c-0.1,0-0.1,0-0.1,0.1v5.6c0,0.5-0.4,0.9-0.9,0.9C407.7,178.5,407.3,178.1,407.3,177.6 M398.5,177.8c-0.3-0.2-0.5-0.5-0.5-0.7
	c0-0.5,0.4-0.7,0.8-0.7c0.2,0,0.4,0.1,0.5,0.2c0.6,0.4,1.2,0.5,1.7,0.5c0.8,0,1.4-0.4,1.4-0.9c0-0.5-0.3-0.7-1.3-0.9l-0.5-0.1
	c-1.6-0.2-2.5-1-2.5-2.4c0-1.4,1.1-2.4,2.8-2.4c0.9,0,1.8,0.3,2.3,0.5c0.3,0.2,0.5,0.5,0.5,0.7c0,0.5-0.4,0.7-0.7,0.7
	c-0.2,0-0.4-0.1-0.5-0.1c-0.4-0.2-0.9-0.4-1.4-0.4c-0.7,0-1.1,0.4-1.1,0.9c0,0.5,0.4,0.7,1.3,0.9l0.5,0.1c1.6,0.3,2.5,1,2.5,2.4
	s-1.1,2.5-3.2,2.5C399.8,178.5,399,178.2,398.5,177.8 M390.3,175.4v-4.3c0-0.5,0.4-0.9,0.9-0.9c0.5,0,0.9,0.4,0.9,0.9v4.3
	c0,1,0.5,1.5,1.4,1.5c0.8,0,1.4-0.5,1.4-1.5v-4.3c0-0.5,0.4-0.9,0.9-0.9s0.9,0.4,0.9,0.9v4.3c0,2-1.3,3.1-3.1,3.1
	C391.5,178.5,390.3,177.4,390.3,175.4 M382.3,174.4c0-1.2,0.1-1.6,0.2-2.2c0.5-1.3,1.5-2,3-2c1.3,0,2.2,0.5,2.6,1.3
	c0.1,0.2,0.2,0.4,0.2,0.5c0,0.5-0.4,0.8-0.8,0.8c-0.3,0-0.5-0.1-0.7-0.5c-0.3-0.5-0.7-0.6-1.2-0.6c-0.7,0-1.1,0.4-1.3,0.9
	c-0.1,0.3-0.1,0.6-0.1,1.7c0,1,0,1.4,0.1,1.7c0.2,0.5,0.6,0.9,1.3,0.9s1.1-0.4,1.3-0.8c0.1-0.2,0.1-0.5,0.1-0.8c0-0.1,0-0.1-0.1-0.1
	h-0.5c-0.5,0-0.7-0.3-0.7-0.7c0-0.5,0.3-0.7,0.7-0.7h1.6c0.5,0,0.7,0.3,0.7,0.7v0.1c0,0.7-0.1,1.4-0.2,1.8c-0.5,1.3-1.5,2-2.9,2
	c-1.4,0-2.5-0.6-3-2C382.3,176,382.3,175.6,382.3,174.4 M375.3,177.8c-0.3-0.2-0.5-0.5-0.5-0.7c0-0.5,0.4-0.7,0.8-0.7
	c0.2,0,0.4,0.1,0.5,0.2c0.6,0.4,1.2,0.5,1.7,0.5c0.8,0,1.3-0.4,1.3-0.9c0-0.5-0.3-0.7-1.3-0.9l-0.5-0.1c-1.6-0.2-2.5-1-2.5-2.4
	c0-1.4,1.1-2.4,2.8-2.4c0.9,0,1.8,0.3,2.3,0.5c0.3,0.2,0.5,0.5,0.5,0.7c0,0.5-0.4,0.7-0.7,0.7c-0.2,0-0.4-0.1-0.5-0.1
	c-0.4-0.2-0.9-0.4-1.4-0.4c-0.7,0-1.1,0.4-1.1,0.9c0,0.5,0.4,0.7,1.3,0.9l0.5,0.1c1.6,0.3,2.5,1,2.5,2.4s-1.1,2.5-3.2,2.5
	C376.7,178.5,375.8,178.2,375.3,177.8 M371.5,171.2c0-0.5,0.4-0.9,0.9-0.9c0.5,0,0.9,0.4,0.9,0.9v6.3c0,0.5-0.4,0.9-0.9,0.9
	s-0.9-0.4-0.9-0.9V171.2z M365.3,176.8h0.8c0.8,0,1.4-0.3,1.6-0.9c0.1-0.3,0.2-0.7,0.2-1.5s-0.1-1.3-0.2-1.5
	c-0.2-0.6-0.8-0.9-1.6-0.9h-0.8c-0.1,0-0.1,0-0.1,0.1L365.3,176.8C365.2,176.8,365.2,176.8,365.3,176.8 M363.5,171.1
	c0-0.5,0.3-0.7,0.7-0.7h1.9c1.7,0,2.8,0.5,3.2,1.9c0.2,0.5,0.3,1,0.3,2.2c0,1.2-0.1,1.7-0.3,2.2c-0.5,1.4-1.4,1.9-3.2,1.9h-1.9
	c-0.5,0-0.7-0.3-0.7-0.7V171.1z"/>
<path class="st0" d="M407,371.9l-1.2-5.2c-0.1-0.5-0.5-0.7-0.9-0.6c-0.2,0.1-0.4,0.2-0.5,0.4c-0.1,0.2-0.1,0.4-0.1,0.6l0.8,3.3
	l-2.7-3c-0.5-0.5-0.8-0.6-1.2-0.5c-0.5,0.1-0.8,0.5-0.6,1.2l1.2,5.2c0.1,0.4,0.4,0.6,0.7,0.6c0.1,0,0.1,0,0.2,0
	c0.5-0.1,0.6-0.5,0.5-0.9l-0.8-3.3l2.7,3c0.5,0.5,0.8,0.6,1.2,0.5c0.3-0.1,0.5-0.2,0.5-0.4C407,372.5,407.1,372.2,407,371.9
	 M397.3,369.7c0,0.5-0.4,0.8-0.9,0.8l0,0h-1.1v-1.6h1.1c0.3,0,0.5,0.1,0.6,0.3C397.3,369.2,397.3,369.5,397.3,369.7 M396.6,367.4
	h-2.1c-0.2,0-0.4,0.1-0.5,0.2c-0.1,0.1-0.2,0.3-0.2,0.5l-0.1,5.4c0,0.5,0.4,0.9,0.8,0.9l0,0c0.2,0,0.5-0.1,0.5-0.2
	c0.2-0.2,0.3-0.4,0.3-0.6V372h1.2c0.7,0,1.4-0.2,1.8-0.6c0.5-0.4,0.6-0.9,0.7-1.6c0-0.6-0.2-1.3-0.6-1.6
	C397.9,367.7,397.3,367.4,396.6,367.4 M391.2,366.8c-0.2-0.1-0.5,0-0.6,0.1c-0.2,0.1-0.3,0.3-0.4,0.5l-0.9,3.6
	c-0.2,0.7-0.5,1-1.1,0.8c-0.2-0.1-0.4-0.2-0.5-0.3c-0.2-0.2-0.3-0.4-0.5-0.4c-0.2-0.1-0.4,0-0.5,0.1c-0.2,0.1-0.3,0.3-0.4,0.5
	c-0.1,0.2,0,0.4,0.1,0.6c0.2,0.5,0.8,0.8,1.4,1c0.3,0.1,0.5,0.1,0.8,0.1c0.5,0,0.8-0.1,1.2-0.3c0.5-0.4,0.9-0.9,1.1-1.7l0.9-3.5
	c0.1-0.3,0-0.5-0.1-0.6C391.7,367,391.5,366.9,391.2,366.8 M403.4,332.8c0.1,0.6,0.6,1.1,1.3,1.1c0.1,0,0.2,0,0.3,0
	c0.7-0.2,1.2-0.8,1-1.5c-0.3-1.4-0.5-1.9-1.2-3.1l-0.2-0.3c-0.4-0.6-1.2-0.9-1.8-0.5c-0.6,0.4-0.9,1.2-0.5,1.8l0.2,0.3
	C403.1,331.7,403.2,331.8,403.4,332.8 M402.3,333.2c-0.3-1.4-0.5-1.9-1.2-3.1l-0.2-0.3c-0.4-0.6-1.2-0.9-1.8-0.5
	c-0.6,0.4-0.9,1.2-0.5,1.8l0.2,0.3c0.6,1.1,0.7,1.3,0.9,2.3c0.1,0.6,0.6,1.1,1.3,1.1c0.1,0,0.2,0,0.3,0
	C402.1,334.6,402.5,333.9,402.3,333.2 M415.7,338.1c-2.4-1.5-6.2-1.4-12.9,0.5c-0.7,0.2-1.1,0.9-0.9,1.6c0.2,0.7,0.9,1.1,1.6,0.9
	c2.1-0.5,8.3-2.4,10.8-0.8c0.4,0.3,0.9,0.7,1.1,2c0.2,1.3,0,2.2-0.6,2.9c-1.1,1.3-3.6,2-7.9,2.3c-0.7,0-1.3,0.6-1.3,1.4
	c0,0.7,0.6,1.3,1.4,1.3h0.1c5.2-0.3,8.1-1.3,9.8-3.3c1.1-1.3,1.4-2.9,1.2-5C417.7,340.2,416.9,338.9,415.7,338.1 M402.2,336.5
	c-0.1-0.7-0.7-1.3-1.4-1.2c-0.9,0.1-1.6,0.2-2.4,0.3c-0.1-1.2-0.2-2.4-0.3-3.7c-0.1-0.7-0.7-1.3-1.4-1.2s-1.3,0.7-1.2,1.4
	c0.1,1.4,0.2,2.5,0.3,3.7c-2,0.2-3.7,0.2-6.4,0.1c-0.7,0-1.4,0.5-1.4,1.3c0,0.7,0.5,1.4,1.3,1.4c1,0,1.9,0,2.7,0
	c1.4,0,2.5,0,3.8-0.1c0.1,5.7-1,8.7-4.9,10.1c-0.7,0.3-1,1-0.8,1.7c0.2,0.5,0.7,0.9,1.3,0.9c0.2,0,0.3,0,0.5-0.1
	c5.7-2.1,6.8-6.9,6.6-12.8c0.7-0.1,1.6-0.2,2.5-0.3C401.8,338,402.3,337.3,402.2,336.5 M386,331c-0.7-0.2-1.4,0.3-1.6,1
	c-1.4,5.7-1.4,11.3-0.2,17.1c0.1,0.6,0.7,1.1,1.3,1.1c0.1,0,0.2,0,0.3,0c0.7-0.2,1.2-0.8,1-1.5c-1.2-5.4-1.1-10.6,0.2-15.9
	C387.1,331.9,386.7,331.2,386,331 M368.6,333.6c2.6,0.5,7.1,1,9.9,1.2h0.1c0.7,0,1.3-0.5,1.4-1.3c0-0.7-0.5-1.4-1.3-1.4
	c-2.7-0.2-7-0.6-9.5-1.1c-0.7-0.2-1.4,0.4-1.5,1C367.4,332.8,367.9,333.6,368.6,333.6 M380.2,346.2c1.2-1.5,1.6-3.3,1.4-5.3
	c-0.2-1.4-1-2.6-2.2-3.3c-4-2.4-11.9,0-13.3,0.5c-0.7,0.3-1.1,1-0.8,1.7c0.3,0.7,1,1.1,1.6,0.8c3.8-1.3,9-2.1,11.1-0.8
	c0.5,0.4,0.9,0.8,1,1.4c0.2,1.3-0.1,2.4-0.8,3.3c-1.4,1.8-4.5,3.3-8.1,3.7c-0.7,0.1-1.3,0.7-1.2,1.4c0.1,0.6,0.6,1.2,1.3,1.2
	c0.1,0,0.1,0,0.2,0C374.7,350.4,378.4,348.7,380.2,346.2 M426.7,331c-0.7-0.2-1.4,0.2-1.6,0.9l-2.9,10.6c-0.2,0.7,0.2,1.4,0.9,1.6
	c0.1,0,0.3,0.1,0.4,0.1c0.5,0,1.1-0.4,1.3-1l2.9-10.6C427.9,331.9,427.4,331.2,426.7,331 M422.2,346c-0.9,0-1.6,0.7-1.6,1.6
	c0,0.9,0.7,1.6,1.6,1.6c0.9,0,1.6-0.7,1.6-1.6C423.8,346.8,423.1,346,422.2,346 M412.5,355.4c-4.1,4.3-9.8,6.7-15.7,6.7
	c-5.9,0-11.6-2.4-15.7-6.7c-0.5-0.5-1.4-0.5-1.9,0s-0.5,1.4,0,1.9c4.6,4.8,10.9,7.5,17.6,7.5c6.6,0,13-2.7,17.6-7.5
	c0.5-0.5,0.5-1.4,0-1.9C413.8,354.8,413,354.9,412.5,355.4 M381.4,325c4.1-4.1,9.7-6.4,15.5-6.4c7.2,0,13.9,3.5,18,9.5
	c0.3,0.4,0.6,0.5,1.1,0.5c0.3,0,0.5-0.1,0.7-0.3c0.6-0.5,0.7-1.3,0.4-1.8c-4.5-6.7-12.1-10.7-20.2-10.7c-6.4,0-12.8,2.6-17.4,7.2
	c-0.5,0.5-0.5,1.4,0,1.9C380,325.6,380.8,325.6,381.4,325 M396.6,300.8c21.9,0,39.5,17.7,39.5,39.5c0,21.9-17.7,39.5-39.5,39.5
	c-21.9,0-39.5-17.7-39.5-39.5C357.1,318.5,374.7,300.8,396.6,300.8 M396.6,303.4c-20.4,0-36.9,16.6-36.9,36.9
	c0,20.4,16.6,36.9,36.9,36.9s36.9-16.6,36.9-36.9C433.6,320,417,303.4,396.6,303.4 M403.3,313.3c0.4,0.1,0.6,0,0.9-0.5l1.4-1.9
	l-0.7,2.9c-0.1,0.3,0,0.5,0.1,0.6c0.1,0.2,0.3,0.3,0.5,0.4c0.1,0,0.2,0,0.2,0c0.4,0,0.6-0.2,0.7-0.6l1.3-5.2c0.1-0.3,0-0.5-0.1-0.7
	c-0.1-0.2-0.3-0.4-0.5-0.4c-0.5-0.1-0.8,0.1-1.1,0.5l-2.1,2.7l-0.6-3.3c-0.1-0.5-0.3-0.9-0.7-1c-0.3-0.1-0.5,0-0.7,0.1
	c-0.2,0.1-0.4,0.4-0.4,0.6l-1.3,5.2c-0.1,0.3,0,0.5,0.1,0.6c0.1,0.2,0.3,0.3,0.5,0.4c0.5,0.1,0.8-0.1,0.9-0.6l0.7-2.9l0.5,2.4
	C402.7,313,402.9,313.2,403.3,313.3 M395,313.5L395,313.5c0.5,0,0.8-0.4,0.8-0.9v-1.9h1.9c0.3,0,0.5-0.1,0.5-0.2s0.2-0.3,0.2-0.5
	c0-0.2-0.1-0.4-0.2-0.5c-0.2-0.1-0.4-0.2-0.5-0.2h-1.9v-1.4h2.4c0.5,0,0.7-0.3,0.7-0.7s-0.3-0.7-0.7-0.7l0,0l-3.3,0.1
	c-0.5,0-0.7,0.3-0.7,0.7l0.1,5.4C394.2,313.1,394.5,313.5,395,313.5 M388.1,313.3L388.1,313.3L388.1,313.3L388.1,313.3L388.1,313.3z
	 M389.6,310.7c-0.2-0.5-0.4-1-0.5-1.2c-0.3-0.5-0.7-0.5-1.4-0.4l-0.6,0.2l1.1,3.9l0.6-0.2c0.6-0.2,1-0.5,1-1
	C389.9,311.7,389.8,311.3,389.6,310.7 M391.1,310.3c0.3,1,0.4,1.4,0.3,1.8c-0.1,1.2-0.7,1.9-2.3,2.3l-1.5,0.5c-0.1,0-0.2,0-0.3,0
	c-0.3,0-0.5-0.2-0.6-0.5l-1.4-5.2c-0.1-0.5,0.1-0.8,0.5-0.9l1.5-0.5c1.4-0.5,2.4-0.2,3.1,0.8C390.7,308.8,390.9,309.3,391.1,310.3
	 M429.4,434.3c0,0.5,0.4,0.8,0.8,0.8s0.8-0.3,0.8-0.8v-3.9h0.1l1.3,2.9c0.3,0.5,0.5,0.7,0.8,0.7c0.4,0,0.6-0.2,0.8-0.7l1.3-2.9h0.1
	v3.9c0,0.5,0.4,0.8,0.8,0.8s0.8-0.3,0.8-0.8v-6.3c0-0.6-0.4-1.1-0.9-1.1s-0.8,0.3-1.1,0.9l-1.7,3.9h-0.1l-1.7-3.9
	c-0.3-0.6-0.5-0.9-1.1-0.9s-1,0.4-1,1.1L429.4,434.3L429.4,434.3z M424.4,435.2c1.8,0,3.1-1.1,3.1-3.1v-4.3c0-0.5-0.4-0.9-0.9-0.9
	c-0.5,0-0.9,0.4-0.9,0.9v4.3c0,1-0.5,1.5-1.4,1.5c-0.7,0-1.4-0.5-1.4-1.5v-4.3c0-0.5-0.4-0.9-0.9-0.9s-0.9,0.4-0.9,0.9v4.3
	C421.3,434.1,422.6,435.2,424.4,435.2 M414.4,434.3c0,0.5,0.3,0.7,0.7,0.7h3.9c0.5,0,0.8-0.4,0.8-0.7c0-0.5-0.4-0.7-0.8-0.7h-2.8
	c-0.1,0-0.1,0-0.1-0.1v-1.6c0-0.1,0-0.1,0.1-0.1h2.3c0.5,0,0.8-0.3,0.8-0.7s-0.3-0.7-0.8-0.7h-2.3c-0.1,0-0.1,0-0.1-0.1v-1.6
	c0-0.1,0-0.1,0.1-0.1h2.8c0.5,0,0.8-0.4,0.8-0.7c0-0.5-0.4-0.7-0.8-0.7h-3.9c-0.5,0-0.7,0.3-0.7,0.7V434.3z M409.7,435.2
	c2.1,0,3.2-1.1,3.2-2.5s-0.9-2.2-2.5-2.4l-0.5-0.1c-0.9-0.1-1.3-0.5-1.3-0.9c0-0.5,0.4-0.9,1.1-0.9c0.5,0,1,0.2,1.4,0.4
	c0.2,0.1,0.4,0.1,0.5,0.1c0.5,0,0.7-0.4,0.7-0.7c0-0.3-0.1-0.5-0.5-0.7c-0.5-0.3-1.4-0.5-2.3-0.5c-1.7,0-2.8,1-2.8,2.4
	c0,1.4,0.9,2.2,2.5,2.4l0.5,0.1c1,0.1,1.3,0.5,1.3,0.9c0,0.5-0.5,0.9-1.3,0.9c-0.6,0-1.1-0.2-1.7-0.5c-0.2-0.1-0.4-0.2-0.5-0.2
	c-0.5,0-0.8,0.4-0.8,0.7c0,0.3,0.2,0.5,0.5,0.7C407.7,434.8,408.5,435.2,409.7,435.2 M402.1,435.2c1.8,0,3.1-1.1,3.1-3.1v-4.3
	c0-0.5-0.4-0.9-0.9-0.9c-0.5,0-0.9,0.4-0.9,0.9v4.3c0,1-0.5,1.5-1.4,1.5c-0.7,0-1.4-0.5-1.4-1.5v-4.3c0-0.5-0.4-0.9-0.9-0.9
	s-0.9,0.4-0.9,0.9v4.3C399,434.1,400.2,435.2,402.1,435.2 M389.4,434.3c0,0.5,0.4,0.8,0.8,0.8c0.5,0,0.8-0.3,0.8-0.8v-3.9h0.1
	l1.3,2.9c0.3,0.5,0.5,0.7,0.8,0.7c0.4,0,0.6-0.2,0.8-0.7l1.3-2.9h0.1v3.9c0,0.5,0.4,0.8,0.8,0.8s0.8-0.3,0.8-0.8v-6.3
	c0-0.6-0.4-1.1-0.9-1.1s-0.8,0.3-1.1,0.9l-1.7,3.9h-0.1l-1.7-3.9c-0.3-0.6-0.5-0.9-1.1-0.9s-1,0.4-1,1.1L389.4,434.3L389.4,434.3z
	 M380.7,433.4v-4.8c0-0.1,0-0.1,0.1-0.1h0.8c0.8,0,1.4,0.3,1.6,0.9c0.1,0.3,0.2,0.7,0.2,1.5s-0.1,1.3-0.2,1.5
	c-0.2,0.6-0.8,0.9-1.6,0.9L380.7,433.4C380.7,433.5,380.7,433.5,380.7,433.4 M378.9,434.3c0,0.5,0.3,0.7,0.7,0.7h1.9
	c1.7,0,2.8-0.5,3.2-1.9c0.2-0.5,0.3-1,0.3-2.2c0-1.2-0.1-1.7-0.3-2.2c-0.5-1.3-1.4-1.8-3.2-1.8h-1.9c-0.5,0-0.7,0.3-0.7,0.7V434.3z
	 M374.1,433.6c-0.6,0-1.1-0.4-1.3-0.9c-0.1-0.3-0.1-0.7-0.1-1.7c0-1.1,0-1.4,0.1-1.7c0.2-0.5,0.6-0.9,1.3-0.9c0.6,0,1.1,0.4,1.3,0.9
	c0.1,0.3,0.1,0.7,0.1,1.7s0,1.4-0.1,1.7C375.2,433.4,374.7,433.6,374.1,433.6 M374.1,435.2c1.4,0,2.5-0.6,2.9-2
	c0.2-0.5,0.2-1,0.2-2.2c0-1.2-0.1-1.6-0.2-2.2c-0.5-1.3-1.5-2-2.9-2c-1.4,0-2.5,0.6-2.9,2c-0.2,0.5-0.2,1-0.2,2.2
	c0,1.2,0.1,1.6,0.2,2.2C371.6,434.5,372.7,435.2,374.1,435.2 M366.3,433.6c-0.6,0-1.1-0.4-1.3-0.9c-0.1-0.3-0.1-0.7-0.1-1.7
	c0-1.1,0-1.4,0.1-1.7c0.2-0.5,0.6-0.9,1.3-0.9c0.6,0,1.1,0.4,1.3,0.9c0.1,0.3,0.1,0.7,0.1,1.7s0,1.4-0.1,1.7
	C367.4,433.4,367,433.6,366.3,433.6 M366.3,435.2c1.4,0,2.5-0.6,2.9-2c0.2-0.5,0.2-1,0.2-2.2c0-1.2-0.1-1.6-0.2-2.2
	c-0.5-1.3-1.5-2-2.9-2s-2.5,0.6-2.9,2c-0.2,0.5-0.2,1-0.2,2.2c0,1.2,0.1,1.6,0.2,2.2C363.8,434.5,364.9,435.2,366.3,435.2
	 M356.9,434.3c0,0.5,0.4,0.9,0.9,0.9c0.5,0,0.9-0.4,0.9-0.9V432c0-0.1,0-0.1,0.1-0.1h2.3c0.5,0,0.8-0.3,0.8-0.7
	c0-0.5-0.3-0.7-0.8-0.7h-2.3c-0.1,0-0.1,0-0.1-0.1v-1.7c0-0.1,0-0.1,0.1-0.1h2.8c0.5,0,0.8-0.4,0.8-0.7c0-0.5-0.4-0.7-0.8-0.7h-3.9
	c-0.5,0-0.7,0.3-0.7,0.7L356.9,434.3L356.9,434.3z M424.4,421.4c0.5,1.3,1.5,2,3,2c1.4,0,2.5-0.7,2.9-2c0.2-0.5,0.2-1.1,0.2-1.8
	v-0.1c0-0.5-0.3-0.7-0.7-0.7h-1.6c-0.5,0-0.7,0.3-0.7,0.7c0,0.5,0.3,0.7,0.7,0.7h0.5c0.1,0,0.1,0,0.1,0.1c0,0.3,0,0.5-0.1,0.8
	c-0.2,0.5-0.6,0.8-1.3,0.8c-0.7,0-1.2-0.4-1.4-0.9c-0.1-0.3-0.1-0.7-0.1-1.7s0-1.4,0.1-1.7c0.2-0.5,0.6-0.9,1.3-0.9
	c0.5,0,0.9,0.2,1.2,0.6c0.3,0.4,0.5,0.5,0.7,0.5c0.5,0,0.8-0.4,0.8-0.8c0-0.2-0.1-0.4-0.2-0.5c-0.5-0.7-1.4-1.3-2.6-1.3
	c-1.4,0-2.5,0.6-3,2c-0.2,0.5-0.2,1-0.2,2.2C424.2,420.4,424.2,420.9,424.4,421.4 M416.3,422.5c0,0.5,0.4,0.8,0.8,0.8
	s0.8-0.3,0.8-0.8v-4.3h0.1l2.4,4.3c0.4,0.5,0.6,0.8,1.2,0.8c0.6,0,1-0.4,1-1V416c0-0.5-0.4-0.8-0.8-0.8c-0.5,0-0.8,0.3-0.8,0.8v4.4
	h-0.1l-2.4-4.3c-0.4-0.5-0.6-0.8-1.2-0.8c-0.6,0-1,0.4-1,1V422.5z M412.4,422.4c0,0.5,0.4,0.9,0.9,0.9c0.5,0,0.9-0.4,0.9-0.9v-6.3
	c0-0.5-0.4-0.9-0.9-0.9s-0.9,0.4-0.9,0.9V422.4z M408.2,423.3c0.5,0,0.9-0.4,0.9-0.9v-5.6c0-0.1,0-0.1,0.1-0.1h1.4
	c0.5,0,0.9-0.4,0.9-0.7c0-0.5-0.4-0.8-0.9-0.8H406c-0.5,0-0.9,0.4-0.9,0.8s0.4,0.7,0.9,0.7h1.4c0.1,0,0.1,0,0.1,0.1v5.6
	C407.3,422.9,407.7,423.3,408.2,423.3 M401,423.4c2.1,0,3.2-1.1,3.2-2.5c0-1.4-0.9-2.2-2.5-2.4l-0.5-0.1c-0.9-0.1-1.3-0.5-1.3-0.9
	c0-0.5,0.4-0.9,1.1-0.9c0.5,0,1,0.2,1.4,0.4c0.2,0.1,0.4,0.1,0.5,0.1c0.5,0,0.7-0.4,0.7-0.7c0-0.3-0.1-0.5-0.5-0.7
	c-0.5-0.3-1.4-0.5-2.3-0.5c-1.7,0-2.8,1-2.8,2.4c0,1.4,0.9,2.2,2.5,2.4l0.5,0.1c1,0.1,1.3,0.5,1.3,0.9c0,0.5-0.5,0.9-1.4,0.9
	c-0.6,0-1.1-0.2-1.7-0.5c-0.2-0.1-0.4-0.2-0.5-0.2c-0.5,0-0.8,0.4-0.8,0.7c0,0.3,0.2,0.5,0.5,0.7C399,423,399.8,423.4,401,423.4
	 M393.4,423.4c1.8,0,3.1-1.1,3.1-3.1v-4.3c0-0.5-0.4-0.9-0.9-0.9c-0.5,0-0.9,0.4-0.9,0.9v4.3c0,1-0.5,1.5-1.4,1.5
	c-0.7,0-1.4-0.5-1.4-1.5v-4.3c0-0.5-0.4-0.9-0.9-0.9s-0.9,0.4-0.9,0.9v4.3C390.3,422.3,391.5,423.4,393.4,423.4 M382.5,421.4
	c0.5,1.3,1.5,2,3,2s2.5-0.7,2.9-2c0.2-0.5,0.2-1.1,0.2-1.8v-0.1c0-0.5-0.3-0.7-0.7-0.7h-1.6c-0.5,0-0.7,0.3-0.7,0.7
	c0,0.5,0.3,0.7,0.7,0.7h0.5c0.1,0,0.1,0,0.1,0.1c0,0.3,0,0.5-0.1,0.8c-0.2,0.5-0.6,0.8-1.3,0.8c-0.7,0-1.2-0.4-1.3-0.9
	c-0.1-0.3-0.1-0.7-0.1-1.7s0-1.4,0.1-1.7c0.2-0.5,0.6-0.9,1.3-0.9c0.5,0,0.9,0.2,1.2,0.6c0.3,0.4,0.5,0.5,0.7,0.5
	c0.5,0,0.8-0.4,0.8-0.8c0-0.2-0.1-0.4-0.2-0.5c-0.5-0.7-1.4-1.3-2.6-1.3c-1.4,0-2.5,0.6-3,2c-0.2,0.5-0.2,1-0.2,2.2
	C382.3,420.4,382.3,420.9,382.5,421.4 M377.8,423.4c2.1,0,3.2-1.1,3.2-2.5c0-1.4-0.9-2.2-2.5-2.4l-0.5-0.1c-0.9-0.1-1.3-0.5-1.3-0.9
	c0-0.5,0.4-0.9,1.1-0.9c0.5,0,1,0.2,1.4,0.4c0.2,0.1,0.4,0.1,0.5,0.1c0.5,0,0.7-0.4,0.7-0.7c0-0.3-0.1-0.5-0.5-0.7
	c-0.5-0.3-1.4-0.5-2.3-0.5c-1.7,0-2.8,1-2.8,2.4c0,1.4,0.9,2.2,2.5,2.4l0.5,0.1c1,0.1,1.3,0.5,1.3,0.9c0,0.5-0.5,0.9-1.4,0.9
	c-0.6,0-1.1-0.2-1.7-0.5c-0.2-0.1-0.4-0.2-0.5-0.2c-0.5,0-0.8,0.4-0.8,0.7c0,0.3,0.2,0.5,0.5,0.7C375.8,423,376.7,423.4,377.8,423.4
	 M371.5,422.4c0,0.5,0.4,0.9,0.9,0.9c0.5,0,0.9-0.4,0.9-0.9v-6.3c0-0.5-0.4-0.9-0.9-0.9s-0.9,0.4-0.9,0.9V422.4z M365.2,421.6v-4.8
	c0-0.1,0-0.1,0.1-0.1h0.8c0.8,0,1.4,0.3,1.6,0.9c0.1,0.3,0.2,0.7,0.2,1.5c0,0.8-0.1,1.3-0.2,1.5c-0.2,0.6-0.8,0.9-1.6,0.9
	L365.2,421.6C365.2,421.7,365.2,421.7,365.2,421.6 M363.5,422.5c0,0.5,0.3,0.7,0.7,0.7h1.9c1.7,0,2.8-0.5,3.2-1.8
	c0.2-0.5,0.3-1,0.3-2.2s-0.1-1.7-0.3-2.2c-0.5-1.4-1.4-1.9-3.2-1.9h-1.9c-0.5,0-0.7,0.3-0.7,0.7V422.5z M422.8,385.9
	c-0.5-1.6-2.5-2.5-4.9-2.5c-1.1,0-2.3,0.2-3.4,0.6c-3.7,1.4-6.1,4.4-5.2,6.8c0.5,1.6,2.5,2.5,4.9,2.5c1.1,0,2.3-0.2,3.5-0.6
	C421.3,391.5,423.6,388.3,422.8,385.9 M424,391.4c-1.3,1.7-3.3,3.1-5.5,3.9c-1.4,0.5-2.9,0.8-4.3,0.8c-3,0-5.5-1.2-6.8-3.1l-7.1,2.5
	l15.8,5.8c0.7,0.3,1,1,0.8,1.7c-0.3,0.7-1,1-1.7,0.8l-18.8-6.9l-18.6,6.8c-0.7,0.3-1.4-0.1-1.7-0.8c-0.3-0.7,0.1-1.4,0.8-1.7
	l15.7-5.7l-8.8-3.2c-1.6,2.6-5,3.8-8.1,2.7l0,0l0,0l-10.4-3.8c-0.7-0.3-1-1-0.8-1.7c0.3-0.7,1-1,1.7-0.8l10.6,3.8l0,0l0,0
	c2.2,0.8,4.4-0.3,5.2-2.3c0.7-2.1-0.4-4.3-2.5-5.1l0,0l0,0l-10.4-3.8c-0.7-0.3-1-1-0.8-1.7c0.3-0.7,1-1,1.7-0.8l10.4,3.8l0,0l0,0
	c3.1,1.1,4.9,4.2,4.4,7.2l11.7,4.3l10-3.6c-0.2-1.6,0.4-3.4,1.5-5c1.3-1.7,3.3-3.1,5.5-3.9c1.4-0.5,2.9-0.8,4.3-0.8
	c3.6,0,6.4,1.6,7.3,4.3C426,387,425.5,389.3,424,391.4 M366.3,384.6c0.3-0.7,1-1,1.7-0.8l10.4,3.8c0.7,0.3,1,1,0.8,1.7
	c-0.3,0.7-1,1-1.7,0.8l-10.4-3.8C366.5,386,366.2,385.3,366.3,384.6"/>
</svg>
