<svg id="Ebene_1" data-name="Ebene 1" xmlns="http://www.w3.org/2000/svg" viewBox="0 0 294.76 283.41"><defs><style>.cls-1{fill:#010101;}</style></defs><path class="cls-1" d="M75.42,253.38,65.29,245.2l2.11-2.61L80.32,253,63,274.43,50.41,264.24l2.11-2.61,9.82,7.93L68,262.61l-8.57-6.93L61.52,253,70.1,260Z" transform="translate(-2.16 -8.46)"/><path class="cls-1" d="M55.38,234.21l-7.06-8.78,2.62-2.1,9.33,11.61L38.82,252.18l-2.28-2.83Z" transform="translate(-2.16 -8.46)"/><path class="cls-1" d="M40.2,221l-1.61-3.21c2.12-1.2,3.3-4.38,1.65-7.67s-4.56-3.92-6.74-2.83c-2.39,1.2-2.37,3.91-1.86,6.25l.8,3.57c1.37,5.84-1.29,8.21-3.29,9.21-4.25,2.13-9-.26-11.17-4.54s-1.15-9.16,3.24-11.37l1.61,3.22c-2.46,1.23-3.12,4.11-1.8,6.75,1.24,2.46,4,3.92,6.45,2.71.86-.43,2.43-1.58,1.64-5.29l-.75-3.65c-1-4.73-.1-8.3,3.4-10,3.82-1.92,8.91-.59,11.47,4.52S44,219.07,40.2,221Z" transform="translate(-2.16 -8.46)"/><path class="cls-1" d="M31.35,188.36l-3.13-12.64,3.26-.8,4,16.13L8.76,197.66l-3.9-15.74,3.26-.81,3,12.25,8.68-2.15-2.64-10.7,3.29-.81,2.65,10.7Z" transform="translate(-2.16 -8.46)"/><path class="cls-1" d="M3.39,136.12l.16-3.87,27.12,10.39-.12,3.15L13,150.05l17.16,5.6L30,158.8,2.16,167l.16-3.87,22-6.15-17.8-5.83.11-2.75L24.78,144Z" transform="translate(-2.16 -8.46)"/><path class="cls-1" d="M13.63,99.65l1.23-3.42,25.9,9.3L39.54,109l-11.32-4.06-4.56,12.7L35,121.65l-1.23,3.42-25.9-9.29,1.22-3.42,11.47,4.11,4.56-12.7Z" transform="translate(-2.16 -8.46)"/><path class="cls-1" d="M45.74,90.12,53,79.32l2.79,1.87L46.52,95,23.69,79.61l9.06-13.45L35.53,68l-7,10.47,7.42,5,6.16-9.15,2.81,1.9-6.15,9.14Z" transform="translate(-2.16 -8.46)"/><path class="cls-1" d="M73.21,63.62,60.85,60.88l-2.61,2.41,7,7.64L62.6,73.39,44,53.15l7.61-7c4.41-4.06,9-2.46,11.93.68,2.71,2.94,3.9,7.6.53,11.19l12.39,2.66ZM48.9,53.15,56,60.85,60.22,57c3-2.73,2.71-5.37.6-7.66s-4.87-2.63-6.93-.74Z" transform="translate(-2.16 -8.46)"/><path class="cls-1" d="M86.51,50.17l11.37-6.34,1.64,2.93L85,54.85l-13.41-24,14.16-7.9,1.64,2.93L76.37,32l4.36,7.81,9.63-5.36,1.65,3-9.62,5.37Z" transform="translate(-2.16 -8.46)"/><path class="cls-1" d="M141.68,28.17A7.71,7.71,0,0,1,134.87,37l-11.1,1.64-4-27.22L130,9.92c4.51-.67,7.75,1.6,8.38,5.87.35,2.37-.17,4.91-2.59,6.27C139.08,22.3,141.24,25.21,141.68,28.17ZM130.43,13.24l-6.59,1,1.18,8,6.72-1c2.44-.37,3.42-2.25,3.07-4.58S132.92,12.88,130.43,13.24Zm3.2,20.56c3.36-.49,4.78-2.88,4.41-5.41a4.61,4.61,0,0,0-5.6-4l-7,1,1.38,9.4Z" transform="translate(-2.16 -8.46)"/><path class="cls-1" d="M167.47,37.27l-6.16-11.05-3.54-.35-1,10.33-3.62-.36,2.74-27.38,10.29,1c6,.6,7.84,5.12,7.41,9.37-.39,4-3.08,8-8,7.83l6.24,11Zm-8.33-25.11-1,10.41,5.72.57c4,.4,5.82-1.55,6.13-4.65s-1.27-5.38-4-5.66Z" transform="translate(-2.16 -8.46)"/><path class="cls-1" d="M198.06,46l-.13-7.56-11.13-4-4.91,5.75-3.57-1.28,19.15-22.37,3.61,1.3.55,29.43ZM189,31.85,197.88,35l-.22-13.36Z" transform="translate(-2.16 -8.46)"/><path class="cls-1" d="M237.78,37.75l3,2L225.27,62.53l-2.9-2,1.33-24.48L211.87,53.39l-3-2,15.52-22.73,3,2L226,55Z" transform="translate(-2.16 -8.46)"/><path class="cls-1" d="M262.08,60.82c5.05,6,3.44,13.36-2.55,18.41s-13.43,5.33-18.48-.66l-6.88-8.15,21-17.75ZM243.61,76.41c3.74,4.43,9.09,3.83,13.58,0s6.06-9,2.33-13.47L255,57.61,239.08,71Z" transform="translate(-2.16 -8.46)"/><path class="cls-1" d="M290.29,112.79c2.28,7.49-2.12,13.62-9.62,15.89s-14.44-.42-16.71-7.91l-3.09-10.2,26.33-8Zm-23.12,7c1.68,5.54,6.83,7.11,12.45,5.4s9.14-5.9,7.46-11.44L285,107l-19.91,6Z" transform="translate(-2.16 -8.46)"/><path class="cls-1" d="M272.22,146.36l.58,13-3.35.15-.74-16.59,27.48-1.24.74,16.2-3.36.15L293,145.42l-8.94.4.49,11-3.39.16-.49-11Z" transform="translate(-2.16 -8.46)"/><path class="cls-1" d="M276.53,169.51l-.66,3.54c-2.41-.33-5.27,1.5-5.94,5.11s1.27,5.88,3.66,6.33c2.63.48,4.26-1.69,5.27-3.86l1.51-3.34c2.44-5.48,6-5.75,8.18-5.35,4.67.87,7,5.65,6.16,10.37s-4.61,8-9.44,7.1l.66-3.53c2.71.5,5-1.4,5.51-4.3.5-2.71-.84-5.56-3.51-6.06-.95-.17-2.89-.2-4.5,3.23l-1.6,3.36c-2.07,4.37-4.93,6.69-8.78,6-4.2-.77-7.46-4.91-6.42-10.53S272.32,168.77,276.53,169.51Z" transform="translate(-2.16 -8.46)"/><path class="cls-1" d="M261.92,196.5l25.7,9.84-1.3,3.39-25.7-9.84Z" transform="translate(-2.16 -8.46)"/><path class="cls-1" d="M268.48,217.1a14.08,14.08,0,0,1,4.38,19.48,13.64,13.64,0,0,1-8.07,5.81l-.6-3.4a10.25,10.25,0,0,0,5.86-4.24c3.15-4.85,1.4-11.38-3.56-14.6a10.55,10.55,0,0,0-14.69,2.73c-2.7,4.15-2.11,9.39,1.57,11.79l4.36-6.69,2.64,1.72-6.53,10c-8.07-5.25-9.12-12.13-4.85-18.69A14,14,0,0,1,268.48,217.1Z" transform="translate(-2.16 -8.46)"/><path class="cls-1" d="M241.6,270.42l-2.73,2.39-18.12-20.72,2.65-2.31,23.36,7.43L233,241.42,235.7,239l18.11,20.72-2.7,2.36-23.26-7.42Z" transform="translate(-2.16 -8.46)"/><path class="cls-1" d="M149.6,291.86a136.32,136.32,0,0,1-66.2-17.15l1.55-2.8a133.07,133.07,0,0,0,129.3,0l1.56,2.8A136.33,136.33,0,0,1,149.6,291.86Z" transform="translate(-2.16 -8.46)"/><path class="cls-1" d="M168.48,96.43l2.23-5.15A2,2,0,1,0,167,89.69l-8.69,20.1a38.21,38.21,0,0,0-30.29,70l-8.68,20.09a2,2,0,0,0,3.66,1.59l2.23-5.16A54,54,0,0,0,143.19,200v15.29H127.3v4h15.89v.11h4v-.11h16.42v-4H147.19V200a54.47,54.47,0,0,0,21.29-103.6ZM113.67,132a34.21,34.21,0,1,1,17.73,45A33.91,33.91,0,0,1,113.67,132Zm77.67,33.77a50.54,50.54,0,0,1-64.48,27l4.87-11.28a38.21,38.21,0,0,0,30.29-70l4.87-11.27A50.53,50.53,0,0,1,191.34,165.73Z" transform="translate(-2.16 -8.46)"/></svg>